%TF.GenerationSoftware,KiCad,Pcbnew,8.0.5*%
%TF.CreationDate,2025-09-19T14:59:48-05:00*%
%TF.ProjectId,OnboardingHornsBoardv1.0,4f6e626f-6172-4646-996e-67486f726e73,1.0*%
%TF.SameCoordinates,Original*%
%TF.FileFunction,Drillmap*%
%TF.FilePolarity,Positive*%
%FSLAX45Y45*%
G04 Gerber Fmt 4.5, Leading zero omitted, Abs format (unit mm)*
G04 Created by KiCad (PCBNEW 8.0.5) date 2025-09-19 14:59:48*
%MOMM*%
%LPD*%
G01*
G04 APERTURE LIST*
%ADD10C,0.100000*%
%ADD11C,0.200000*%
G04 APERTURE END LIST*
D10*
X16600000Y-7650000D02*
X16600000Y-9550000D01*
X16300000Y-7350000D02*
G75*
G02*
X16600000Y-7650000I0J-300000D01*
G01*
X13400000Y-7350000D02*
X16300000Y-7350000D01*
X13100000Y-7650000D02*
G75*
G02*
X13400000Y-7350000I300000J0D01*
G01*
X13100000Y-9550000D02*
X13100000Y-7650000D01*
X13400000Y-9850000D02*
G75*
G02*
X13100000Y-9550000I0J300000D01*
G01*
X16300000Y-9850000D02*
X13400000Y-9850000D01*
X16600000Y-9550000D02*
G75*
G02*
X16300000Y-9850000I-300000J0D01*
G01*
D11*
D10*
X13330000Y-9005000D02*
X13370000Y-9045000D01*
X13370000Y-9005000D02*
X13330000Y-9045000D01*
X13955000Y-9030000D02*
X13995000Y-9070000D01*
X13995000Y-9030000D02*
X13955000Y-9070000D01*
D11*
X13355777Y-10166484D02*
X13355777Y-9966484D01*
X13355777Y-9966484D02*
X13403396Y-9966484D01*
X13403396Y-9966484D02*
X13431967Y-9976008D01*
X13431967Y-9976008D02*
X13451015Y-9995055D01*
X13451015Y-9995055D02*
X13460539Y-10014103D01*
X13460539Y-10014103D02*
X13470062Y-10052198D01*
X13470062Y-10052198D02*
X13470062Y-10080770D01*
X13470062Y-10080770D02*
X13460539Y-10118865D01*
X13460539Y-10118865D02*
X13451015Y-10137912D01*
X13451015Y-10137912D02*
X13431967Y-10156960D01*
X13431967Y-10156960D02*
X13403396Y-10166484D01*
X13403396Y-10166484D02*
X13355777Y-10166484D01*
X13555777Y-10166484D02*
X13555777Y-10033150D01*
X13555777Y-10071246D02*
X13565301Y-10052198D01*
X13565301Y-10052198D02*
X13574824Y-10042674D01*
X13574824Y-10042674D02*
X13593872Y-10033150D01*
X13593872Y-10033150D02*
X13612920Y-10033150D01*
X13679586Y-10166484D02*
X13679586Y-10033150D01*
X13679586Y-9966484D02*
X13670062Y-9976008D01*
X13670062Y-9976008D02*
X13679586Y-9985531D01*
X13679586Y-9985531D02*
X13689110Y-9976008D01*
X13689110Y-9976008D02*
X13679586Y-9966484D01*
X13679586Y-9966484D02*
X13679586Y-9985531D01*
X13803396Y-10166484D02*
X13784348Y-10156960D01*
X13784348Y-10156960D02*
X13774824Y-10137912D01*
X13774824Y-10137912D02*
X13774824Y-9966484D01*
X13908158Y-10166484D02*
X13889110Y-10156960D01*
X13889110Y-10156960D02*
X13879586Y-10137912D01*
X13879586Y-10137912D02*
X13879586Y-9966484D01*
X14136729Y-10166484D02*
X14136729Y-9966484D01*
X14136729Y-9966484D02*
X14203396Y-10109341D01*
X14203396Y-10109341D02*
X14270062Y-9966484D01*
X14270062Y-9966484D02*
X14270062Y-10166484D01*
X14451015Y-10166484D02*
X14451015Y-10061722D01*
X14451015Y-10061722D02*
X14441491Y-10042674D01*
X14441491Y-10042674D02*
X14422443Y-10033150D01*
X14422443Y-10033150D02*
X14384348Y-10033150D01*
X14384348Y-10033150D02*
X14365301Y-10042674D01*
X14451015Y-10156960D02*
X14431967Y-10166484D01*
X14431967Y-10166484D02*
X14384348Y-10166484D01*
X14384348Y-10166484D02*
X14365301Y-10156960D01*
X14365301Y-10156960D02*
X14355777Y-10137912D01*
X14355777Y-10137912D02*
X14355777Y-10118865D01*
X14355777Y-10118865D02*
X14365301Y-10099817D01*
X14365301Y-10099817D02*
X14384348Y-10090293D01*
X14384348Y-10090293D02*
X14431967Y-10090293D01*
X14431967Y-10090293D02*
X14451015Y-10080770D01*
X14546253Y-10033150D02*
X14546253Y-10233150D01*
X14546253Y-10042674D02*
X14565301Y-10033150D01*
X14565301Y-10033150D02*
X14603396Y-10033150D01*
X14603396Y-10033150D02*
X14622443Y-10042674D01*
X14622443Y-10042674D02*
X14631967Y-10052198D01*
X14631967Y-10052198D02*
X14641491Y-10071246D01*
X14641491Y-10071246D02*
X14641491Y-10128389D01*
X14641491Y-10128389D02*
X14631967Y-10147436D01*
X14631967Y-10147436D02*
X14622443Y-10156960D01*
X14622443Y-10156960D02*
X14603396Y-10166484D01*
X14603396Y-10166484D02*
X14565301Y-10166484D01*
X14565301Y-10166484D02*
X14546253Y-10156960D01*
X14727205Y-10147436D02*
X14736729Y-10156960D01*
X14736729Y-10156960D02*
X14727205Y-10166484D01*
X14727205Y-10166484D02*
X14717682Y-10156960D01*
X14717682Y-10156960D02*
X14727205Y-10147436D01*
X14727205Y-10147436D02*
X14727205Y-10166484D01*
X14727205Y-10042674D02*
X14736729Y-10052198D01*
X14736729Y-10052198D02*
X14727205Y-10061722D01*
X14727205Y-10061722D02*
X14717682Y-10052198D01*
X14717682Y-10052198D02*
X14727205Y-10042674D01*
X14727205Y-10042674D02*
X14727205Y-10061722D01*
D10*
X13055000Y-10475000D02*
X13095000Y-10515000D01*
X13095000Y-10475000D02*
X13055000Y-10515000D01*
D11*
X13393872Y-10386484D02*
X13412920Y-10386484D01*
X13412920Y-10386484D02*
X13431967Y-10396008D01*
X13431967Y-10396008D02*
X13441491Y-10405531D01*
X13441491Y-10405531D02*
X13451015Y-10424579D01*
X13451015Y-10424579D02*
X13460539Y-10462674D01*
X13460539Y-10462674D02*
X13460539Y-10510293D01*
X13460539Y-10510293D02*
X13451015Y-10548389D01*
X13451015Y-10548389D02*
X13441491Y-10567436D01*
X13441491Y-10567436D02*
X13431967Y-10576960D01*
X13431967Y-10576960D02*
X13412920Y-10586484D01*
X13412920Y-10586484D02*
X13393872Y-10586484D01*
X13393872Y-10586484D02*
X13374824Y-10576960D01*
X13374824Y-10576960D02*
X13365301Y-10567436D01*
X13365301Y-10567436D02*
X13355777Y-10548389D01*
X13355777Y-10548389D02*
X13346253Y-10510293D01*
X13346253Y-10510293D02*
X13346253Y-10462674D01*
X13346253Y-10462674D02*
X13355777Y-10424579D01*
X13355777Y-10424579D02*
X13365301Y-10405531D01*
X13365301Y-10405531D02*
X13374824Y-10396008D01*
X13374824Y-10396008D02*
X13393872Y-10386484D01*
X13546253Y-10567436D02*
X13555777Y-10576960D01*
X13555777Y-10576960D02*
X13546253Y-10586484D01*
X13546253Y-10586484D02*
X13536729Y-10576960D01*
X13536729Y-10576960D02*
X13546253Y-10567436D01*
X13546253Y-10567436D02*
X13546253Y-10586484D01*
X13727205Y-10453150D02*
X13727205Y-10586484D01*
X13679586Y-10376960D02*
X13631967Y-10519817D01*
X13631967Y-10519817D02*
X13755777Y-10519817D01*
X13870062Y-10386484D02*
X13889110Y-10386484D01*
X13889110Y-10386484D02*
X13908158Y-10396008D01*
X13908158Y-10396008D02*
X13917682Y-10405531D01*
X13917682Y-10405531D02*
X13927205Y-10424579D01*
X13927205Y-10424579D02*
X13936729Y-10462674D01*
X13936729Y-10462674D02*
X13936729Y-10510293D01*
X13936729Y-10510293D02*
X13927205Y-10548389D01*
X13927205Y-10548389D02*
X13917682Y-10567436D01*
X13917682Y-10567436D02*
X13908158Y-10576960D01*
X13908158Y-10576960D02*
X13889110Y-10586484D01*
X13889110Y-10586484D02*
X13870062Y-10586484D01*
X13870062Y-10586484D02*
X13851015Y-10576960D01*
X13851015Y-10576960D02*
X13841491Y-10567436D01*
X13841491Y-10567436D02*
X13831967Y-10548389D01*
X13831967Y-10548389D02*
X13822443Y-10510293D01*
X13822443Y-10510293D02*
X13822443Y-10462674D01*
X13822443Y-10462674D02*
X13831967Y-10424579D01*
X13831967Y-10424579D02*
X13841491Y-10405531D01*
X13841491Y-10405531D02*
X13851015Y-10396008D01*
X13851015Y-10396008D02*
X13870062Y-10386484D01*
X14060539Y-10386484D02*
X14079586Y-10386484D01*
X14079586Y-10386484D02*
X14098634Y-10396008D01*
X14098634Y-10396008D02*
X14108158Y-10405531D01*
X14108158Y-10405531D02*
X14117682Y-10424579D01*
X14117682Y-10424579D02*
X14127205Y-10462674D01*
X14127205Y-10462674D02*
X14127205Y-10510293D01*
X14127205Y-10510293D02*
X14117682Y-10548389D01*
X14117682Y-10548389D02*
X14108158Y-10567436D01*
X14108158Y-10567436D02*
X14098634Y-10576960D01*
X14098634Y-10576960D02*
X14079586Y-10586484D01*
X14079586Y-10586484D02*
X14060539Y-10586484D01*
X14060539Y-10586484D02*
X14041491Y-10576960D01*
X14041491Y-10576960D02*
X14031967Y-10567436D01*
X14031967Y-10567436D02*
X14022443Y-10548389D01*
X14022443Y-10548389D02*
X14012920Y-10510293D01*
X14012920Y-10510293D02*
X14012920Y-10462674D01*
X14012920Y-10462674D02*
X14022443Y-10424579D01*
X14022443Y-10424579D02*
X14031967Y-10405531D01*
X14031967Y-10405531D02*
X14041491Y-10396008D01*
X14041491Y-10396008D02*
X14060539Y-10386484D01*
X14212920Y-10586484D02*
X14212920Y-10453150D01*
X14212920Y-10472198D02*
X14222443Y-10462674D01*
X14222443Y-10462674D02*
X14241491Y-10453150D01*
X14241491Y-10453150D02*
X14270063Y-10453150D01*
X14270063Y-10453150D02*
X14289110Y-10462674D01*
X14289110Y-10462674D02*
X14298634Y-10481722D01*
X14298634Y-10481722D02*
X14298634Y-10586484D01*
X14298634Y-10481722D02*
X14308158Y-10462674D01*
X14308158Y-10462674D02*
X14327205Y-10453150D01*
X14327205Y-10453150D02*
X14355777Y-10453150D01*
X14355777Y-10453150D02*
X14374824Y-10462674D01*
X14374824Y-10462674D02*
X14384348Y-10481722D01*
X14384348Y-10481722D02*
X14384348Y-10586484D01*
X14479586Y-10586484D02*
X14479586Y-10453150D01*
X14479586Y-10472198D02*
X14489110Y-10462674D01*
X14489110Y-10462674D02*
X14508158Y-10453150D01*
X14508158Y-10453150D02*
X14536729Y-10453150D01*
X14536729Y-10453150D02*
X14555777Y-10462674D01*
X14555777Y-10462674D02*
X14565301Y-10481722D01*
X14565301Y-10481722D02*
X14565301Y-10586484D01*
X14565301Y-10481722D02*
X14574824Y-10462674D01*
X14574824Y-10462674D02*
X14593872Y-10453150D01*
X14593872Y-10453150D02*
X14622443Y-10453150D01*
X14622443Y-10453150D02*
X14641491Y-10462674D01*
X14641491Y-10462674D02*
X14651015Y-10481722D01*
X14651015Y-10481722D02*
X14651015Y-10586484D01*
X15041491Y-10376960D02*
X14870063Y-10634103D01*
X15298634Y-10386484D02*
X15317682Y-10386484D01*
X15317682Y-10386484D02*
X15336729Y-10396008D01*
X15336729Y-10396008D02*
X15346253Y-10405531D01*
X15346253Y-10405531D02*
X15355777Y-10424579D01*
X15355777Y-10424579D02*
X15365301Y-10462674D01*
X15365301Y-10462674D02*
X15365301Y-10510293D01*
X15365301Y-10510293D02*
X15355777Y-10548389D01*
X15355777Y-10548389D02*
X15346253Y-10567436D01*
X15346253Y-10567436D02*
X15336729Y-10576960D01*
X15336729Y-10576960D02*
X15317682Y-10586484D01*
X15317682Y-10586484D02*
X15298634Y-10586484D01*
X15298634Y-10586484D02*
X15279586Y-10576960D01*
X15279586Y-10576960D02*
X15270063Y-10567436D01*
X15270063Y-10567436D02*
X15260539Y-10548389D01*
X15260539Y-10548389D02*
X15251015Y-10510293D01*
X15251015Y-10510293D02*
X15251015Y-10462674D01*
X15251015Y-10462674D02*
X15260539Y-10424579D01*
X15260539Y-10424579D02*
X15270063Y-10405531D01*
X15270063Y-10405531D02*
X15279586Y-10396008D01*
X15279586Y-10396008D02*
X15298634Y-10386484D01*
X15451015Y-10567436D02*
X15460539Y-10576960D01*
X15460539Y-10576960D02*
X15451015Y-10586484D01*
X15451015Y-10586484D02*
X15441491Y-10576960D01*
X15441491Y-10576960D02*
X15451015Y-10567436D01*
X15451015Y-10567436D02*
X15451015Y-10586484D01*
X15584348Y-10386484D02*
X15603396Y-10386484D01*
X15603396Y-10386484D02*
X15622444Y-10396008D01*
X15622444Y-10396008D02*
X15631967Y-10405531D01*
X15631967Y-10405531D02*
X15641491Y-10424579D01*
X15641491Y-10424579D02*
X15651015Y-10462674D01*
X15651015Y-10462674D02*
X15651015Y-10510293D01*
X15651015Y-10510293D02*
X15641491Y-10548389D01*
X15641491Y-10548389D02*
X15631967Y-10567436D01*
X15631967Y-10567436D02*
X15622444Y-10576960D01*
X15622444Y-10576960D02*
X15603396Y-10586484D01*
X15603396Y-10586484D02*
X15584348Y-10586484D01*
X15584348Y-10586484D02*
X15565301Y-10576960D01*
X15565301Y-10576960D02*
X15555777Y-10567436D01*
X15555777Y-10567436D02*
X15546253Y-10548389D01*
X15546253Y-10548389D02*
X15536729Y-10510293D01*
X15536729Y-10510293D02*
X15536729Y-10462674D01*
X15536729Y-10462674D02*
X15546253Y-10424579D01*
X15546253Y-10424579D02*
X15555777Y-10405531D01*
X15555777Y-10405531D02*
X15565301Y-10396008D01*
X15565301Y-10396008D02*
X15584348Y-10386484D01*
X15841491Y-10586484D02*
X15727206Y-10586484D01*
X15784348Y-10586484D02*
X15784348Y-10386484D01*
X15784348Y-10386484D02*
X15765301Y-10415055D01*
X15765301Y-10415055D02*
X15746253Y-10434103D01*
X15746253Y-10434103D02*
X15727206Y-10443627D01*
X16022444Y-10386484D02*
X15927206Y-10386484D01*
X15927206Y-10386484D02*
X15917682Y-10481722D01*
X15917682Y-10481722D02*
X15927206Y-10472198D01*
X15927206Y-10472198D02*
X15946253Y-10462674D01*
X15946253Y-10462674D02*
X15993872Y-10462674D01*
X15993872Y-10462674D02*
X16012920Y-10472198D01*
X16012920Y-10472198D02*
X16022444Y-10481722D01*
X16022444Y-10481722D02*
X16031967Y-10500770D01*
X16031967Y-10500770D02*
X16031967Y-10548389D01*
X16031967Y-10548389D02*
X16022444Y-10567436D01*
X16022444Y-10567436D02*
X16012920Y-10576960D01*
X16012920Y-10576960D02*
X15993872Y-10586484D01*
X15993872Y-10586484D02*
X15946253Y-10586484D01*
X15946253Y-10586484D02*
X15927206Y-10576960D01*
X15927206Y-10576960D02*
X15917682Y-10567436D01*
X16098634Y-10386484D02*
X16231967Y-10386484D01*
X16231967Y-10386484D02*
X16146253Y-10586484D01*
X16298634Y-10386484D02*
X16298634Y-10424579D01*
X16374825Y-10386484D02*
X16374825Y-10424579D01*
X16670063Y-10662674D02*
X16660539Y-10653150D01*
X16660539Y-10653150D02*
X16641491Y-10624579D01*
X16641491Y-10624579D02*
X16631968Y-10605531D01*
X16631968Y-10605531D02*
X16622444Y-10576960D01*
X16622444Y-10576960D02*
X16612920Y-10529341D01*
X16612920Y-10529341D02*
X16612920Y-10491246D01*
X16612920Y-10491246D02*
X16622444Y-10443627D01*
X16622444Y-10443627D02*
X16631968Y-10415055D01*
X16631968Y-10415055D02*
X16641491Y-10396008D01*
X16641491Y-10396008D02*
X16660539Y-10367436D01*
X16660539Y-10367436D02*
X16670063Y-10357912D01*
X16736729Y-10405531D02*
X16746253Y-10396008D01*
X16746253Y-10396008D02*
X16765301Y-10386484D01*
X16765301Y-10386484D02*
X16812920Y-10386484D01*
X16812920Y-10386484D02*
X16831968Y-10396008D01*
X16831968Y-10396008D02*
X16841491Y-10405531D01*
X16841491Y-10405531D02*
X16851015Y-10424579D01*
X16851015Y-10424579D02*
X16851015Y-10443627D01*
X16851015Y-10443627D02*
X16841491Y-10472198D01*
X16841491Y-10472198D02*
X16727206Y-10586484D01*
X16727206Y-10586484D02*
X16851015Y-10586484D01*
X17089111Y-10586484D02*
X17089111Y-10386484D01*
X17174825Y-10586484D02*
X17174825Y-10481722D01*
X17174825Y-10481722D02*
X17165301Y-10462674D01*
X17165301Y-10462674D02*
X17146253Y-10453150D01*
X17146253Y-10453150D02*
X17117682Y-10453150D01*
X17117682Y-10453150D02*
X17098634Y-10462674D01*
X17098634Y-10462674D02*
X17089111Y-10472198D01*
X17298634Y-10586484D02*
X17279587Y-10576960D01*
X17279587Y-10576960D02*
X17270063Y-10567436D01*
X17270063Y-10567436D02*
X17260539Y-10548389D01*
X17260539Y-10548389D02*
X17260539Y-10491246D01*
X17260539Y-10491246D02*
X17270063Y-10472198D01*
X17270063Y-10472198D02*
X17279587Y-10462674D01*
X17279587Y-10462674D02*
X17298634Y-10453150D01*
X17298634Y-10453150D02*
X17327206Y-10453150D01*
X17327206Y-10453150D02*
X17346253Y-10462674D01*
X17346253Y-10462674D02*
X17355777Y-10472198D01*
X17355777Y-10472198D02*
X17365301Y-10491246D01*
X17365301Y-10491246D02*
X17365301Y-10548389D01*
X17365301Y-10548389D02*
X17355777Y-10567436D01*
X17355777Y-10567436D02*
X17346253Y-10576960D01*
X17346253Y-10576960D02*
X17327206Y-10586484D01*
X17327206Y-10586484D02*
X17298634Y-10586484D01*
X17479587Y-10586484D02*
X17460539Y-10576960D01*
X17460539Y-10576960D02*
X17451015Y-10557912D01*
X17451015Y-10557912D02*
X17451015Y-10386484D01*
X17631968Y-10576960D02*
X17612920Y-10586484D01*
X17612920Y-10586484D02*
X17574825Y-10586484D01*
X17574825Y-10586484D02*
X17555777Y-10576960D01*
X17555777Y-10576960D02*
X17546253Y-10557912D01*
X17546253Y-10557912D02*
X17546253Y-10481722D01*
X17546253Y-10481722D02*
X17555777Y-10462674D01*
X17555777Y-10462674D02*
X17574825Y-10453150D01*
X17574825Y-10453150D02*
X17612920Y-10453150D01*
X17612920Y-10453150D02*
X17631968Y-10462674D01*
X17631968Y-10462674D02*
X17641492Y-10481722D01*
X17641492Y-10481722D02*
X17641492Y-10500770D01*
X17641492Y-10500770D02*
X17546253Y-10519817D01*
X17717682Y-10576960D02*
X17736730Y-10586484D01*
X17736730Y-10586484D02*
X17774825Y-10586484D01*
X17774825Y-10586484D02*
X17793873Y-10576960D01*
X17793873Y-10576960D02*
X17803396Y-10557912D01*
X17803396Y-10557912D02*
X17803396Y-10548389D01*
X17803396Y-10548389D02*
X17793873Y-10529341D01*
X17793873Y-10529341D02*
X17774825Y-10519817D01*
X17774825Y-10519817D02*
X17746253Y-10519817D01*
X17746253Y-10519817D02*
X17727206Y-10510293D01*
X17727206Y-10510293D02*
X17717682Y-10491246D01*
X17717682Y-10491246D02*
X17717682Y-10481722D01*
X17717682Y-10481722D02*
X17727206Y-10462674D01*
X17727206Y-10462674D02*
X17746253Y-10453150D01*
X17746253Y-10453150D02*
X17774825Y-10453150D01*
X17774825Y-10453150D02*
X17793873Y-10462674D01*
X17870063Y-10662674D02*
X17879587Y-10653150D01*
X17879587Y-10653150D02*
X17898634Y-10624579D01*
X17898634Y-10624579D02*
X17908158Y-10605531D01*
X17908158Y-10605531D02*
X17917682Y-10576960D01*
X17917682Y-10576960D02*
X17927206Y-10529341D01*
X17927206Y-10529341D02*
X17927206Y-10491246D01*
X17927206Y-10491246D02*
X17917682Y-10443627D01*
X17917682Y-10443627D02*
X17908158Y-10415055D01*
X17908158Y-10415055D02*
X17898634Y-10396008D01*
X17898634Y-10396008D02*
X17879587Y-10367436D01*
X17879587Y-10367436D02*
X17870063Y-10357912D01*
M02*
