%TF.GenerationSoftware,KiCad,Pcbnew,8.0.5*%
%TF.CreationDate,2025-09-19T15:00:01-05:00*%
%TF.ProjectId,OnboardingHornsBoardv1.0,4f6e626f-6172-4646-996e-67486f726e73,1.0*%
%TF.SameCoordinates,Original*%
%TF.FileFunction,Legend,Top*%
%TF.FilePolarity,Positive*%
%FSLAX46Y46*%
G04 Gerber Fmt 4.6, Leading zero omitted, Abs format (unit mm)*
G04 Created by KiCad (PCBNEW 8.0.5) date 2025-09-19 15:00:01*
%MOMM*%
%LPD*%
G01*
G04 APERTURE LIST*
%ADD10C,0.150000*%
%ADD11C,0.120000*%
G04 APERTURE END LIST*
D10*
X146403333Y-83774819D02*
X146070000Y-83298628D01*
X145831905Y-83774819D02*
X145831905Y-82774819D01*
X145831905Y-82774819D02*
X146212857Y-82774819D01*
X146212857Y-82774819D02*
X146308095Y-82822438D01*
X146308095Y-82822438D02*
X146355714Y-82870057D01*
X146355714Y-82870057D02*
X146403333Y-82965295D01*
X146403333Y-82965295D02*
X146403333Y-83108152D01*
X146403333Y-83108152D02*
X146355714Y-83203390D01*
X146355714Y-83203390D02*
X146308095Y-83251009D01*
X146308095Y-83251009D02*
X146212857Y-83298628D01*
X146212857Y-83298628D02*
X145831905Y-83298628D01*
X147355714Y-83774819D02*
X146784286Y-83774819D01*
X147070000Y-83774819D02*
X147070000Y-82774819D01*
X147070000Y-82774819D02*
X146974762Y-82917676D01*
X146974762Y-82917676D02*
X146879524Y-83012914D01*
X146879524Y-83012914D02*
X146784286Y-83060533D01*
X140004819Y-79208333D02*
X140719104Y-79208333D01*
X140719104Y-79208333D02*
X140861961Y-79255952D01*
X140861961Y-79255952D02*
X140957200Y-79351190D01*
X140957200Y-79351190D02*
X141004819Y-79494047D01*
X141004819Y-79494047D02*
X141004819Y-79589285D01*
X140004819Y-78827380D02*
X140004819Y-78208333D01*
X140004819Y-78208333D02*
X140385771Y-78541666D01*
X140385771Y-78541666D02*
X140385771Y-78398809D01*
X140385771Y-78398809D02*
X140433390Y-78303571D01*
X140433390Y-78303571D02*
X140481009Y-78255952D01*
X140481009Y-78255952D02*
X140576247Y-78208333D01*
X140576247Y-78208333D02*
X140814342Y-78208333D01*
X140814342Y-78208333D02*
X140909580Y-78255952D01*
X140909580Y-78255952D02*
X140957200Y-78303571D01*
X140957200Y-78303571D02*
X141004819Y-78398809D01*
X141004819Y-78398809D02*
X141004819Y-78684523D01*
X141004819Y-78684523D02*
X140957200Y-78779761D01*
X140957200Y-78779761D02*
X140909580Y-78827380D01*
X149800057Y-75345238D02*
X149752438Y-75440476D01*
X149752438Y-75440476D02*
X149657200Y-75535714D01*
X149657200Y-75535714D02*
X149514342Y-75678571D01*
X149514342Y-75678571D02*
X149466723Y-75773809D01*
X149466723Y-75773809D02*
X149466723Y-75869047D01*
X149704819Y-75821428D02*
X149657200Y-75916666D01*
X149657200Y-75916666D02*
X149561961Y-76011904D01*
X149561961Y-76011904D02*
X149371485Y-76059523D01*
X149371485Y-76059523D02*
X149038152Y-76059523D01*
X149038152Y-76059523D02*
X148847676Y-76011904D01*
X148847676Y-76011904D02*
X148752438Y-75916666D01*
X148752438Y-75916666D02*
X148704819Y-75821428D01*
X148704819Y-75821428D02*
X148704819Y-75630952D01*
X148704819Y-75630952D02*
X148752438Y-75535714D01*
X148752438Y-75535714D02*
X148847676Y-75440476D01*
X148847676Y-75440476D02*
X149038152Y-75392857D01*
X149038152Y-75392857D02*
X149371485Y-75392857D01*
X149371485Y-75392857D02*
X149561961Y-75440476D01*
X149561961Y-75440476D02*
X149657200Y-75535714D01*
X149657200Y-75535714D02*
X149704819Y-75630952D01*
X149704819Y-75630952D02*
X149704819Y-75821428D01*
X149704819Y-74440476D02*
X149704819Y-75011904D01*
X149704819Y-74726190D02*
X148704819Y-74726190D01*
X148704819Y-74726190D02*
X148847676Y-74821428D01*
X148847676Y-74821428D02*
X148942914Y-74916666D01*
X148942914Y-74916666D02*
X148990533Y-75011904D01*
X133412080Y-85156666D02*
X133459700Y-85204285D01*
X133459700Y-85204285D02*
X133507319Y-85347142D01*
X133507319Y-85347142D02*
X133507319Y-85442380D01*
X133507319Y-85442380D02*
X133459700Y-85585237D01*
X133459700Y-85585237D02*
X133364461Y-85680475D01*
X133364461Y-85680475D02*
X133269223Y-85728094D01*
X133269223Y-85728094D02*
X133078747Y-85775713D01*
X133078747Y-85775713D02*
X132935890Y-85775713D01*
X132935890Y-85775713D02*
X132745414Y-85728094D01*
X132745414Y-85728094D02*
X132650176Y-85680475D01*
X132650176Y-85680475D02*
X132554938Y-85585237D01*
X132554938Y-85585237D02*
X132507319Y-85442380D01*
X132507319Y-85442380D02*
X132507319Y-85347142D01*
X132507319Y-85347142D02*
X132554938Y-85204285D01*
X132554938Y-85204285D02*
X132602557Y-85156666D01*
X132840652Y-84299523D02*
X133507319Y-84299523D01*
X132459700Y-84537618D02*
X133173985Y-84775713D01*
X133173985Y-84775713D02*
X133173985Y-84156666D01*
X140583333Y-91634580D02*
X140535714Y-91682200D01*
X140535714Y-91682200D02*
X140392857Y-91729819D01*
X140392857Y-91729819D02*
X140297619Y-91729819D01*
X140297619Y-91729819D02*
X140154762Y-91682200D01*
X140154762Y-91682200D02*
X140059524Y-91586961D01*
X140059524Y-91586961D02*
X140011905Y-91491723D01*
X140011905Y-91491723D02*
X139964286Y-91301247D01*
X139964286Y-91301247D02*
X139964286Y-91158390D01*
X139964286Y-91158390D02*
X140011905Y-90967914D01*
X140011905Y-90967914D02*
X140059524Y-90872676D01*
X140059524Y-90872676D02*
X140154762Y-90777438D01*
X140154762Y-90777438D02*
X140297619Y-90729819D01*
X140297619Y-90729819D02*
X140392857Y-90729819D01*
X140392857Y-90729819D02*
X140535714Y-90777438D01*
X140535714Y-90777438D02*
X140583333Y-90825057D01*
X141154762Y-91158390D02*
X141059524Y-91110771D01*
X141059524Y-91110771D02*
X141011905Y-91063152D01*
X141011905Y-91063152D02*
X140964286Y-90967914D01*
X140964286Y-90967914D02*
X140964286Y-90920295D01*
X140964286Y-90920295D02*
X141011905Y-90825057D01*
X141011905Y-90825057D02*
X141059524Y-90777438D01*
X141059524Y-90777438D02*
X141154762Y-90729819D01*
X141154762Y-90729819D02*
X141345238Y-90729819D01*
X141345238Y-90729819D02*
X141440476Y-90777438D01*
X141440476Y-90777438D02*
X141488095Y-90825057D01*
X141488095Y-90825057D02*
X141535714Y-90920295D01*
X141535714Y-90920295D02*
X141535714Y-90967914D01*
X141535714Y-90967914D02*
X141488095Y-91063152D01*
X141488095Y-91063152D02*
X141440476Y-91110771D01*
X141440476Y-91110771D02*
X141345238Y-91158390D01*
X141345238Y-91158390D02*
X141154762Y-91158390D01*
X141154762Y-91158390D02*
X141059524Y-91206009D01*
X141059524Y-91206009D02*
X141011905Y-91253628D01*
X141011905Y-91253628D02*
X140964286Y-91348866D01*
X140964286Y-91348866D02*
X140964286Y-91539342D01*
X140964286Y-91539342D02*
X141011905Y-91634580D01*
X141011905Y-91634580D02*
X141059524Y-91682200D01*
X141059524Y-91682200D02*
X141154762Y-91729819D01*
X141154762Y-91729819D02*
X141345238Y-91729819D01*
X141345238Y-91729819D02*
X141440476Y-91682200D01*
X141440476Y-91682200D02*
X141488095Y-91634580D01*
X141488095Y-91634580D02*
X141535714Y-91539342D01*
X141535714Y-91539342D02*
X141535714Y-91348866D01*
X141535714Y-91348866D02*
X141488095Y-91253628D01*
X141488095Y-91253628D02*
X141440476Y-91206009D01*
X141440476Y-91206009D02*
X141345238Y-91158390D01*
X139166666Y-81354819D02*
X139166666Y-82069104D01*
X139166666Y-82069104D02*
X139119047Y-82211961D01*
X139119047Y-82211961D02*
X139023809Y-82307200D01*
X139023809Y-82307200D02*
X138880952Y-82354819D01*
X138880952Y-82354819D02*
X138785714Y-82354819D01*
X140166666Y-82354819D02*
X139595238Y-82354819D01*
X139880952Y-82354819D02*
X139880952Y-81354819D01*
X139880952Y-81354819D02*
X139785714Y-81497676D01*
X139785714Y-81497676D02*
X139690476Y-81592914D01*
X139690476Y-81592914D02*
X139595238Y-81640533D01*
X133359580Y-83166666D02*
X133407200Y-83214285D01*
X133407200Y-83214285D02*
X133454819Y-83357142D01*
X133454819Y-83357142D02*
X133454819Y-83452380D01*
X133454819Y-83452380D02*
X133407200Y-83595237D01*
X133407200Y-83595237D02*
X133311961Y-83690475D01*
X133311961Y-83690475D02*
X133216723Y-83738094D01*
X133216723Y-83738094D02*
X133026247Y-83785713D01*
X133026247Y-83785713D02*
X132883390Y-83785713D01*
X132883390Y-83785713D02*
X132692914Y-83738094D01*
X132692914Y-83738094D02*
X132597676Y-83690475D01*
X132597676Y-83690475D02*
X132502438Y-83595237D01*
X132502438Y-83595237D02*
X132454819Y-83452380D01*
X132454819Y-83452380D02*
X132454819Y-83357142D01*
X132454819Y-83357142D02*
X132502438Y-83214285D01*
X132502438Y-83214285D02*
X132550057Y-83166666D01*
X132454819Y-82833332D02*
X132454819Y-82214285D01*
X132454819Y-82214285D02*
X132835771Y-82547618D01*
X132835771Y-82547618D02*
X132835771Y-82404761D01*
X132835771Y-82404761D02*
X132883390Y-82309523D01*
X132883390Y-82309523D02*
X132931009Y-82261904D01*
X132931009Y-82261904D02*
X133026247Y-82214285D01*
X133026247Y-82214285D02*
X133264342Y-82214285D01*
X133264342Y-82214285D02*
X133359580Y-82261904D01*
X133359580Y-82261904D02*
X133407200Y-82309523D01*
X133407200Y-82309523D02*
X133454819Y-82404761D01*
X133454819Y-82404761D02*
X133454819Y-82690475D01*
X133454819Y-82690475D02*
X133407200Y-82785713D01*
X133407200Y-82785713D02*
X133359580Y-82833332D01*
X151523809Y-86754819D02*
X151523809Y-85754819D01*
X151523809Y-86231009D02*
X152095237Y-86231009D01*
X152095237Y-86754819D02*
X152095237Y-85754819D01*
X152714285Y-86754819D02*
X152619047Y-86707200D01*
X152619047Y-86707200D02*
X152571428Y-86659580D01*
X152571428Y-86659580D02*
X152523809Y-86564342D01*
X152523809Y-86564342D02*
X152523809Y-86278628D01*
X152523809Y-86278628D02*
X152571428Y-86183390D01*
X152571428Y-86183390D02*
X152619047Y-86135771D01*
X152619047Y-86135771D02*
X152714285Y-86088152D01*
X152714285Y-86088152D02*
X152857142Y-86088152D01*
X152857142Y-86088152D02*
X152952380Y-86135771D01*
X152952380Y-86135771D02*
X152999999Y-86183390D01*
X152999999Y-86183390D02*
X153047618Y-86278628D01*
X153047618Y-86278628D02*
X153047618Y-86564342D01*
X153047618Y-86564342D02*
X152999999Y-86659580D01*
X152999999Y-86659580D02*
X152952380Y-86707200D01*
X152952380Y-86707200D02*
X152857142Y-86754819D01*
X152857142Y-86754819D02*
X152714285Y-86754819D01*
X153476190Y-86754819D02*
X153476190Y-86088152D01*
X153476190Y-86278628D02*
X153523809Y-86183390D01*
X153523809Y-86183390D02*
X153571428Y-86135771D01*
X153571428Y-86135771D02*
X153666666Y-86088152D01*
X153666666Y-86088152D02*
X153761904Y-86088152D01*
X154095238Y-86088152D02*
X154095238Y-86754819D01*
X154095238Y-86183390D02*
X154142857Y-86135771D01*
X154142857Y-86135771D02*
X154238095Y-86088152D01*
X154238095Y-86088152D02*
X154380952Y-86088152D01*
X154380952Y-86088152D02*
X154476190Y-86135771D01*
X154476190Y-86135771D02*
X154523809Y-86231009D01*
X154523809Y-86231009D02*
X154523809Y-86754819D01*
X155523809Y-86754819D02*
X154952381Y-86754819D01*
X155238095Y-86754819D02*
X155238095Y-85754819D01*
X155238095Y-85754819D02*
X155142857Y-85897676D01*
X155142857Y-85897676D02*
X155047619Y-85992914D01*
X155047619Y-85992914D02*
X154952381Y-86040533D01*
X133412080Y-87166666D02*
X133459700Y-87214285D01*
X133459700Y-87214285D02*
X133507319Y-87357142D01*
X133507319Y-87357142D02*
X133507319Y-87452380D01*
X133507319Y-87452380D02*
X133459700Y-87595237D01*
X133459700Y-87595237D02*
X133364461Y-87690475D01*
X133364461Y-87690475D02*
X133269223Y-87738094D01*
X133269223Y-87738094D02*
X133078747Y-87785713D01*
X133078747Y-87785713D02*
X132935890Y-87785713D01*
X132935890Y-87785713D02*
X132745414Y-87738094D01*
X132745414Y-87738094D02*
X132650176Y-87690475D01*
X132650176Y-87690475D02*
X132554938Y-87595237D01*
X132554938Y-87595237D02*
X132507319Y-87452380D01*
X132507319Y-87452380D02*
X132507319Y-87357142D01*
X132507319Y-87357142D02*
X132554938Y-87214285D01*
X132554938Y-87214285D02*
X132602557Y-87166666D01*
X132507319Y-86261904D02*
X132507319Y-86738094D01*
X132507319Y-86738094D02*
X132983509Y-86785713D01*
X132983509Y-86785713D02*
X132935890Y-86738094D01*
X132935890Y-86738094D02*
X132888271Y-86642856D01*
X132888271Y-86642856D02*
X132888271Y-86404761D01*
X132888271Y-86404761D02*
X132935890Y-86309523D01*
X132935890Y-86309523D02*
X132983509Y-86261904D01*
X132983509Y-86261904D02*
X133078747Y-86214285D01*
X133078747Y-86214285D02*
X133316842Y-86214285D01*
X133316842Y-86214285D02*
X133412080Y-86261904D01*
X133412080Y-86261904D02*
X133459700Y-86309523D01*
X133459700Y-86309523D02*
X133507319Y-86404761D01*
X133507319Y-86404761D02*
X133507319Y-86642856D01*
X133507319Y-86642856D02*
X133459700Y-86738094D01*
X133459700Y-86738094D02*
X133412080Y-86785713D01*
X137857142Y-91609580D02*
X137809523Y-91657200D01*
X137809523Y-91657200D02*
X137666666Y-91704819D01*
X137666666Y-91704819D02*
X137571428Y-91704819D01*
X137571428Y-91704819D02*
X137428571Y-91657200D01*
X137428571Y-91657200D02*
X137333333Y-91561961D01*
X137333333Y-91561961D02*
X137285714Y-91466723D01*
X137285714Y-91466723D02*
X137238095Y-91276247D01*
X137238095Y-91276247D02*
X137238095Y-91133390D01*
X137238095Y-91133390D02*
X137285714Y-90942914D01*
X137285714Y-90942914D02*
X137333333Y-90847676D01*
X137333333Y-90847676D02*
X137428571Y-90752438D01*
X137428571Y-90752438D02*
X137571428Y-90704819D01*
X137571428Y-90704819D02*
X137666666Y-90704819D01*
X137666666Y-90704819D02*
X137809523Y-90752438D01*
X137809523Y-90752438D02*
X137857142Y-90800057D01*
X138809523Y-91704819D02*
X138238095Y-91704819D01*
X138523809Y-91704819D02*
X138523809Y-90704819D01*
X138523809Y-90704819D02*
X138428571Y-90847676D01*
X138428571Y-90847676D02*
X138333333Y-90942914D01*
X138333333Y-90942914D02*
X138238095Y-90990533D01*
X139428571Y-90704819D02*
X139523809Y-90704819D01*
X139523809Y-90704819D02*
X139619047Y-90752438D01*
X139619047Y-90752438D02*
X139666666Y-90800057D01*
X139666666Y-90800057D02*
X139714285Y-90895295D01*
X139714285Y-90895295D02*
X139761904Y-91085771D01*
X139761904Y-91085771D02*
X139761904Y-91323866D01*
X139761904Y-91323866D02*
X139714285Y-91514342D01*
X139714285Y-91514342D02*
X139666666Y-91609580D01*
X139666666Y-91609580D02*
X139619047Y-91657200D01*
X139619047Y-91657200D02*
X139523809Y-91704819D01*
X139523809Y-91704819D02*
X139428571Y-91704819D01*
X139428571Y-91704819D02*
X139333333Y-91657200D01*
X139333333Y-91657200D02*
X139285714Y-91609580D01*
X139285714Y-91609580D02*
X139238095Y-91514342D01*
X139238095Y-91514342D02*
X139190476Y-91323866D01*
X139190476Y-91323866D02*
X139190476Y-91085771D01*
X139190476Y-91085771D02*
X139238095Y-90895295D01*
X139238095Y-90895295D02*
X139285714Y-90800057D01*
X139285714Y-90800057D02*
X139333333Y-90752438D01*
X139333333Y-90752438D02*
X139428571Y-90704819D01*
X133359580Y-81166666D02*
X133407200Y-81214285D01*
X133407200Y-81214285D02*
X133454819Y-81357142D01*
X133454819Y-81357142D02*
X133454819Y-81452380D01*
X133454819Y-81452380D02*
X133407200Y-81595237D01*
X133407200Y-81595237D02*
X133311961Y-81690475D01*
X133311961Y-81690475D02*
X133216723Y-81738094D01*
X133216723Y-81738094D02*
X133026247Y-81785713D01*
X133026247Y-81785713D02*
X132883390Y-81785713D01*
X132883390Y-81785713D02*
X132692914Y-81738094D01*
X132692914Y-81738094D02*
X132597676Y-81690475D01*
X132597676Y-81690475D02*
X132502438Y-81595237D01*
X132502438Y-81595237D02*
X132454819Y-81452380D01*
X132454819Y-81452380D02*
X132454819Y-81357142D01*
X132454819Y-81357142D02*
X132502438Y-81214285D01*
X132502438Y-81214285D02*
X132550057Y-81166666D01*
X132550057Y-80785713D02*
X132502438Y-80738094D01*
X132502438Y-80738094D02*
X132454819Y-80642856D01*
X132454819Y-80642856D02*
X132454819Y-80404761D01*
X132454819Y-80404761D02*
X132502438Y-80309523D01*
X132502438Y-80309523D02*
X132550057Y-80261904D01*
X132550057Y-80261904D02*
X132645295Y-80214285D01*
X132645295Y-80214285D02*
X132740533Y-80214285D01*
X132740533Y-80214285D02*
X132883390Y-80261904D01*
X132883390Y-80261904D02*
X133454819Y-80833332D01*
X133454819Y-80833332D02*
X133454819Y-80214285D01*
X133359580Y-89166666D02*
X133407200Y-89214285D01*
X133407200Y-89214285D02*
X133454819Y-89357142D01*
X133454819Y-89357142D02*
X133454819Y-89452380D01*
X133454819Y-89452380D02*
X133407200Y-89595237D01*
X133407200Y-89595237D02*
X133311961Y-89690475D01*
X133311961Y-89690475D02*
X133216723Y-89738094D01*
X133216723Y-89738094D02*
X133026247Y-89785713D01*
X133026247Y-89785713D02*
X132883390Y-89785713D01*
X132883390Y-89785713D02*
X132692914Y-89738094D01*
X132692914Y-89738094D02*
X132597676Y-89690475D01*
X132597676Y-89690475D02*
X132502438Y-89595237D01*
X132502438Y-89595237D02*
X132454819Y-89452380D01*
X132454819Y-89452380D02*
X132454819Y-89357142D01*
X132454819Y-89357142D02*
X132502438Y-89214285D01*
X132502438Y-89214285D02*
X132550057Y-89166666D01*
X132454819Y-88309523D02*
X132454819Y-88499999D01*
X132454819Y-88499999D02*
X132502438Y-88595237D01*
X132502438Y-88595237D02*
X132550057Y-88642856D01*
X132550057Y-88642856D02*
X132692914Y-88738094D01*
X132692914Y-88738094D02*
X132883390Y-88785713D01*
X132883390Y-88785713D02*
X133264342Y-88785713D01*
X133264342Y-88785713D02*
X133359580Y-88738094D01*
X133359580Y-88738094D02*
X133407200Y-88690475D01*
X133407200Y-88690475D02*
X133454819Y-88595237D01*
X133454819Y-88595237D02*
X133454819Y-88404761D01*
X133454819Y-88404761D02*
X133407200Y-88309523D01*
X133407200Y-88309523D02*
X133359580Y-88261904D01*
X133359580Y-88261904D02*
X133264342Y-88214285D01*
X133264342Y-88214285D02*
X133026247Y-88214285D01*
X133026247Y-88214285D02*
X132931009Y-88261904D01*
X132931009Y-88261904D02*
X132883390Y-88309523D01*
X132883390Y-88309523D02*
X132835771Y-88404761D01*
X132835771Y-88404761D02*
X132835771Y-88595237D01*
X132835771Y-88595237D02*
X132883390Y-88690475D01*
X132883390Y-88690475D02*
X132931009Y-88738094D01*
X132931009Y-88738094D02*
X133026247Y-88785713D01*
X148083333Y-83624580D02*
X148035714Y-83672200D01*
X148035714Y-83672200D02*
X147892857Y-83719819D01*
X147892857Y-83719819D02*
X147797619Y-83719819D01*
X147797619Y-83719819D02*
X147654762Y-83672200D01*
X147654762Y-83672200D02*
X147559524Y-83576961D01*
X147559524Y-83576961D02*
X147511905Y-83481723D01*
X147511905Y-83481723D02*
X147464286Y-83291247D01*
X147464286Y-83291247D02*
X147464286Y-83148390D01*
X147464286Y-83148390D02*
X147511905Y-82957914D01*
X147511905Y-82957914D02*
X147559524Y-82862676D01*
X147559524Y-82862676D02*
X147654762Y-82767438D01*
X147654762Y-82767438D02*
X147797619Y-82719819D01*
X147797619Y-82719819D02*
X147892857Y-82719819D01*
X147892857Y-82719819D02*
X148035714Y-82767438D01*
X148035714Y-82767438D02*
X148083333Y-82815057D01*
X149035714Y-83719819D02*
X148464286Y-83719819D01*
X148750000Y-83719819D02*
X148750000Y-82719819D01*
X148750000Y-82719819D02*
X148654762Y-82862676D01*
X148654762Y-82862676D02*
X148559524Y-82957914D01*
X148559524Y-82957914D02*
X148464286Y-83005533D01*
X159148809Y-82304819D02*
X159148809Y-81304819D01*
X159148809Y-81781009D02*
X159720237Y-81781009D01*
X159720237Y-82304819D02*
X159720237Y-81304819D01*
X160339285Y-82304819D02*
X160244047Y-82257200D01*
X160244047Y-82257200D02*
X160196428Y-82209580D01*
X160196428Y-82209580D02*
X160148809Y-82114342D01*
X160148809Y-82114342D02*
X160148809Y-81828628D01*
X160148809Y-81828628D02*
X160196428Y-81733390D01*
X160196428Y-81733390D02*
X160244047Y-81685771D01*
X160244047Y-81685771D02*
X160339285Y-81638152D01*
X160339285Y-81638152D02*
X160482142Y-81638152D01*
X160482142Y-81638152D02*
X160577380Y-81685771D01*
X160577380Y-81685771D02*
X160624999Y-81733390D01*
X160624999Y-81733390D02*
X160672618Y-81828628D01*
X160672618Y-81828628D02*
X160672618Y-82114342D01*
X160672618Y-82114342D02*
X160624999Y-82209580D01*
X160624999Y-82209580D02*
X160577380Y-82257200D01*
X160577380Y-82257200D02*
X160482142Y-82304819D01*
X160482142Y-82304819D02*
X160339285Y-82304819D01*
X161101190Y-82304819D02*
X161101190Y-81638152D01*
X161101190Y-81828628D02*
X161148809Y-81733390D01*
X161148809Y-81733390D02*
X161196428Y-81685771D01*
X161196428Y-81685771D02*
X161291666Y-81638152D01*
X161291666Y-81638152D02*
X161386904Y-81638152D01*
X161720238Y-81638152D02*
X161720238Y-82304819D01*
X161720238Y-81733390D02*
X161767857Y-81685771D01*
X161767857Y-81685771D02*
X161863095Y-81638152D01*
X161863095Y-81638152D02*
X162005952Y-81638152D01*
X162005952Y-81638152D02*
X162101190Y-81685771D01*
X162101190Y-81685771D02*
X162148809Y-81781009D01*
X162148809Y-81781009D02*
X162148809Y-82304819D01*
X162577381Y-81400057D02*
X162625000Y-81352438D01*
X162625000Y-81352438D02*
X162720238Y-81304819D01*
X162720238Y-81304819D02*
X162958333Y-81304819D01*
X162958333Y-81304819D02*
X163053571Y-81352438D01*
X163053571Y-81352438D02*
X163101190Y-81400057D01*
X163101190Y-81400057D02*
X163148809Y-81495295D01*
X163148809Y-81495295D02*
X163148809Y-81590533D01*
X163148809Y-81590533D02*
X163101190Y-81733390D01*
X163101190Y-81733390D02*
X162529762Y-82304819D01*
X162529762Y-82304819D02*
X163148809Y-82304819D01*
X158416666Y-79181009D02*
X158083333Y-79181009D01*
X158083333Y-79704819D02*
X158083333Y-78704819D01*
X158083333Y-78704819D02*
X158559523Y-78704819D01*
X159464285Y-79704819D02*
X158892857Y-79704819D01*
X159178571Y-79704819D02*
X159178571Y-78704819D01*
X159178571Y-78704819D02*
X159083333Y-78847676D01*
X159083333Y-78847676D02*
X158988095Y-78942914D01*
X158988095Y-78942914D02*
X158892857Y-78990533D01*
X142011905Y-95454819D02*
X142011905Y-94454819D01*
X142011905Y-94454819D02*
X142250000Y-94454819D01*
X142250000Y-94454819D02*
X142392857Y-94502438D01*
X142392857Y-94502438D02*
X142488095Y-94597676D01*
X142488095Y-94597676D02*
X142535714Y-94692914D01*
X142535714Y-94692914D02*
X142583333Y-94883390D01*
X142583333Y-94883390D02*
X142583333Y-95026247D01*
X142583333Y-95026247D02*
X142535714Y-95216723D01*
X142535714Y-95216723D02*
X142488095Y-95311961D01*
X142488095Y-95311961D02*
X142392857Y-95407200D01*
X142392857Y-95407200D02*
X142250000Y-95454819D01*
X142250000Y-95454819D02*
X142011905Y-95454819D01*
X143535714Y-95454819D02*
X142964286Y-95454819D01*
X143250000Y-95454819D02*
X143250000Y-94454819D01*
X143250000Y-94454819D02*
X143154762Y-94597676D01*
X143154762Y-94597676D02*
X143059524Y-94692914D01*
X143059524Y-94692914D02*
X142964286Y-94740533D01*
X133359580Y-91916666D02*
X133407200Y-91964285D01*
X133407200Y-91964285D02*
X133454819Y-92107142D01*
X133454819Y-92107142D02*
X133454819Y-92202380D01*
X133454819Y-92202380D02*
X133407200Y-92345237D01*
X133407200Y-92345237D02*
X133311961Y-92440475D01*
X133311961Y-92440475D02*
X133216723Y-92488094D01*
X133216723Y-92488094D02*
X133026247Y-92535713D01*
X133026247Y-92535713D02*
X132883390Y-92535713D01*
X132883390Y-92535713D02*
X132692914Y-92488094D01*
X132692914Y-92488094D02*
X132597676Y-92440475D01*
X132597676Y-92440475D02*
X132502438Y-92345237D01*
X132502438Y-92345237D02*
X132454819Y-92202380D01*
X132454819Y-92202380D02*
X132454819Y-92107142D01*
X132454819Y-92107142D02*
X132502438Y-91964285D01*
X132502438Y-91964285D02*
X132550057Y-91916666D01*
X132454819Y-91583332D02*
X132454819Y-90916666D01*
X132454819Y-90916666D02*
X133454819Y-91345237D01*
D11*
%TO.C,R1*%
X145977500Y-85262742D02*
X145977500Y-85737258D01*
X147022500Y-85262742D02*
X147022500Y-85737258D01*
%TO.C,J3*%
X141640000Y-75840000D02*
X142190000Y-75840000D01*
X141640000Y-81910000D02*
X141640000Y-75840000D01*
X142190000Y-81910000D02*
X141640000Y-81910000D01*
X145510000Y-75840000D02*
X147310000Y-75840000D01*
X145510000Y-81910000D02*
X147310000Y-81910000D01*
X147310000Y-75840000D02*
X147310000Y-77690000D01*
X147310000Y-80060000D02*
X148050000Y-80060000D01*
X147310000Y-81910000D02*
X147310000Y-80060000D01*
%TO.C,Q1*%
X150050000Y-80970000D02*
X150050000Y-82470000D01*
X150050000Y-82470000D02*
X150320000Y-82470000D01*
X150320000Y-82470000D02*
X150320000Y-85300000D01*
X156680000Y-82470000D02*
X156680000Y-83570000D01*
X156950000Y-80970000D02*
X156950000Y-82470000D01*
X156950000Y-82470000D02*
X156680000Y-82470000D01*
%TO.C,C4*%
X135390580Y-84490000D02*
X135109420Y-84490000D01*
X135390580Y-85510000D02*
X135109420Y-85510000D01*
%TO.C,C8*%
X140240000Y-93359420D02*
X140240000Y-93640580D01*
X141260000Y-93359420D02*
X141260000Y-93640580D01*
%TO.C,J1*%
X137417500Y-82990000D02*
X144737500Y-82990000D01*
X137417500Y-83540000D02*
X137417500Y-82990000D01*
X137417500Y-86860000D02*
X137417500Y-88660000D01*
X137417500Y-88660000D02*
X139267500Y-88660000D01*
X139267500Y-88660000D02*
X139267500Y-89400000D01*
X144737500Y-82990000D02*
X144737500Y-83540000D01*
X144737500Y-86860000D02*
X144737500Y-88660000D01*
X144737500Y-88660000D02*
X142887500Y-88660000D01*
%TO.C,C3*%
X135390580Y-82490000D02*
X135109420Y-82490000D01*
X135390580Y-83510000D02*
X135109420Y-83510000D01*
%TO.C,Horn1*%
X150465000Y-87390000D02*
X156535000Y-87390000D01*
X150465000Y-87940000D02*
X150465000Y-87390000D01*
X150465000Y-91260000D02*
X150465000Y-93060000D01*
X150465000Y-93060000D02*
X152315000Y-93060000D01*
X152315000Y-93060000D02*
X152315000Y-93800000D01*
X156535000Y-87390000D02*
X156535000Y-87940000D01*
X156535000Y-91260000D02*
X156535000Y-93060000D01*
X156535000Y-93060000D02*
X154685000Y-93060000D01*
%TO.C,C5*%
X135390580Y-86490000D02*
X135109420Y-86490000D01*
X135390580Y-87510000D02*
X135109420Y-87510000D01*
%TO.C,C10*%
X137990000Y-93359420D02*
X137990000Y-93640580D01*
X139010000Y-93359420D02*
X139010000Y-93640580D01*
%TO.C,C2*%
X135390580Y-80490000D02*
X135109420Y-80490000D01*
X135390580Y-81510000D02*
X135109420Y-81510000D01*
%TO.C,C6*%
X135390580Y-88490000D02*
X135109420Y-88490000D01*
X135390580Y-89510000D02*
X135109420Y-89510000D01*
%TO.C,C1*%
X147740000Y-85349420D02*
X147740000Y-85630580D01*
X148760000Y-85349420D02*
X148760000Y-85630580D01*
%TO.C,Horn2*%
X158090000Y-82940000D02*
X164160000Y-82940000D01*
X158090000Y-83490000D02*
X158090000Y-82940000D01*
X158090000Y-86810000D02*
X158090000Y-88610000D01*
X158090000Y-88610000D02*
X159940000Y-88610000D01*
X159940000Y-88610000D02*
X159940000Y-89350000D01*
X164160000Y-82940000D02*
X164160000Y-83490000D01*
X164160000Y-86810000D02*
X164160000Y-88610000D01*
X164160000Y-88610000D02*
X162310000Y-88610000D01*
%TO.C,D1*%
X148900000Y-90850000D02*
X143500000Y-90850000D01*
X148900000Y-94150000D02*
X143500000Y-94150000D01*
X148900000Y-94150000D02*
X148900000Y-90850000D01*
%TO.C,C7*%
X135390580Y-90990000D02*
X135109420Y-90990000D01*
X135390580Y-92010000D02*
X135109420Y-92010000D01*
%TD*%
M02*
