%TF.GenerationSoftware,KiCad,Pcbnew,8.0.5*%
%TF.CreationDate,2025-09-19T15:00:01-05:00*%
%TF.ProjectId,OnboardingHornsBoardv1.0,4f6e626f-6172-4646-996e-67486f726e73,1.0*%
%TF.SameCoordinates,Original*%
%TF.FileFunction,Soldermask,Top*%
%TF.FilePolarity,Negative*%
%FSLAX46Y46*%
G04 Gerber Fmt 4.6, Leading zero omitted, Abs format (unit mm)*
G04 Created by KiCad (PCBNEW 8.0.5) date 2025-09-19 15:00:01*
%MOMM*%
%LPD*%
G01*
G04 APERTURE LIST*
G04 Aperture macros list*
%AMRoundRect*
0 Rectangle with rounded corners*
0 $1 Rounding radius*
0 $2 $3 $4 $5 $6 $7 $8 $9 X,Y pos of 4 corners*
0 Add a 4 corners polygon primitive as box body*
4,1,4,$2,$3,$4,$5,$6,$7,$8,$9,$2,$3,0*
0 Add four circle primitives for the rounded corners*
1,1,$1+$1,$2,$3*
1,1,$1+$1,$4,$5*
1,1,$1+$1,$6,$7*
1,1,$1+$1,$8,$9*
0 Add four rect primitives between the rounded corners*
20,1,$1+$1,$2,$3,$4,$5,0*
20,1,$1+$1,$4,$5,$6,$7,0*
20,1,$1+$1,$6,$7,$8,$9,0*
20,1,$1+$1,$8,$9,$2,$3,0*%
G04 Aperture macros list end*
%ADD10RoundRect,0.200000X-0.275000X0.200000X-0.275000X-0.200000X0.275000X-0.200000X0.275000X0.200000X0*%
%ADD11RoundRect,0.150000X0.700000X-0.150000X0.700000X0.150000X-0.700000X0.150000X-0.700000X-0.150000X0*%
%ADD12RoundRect,0.250000X1.150000X-0.250000X1.150000X0.250000X-1.150000X0.250000X-1.150000X-0.250000X0*%
%ADD13C,2.100000*%
%ADD14R,1.200000X2.200000*%
%ADD15R,5.800000X6.400000*%
%ADD16RoundRect,0.225000X0.225000X0.250000X-0.225000X0.250000X-0.225000X-0.250000X0.225000X-0.250000X0*%
%ADD17RoundRect,0.225000X-0.250000X0.225000X-0.250000X-0.225000X0.250000X-0.225000X0.250000X0.225000X0*%
%ADD18RoundRect,0.150000X-0.150000X-0.700000X0.150000X-0.700000X0.150000X0.700000X-0.150000X0.700000X0*%
%ADD19RoundRect,0.250000X-0.250000X-1.150000X0.250000X-1.150000X0.250000X1.150000X-0.250000X1.150000X0*%
%ADD20RoundRect,0.147500X0.147500X0.172500X-0.147500X0.172500X-0.147500X-0.172500X0.147500X-0.172500X0*%
%ADD21R,2.500000X1.800000*%
G04 APERTURE END LIST*
D10*
%TO.C,R1*%
X146500000Y-84675000D03*
X146500000Y-86325000D03*
%TD*%
D11*
%TO.C,J3*%
X147200000Y-79500000D03*
X147200000Y-78250000D03*
D12*
X143850000Y-81350000D03*
X143850000Y-76400000D03*
%TD*%
D13*
%TO.C,REF\u002A\u002A*%
X163000000Y-95500000D03*
%TD*%
%TO.C,REF\u002A\u002A*%
X134000000Y-95500000D03*
%TD*%
D14*
%TO.C,Q1*%
X151220000Y-84200000D03*
D15*
X153500000Y-77900000D03*
D14*
X155780000Y-84200000D03*
%TD*%
D16*
%TO.C,C4*%
X136025000Y-85000000D03*
X134475000Y-85000000D03*
%TD*%
D17*
%TO.C,C8*%
X140750000Y-92725000D03*
X140750000Y-94275000D03*
%TD*%
D18*
%TO.C,J1*%
X139827500Y-88550000D03*
X141077500Y-88550000D03*
X142327500Y-88550000D03*
D19*
X137977500Y-85200000D03*
X144177500Y-85200000D03*
%TD*%
D16*
%TO.C,C3*%
X136025000Y-83000000D03*
X134475000Y-83000000D03*
%TD*%
D18*
%TO.C,Horn1*%
X152875000Y-92950000D03*
X154125000Y-92950000D03*
D19*
X151025000Y-89600000D03*
X155975000Y-89600000D03*
%TD*%
D13*
%TO.C,REF\u002A\u002A*%
X163000000Y-76500000D03*
%TD*%
D16*
%TO.C,C5*%
X136025000Y-87000000D03*
X134475000Y-87000000D03*
%TD*%
D17*
%TO.C,C10*%
X138500000Y-92725000D03*
X138500000Y-94275000D03*
%TD*%
D16*
%TO.C,C2*%
X136025000Y-81000000D03*
X134475000Y-81000000D03*
%TD*%
%TO.C,C6*%
X136025000Y-89000000D03*
X134475000Y-89000000D03*
%TD*%
D17*
%TO.C,C1*%
X148250000Y-84715000D03*
X148250000Y-86265000D03*
%TD*%
D13*
%TO.C,REF\u002A\u002A*%
X134000000Y-76500000D03*
%TD*%
D18*
%TO.C,Horn2*%
X160500000Y-88500000D03*
X161750000Y-88500000D03*
D19*
X158650000Y-85150000D03*
X163600000Y-85150000D03*
%TD*%
D20*
%TO.C,F1*%
X159250000Y-80500000D03*
X158280000Y-80500000D03*
%TD*%
D21*
%TO.C,D1*%
X147500000Y-92500000D03*
X143500000Y-92500000D03*
%TD*%
D16*
%TO.C,C7*%
X136025000Y-91500000D03*
X134475000Y-91500000D03*
%TD*%
M02*
