%TF.GenerationSoftware,KiCad,Pcbnew,8.0.5*%
%TF.CreationDate,2025-09-19T15:00:01-05:00*%
%TF.ProjectId,OnboardingHornsBoardv1.0,4f6e626f-6172-4646-996e-67486f726e73,1.0*%
%TF.SameCoordinates,Original*%
%TF.FileFunction,Copper,L2,Bot*%
%TF.FilePolarity,Positive*%
%FSLAX46Y46*%
G04 Gerber Fmt 4.6, Leading zero omitted, Abs format (unit mm)*
G04 Created by KiCad (PCBNEW 8.0.5) date 2025-09-19 15:00:01*
%MOMM*%
%LPD*%
G01*
G04 APERTURE LIST*
%TA.AperFunction,ViaPad*%
%ADD10C,0.800000*%
%TD*%
G04 APERTURE END LIST*
D10*
%TO.N,GND*%
X139750000Y-90500000D03*
X133500000Y-90250000D03*
%TD*%
%TA.AperFunction,Conductor*%
%TO.N,GND*%
G36*
X163000855Y-73500011D02*
G01*
X163162269Y-73502274D01*
X163174390Y-73503041D01*
X163478553Y-73537312D01*
X163495992Y-73539277D01*
X163509700Y-73541606D01*
X163824366Y-73613426D01*
X163837725Y-73617273D01*
X164142392Y-73723881D01*
X164155228Y-73729199D01*
X164446025Y-73869239D01*
X164458195Y-73875965D01*
X164731486Y-74047685D01*
X164742827Y-74055732D01*
X164995173Y-74256971D01*
X165005541Y-74266237D01*
X165233762Y-74494458D01*
X165243028Y-74504826D01*
X165444267Y-74757172D01*
X165452314Y-74768513D01*
X165624034Y-75041804D01*
X165630760Y-75053974D01*
X165770798Y-75344766D01*
X165776120Y-75357613D01*
X165882724Y-75662270D01*
X165886573Y-75675633D01*
X165958393Y-75990299D01*
X165960722Y-76004007D01*
X165996957Y-76325597D01*
X165997725Y-76337743D01*
X165999988Y-76499144D01*
X166000000Y-76500882D01*
X166000000Y-95499117D01*
X165999988Y-95500855D01*
X165997725Y-95662256D01*
X165996957Y-95674402D01*
X165960722Y-95995992D01*
X165958393Y-96009700D01*
X165886573Y-96324366D01*
X165882724Y-96337729D01*
X165776120Y-96642386D01*
X165770798Y-96655233D01*
X165630760Y-96946025D01*
X165624034Y-96958195D01*
X165452314Y-97231486D01*
X165444267Y-97242827D01*
X165243028Y-97495173D01*
X165233762Y-97505541D01*
X165005541Y-97733762D01*
X164995173Y-97743028D01*
X164742827Y-97944267D01*
X164731486Y-97952314D01*
X164458195Y-98124034D01*
X164446025Y-98130760D01*
X164155233Y-98270798D01*
X164142386Y-98276120D01*
X163837729Y-98382724D01*
X163824366Y-98386573D01*
X163509700Y-98458393D01*
X163495992Y-98460722D01*
X163174402Y-98496957D01*
X163162256Y-98497725D01*
X163000856Y-98499988D01*
X162999118Y-98500000D01*
X134000882Y-98500000D01*
X133999144Y-98499988D01*
X133837743Y-98497725D01*
X133825597Y-98496957D01*
X133504007Y-98460722D01*
X133490299Y-98458393D01*
X133175633Y-98386573D01*
X133162270Y-98382724D01*
X132857613Y-98276120D01*
X132844766Y-98270798D01*
X132553974Y-98130760D01*
X132541804Y-98124034D01*
X132268513Y-97952314D01*
X132257172Y-97944267D01*
X132004826Y-97743028D01*
X131994458Y-97733762D01*
X131766237Y-97505541D01*
X131756971Y-97495173D01*
X131555732Y-97242827D01*
X131547685Y-97231486D01*
X131375965Y-96958195D01*
X131369239Y-96946025D01*
X131299158Y-96800500D01*
X131229199Y-96655228D01*
X131223879Y-96642386D01*
X131117275Y-96337729D01*
X131113426Y-96324366D01*
X131041606Y-96009700D01*
X131039277Y-95995992D01*
X131017705Y-95804534D01*
X131003041Y-95674390D01*
X131002274Y-95662269D01*
X131000012Y-95500855D01*
X131000000Y-95499117D01*
X131000000Y-95397648D01*
X132699500Y-95397648D01*
X132699500Y-95602351D01*
X132731522Y-95804534D01*
X132794781Y-95999223D01*
X132887715Y-96181613D01*
X133008028Y-96347213D01*
X133152786Y-96491971D01*
X133307749Y-96604556D01*
X133318390Y-96612287D01*
X133434607Y-96671503D01*
X133500776Y-96705218D01*
X133500778Y-96705218D01*
X133500781Y-96705220D01*
X133605137Y-96739127D01*
X133695465Y-96768477D01*
X133796557Y-96784488D01*
X133897648Y-96800500D01*
X133897649Y-96800500D01*
X134102351Y-96800500D01*
X134102352Y-96800500D01*
X134304534Y-96768477D01*
X134499219Y-96705220D01*
X134681610Y-96612287D01*
X134774590Y-96544732D01*
X134847213Y-96491971D01*
X134847215Y-96491968D01*
X134847219Y-96491966D01*
X134991966Y-96347219D01*
X134991968Y-96347215D01*
X134991971Y-96347213D01*
X135044732Y-96274590D01*
X135112287Y-96181610D01*
X135205220Y-95999219D01*
X135268477Y-95804534D01*
X135300500Y-95602352D01*
X135300500Y-95397648D01*
X161699500Y-95397648D01*
X161699500Y-95602351D01*
X161731522Y-95804534D01*
X161794781Y-95999223D01*
X161887715Y-96181613D01*
X162008028Y-96347213D01*
X162152786Y-96491971D01*
X162307749Y-96604556D01*
X162318390Y-96612287D01*
X162434607Y-96671503D01*
X162500776Y-96705218D01*
X162500778Y-96705218D01*
X162500781Y-96705220D01*
X162605137Y-96739127D01*
X162695465Y-96768477D01*
X162796557Y-96784488D01*
X162897648Y-96800500D01*
X162897649Y-96800500D01*
X163102351Y-96800500D01*
X163102352Y-96800500D01*
X163304534Y-96768477D01*
X163499219Y-96705220D01*
X163681610Y-96612287D01*
X163774590Y-96544732D01*
X163847213Y-96491971D01*
X163847215Y-96491968D01*
X163847219Y-96491966D01*
X163991966Y-96347219D01*
X163991968Y-96347215D01*
X163991971Y-96347213D01*
X164044732Y-96274590D01*
X164112287Y-96181610D01*
X164205220Y-95999219D01*
X164268477Y-95804534D01*
X164300500Y-95602352D01*
X164300500Y-95397648D01*
X164268477Y-95195466D01*
X164205220Y-95000781D01*
X164205218Y-95000778D01*
X164205218Y-95000776D01*
X164171503Y-94934607D01*
X164112287Y-94818390D01*
X164104556Y-94807749D01*
X163991971Y-94652786D01*
X163847213Y-94508028D01*
X163681613Y-94387715D01*
X163681612Y-94387714D01*
X163681610Y-94387713D01*
X163624653Y-94358691D01*
X163499223Y-94294781D01*
X163304534Y-94231522D01*
X163129995Y-94203878D01*
X163102352Y-94199500D01*
X162897648Y-94199500D01*
X162873329Y-94203351D01*
X162695465Y-94231522D01*
X162500776Y-94294781D01*
X162318386Y-94387715D01*
X162152786Y-94508028D01*
X162008028Y-94652786D01*
X161887715Y-94818386D01*
X161794781Y-95000776D01*
X161731522Y-95195465D01*
X161699500Y-95397648D01*
X135300500Y-95397648D01*
X135268477Y-95195466D01*
X135205220Y-95000781D01*
X135205218Y-95000778D01*
X135205218Y-95000776D01*
X135171503Y-94934607D01*
X135112287Y-94818390D01*
X135104556Y-94807749D01*
X134991971Y-94652786D01*
X134847213Y-94508028D01*
X134681613Y-94387715D01*
X134681612Y-94387714D01*
X134681610Y-94387713D01*
X134624653Y-94358691D01*
X134499223Y-94294781D01*
X134304534Y-94231522D01*
X134129995Y-94203878D01*
X134102352Y-94199500D01*
X133897648Y-94199500D01*
X133873329Y-94203351D01*
X133695465Y-94231522D01*
X133500776Y-94294781D01*
X133318386Y-94387715D01*
X133152786Y-94508028D01*
X133008028Y-94652786D01*
X132887715Y-94818386D01*
X132794781Y-95000776D01*
X132731522Y-95195465D01*
X132699500Y-95397648D01*
X131000000Y-95397648D01*
X131000000Y-76500882D01*
X131000012Y-76499144D01*
X131001434Y-76397648D01*
X132699500Y-76397648D01*
X132699500Y-76602351D01*
X132731522Y-76804534D01*
X132794781Y-76999223D01*
X132887715Y-77181613D01*
X133008028Y-77347213D01*
X133152786Y-77491971D01*
X133307749Y-77604556D01*
X133318390Y-77612287D01*
X133434607Y-77671503D01*
X133500776Y-77705218D01*
X133500778Y-77705218D01*
X133500781Y-77705220D01*
X133605137Y-77739127D01*
X133695465Y-77768477D01*
X133796557Y-77784488D01*
X133897648Y-77800500D01*
X133897649Y-77800500D01*
X134102351Y-77800500D01*
X134102352Y-77800500D01*
X134304534Y-77768477D01*
X134499219Y-77705220D01*
X134681610Y-77612287D01*
X134774590Y-77544732D01*
X134847213Y-77491971D01*
X134847215Y-77491968D01*
X134847219Y-77491966D01*
X134991966Y-77347219D01*
X134991968Y-77347215D01*
X134991971Y-77347213D01*
X135044732Y-77274590D01*
X135112287Y-77181610D01*
X135205220Y-76999219D01*
X135268477Y-76804534D01*
X135300500Y-76602352D01*
X135300500Y-76397648D01*
X161699500Y-76397648D01*
X161699500Y-76602351D01*
X161731522Y-76804534D01*
X161794781Y-76999223D01*
X161887715Y-77181613D01*
X162008028Y-77347213D01*
X162152786Y-77491971D01*
X162307749Y-77604556D01*
X162318390Y-77612287D01*
X162434607Y-77671503D01*
X162500776Y-77705218D01*
X162500778Y-77705218D01*
X162500781Y-77705220D01*
X162605137Y-77739127D01*
X162695465Y-77768477D01*
X162796557Y-77784488D01*
X162897648Y-77800500D01*
X162897649Y-77800500D01*
X163102351Y-77800500D01*
X163102352Y-77800500D01*
X163304534Y-77768477D01*
X163499219Y-77705220D01*
X163681610Y-77612287D01*
X163774590Y-77544732D01*
X163847213Y-77491971D01*
X163847215Y-77491968D01*
X163847219Y-77491966D01*
X163991966Y-77347219D01*
X163991968Y-77347215D01*
X163991971Y-77347213D01*
X164044732Y-77274590D01*
X164112287Y-77181610D01*
X164205220Y-76999219D01*
X164268477Y-76804534D01*
X164300500Y-76602352D01*
X164300500Y-76397648D01*
X164268477Y-76195466D01*
X164205220Y-76000781D01*
X164205218Y-76000778D01*
X164205218Y-76000776D01*
X164171503Y-75934607D01*
X164112287Y-75818390D01*
X164104556Y-75807749D01*
X163991971Y-75652786D01*
X163847213Y-75508028D01*
X163681613Y-75387715D01*
X163681612Y-75387714D01*
X163681610Y-75387713D01*
X163622512Y-75357601D01*
X163499223Y-75294781D01*
X163304534Y-75231522D01*
X163129995Y-75203878D01*
X163102352Y-75199500D01*
X162897648Y-75199500D01*
X162873329Y-75203351D01*
X162695465Y-75231522D01*
X162500776Y-75294781D01*
X162318386Y-75387715D01*
X162152786Y-75508028D01*
X162008028Y-75652786D01*
X161887715Y-75818386D01*
X161794781Y-76000776D01*
X161731522Y-76195465D01*
X161699500Y-76397648D01*
X135300500Y-76397648D01*
X135268477Y-76195466D01*
X135205220Y-76000781D01*
X135205218Y-76000778D01*
X135205218Y-76000776D01*
X135171503Y-75934607D01*
X135112287Y-75818390D01*
X135104556Y-75807749D01*
X134991971Y-75652786D01*
X134847213Y-75508028D01*
X134681613Y-75387715D01*
X134681612Y-75387714D01*
X134681610Y-75387713D01*
X134622512Y-75357601D01*
X134499223Y-75294781D01*
X134304534Y-75231522D01*
X134129995Y-75203878D01*
X134102352Y-75199500D01*
X133897648Y-75199500D01*
X133873329Y-75203351D01*
X133695465Y-75231522D01*
X133500776Y-75294781D01*
X133318386Y-75387715D01*
X133152786Y-75508028D01*
X133008028Y-75652786D01*
X132887715Y-75818386D01*
X132794781Y-76000776D01*
X132731522Y-76195465D01*
X132699500Y-76397648D01*
X131001434Y-76397648D01*
X131002274Y-76337729D01*
X131003041Y-76325610D01*
X131039277Y-76004005D01*
X131041606Y-75990299D01*
X131113426Y-75675633D01*
X131117272Y-75662279D01*
X131223883Y-75357601D01*
X131229196Y-75344777D01*
X131369243Y-75053965D01*
X131375959Y-75041813D01*
X131547693Y-74768501D01*
X131555723Y-74757183D01*
X131756979Y-74504816D01*
X131766228Y-74494467D01*
X131994467Y-74266228D01*
X132004816Y-74256979D01*
X132257183Y-74055723D01*
X132268501Y-74047693D01*
X132541813Y-73875959D01*
X132553965Y-73869243D01*
X132844777Y-73729196D01*
X132857601Y-73723883D01*
X133162279Y-73617272D01*
X133175627Y-73613427D01*
X133393293Y-73563746D01*
X133490299Y-73541606D01*
X133504005Y-73539277D01*
X133825610Y-73503041D01*
X133837729Y-73502274D01*
X133999144Y-73500011D01*
X134000882Y-73500000D01*
X162999118Y-73500000D01*
X163000855Y-73500011D01*
G37*
%TD.AperFunction*%
%TD*%
M02*
