%TF.GenerationSoftware,KiCad,Pcbnew,8.0.9*%
%TF.CreationDate,2025-09-30T21:00:13-05:00*%
%TF.ProjectId,Horns_pro,486f726e-735f-4707-926f-2e6b69636164,1.0*%
%TF.SameCoordinates,Original*%
%TF.FileFunction,Legend,Top*%
%TF.FilePolarity,Positive*%
%FSLAX46Y46*%
G04 Gerber Fmt 4.6, Leading zero omitted, Abs format (unit mm)*
G04 Created by KiCad (PCBNEW 8.0.9) date 2025-09-30 21:00:13*
%MOMM*%
%LPD*%
G01*
G04 APERTURE LIST*
%ADD10C,0.150000*%
%ADD11C,0.120000*%
G04 APERTURE END LIST*
D10*
X90833333Y-67929580D02*
X90785714Y-67977200D01*
X90785714Y-67977200D02*
X90642857Y-68024819D01*
X90642857Y-68024819D02*
X90547619Y-68024819D01*
X90547619Y-68024819D02*
X90404762Y-67977200D01*
X90404762Y-67977200D02*
X90309524Y-67881961D01*
X90309524Y-67881961D02*
X90261905Y-67786723D01*
X90261905Y-67786723D02*
X90214286Y-67596247D01*
X90214286Y-67596247D02*
X90214286Y-67453390D01*
X90214286Y-67453390D02*
X90261905Y-67262914D01*
X90261905Y-67262914D02*
X90309524Y-67167676D01*
X90309524Y-67167676D02*
X90404762Y-67072438D01*
X90404762Y-67072438D02*
X90547619Y-67024819D01*
X90547619Y-67024819D02*
X90642857Y-67024819D01*
X90642857Y-67024819D02*
X90785714Y-67072438D01*
X90785714Y-67072438D02*
X90833333Y-67120057D01*
X91785714Y-68024819D02*
X91214286Y-68024819D01*
X91500000Y-68024819D02*
X91500000Y-67024819D01*
X91500000Y-67024819D02*
X91404762Y-67167676D01*
X91404762Y-67167676D02*
X91309524Y-67262914D01*
X91309524Y-67262914D02*
X91214286Y-67310533D01*
X90695833Y-86929580D02*
X90648214Y-86977200D01*
X90648214Y-86977200D02*
X90505357Y-87024819D01*
X90505357Y-87024819D02*
X90410119Y-87024819D01*
X90410119Y-87024819D02*
X90267262Y-86977200D01*
X90267262Y-86977200D02*
X90172024Y-86881961D01*
X90172024Y-86881961D02*
X90124405Y-86786723D01*
X90124405Y-86786723D02*
X90076786Y-86596247D01*
X90076786Y-86596247D02*
X90076786Y-86453390D01*
X90076786Y-86453390D02*
X90124405Y-86262914D01*
X90124405Y-86262914D02*
X90172024Y-86167676D01*
X90172024Y-86167676D02*
X90267262Y-86072438D01*
X90267262Y-86072438D02*
X90410119Y-86024819D01*
X90410119Y-86024819D02*
X90505357Y-86024819D01*
X90505357Y-86024819D02*
X90648214Y-86072438D01*
X90648214Y-86072438D02*
X90695833Y-86120057D01*
X91029167Y-86024819D02*
X91695833Y-86024819D01*
X91695833Y-86024819D02*
X91267262Y-87024819D01*
X110334819Y-75083333D02*
X111049104Y-75083333D01*
X111049104Y-75083333D02*
X111191961Y-75130952D01*
X111191961Y-75130952D02*
X111287200Y-75226190D01*
X111287200Y-75226190D02*
X111334819Y-75369047D01*
X111334819Y-75369047D02*
X111334819Y-75464285D01*
X110668152Y-74178571D02*
X111334819Y-74178571D01*
X110287200Y-74416666D02*
X111001485Y-74654761D01*
X111001485Y-74654761D02*
X111001485Y-74035714D01*
X90833333Y-73959580D02*
X90785714Y-74007200D01*
X90785714Y-74007200D02*
X90642857Y-74054819D01*
X90642857Y-74054819D02*
X90547619Y-74054819D01*
X90547619Y-74054819D02*
X90404762Y-74007200D01*
X90404762Y-74007200D02*
X90309524Y-73911961D01*
X90309524Y-73911961D02*
X90261905Y-73816723D01*
X90261905Y-73816723D02*
X90214286Y-73626247D01*
X90214286Y-73626247D02*
X90214286Y-73483390D01*
X90214286Y-73483390D02*
X90261905Y-73292914D01*
X90261905Y-73292914D02*
X90309524Y-73197676D01*
X90309524Y-73197676D02*
X90404762Y-73102438D01*
X90404762Y-73102438D02*
X90547619Y-73054819D01*
X90547619Y-73054819D02*
X90642857Y-73054819D01*
X90642857Y-73054819D02*
X90785714Y-73102438D01*
X90785714Y-73102438D02*
X90833333Y-73150057D01*
X91166667Y-73054819D02*
X91785714Y-73054819D01*
X91785714Y-73054819D02*
X91452381Y-73435771D01*
X91452381Y-73435771D02*
X91595238Y-73435771D01*
X91595238Y-73435771D02*
X91690476Y-73483390D01*
X91690476Y-73483390D02*
X91738095Y-73531009D01*
X91738095Y-73531009D02*
X91785714Y-73626247D01*
X91785714Y-73626247D02*
X91785714Y-73864342D01*
X91785714Y-73864342D02*
X91738095Y-73959580D01*
X91738095Y-73959580D02*
X91690476Y-74007200D01*
X91690476Y-74007200D02*
X91595238Y-74054819D01*
X91595238Y-74054819D02*
X91309524Y-74054819D01*
X91309524Y-74054819D02*
X91214286Y-74007200D01*
X91214286Y-74007200D02*
X91166667Y-73959580D01*
X90833333Y-92929580D02*
X90785714Y-92977200D01*
X90785714Y-92977200D02*
X90642857Y-93024819D01*
X90642857Y-93024819D02*
X90547619Y-93024819D01*
X90547619Y-93024819D02*
X90404762Y-92977200D01*
X90404762Y-92977200D02*
X90309524Y-92881961D01*
X90309524Y-92881961D02*
X90261905Y-92786723D01*
X90261905Y-92786723D02*
X90214286Y-92596247D01*
X90214286Y-92596247D02*
X90214286Y-92453390D01*
X90214286Y-92453390D02*
X90261905Y-92262914D01*
X90261905Y-92262914D02*
X90309524Y-92167676D01*
X90309524Y-92167676D02*
X90404762Y-92072438D01*
X90404762Y-92072438D02*
X90547619Y-92024819D01*
X90547619Y-92024819D02*
X90642857Y-92024819D01*
X90642857Y-92024819D02*
X90785714Y-92072438D01*
X90785714Y-92072438D02*
X90833333Y-92120057D01*
X91309524Y-93024819D02*
X91500000Y-93024819D01*
X91500000Y-93024819D02*
X91595238Y-92977200D01*
X91595238Y-92977200D02*
X91642857Y-92929580D01*
X91642857Y-92929580D02*
X91738095Y-92786723D01*
X91738095Y-92786723D02*
X91785714Y-92596247D01*
X91785714Y-92596247D02*
X91785714Y-92215295D01*
X91785714Y-92215295D02*
X91738095Y-92120057D01*
X91738095Y-92120057D02*
X91690476Y-92072438D01*
X91690476Y-92072438D02*
X91595238Y-92024819D01*
X91595238Y-92024819D02*
X91404762Y-92024819D01*
X91404762Y-92024819D02*
X91309524Y-92072438D01*
X91309524Y-92072438D02*
X91261905Y-92120057D01*
X91261905Y-92120057D02*
X91214286Y-92215295D01*
X91214286Y-92215295D02*
X91214286Y-92453390D01*
X91214286Y-92453390D02*
X91261905Y-92548628D01*
X91261905Y-92548628D02*
X91309524Y-92596247D01*
X91309524Y-92596247D02*
X91404762Y-92643866D01*
X91404762Y-92643866D02*
X91595238Y-92643866D01*
X91595238Y-92643866D02*
X91690476Y-92596247D01*
X91690476Y-92596247D02*
X91738095Y-92548628D01*
X91738095Y-92548628D02*
X91785714Y-92453390D01*
X110334819Y-83083333D02*
X111049104Y-83083333D01*
X111049104Y-83083333D02*
X111191961Y-83130952D01*
X111191961Y-83130952D02*
X111287200Y-83226190D01*
X111287200Y-83226190D02*
X111334819Y-83369047D01*
X111334819Y-83369047D02*
X111334819Y-83464285D01*
X110334819Y-82702380D02*
X110334819Y-82083333D01*
X110334819Y-82083333D02*
X110715771Y-82416666D01*
X110715771Y-82416666D02*
X110715771Y-82273809D01*
X110715771Y-82273809D02*
X110763390Y-82178571D01*
X110763390Y-82178571D02*
X110811009Y-82130952D01*
X110811009Y-82130952D02*
X110906247Y-82083333D01*
X110906247Y-82083333D02*
X111144342Y-82083333D01*
X111144342Y-82083333D02*
X111239580Y-82130952D01*
X111239580Y-82130952D02*
X111287200Y-82178571D01*
X111287200Y-82178571D02*
X111334819Y-82273809D01*
X111334819Y-82273809D02*
X111334819Y-82559523D01*
X111334819Y-82559523D02*
X111287200Y-82654761D01*
X111287200Y-82654761D02*
X111239580Y-82702380D01*
X112066666Y-94771009D02*
X111733333Y-94771009D01*
X111733333Y-95294819D02*
X111733333Y-94294819D01*
X111733333Y-94294819D02*
X112209523Y-94294819D01*
X113114285Y-95294819D02*
X112542857Y-95294819D01*
X112828571Y-95294819D02*
X112828571Y-94294819D01*
X112828571Y-94294819D02*
X112733333Y-94437676D01*
X112733333Y-94437676D02*
X112638095Y-94532914D01*
X112638095Y-94532914D02*
X112542857Y-94580533D01*
X94261905Y-66454819D02*
X94261905Y-65454819D01*
X94261905Y-65454819D02*
X94500000Y-65454819D01*
X94500000Y-65454819D02*
X94642857Y-65502438D01*
X94642857Y-65502438D02*
X94738095Y-65597676D01*
X94738095Y-65597676D02*
X94785714Y-65692914D01*
X94785714Y-65692914D02*
X94833333Y-65883390D01*
X94833333Y-65883390D02*
X94833333Y-66026247D01*
X94833333Y-66026247D02*
X94785714Y-66216723D01*
X94785714Y-66216723D02*
X94738095Y-66311961D01*
X94738095Y-66311961D02*
X94642857Y-66407200D01*
X94642857Y-66407200D02*
X94500000Y-66454819D01*
X94500000Y-66454819D02*
X94261905Y-66454819D01*
X95785714Y-66454819D02*
X95214286Y-66454819D01*
X95500000Y-66454819D02*
X95500000Y-65454819D01*
X95500000Y-65454819D02*
X95404762Y-65597676D01*
X95404762Y-65597676D02*
X95309524Y-65692914D01*
X95309524Y-65692914D02*
X95214286Y-65740533D01*
X93118095Y-59854819D02*
X93118095Y-58854819D01*
X93689523Y-59854819D02*
X93260952Y-59283390D01*
X93689523Y-58854819D02*
X93118095Y-59426247D01*
X90833333Y-80929580D02*
X90785714Y-80977200D01*
X90785714Y-80977200D02*
X90642857Y-81024819D01*
X90642857Y-81024819D02*
X90547619Y-81024819D01*
X90547619Y-81024819D02*
X90404762Y-80977200D01*
X90404762Y-80977200D02*
X90309524Y-80881961D01*
X90309524Y-80881961D02*
X90261905Y-80786723D01*
X90261905Y-80786723D02*
X90214286Y-80596247D01*
X90214286Y-80596247D02*
X90214286Y-80453390D01*
X90214286Y-80453390D02*
X90261905Y-80262914D01*
X90261905Y-80262914D02*
X90309524Y-80167676D01*
X90309524Y-80167676D02*
X90404762Y-80072438D01*
X90404762Y-80072438D02*
X90547619Y-80024819D01*
X90547619Y-80024819D02*
X90642857Y-80024819D01*
X90642857Y-80024819D02*
X90785714Y-80072438D01*
X90785714Y-80072438D02*
X90833333Y-80120057D01*
X91738095Y-80024819D02*
X91261905Y-80024819D01*
X91261905Y-80024819D02*
X91214286Y-80501009D01*
X91214286Y-80501009D02*
X91261905Y-80453390D01*
X91261905Y-80453390D02*
X91357143Y-80405771D01*
X91357143Y-80405771D02*
X91595238Y-80405771D01*
X91595238Y-80405771D02*
X91690476Y-80453390D01*
X91690476Y-80453390D02*
X91738095Y-80501009D01*
X91738095Y-80501009D02*
X91785714Y-80596247D01*
X91785714Y-80596247D02*
X91785714Y-80834342D01*
X91785714Y-80834342D02*
X91738095Y-80929580D01*
X91738095Y-80929580D02*
X91690476Y-80977200D01*
X91690476Y-80977200D02*
X91595238Y-81024819D01*
X91595238Y-81024819D02*
X91357143Y-81024819D01*
X91357143Y-81024819D02*
X91261905Y-80977200D01*
X91261905Y-80977200D02*
X91214286Y-80929580D01*
X103666666Y-76354819D02*
X103666666Y-77069104D01*
X103666666Y-77069104D02*
X103619047Y-77211961D01*
X103619047Y-77211961D02*
X103523809Y-77307200D01*
X103523809Y-77307200D02*
X103380952Y-77354819D01*
X103380952Y-77354819D02*
X103285714Y-77354819D01*
X104666666Y-77354819D02*
X104095238Y-77354819D01*
X104380952Y-77354819D02*
X104380952Y-76354819D01*
X104380952Y-76354819D02*
X104285714Y-76497676D01*
X104285714Y-76497676D02*
X104190476Y-76592914D01*
X104190476Y-76592914D02*
X104095238Y-76640533D01*
X89666666Y-97254819D02*
X89333333Y-96778628D01*
X89095238Y-97254819D02*
X89095238Y-96254819D01*
X89095238Y-96254819D02*
X89476190Y-96254819D01*
X89476190Y-96254819D02*
X89571428Y-96302438D01*
X89571428Y-96302438D02*
X89619047Y-96350057D01*
X89619047Y-96350057D02*
X89666666Y-96445295D01*
X89666666Y-96445295D02*
X89666666Y-96588152D01*
X89666666Y-96588152D02*
X89619047Y-96683390D01*
X89619047Y-96683390D02*
X89571428Y-96731009D01*
X89571428Y-96731009D02*
X89476190Y-96778628D01*
X89476190Y-96778628D02*
X89095238Y-96778628D01*
X90095238Y-96731009D02*
X90428571Y-96731009D01*
X90571428Y-97254819D02*
X90095238Y-97254819D01*
X90095238Y-97254819D02*
X90095238Y-96254819D01*
X90095238Y-96254819D02*
X90571428Y-96254819D01*
X91333333Y-96731009D02*
X91000000Y-96731009D01*
X91000000Y-97254819D02*
X91000000Y-96254819D01*
X91000000Y-96254819D02*
X91476190Y-96254819D01*
X92000000Y-96254819D02*
X92000000Y-96492914D01*
X91761905Y-96397676D02*
X92000000Y-96492914D01*
X92000000Y-96492914D02*
X92238095Y-96397676D01*
X91857143Y-96683390D02*
X92000000Y-96492914D01*
X92000000Y-96492914D02*
X92142857Y-96683390D01*
X92761905Y-96254819D02*
X92761905Y-96492914D01*
X92523810Y-96397676D02*
X92761905Y-96492914D01*
X92761905Y-96492914D02*
X93000000Y-96397676D01*
X92619048Y-96683390D02*
X92761905Y-96492914D01*
X92761905Y-96492914D02*
X92904762Y-96683390D01*
X90833333Y-89929580D02*
X90785714Y-89977200D01*
X90785714Y-89977200D02*
X90642857Y-90024819D01*
X90642857Y-90024819D02*
X90547619Y-90024819D01*
X90547619Y-90024819D02*
X90404762Y-89977200D01*
X90404762Y-89977200D02*
X90309524Y-89881961D01*
X90309524Y-89881961D02*
X90261905Y-89786723D01*
X90261905Y-89786723D02*
X90214286Y-89596247D01*
X90214286Y-89596247D02*
X90214286Y-89453390D01*
X90214286Y-89453390D02*
X90261905Y-89262914D01*
X90261905Y-89262914D02*
X90309524Y-89167676D01*
X90309524Y-89167676D02*
X90404762Y-89072438D01*
X90404762Y-89072438D02*
X90547619Y-89024819D01*
X90547619Y-89024819D02*
X90642857Y-89024819D01*
X90642857Y-89024819D02*
X90785714Y-89072438D01*
X90785714Y-89072438D02*
X90833333Y-89120057D01*
X91404762Y-89453390D02*
X91309524Y-89405771D01*
X91309524Y-89405771D02*
X91261905Y-89358152D01*
X91261905Y-89358152D02*
X91214286Y-89262914D01*
X91214286Y-89262914D02*
X91214286Y-89215295D01*
X91214286Y-89215295D02*
X91261905Y-89120057D01*
X91261905Y-89120057D02*
X91309524Y-89072438D01*
X91309524Y-89072438D02*
X91404762Y-89024819D01*
X91404762Y-89024819D02*
X91595238Y-89024819D01*
X91595238Y-89024819D02*
X91690476Y-89072438D01*
X91690476Y-89072438D02*
X91738095Y-89120057D01*
X91738095Y-89120057D02*
X91785714Y-89215295D01*
X91785714Y-89215295D02*
X91785714Y-89262914D01*
X91785714Y-89262914D02*
X91738095Y-89358152D01*
X91738095Y-89358152D02*
X91690476Y-89405771D01*
X91690476Y-89405771D02*
X91595238Y-89453390D01*
X91595238Y-89453390D02*
X91404762Y-89453390D01*
X91404762Y-89453390D02*
X91309524Y-89501009D01*
X91309524Y-89501009D02*
X91261905Y-89548628D01*
X91261905Y-89548628D02*
X91214286Y-89643866D01*
X91214286Y-89643866D02*
X91214286Y-89834342D01*
X91214286Y-89834342D02*
X91261905Y-89929580D01*
X91261905Y-89929580D02*
X91309524Y-89977200D01*
X91309524Y-89977200D02*
X91404762Y-90024819D01*
X91404762Y-90024819D02*
X91595238Y-90024819D01*
X91595238Y-90024819D02*
X91690476Y-89977200D01*
X91690476Y-89977200D02*
X91738095Y-89929580D01*
X91738095Y-89929580D02*
X91785714Y-89834342D01*
X91785714Y-89834342D02*
X91785714Y-89643866D01*
X91785714Y-89643866D02*
X91738095Y-89548628D01*
X91738095Y-89548628D02*
X91690476Y-89501009D01*
X91690476Y-89501009D02*
X91595238Y-89453390D01*
X93695833Y-73759580D02*
X93648214Y-73807200D01*
X93648214Y-73807200D02*
X93505357Y-73854819D01*
X93505357Y-73854819D02*
X93410119Y-73854819D01*
X93410119Y-73854819D02*
X93267262Y-73807200D01*
X93267262Y-73807200D02*
X93172024Y-73711961D01*
X93172024Y-73711961D02*
X93124405Y-73616723D01*
X93124405Y-73616723D02*
X93076786Y-73426247D01*
X93076786Y-73426247D02*
X93076786Y-73283390D01*
X93076786Y-73283390D02*
X93124405Y-73092914D01*
X93124405Y-73092914D02*
X93172024Y-72997676D01*
X93172024Y-72997676D02*
X93267262Y-72902438D01*
X93267262Y-72902438D02*
X93410119Y-72854819D01*
X93410119Y-72854819D02*
X93505357Y-72854819D01*
X93505357Y-72854819D02*
X93648214Y-72902438D01*
X93648214Y-72902438D02*
X93695833Y-72950057D01*
X94076786Y-72950057D02*
X94124405Y-72902438D01*
X94124405Y-72902438D02*
X94219643Y-72854819D01*
X94219643Y-72854819D02*
X94457738Y-72854819D01*
X94457738Y-72854819D02*
X94552976Y-72902438D01*
X94552976Y-72902438D02*
X94600595Y-72950057D01*
X94600595Y-72950057D02*
X94648214Y-73045295D01*
X94648214Y-73045295D02*
X94648214Y-73140533D01*
X94648214Y-73140533D02*
X94600595Y-73283390D01*
X94600595Y-73283390D02*
X94029167Y-73854819D01*
X94029167Y-73854819D02*
X94648214Y-73854819D01*
X90833333Y-83929580D02*
X90785714Y-83977200D01*
X90785714Y-83977200D02*
X90642857Y-84024819D01*
X90642857Y-84024819D02*
X90547619Y-84024819D01*
X90547619Y-84024819D02*
X90404762Y-83977200D01*
X90404762Y-83977200D02*
X90309524Y-83881961D01*
X90309524Y-83881961D02*
X90261905Y-83786723D01*
X90261905Y-83786723D02*
X90214286Y-83596247D01*
X90214286Y-83596247D02*
X90214286Y-83453390D01*
X90214286Y-83453390D02*
X90261905Y-83262914D01*
X90261905Y-83262914D02*
X90309524Y-83167676D01*
X90309524Y-83167676D02*
X90404762Y-83072438D01*
X90404762Y-83072438D02*
X90547619Y-83024819D01*
X90547619Y-83024819D02*
X90642857Y-83024819D01*
X90642857Y-83024819D02*
X90785714Y-83072438D01*
X90785714Y-83072438D02*
X90833333Y-83120057D01*
X91690476Y-83024819D02*
X91500000Y-83024819D01*
X91500000Y-83024819D02*
X91404762Y-83072438D01*
X91404762Y-83072438D02*
X91357143Y-83120057D01*
X91357143Y-83120057D02*
X91261905Y-83262914D01*
X91261905Y-83262914D02*
X91214286Y-83453390D01*
X91214286Y-83453390D02*
X91214286Y-83834342D01*
X91214286Y-83834342D02*
X91261905Y-83929580D01*
X91261905Y-83929580D02*
X91309524Y-83977200D01*
X91309524Y-83977200D02*
X91404762Y-84024819D01*
X91404762Y-84024819D02*
X91595238Y-84024819D01*
X91595238Y-84024819D02*
X91690476Y-83977200D01*
X91690476Y-83977200D02*
X91738095Y-83929580D01*
X91738095Y-83929580D02*
X91785714Y-83834342D01*
X91785714Y-83834342D02*
X91785714Y-83596247D01*
X91785714Y-83596247D02*
X91738095Y-83501009D01*
X91738095Y-83501009D02*
X91690476Y-83453390D01*
X91690476Y-83453390D02*
X91595238Y-83405771D01*
X91595238Y-83405771D02*
X91404762Y-83405771D01*
X91404762Y-83405771D02*
X91309524Y-83453390D01*
X91309524Y-83453390D02*
X91261905Y-83501009D01*
X91261905Y-83501009D02*
X91214286Y-83596247D01*
X96024819Y-95079166D02*
X95548628Y-95412499D01*
X96024819Y-95650594D02*
X95024819Y-95650594D01*
X95024819Y-95650594D02*
X95024819Y-95269642D01*
X95024819Y-95269642D02*
X95072438Y-95174404D01*
X95072438Y-95174404D02*
X95120057Y-95126785D01*
X95120057Y-95126785D02*
X95215295Y-95079166D01*
X95215295Y-95079166D02*
X95358152Y-95079166D01*
X95358152Y-95079166D02*
X95453390Y-95126785D01*
X95453390Y-95126785D02*
X95501009Y-95174404D01*
X95501009Y-95174404D02*
X95548628Y-95269642D01*
X95548628Y-95269642D02*
X95548628Y-95650594D01*
X95120057Y-94698213D02*
X95072438Y-94650594D01*
X95072438Y-94650594D02*
X95024819Y-94555356D01*
X95024819Y-94555356D02*
X95024819Y-94317261D01*
X95024819Y-94317261D02*
X95072438Y-94222023D01*
X95072438Y-94222023D02*
X95120057Y-94174404D01*
X95120057Y-94174404D02*
X95215295Y-94126785D01*
X95215295Y-94126785D02*
X95310533Y-94126785D01*
X95310533Y-94126785D02*
X95453390Y-94174404D01*
X95453390Y-94174404D02*
X96024819Y-94745832D01*
X96024819Y-94745832D02*
X96024819Y-94126785D01*
X109770057Y-94295238D02*
X109722438Y-94390476D01*
X109722438Y-94390476D02*
X109627200Y-94485714D01*
X109627200Y-94485714D02*
X109484342Y-94628571D01*
X109484342Y-94628571D02*
X109436723Y-94723809D01*
X109436723Y-94723809D02*
X109436723Y-94819047D01*
X109674819Y-94771428D02*
X109627200Y-94866666D01*
X109627200Y-94866666D02*
X109531961Y-94961904D01*
X109531961Y-94961904D02*
X109341485Y-95009523D01*
X109341485Y-95009523D02*
X109008152Y-95009523D01*
X109008152Y-95009523D02*
X108817676Y-94961904D01*
X108817676Y-94961904D02*
X108722438Y-94866666D01*
X108722438Y-94866666D02*
X108674819Y-94771428D01*
X108674819Y-94771428D02*
X108674819Y-94580952D01*
X108674819Y-94580952D02*
X108722438Y-94485714D01*
X108722438Y-94485714D02*
X108817676Y-94390476D01*
X108817676Y-94390476D02*
X109008152Y-94342857D01*
X109008152Y-94342857D02*
X109341485Y-94342857D01*
X109341485Y-94342857D02*
X109531961Y-94390476D01*
X109531961Y-94390476D02*
X109627200Y-94485714D01*
X109627200Y-94485714D02*
X109674819Y-94580952D01*
X109674819Y-94580952D02*
X109674819Y-94771428D01*
X109674819Y-93390476D02*
X109674819Y-93961904D01*
X109674819Y-93676190D02*
X108674819Y-93676190D01*
X108674819Y-93676190D02*
X108817676Y-93771428D01*
X108817676Y-93771428D02*
X108912914Y-93866666D01*
X108912914Y-93866666D02*
X108960533Y-93961904D01*
X101396666Y-66354819D02*
X101396666Y-67069104D01*
X101396666Y-67069104D02*
X101349047Y-67211961D01*
X101349047Y-67211961D02*
X101253809Y-67307200D01*
X101253809Y-67307200D02*
X101110952Y-67354819D01*
X101110952Y-67354819D02*
X101015714Y-67354819D01*
X101825238Y-66450057D02*
X101872857Y-66402438D01*
X101872857Y-66402438D02*
X101968095Y-66354819D01*
X101968095Y-66354819D02*
X102206190Y-66354819D01*
X102206190Y-66354819D02*
X102301428Y-66402438D01*
X102301428Y-66402438D02*
X102349047Y-66450057D01*
X102349047Y-66450057D02*
X102396666Y-66545295D01*
X102396666Y-66545295D02*
X102396666Y-66640533D01*
X102396666Y-66640533D02*
X102349047Y-66783390D01*
X102349047Y-66783390D02*
X101777619Y-67354819D01*
X101777619Y-67354819D02*
X102396666Y-67354819D01*
X114666666Y-60254819D02*
X114333333Y-59778628D01*
X114095238Y-60254819D02*
X114095238Y-59254819D01*
X114095238Y-59254819D02*
X114476190Y-59254819D01*
X114476190Y-59254819D02*
X114571428Y-59302438D01*
X114571428Y-59302438D02*
X114619047Y-59350057D01*
X114619047Y-59350057D02*
X114666666Y-59445295D01*
X114666666Y-59445295D02*
X114666666Y-59588152D01*
X114666666Y-59588152D02*
X114619047Y-59683390D01*
X114619047Y-59683390D02*
X114571428Y-59731009D01*
X114571428Y-59731009D02*
X114476190Y-59778628D01*
X114476190Y-59778628D02*
X114095238Y-59778628D01*
X115095238Y-59731009D02*
X115428571Y-59731009D01*
X115571428Y-60254819D02*
X115095238Y-60254819D01*
X115095238Y-60254819D02*
X115095238Y-59254819D01*
X115095238Y-59254819D02*
X115571428Y-59254819D01*
X116333333Y-59731009D02*
X116000000Y-59731009D01*
X116000000Y-60254819D02*
X116000000Y-59254819D01*
X116000000Y-59254819D02*
X116476190Y-59254819D01*
X117000000Y-59254819D02*
X117000000Y-59492914D01*
X116761905Y-59397676D02*
X117000000Y-59492914D01*
X117000000Y-59492914D02*
X117238095Y-59397676D01*
X116857143Y-59683390D02*
X117000000Y-59492914D01*
X117000000Y-59492914D02*
X117142857Y-59683390D01*
X117761905Y-59254819D02*
X117761905Y-59492914D01*
X117523810Y-59397676D02*
X117761905Y-59492914D01*
X117761905Y-59492914D02*
X118000000Y-59397676D01*
X117619048Y-59683390D02*
X117761905Y-59492914D01*
X117761905Y-59492914D02*
X117904762Y-59683390D01*
X90695833Y-77359580D02*
X90648214Y-77407200D01*
X90648214Y-77407200D02*
X90505357Y-77454819D01*
X90505357Y-77454819D02*
X90410119Y-77454819D01*
X90410119Y-77454819D02*
X90267262Y-77407200D01*
X90267262Y-77407200D02*
X90172024Y-77311961D01*
X90172024Y-77311961D02*
X90124405Y-77216723D01*
X90124405Y-77216723D02*
X90076786Y-77026247D01*
X90076786Y-77026247D02*
X90076786Y-76883390D01*
X90076786Y-76883390D02*
X90124405Y-76692914D01*
X90124405Y-76692914D02*
X90172024Y-76597676D01*
X90172024Y-76597676D02*
X90267262Y-76502438D01*
X90267262Y-76502438D02*
X90410119Y-76454819D01*
X90410119Y-76454819D02*
X90505357Y-76454819D01*
X90505357Y-76454819D02*
X90648214Y-76502438D01*
X90648214Y-76502438D02*
X90695833Y-76550057D01*
X91552976Y-76788152D02*
X91552976Y-77454819D01*
X91314881Y-76407200D02*
X91076786Y-77121485D01*
X91076786Y-77121485D02*
X91695833Y-77121485D01*
D11*
%TO.C,C1*%
X90853733Y-68490000D02*
X91146267Y-68490000D01*
X90853733Y-69510000D02*
X91146267Y-69510000D01*
%TO.C,C7*%
X90716233Y-87490000D02*
X91008767Y-87490000D01*
X90716233Y-88510000D02*
X91008767Y-88510000D01*
%TO.C,J4*%
X111970000Y-72100000D02*
X111970000Y-77400000D01*
X111970000Y-74280000D02*
X112570000Y-74280000D01*
X111970000Y-76820000D02*
X112570000Y-76820000D01*
X111970000Y-77400000D02*
X117990000Y-77400000D01*
X112570000Y-72680000D02*
X111970000Y-72680000D01*
X112570000Y-74280000D02*
X112570000Y-72680000D01*
X112570000Y-75220000D02*
X111970000Y-75220000D01*
X112570000Y-76820000D02*
X112570000Y-75220000D01*
X113000000Y-77690000D02*
X117000000Y-77690000D01*
X116460000Y-73730000D02*
X116990000Y-73480000D01*
X116460000Y-75770000D02*
X116460000Y-73730000D01*
X116990000Y-73480000D02*
X117990000Y-73480000D01*
X116990000Y-76020000D02*
X116460000Y-75770000D01*
X116990000Y-76020000D02*
X116990000Y-73480000D01*
X117990000Y-72100000D02*
X111970000Y-72100000D01*
X117990000Y-73730000D02*
X116990000Y-73730000D01*
X117990000Y-75770000D02*
X116990000Y-75770000D01*
X117990000Y-76020000D02*
X116990000Y-76020000D01*
X117990000Y-77400000D02*
X117990000Y-72100000D01*
%TO.C,C3*%
X90853733Y-74490000D02*
X91146267Y-74490000D01*
X90853733Y-75510000D02*
X91146267Y-75510000D01*
%TO.C,C9*%
X90853733Y-93490000D02*
X91146267Y-93490000D01*
X90853733Y-94510000D02*
X91146267Y-94510000D01*
%TO.C,J3*%
X111970000Y-80100000D02*
X111970000Y-85400000D01*
X111970000Y-82280000D02*
X112570000Y-82280000D01*
X111970000Y-84820000D02*
X112570000Y-84820000D01*
X111970000Y-85400000D02*
X117990000Y-85400000D01*
X112570000Y-80680000D02*
X111970000Y-80680000D01*
X112570000Y-82280000D02*
X112570000Y-80680000D01*
X112570000Y-83220000D02*
X111970000Y-83220000D01*
X112570000Y-84820000D02*
X112570000Y-83220000D01*
X113000000Y-85690000D02*
X117000000Y-85690000D01*
X116460000Y-81730000D02*
X116990000Y-81480000D01*
X116460000Y-83770000D02*
X116460000Y-81730000D01*
X116990000Y-81480000D02*
X117990000Y-81480000D01*
X116990000Y-84020000D02*
X116460000Y-83770000D01*
X116990000Y-84020000D02*
X116990000Y-81480000D01*
X117990000Y-80100000D02*
X111970000Y-80100000D01*
X117990000Y-81730000D02*
X116990000Y-81730000D01*
X117990000Y-83770000D02*
X116990000Y-83770000D01*
X117990000Y-84020000D02*
X116990000Y-84020000D01*
X117990000Y-85400000D02*
X117990000Y-80100000D01*
%TO.C,F1*%
X113002064Y-92110000D02*
X111797936Y-92110000D01*
X113002064Y-93930000D02*
X111797936Y-93930000D01*
%TO.C,D1*%
X95220000Y-62000000D02*
X96130000Y-62000000D01*
X96130000Y-59280000D02*
X96130000Y-64720000D01*
X96130000Y-64720000D02*
X105870000Y-64720000D01*
X97555000Y-59280000D02*
X97555000Y-64720000D01*
X97675000Y-59280000D02*
X97675000Y-64720000D01*
X97795000Y-59280000D02*
X97795000Y-64720000D01*
X105870000Y-59280000D02*
X96130000Y-59280000D01*
X105870000Y-64720000D02*
X105870000Y-59280000D01*
X106780000Y-62000000D02*
X105870000Y-62000000D01*
%TO.C,C5*%
X90853733Y-81490000D02*
X91146267Y-81490000D01*
X90853733Y-82510000D02*
X91146267Y-82510000D01*
%TO.C,J1*%
X99790000Y-79020000D02*
X99790000Y-83020000D01*
X100080000Y-77990000D02*
X100080000Y-84010000D01*
X100080000Y-84010000D02*
X107920000Y-84010000D01*
X100660000Y-77990000D02*
X100660000Y-78590000D01*
X100660000Y-78590000D02*
X102260000Y-78590000D01*
X101460000Y-83010000D02*
X101710000Y-82480000D01*
X101460000Y-83010000D02*
X106540000Y-83010000D01*
X101460000Y-84010000D02*
X101460000Y-83010000D01*
X101710000Y-82480000D02*
X106290000Y-82480000D01*
X101710000Y-84010000D02*
X101710000Y-83010000D01*
X102260000Y-78590000D02*
X102260000Y-77990000D01*
X103200000Y-77990000D02*
X103200000Y-78590000D01*
X103200000Y-78590000D02*
X104800000Y-78590000D01*
X104800000Y-78590000D02*
X104800000Y-77990000D01*
X105740000Y-77990000D02*
X105740000Y-78590000D01*
X105740000Y-78590000D02*
X107340000Y-78590000D01*
X106290000Y-82480000D02*
X106540000Y-83010000D01*
X106290000Y-84010000D02*
X106290000Y-83010000D01*
X106540000Y-83010000D02*
X106540000Y-84010000D01*
X107340000Y-78590000D02*
X107340000Y-77990000D01*
X107920000Y-77990000D02*
X100080000Y-77990000D01*
X107920000Y-84010000D02*
X107920000Y-77990000D01*
%TO.C,C8*%
X90853733Y-90490000D02*
X91146267Y-90490000D01*
X90853733Y-91510000D02*
X91146267Y-91510000D01*
%TO.C,C2*%
X93716233Y-71490000D02*
X94008767Y-71490000D01*
X93716233Y-72510000D02*
X94008767Y-72510000D01*
%TO.C,C6*%
X90853733Y-84490000D02*
X91146267Y-84490000D01*
X90853733Y-85510000D02*
X91146267Y-85510000D01*
%TO.C,R2*%
X96477500Y-95167224D02*
X96477500Y-94657776D01*
X97522500Y-95167224D02*
X97522500Y-94657776D01*
%TO.C,Q1*%
X101270000Y-91730000D02*
X101540000Y-91730000D01*
X101270000Y-93230000D02*
X101270000Y-91730000D01*
X101540000Y-91730000D02*
X101540000Y-90630000D01*
X107900000Y-91730000D02*
X107900000Y-88900000D01*
X108170000Y-91730000D02*
X107900000Y-91730000D01*
X108170000Y-93230000D02*
X108170000Y-91730000D01*
%TO.C,J2*%
X98790000Y-69020000D02*
X98790000Y-73020000D01*
X99080000Y-67990000D02*
X99080000Y-74010000D01*
X99080000Y-74010000D02*
X104380000Y-74010000D01*
X99660000Y-67990000D02*
X99660000Y-68590000D01*
X99660000Y-68590000D02*
X101260000Y-68590000D01*
X100460000Y-73010000D02*
X100710000Y-72480000D01*
X100460000Y-73010000D02*
X103000000Y-73010000D01*
X100460000Y-74010000D02*
X100460000Y-73010000D01*
X100710000Y-72480000D02*
X102750000Y-72480000D01*
X100710000Y-74010000D02*
X100710000Y-73010000D01*
X101260000Y-68590000D02*
X101260000Y-67990000D01*
X102200000Y-67990000D02*
X102200000Y-68590000D01*
X102200000Y-68590000D02*
X103800000Y-68590000D01*
X102750000Y-72480000D02*
X103000000Y-73010000D01*
X102750000Y-74010000D02*
X102750000Y-73010000D01*
X103000000Y-73010000D02*
X103000000Y-74010000D01*
X103800000Y-68590000D02*
X103800000Y-67990000D01*
X104380000Y-67990000D02*
X99080000Y-67990000D01*
X104380000Y-74010000D02*
X104380000Y-67990000D01*
%TO.C,C4*%
X90853733Y-78490000D02*
X91146267Y-78490000D01*
X90853733Y-79510000D02*
X91146267Y-79510000D01*
%TD*%
M02*
