%TF.GenerationSoftware,KiCad,Pcbnew,8.0.9*%
%TF.CreationDate,2025-09-30T21:00:13-05:00*%
%TF.ProjectId,Horns_pro,486f726e-735f-4707-926f-2e6b69636164,1.0*%
%TF.SameCoordinates,Original*%
%TF.FileFunction,Copper,L1,Top*%
%TF.FilePolarity,Positive*%
%FSLAX46Y46*%
G04 Gerber Fmt 4.6, Leading zero omitted, Abs format (unit mm)*
G04 Created by KiCad (PCBNEW 8.0.9) date 2025-09-30 21:00:13*
%MOMM*%
%LPD*%
G01*
G04 APERTURE LIST*
G04 Aperture macros list*
%AMRoundRect*
0 Rectangle with rounded corners*
0 $1 Rounding radius*
0 $2 $3 $4 $5 $6 $7 $8 $9 X,Y pos of 4 corners*
0 Add a 4 corners polygon primitive as box body*
4,1,4,$2,$3,$4,$5,$6,$7,$8,$9,$2,$3,0*
0 Add four circle primitives for the rounded corners*
1,1,$1+$1,$2,$3*
1,1,$1+$1,$4,$5*
1,1,$1+$1,$6,$7*
1,1,$1+$1,$8,$9*
0 Add four rect primitives between the rounded corners*
20,1,$1+$1,$2,$3,$4,$5,0*
20,1,$1+$1,$4,$5,$6,$7,0*
20,1,$1+$1,$6,$7,$8,$9,0*
20,1,$1+$1,$8,$9,$2,$3,0*%
G04 Aperture macros list end*
%TA.AperFunction,SMDPad,CuDef*%
%ADD10RoundRect,0.237500X-0.300000X-0.237500X0.300000X-0.237500X0.300000X0.237500X-0.300000X0.237500X0*%
%TD*%
%TA.AperFunction,ComponentPad*%
%ADD11RoundRect,0.250000X0.845000X-0.620000X0.845000X0.620000X-0.845000X0.620000X-0.845000X-0.620000X0*%
%TD*%
%TA.AperFunction,ComponentPad*%
%ADD12O,2.190000X1.740000*%
%TD*%
%TA.AperFunction,SMDPad,CuDef*%
%ADD13RoundRect,0.250000X0.375000X0.625000X-0.375000X0.625000X-0.375000X-0.625000X0.375000X-0.625000X0*%
%TD*%
%TA.AperFunction,ComponentPad*%
%ADD14R,3.200000X3.200000*%
%TD*%
%TA.AperFunction,ComponentPad*%
%ADD15O,3.200000X3.200000*%
%TD*%
%TA.AperFunction,ComponentPad*%
%ADD16RoundRect,0.250000X-0.620000X-0.845000X0.620000X-0.845000X0.620000X0.845000X-0.620000X0.845000X0*%
%TD*%
%TA.AperFunction,ComponentPad*%
%ADD17O,1.740000X2.190000*%
%TD*%
%TA.AperFunction,SMDPad,CuDef*%
%ADD18RoundRect,0.237500X0.237500X-0.250000X0.237500X0.250000X-0.237500X0.250000X-0.237500X-0.250000X0*%
%TD*%
%TA.AperFunction,SMDPad,CuDef*%
%ADD19R,1.200000X2.200000*%
%TD*%
%TA.AperFunction,SMDPad,CuDef*%
%ADD20R,5.800000X6.400000*%
%TD*%
%TA.AperFunction,ViaPad*%
%ADD21C,0.800000*%
%TD*%
%TA.AperFunction,Conductor*%
%ADD22C,0.250000*%
%TD*%
G04 APERTURE END LIST*
D10*
%TO.P,C1,1*%
%TO.N,+24V*%
X90137500Y-69000000D03*
%TO.P,C1,2*%
%TO.N,GND*%
X91862500Y-69000000D03*
%TD*%
%TO.P,C7,1*%
%TO.N,+24V*%
X90000000Y-88000000D03*
%TO.P,C7,2*%
%TO.N,GND*%
X91725000Y-88000000D03*
%TD*%
D11*
%TO.P,J4,1,Pin_1*%
%TO.N,Net-(J3-Pin_2)*%
X115000000Y-76020000D03*
D12*
%TO.P,J4,2,Pin_2*%
%TO.N,+24V*%
X115000000Y-73480000D03*
%TD*%
D10*
%TO.P,C3,1*%
%TO.N,+24V*%
X90137500Y-75000000D03*
%TO.P,C3,2*%
%TO.N,GND*%
X91862500Y-75000000D03*
%TD*%
%TO.P,C9,1*%
%TO.N,+24V*%
X90137500Y-94000000D03*
%TO.P,C9,2*%
%TO.N,GND*%
X91862500Y-94000000D03*
%TD*%
D11*
%TO.P,J3,1,Pin_1*%
%TO.N,Net-(J3-Pin_1)*%
X115000000Y-84020000D03*
D12*
%TO.P,J3,2,Pin_2*%
%TO.N,Net-(J3-Pin_2)*%
X115000000Y-81480000D03*
%TD*%
D13*
%TO.P,F1,1*%
%TO.N,Net-(J3-Pin_1)*%
X113800000Y-93020000D03*
%TO.P,F1,2*%
%TO.N,Net-(Q1-D)*%
X111000000Y-93020000D03*
%TD*%
D14*
%TO.P,D1,1,K*%
%TO.N,Net-(D1-K)*%
X93380000Y-62000000D03*
D15*
%TO.P,D1,2,A*%
%TO.N,/Horn input*%
X108620000Y-62000000D03*
%TD*%
D10*
%TO.P,C5,1*%
%TO.N,+24V*%
X90137500Y-82000000D03*
%TO.P,C5,2*%
%TO.N,GND*%
X91862500Y-82000000D03*
%TD*%
D16*
%TO.P,J1,1,Pin_1*%
%TO.N,GND*%
X101460000Y-81020000D03*
D17*
%TO.P,J1,2,Pin_2*%
%TO.N,+24V*%
X104000000Y-81020000D03*
%TO.P,J1,3,Pin_3*%
%TO.N,GND*%
X106540000Y-81020000D03*
%TD*%
D10*
%TO.P,C8,1*%
%TO.N,+24V*%
X90137500Y-91000000D03*
%TO.P,C8,2*%
%TO.N,GND*%
X91862500Y-91000000D03*
%TD*%
%TO.P,C2,1*%
%TO.N,GND*%
X93000000Y-72000000D03*
%TO.P,C2,2*%
%TO.N,Net-(D1-K)*%
X94725000Y-72000000D03*
%TD*%
%TO.P,C6,1*%
%TO.N,+24V*%
X90137500Y-85000000D03*
%TO.P,C6,2*%
%TO.N,GND*%
X91862500Y-85000000D03*
%TD*%
D18*
%TO.P,R2,1*%
%TO.N,GND*%
X97000000Y-95825000D03*
%TO.P,R2,2*%
%TO.N,Net-(D1-K)*%
X97000000Y-94000000D03*
%TD*%
D19*
%TO.P,Q1,1,D*%
%TO.N,Net-(Q1-D)*%
X107000000Y-90000000D03*
D20*
%TO.P,Q1,2,G*%
%TO.N,Net-(D1-K)*%
X104720000Y-96300000D03*
D19*
%TO.P,Q1,3,S*%
%TO.N,GND*%
X102440000Y-90000000D03*
%TD*%
D16*
%TO.P,J2,1,Pin_1*%
%TO.N,GND*%
X100460000Y-71020000D03*
D17*
%TO.P,J2,2,Pin_2*%
%TO.N,/Horn input*%
X103000000Y-71020000D03*
%TD*%
D10*
%TO.P,C4,1*%
%TO.N,+24V*%
X90137500Y-79000000D03*
%TO.P,C4,2*%
%TO.N,GND*%
X91862500Y-79000000D03*
%TD*%
D21*
%TO.N,GND*%
X99000000Y-89000000D03*
X97000000Y-99000000D03*
X98000000Y-76000000D03*
%TD*%
D22*
%TO.N,+24V*%
X90137500Y-94000000D02*
X90137500Y-91000000D01*
X89275000Y-74137500D02*
X89275000Y-69862500D01*
X90137500Y-85000000D02*
X90137500Y-82000000D01*
X89275000Y-69862500D02*
X90137500Y-69000000D01*
X90137500Y-91000000D02*
X90137500Y-88137500D01*
X90137500Y-79000000D02*
X90137500Y-75000000D01*
X90137500Y-75000000D02*
X89275000Y-74137500D01*
X90000000Y-85137500D02*
X90137500Y-85000000D01*
X90000000Y-88000000D02*
X90000000Y-85137500D01*
X90137500Y-82000000D02*
X90137500Y-79000000D01*
X90137500Y-88137500D02*
X90000000Y-88000000D01*
%TO.N,GND*%
X100460000Y-71020000D02*
X100460000Y-73540000D01*
X100000000Y-89000000D02*
X101000000Y-90000000D01*
X97000000Y-99000000D02*
X97000000Y-95825000D01*
X91862500Y-90137500D02*
X91725000Y-90000000D01*
X100460000Y-73540000D02*
X98000000Y-76000000D01*
X91862500Y-69000000D02*
X91862500Y-70862500D01*
X95000000Y-94000000D02*
X91862500Y-94000000D01*
X91862500Y-73137500D02*
X93000000Y-72000000D01*
X97000000Y-96000000D02*
X95000000Y-94000000D01*
X91862500Y-87137500D02*
X91862500Y-85000000D01*
X91862500Y-94000000D02*
X91862500Y-91000000D01*
X91725000Y-87275000D02*
X91862500Y-87137500D01*
X91862500Y-82000000D02*
X91862500Y-79000000D01*
X91862500Y-91000000D02*
X91862500Y-90137500D01*
X91862500Y-75000000D02*
X91862500Y-73137500D01*
X91725000Y-90000000D02*
X91725000Y-88000000D01*
X99000000Y-89000000D02*
X100000000Y-89000000D01*
X91725000Y-88000000D02*
X91725000Y-87275000D01*
X91862500Y-79000000D02*
X91862500Y-75000000D01*
X101000000Y-90000000D02*
X102440000Y-90000000D01*
X91862500Y-85000000D02*
X91862500Y-82000000D01*
X91862500Y-70862500D02*
X93000000Y-72000000D01*
%TO.N,Net-(D1-K)*%
X97000000Y-92000000D02*
X96000000Y-91000000D01*
X96000000Y-90000000D02*
X94725000Y-88725000D01*
X94725000Y-63345000D02*
X93380000Y-62000000D01*
X99300000Y-96300000D02*
X97000000Y-94000000D01*
X94725000Y-72000000D02*
X94725000Y-63345000D01*
X96000000Y-91000000D02*
X96000000Y-90000000D01*
X104720000Y-96300000D02*
X99300000Y-96300000D01*
X94725000Y-88725000D02*
X94725000Y-72000000D01*
X97000000Y-94000000D02*
X97000000Y-92000000D01*
%TO.N,/Horn input*%
X103000000Y-67620000D02*
X108620000Y-62000000D01*
X103000000Y-71020000D02*
X103000000Y-67620000D01*
%TO.N,Net-(J3-Pin_1)*%
X115000000Y-84020000D02*
X115000000Y-91820000D01*
X115000000Y-91820000D02*
X113800000Y-93020000D01*
%TO.N,Net-(Q1-D)*%
X110020000Y-93020000D02*
X107000000Y-90000000D01*
X111000000Y-93020000D02*
X110020000Y-93020000D01*
%TO.N,Net-(J3-Pin_2)*%
X115000000Y-76020000D02*
X115000000Y-81480000D01*
%TD*%
%TA.AperFunction,Conductor*%
%TO.N,+24V*%
G36*
X116172330Y-57828436D02*
G01*
X116178982Y-57828514D01*
X116362618Y-57830694D01*
X116373281Y-57831281D01*
X116752807Y-57868658D01*
X116764834Y-57870443D01*
X117138121Y-57944692D01*
X117149921Y-57947647D01*
X117514156Y-58058136D01*
X117525603Y-58062232D01*
X117877240Y-58207883D01*
X117888227Y-58213080D01*
X118223909Y-58392504D01*
X118234317Y-58398742D01*
X118550804Y-58610211D01*
X118560565Y-58617450D01*
X118854781Y-58858907D01*
X118863797Y-58867079D01*
X119132920Y-59136202D01*
X119141092Y-59145218D01*
X119382549Y-59439434D01*
X119389791Y-59449198D01*
X119601253Y-59765676D01*
X119607501Y-59776100D01*
X119786916Y-60111765D01*
X119792119Y-60122766D01*
X119937765Y-60474391D01*
X119941865Y-60485848D01*
X120052351Y-60850076D01*
X120055307Y-60861880D01*
X120129555Y-61235159D01*
X120131341Y-61247197D01*
X120168717Y-61626708D01*
X120169305Y-61637389D01*
X120171564Y-61827668D01*
X120171573Y-61829140D01*
X120171573Y-101170859D01*
X120171564Y-101172331D01*
X120169305Y-101362610D01*
X120168717Y-101373291D01*
X120131341Y-101752802D01*
X120129555Y-101764840D01*
X120055307Y-102138119D01*
X120052351Y-102149923D01*
X119941865Y-102514151D01*
X119937765Y-102525608D01*
X119792119Y-102877233D01*
X119786916Y-102888234D01*
X119607501Y-103223899D01*
X119601247Y-103234332D01*
X119389798Y-103550791D01*
X119382549Y-103560565D01*
X119141092Y-103854781D01*
X119132920Y-103863797D01*
X118863797Y-104132920D01*
X118854781Y-104141092D01*
X118560565Y-104382549D01*
X118550791Y-104389798D01*
X118234337Y-104601245D01*
X118223899Y-104607501D01*
X117888234Y-104786916D01*
X117877233Y-104792119D01*
X117525608Y-104937765D01*
X117514151Y-104941865D01*
X117149923Y-105052351D01*
X117138119Y-105055307D01*
X116764840Y-105129555D01*
X116752802Y-105131341D01*
X116373291Y-105168717D01*
X116362610Y-105169305D01*
X116172739Y-105171559D01*
X116170422Y-105171565D01*
X91000420Y-105000002D01*
X90999744Y-104999996D01*
X90808937Y-104997656D01*
X90798304Y-104997068D01*
X90418781Y-104959688D01*
X90406744Y-104957902D01*
X90033474Y-104883654D01*
X90021670Y-104880698D01*
X89657455Y-104770214D01*
X89645997Y-104766114D01*
X89294372Y-104620467D01*
X89283372Y-104615264D01*
X88947724Y-104435856D01*
X88937286Y-104429600D01*
X88620830Y-104218150D01*
X88611057Y-104210902D01*
X88316851Y-103969455D01*
X88307834Y-103961282D01*
X88038717Y-103692165D01*
X88030544Y-103683148D01*
X87789097Y-103388942D01*
X87781849Y-103379169D01*
X87570399Y-103062713D01*
X87564143Y-103052275D01*
X87384735Y-102716627D01*
X87379532Y-102705627D01*
X87233885Y-102354002D01*
X87229785Y-102342544D01*
X87193444Y-102222743D01*
X87119300Y-101978327D01*
X87116345Y-101966525D01*
X87087240Y-101820205D01*
X87042096Y-101593249D01*
X87040311Y-101581218D01*
X87019832Y-101373291D01*
X87002930Y-101201681D01*
X87002343Y-101191077D01*
X87000003Y-101000280D01*
X86999998Y-100999698D01*
X86999468Y-100878711D01*
X89149500Y-100878711D01*
X89149500Y-101121288D01*
X89181161Y-101361785D01*
X89243947Y-101596104D01*
X89308854Y-101752802D01*
X89336776Y-101820212D01*
X89458064Y-102030289D01*
X89458066Y-102030292D01*
X89458067Y-102030293D01*
X89605733Y-102222736D01*
X89605739Y-102222743D01*
X89777256Y-102394260D01*
X89777262Y-102394265D01*
X89969711Y-102541936D01*
X90179788Y-102663224D01*
X90403900Y-102756054D01*
X90638211Y-102818838D01*
X90818586Y-102842584D01*
X90878711Y-102850500D01*
X90878712Y-102850500D01*
X91121289Y-102850500D01*
X91169388Y-102844167D01*
X91361789Y-102818838D01*
X91596100Y-102756054D01*
X91820212Y-102663224D01*
X92030289Y-102541936D01*
X92222738Y-102394265D01*
X92394265Y-102222738D01*
X92541936Y-102030289D01*
X92663224Y-101820212D01*
X92756054Y-101596100D01*
X92818838Y-101361789D01*
X92850500Y-101121288D01*
X92850500Y-100878712D01*
X92818838Y-100638211D01*
X92756054Y-100403900D01*
X92663224Y-100179788D01*
X92541936Y-99969711D01*
X92460254Y-99863261D01*
X92394266Y-99777263D01*
X92394260Y-99777256D01*
X92222743Y-99605739D01*
X92222736Y-99605733D01*
X92030293Y-99458067D01*
X92030292Y-99458066D01*
X92030289Y-99458064D01*
X91820212Y-99336776D01*
X91820205Y-99336773D01*
X91596104Y-99243947D01*
X91361785Y-99181161D01*
X91121289Y-99149500D01*
X91121288Y-99149500D01*
X90878712Y-99149500D01*
X90878711Y-99149500D01*
X90638214Y-99181161D01*
X90403895Y-99243947D01*
X90179794Y-99336773D01*
X90179785Y-99336777D01*
X89969706Y-99458067D01*
X89777263Y-99605733D01*
X89777256Y-99605739D01*
X89605739Y-99777256D01*
X89605733Y-99777263D01*
X89458067Y-99969706D01*
X89336777Y-100179785D01*
X89336773Y-100179794D01*
X89243947Y-100403895D01*
X89181161Y-100638214D01*
X89149500Y-100878711D01*
X86999468Y-100878711D01*
X86970594Y-94286654D01*
X89100001Y-94286654D01*
X89110319Y-94387652D01*
X89164546Y-94551300D01*
X89164551Y-94551311D01*
X89255052Y-94698034D01*
X89255055Y-94698038D01*
X89376961Y-94819944D01*
X89376965Y-94819947D01*
X89523688Y-94910448D01*
X89523699Y-94910453D01*
X89687347Y-94964680D01*
X89788351Y-94974999D01*
X89887500Y-94974998D01*
X89887500Y-94250000D01*
X89100001Y-94250000D01*
X89100001Y-94286654D01*
X86970594Y-94286654D01*
X86968083Y-93713345D01*
X89100000Y-93713345D01*
X89100000Y-93750000D01*
X89887500Y-93750000D01*
X89887500Y-93024999D01*
X89788360Y-93025000D01*
X89788344Y-93025001D01*
X89687347Y-93035319D01*
X89523699Y-93089546D01*
X89523688Y-93089551D01*
X89376965Y-93180052D01*
X89376961Y-93180055D01*
X89255055Y-93301961D01*
X89255052Y-93301965D01*
X89164551Y-93448688D01*
X89164546Y-93448699D01*
X89110319Y-93612347D01*
X89100000Y-93713345D01*
X86968083Y-93713345D01*
X86957454Y-91286654D01*
X89100001Y-91286654D01*
X89110319Y-91387652D01*
X89164546Y-91551300D01*
X89164551Y-91551311D01*
X89255052Y-91698034D01*
X89255055Y-91698038D01*
X89376961Y-91819944D01*
X89376965Y-91819947D01*
X89523688Y-91910448D01*
X89523699Y-91910453D01*
X89687347Y-91964680D01*
X89788351Y-91974999D01*
X89887500Y-91974998D01*
X89887500Y-91250000D01*
X89100001Y-91250000D01*
X89100001Y-91286654D01*
X86957454Y-91286654D01*
X86954943Y-90713345D01*
X89100000Y-90713345D01*
X89100000Y-90750000D01*
X89887500Y-90750000D01*
X89887500Y-90024999D01*
X89788360Y-90025000D01*
X89788344Y-90025001D01*
X89687347Y-90035319D01*
X89523699Y-90089546D01*
X89523688Y-90089551D01*
X89376965Y-90180052D01*
X89376961Y-90180055D01*
X89255055Y-90301961D01*
X89255052Y-90301965D01*
X89164551Y-90448688D01*
X89164546Y-90448699D01*
X89110319Y-90612347D01*
X89100000Y-90713345D01*
X86954943Y-90713345D01*
X86944314Y-88286654D01*
X88962501Y-88286654D01*
X88972819Y-88387652D01*
X89027046Y-88551300D01*
X89027051Y-88551311D01*
X89117552Y-88698034D01*
X89117555Y-88698038D01*
X89239461Y-88819944D01*
X89239465Y-88819947D01*
X89386188Y-88910448D01*
X89386199Y-88910453D01*
X89549847Y-88964680D01*
X89650851Y-88974999D01*
X89750000Y-88974998D01*
X89750000Y-88250000D01*
X88962501Y-88250000D01*
X88962501Y-88286654D01*
X86944314Y-88286654D01*
X86941803Y-87713345D01*
X88962500Y-87713345D01*
X88962500Y-87750000D01*
X89750000Y-87750000D01*
X89750000Y-87025000D01*
X90250000Y-87025000D01*
X90250000Y-88974999D01*
X90349140Y-88974999D01*
X90349154Y-88974998D01*
X90450152Y-88964680D01*
X90613800Y-88910453D01*
X90613811Y-88910448D01*
X90760534Y-88819947D01*
X90768801Y-88811680D01*
X90830122Y-88778191D01*
X90899814Y-88783170D01*
X90944170Y-88811674D01*
X90959154Y-88826658D01*
X91032597Y-88871958D01*
X91079321Y-88923905D01*
X91091500Y-88977496D01*
X91091500Y-90062395D01*
X91091818Y-90065626D01*
X91091500Y-90067302D01*
X91091500Y-90068486D01*
X91091275Y-90068486D01*
X91078795Y-90134271D01*
X91030726Y-90184978D01*
X90962875Y-90201648D01*
X90903317Y-90183311D01*
X90751305Y-90089548D01*
X90751300Y-90089546D01*
X90587652Y-90035319D01*
X90486654Y-90025000D01*
X90387500Y-90025000D01*
X90387500Y-91974999D01*
X90486640Y-91974999D01*
X90486654Y-91974998D01*
X90587652Y-91964680D01*
X90751300Y-91910453D01*
X90751311Y-91910448D01*
X90898034Y-91819947D01*
X90906301Y-91811680D01*
X90967622Y-91778191D01*
X91037314Y-91783170D01*
X91081670Y-91811674D01*
X91096654Y-91826658D01*
X91170097Y-91871958D01*
X91216821Y-91923905D01*
X91229000Y-91977496D01*
X91229000Y-93022502D01*
X91209315Y-93089541D01*
X91170098Y-93128040D01*
X91096654Y-93173341D01*
X91081668Y-93188327D01*
X91020344Y-93221811D01*
X90950653Y-93216825D01*
X90906308Y-93188325D01*
X90898038Y-93180055D01*
X90898034Y-93180052D01*
X90751311Y-93089551D01*
X90751300Y-93089546D01*
X90587652Y-93035319D01*
X90486654Y-93025000D01*
X90387500Y-93025000D01*
X90387500Y-94974999D01*
X90486640Y-94974999D01*
X90486654Y-94974998D01*
X90587652Y-94964680D01*
X90751300Y-94910453D01*
X90751311Y-94910448D01*
X90898034Y-94819947D01*
X90906301Y-94811680D01*
X90967622Y-94778191D01*
X91037314Y-94783170D01*
X91081670Y-94811674D01*
X91096653Y-94826657D01*
X91096657Y-94826660D01*
X91245071Y-94918204D01*
X91245074Y-94918205D01*
X91245080Y-94918209D01*
X91410619Y-94973062D01*
X91512787Y-94983500D01*
X92212212Y-94983499D01*
X92314381Y-94973062D01*
X92479920Y-94918209D01*
X92628346Y-94826658D01*
X92751658Y-94703346D01*
X92758407Y-94692403D01*
X92810354Y-94645679D01*
X92863946Y-94633500D01*
X94686234Y-94633500D01*
X94753273Y-94653185D01*
X94773915Y-94669819D01*
X95980181Y-95876085D01*
X96013666Y-95937408D01*
X96016500Y-95963765D01*
X96016500Y-96124706D01*
X96016501Y-96124721D01*
X96026938Y-96226882D01*
X96081790Y-96392417D01*
X96081795Y-96392428D01*
X96173339Y-96540842D01*
X96173342Y-96540846D01*
X96296654Y-96664158D01*
X96307596Y-96670907D01*
X96354321Y-96722854D01*
X96366500Y-96776446D01*
X96366500Y-98298241D01*
X96346815Y-98365280D01*
X96334650Y-98381213D01*
X96260963Y-98463050D01*
X96260958Y-98463057D01*
X96165473Y-98628443D01*
X96165470Y-98628450D01*
X96106459Y-98810068D01*
X96106458Y-98810072D01*
X96086496Y-99000000D01*
X96106458Y-99189928D01*
X96106459Y-99189931D01*
X96165470Y-99371549D01*
X96165473Y-99371556D01*
X96260960Y-99536944D01*
X96388747Y-99678866D01*
X96543248Y-99791118D01*
X96717712Y-99868794D01*
X96904513Y-99908500D01*
X97095487Y-99908500D01*
X97282288Y-99868794D01*
X97456752Y-99791118D01*
X97611253Y-99678866D01*
X97739040Y-99536944D01*
X97834527Y-99371556D01*
X97893542Y-99189928D01*
X97913504Y-99000000D01*
X97893542Y-98810072D01*
X97834527Y-98628444D01*
X97739040Y-98463056D01*
X97739036Y-98463050D01*
X97665350Y-98381213D01*
X97635120Y-98318221D01*
X97633500Y-98298241D01*
X97633500Y-96776446D01*
X97653185Y-96709407D01*
X97692404Y-96670907D01*
X97703346Y-96664158D01*
X97826658Y-96540846D01*
X97918209Y-96392420D01*
X97973062Y-96226881D01*
X97979717Y-96161738D01*
X98006113Y-96097047D01*
X98063294Y-96056896D01*
X98133105Y-96054032D01*
X98190756Y-96086660D01*
X98807929Y-96703833D01*
X98880542Y-96776446D01*
X98896168Y-96792072D01*
X98999918Y-96861396D01*
X98999924Y-96861399D01*
X98999925Y-96861400D01*
X99115215Y-96909155D01*
X99237601Y-96933499D01*
X99237605Y-96933500D01*
X99237606Y-96933500D01*
X101187500Y-96933500D01*
X101254539Y-96953185D01*
X101300294Y-97005989D01*
X101311500Y-97057500D01*
X101311500Y-99548654D01*
X101318011Y-99609202D01*
X101318011Y-99609204D01*
X101369111Y-99746204D01*
X101456739Y-99863261D01*
X101573796Y-99950889D01*
X101710799Y-100001989D01*
X101738050Y-100004918D01*
X101771345Y-100008499D01*
X101771362Y-100008500D01*
X107668638Y-100008500D01*
X107668654Y-100008499D01*
X107695692Y-100005591D01*
X107729201Y-100001989D01*
X107866204Y-99950889D01*
X107983261Y-99863261D01*
X108070889Y-99746204D01*
X108121989Y-99609201D01*
X108125591Y-99575692D01*
X108128499Y-99548654D01*
X108128500Y-99548637D01*
X108128500Y-93051362D01*
X108128499Y-93051345D01*
X108125157Y-93020270D01*
X108121989Y-92990799D01*
X108070889Y-92853796D01*
X107983261Y-92736739D01*
X107866204Y-92649111D01*
X107729203Y-92598011D01*
X107668654Y-92591500D01*
X107668638Y-92591500D01*
X101771362Y-92591500D01*
X101771345Y-92591500D01*
X101710797Y-92598011D01*
X101710795Y-92598011D01*
X101573795Y-92649111D01*
X101456739Y-92736739D01*
X101369111Y-92853795D01*
X101318011Y-92990795D01*
X101318011Y-92990797D01*
X101311500Y-93051345D01*
X101311500Y-95542500D01*
X101291815Y-95609539D01*
X101239011Y-95655294D01*
X101187500Y-95666500D01*
X99613766Y-95666500D01*
X99546727Y-95646815D01*
X99526085Y-95630181D01*
X98019818Y-94123914D01*
X97986333Y-94062591D01*
X97983499Y-94036233D01*
X97983499Y-93700294D01*
X97983498Y-93700278D01*
X97974421Y-93611427D01*
X97973062Y-93598119D01*
X97918209Y-93432580D01*
X97918205Y-93432574D01*
X97918204Y-93432571D01*
X97826660Y-93284157D01*
X97826657Y-93284153D01*
X97703346Y-93160842D01*
X97703340Y-93160837D01*
X97692400Y-93154089D01*
X97645677Y-93102140D01*
X97633500Y-93048553D01*
X97633500Y-91937605D01*
X97633499Y-91937601D01*
X97622518Y-91882394D01*
X97609155Y-91815215D01*
X97585293Y-91757607D01*
X97561401Y-91699925D01*
X97524194Y-91644241D01*
X97492072Y-91596166D01*
X96669819Y-90773913D01*
X96636334Y-90712590D01*
X96633500Y-90686232D01*
X96633500Y-89937605D01*
X96633499Y-89937601D01*
X96609156Y-89815222D01*
X96609155Y-89815215D01*
X96561400Y-89699925D01*
X96561399Y-89699924D01*
X96561396Y-89699918D01*
X96492072Y-89596168D01*
X96492071Y-89596167D01*
X96403833Y-89507929D01*
X95895904Y-89000000D01*
X98086496Y-89000000D01*
X98106458Y-89189928D01*
X98106459Y-89189931D01*
X98165470Y-89371549D01*
X98165473Y-89371556D01*
X98260960Y-89536944D01*
X98388747Y-89678866D01*
X98543248Y-89791118D01*
X98717712Y-89868794D01*
X98904513Y-89908500D01*
X99095487Y-89908500D01*
X99282288Y-89868794D01*
X99456752Y-89791118D01*
X99611253Y-89678866D01*
X99611258Y-89678859D01*
X99614157Y-89676251D01*
X99616203Y-89675268D01*
X99616510Y-89675046D01*
X99616550Y-89675102D01*
X99677147Y-89646019D01*
X99746483Y-89654642D01*
X99784813Y-89680717D01*
X100596163Y-90492069D01*
X100596167Y-90492072D01*
X100699921Y-90561399D01*
X100699923Y-90561399D01*
X100699925Y-90561401D01*
X100781447Y-90595168D01*
X100815215Y-90609155D01*
X100815217Y-90609155D01*
X100815222Y-90609157D01*
X100937601Y-90633499D01*
X100937605Y-90633500D01*
X100937606Y-90633500D01*
X100937607Y-90633500D01*
X101062394Y-90633500D01*
X101207500Y-90633500D01*
X101274539Y-90653185D01*
X101320294Y-90705989D01*
X101331500Y-90757500D01*
X101331500Y-91148654D01*
X101338011Y-91209202D01*
X101338011Y-91209204D01*
X101389111Y-91346204D01*
X101476739Y-91463261D01*
X101593796Y-91550889D01*
X101708949Y-91593839D01*
X101727053Y-91600592D01*
X101730799Y-91601989D01*
X101758050Y-91604918D01*
X101791345Y-91608499D01*
X101791362Y-91608500D01*
X103088638Y-91608500D01*
X103088654Y-91608499D01*
X103115692Y-91605591D01*
X103149201Y-91601989D01*
X103152947Y-91600592D01*
X103164813Y-91596166D01*
X103286204Y-91550889D01*
X103403261Y-91463261D01*
X103490889Y-91346204D01*
X103541989Y-91209201D01*
X103545591Y-91175692D01*
X103548499Y-91148654D01*
X103548500Y-91148637D01*
X103548500Y-88851362D01*
X103548499Y-88851345D01*
X105891500Y-88851345D01*
X105891500Y-91148654D01*
X105898011Y-91209202D01*
X105898011Y-91209204D01*
X105949111Y-91346204D01*
X106036739Y-91463261D01*
X106153796Y-91550889D01*
X106268949Y-91593839D01*
X106287053Y-91600592D01*
X106290799Y-91601989D01*
X106318050Y-91604918D01*
X106351345Y-91608499D01*
X106351362Y-91608500D01*
X107648629Y-91608500D01*
X107648638Y-91608500D01*
X107648646Y-91608499D01*
X107651946Y-91608322D01*
X107651956Y-91608500D01*
X107651959Y-91608500D01*
X107651959Y-91608564D01*
X107652007Y-91609464D01*
X107716155Y-91621035D01*
X107748337Y-91644241D01*
X109527929Y-93423833D01*
X109612024Y-93507928D01*
X109616168Y-93512072D01*
X109719918Y-93581396D01*
X109719930Y-93581403D01*
X109771778Y-93602878D01*
X109792417Y-93611427D01*
X109846821Y-93655267D01*
X109868323Y-93713386D01*
X109877113Y-93799427D01*
X109932884Y-93967735D01*
X109932885Y-93967738D01*
X110025970Y-94118652D01*
X110151348Y-94244030D01*
X110302262Y-94337115D01*
X110470574Y-94392887D01*
X110574455Y-94403500D01*
X111425544Y-94403499D01*
X111529426Y-94392887D01*
X111697738Y-94337115D01*
X111848652Y-94244030D01*
X111974030Y-94118652D01*
X112067115Y-93967738D01*
X112122887Y-93799426D01*
X112133500Y-93695545D01*
X112133499Y-92344456D01*
X112133498Y-92344447D01*
X112666500Y-92344447D01*
X112666500Y-93695537D01*
X112666501Y-93695553D01*
X112677113Y-93799427D01*
X112732884Y-93967735D01*
X112732885Y-93967738D01*
X112825970Y-94118652D01*
X112951348Y-94244030D01*
X113102262Y-94337115D01*
X113270574Y-94392887D01*
X113374455Y-94403500D01*
X114225544Y-94403499D01*
X114329426Y-94392887D01*
X114497738Y-94337115D01*
X114648652Y-94244030D01*
X114774030Y-94118652D01*
X114867115Y-93967738D01*
X114922887Y-93799426D01*
X114933500Y-93695545D01*
X114933499Y-92833765D01*
X114953183Y-92766727D01*
X114969818Y-92746085D01*
X115492068Y-92223836D01*
X115492068Y-92223835D01*
X115492071Y-92223833D01*
X115561400Y-92120075D01*
X115609155Y-92004785D01*
X115633500Y-91882394D01*
X115633500Y-91757607D01*
X115633500Y-85522499D01*
X115653185Y-85455460D01*
X115705989Y-85409705D01*
X115757500Y-85398499D01*
X115895537Y-85398499D01*
X115895544Y-85398499D01*
X115999426Y-85387887D01*
X116167738Y-85332115D01*
X116318652Y-85239030D01*
X116444030Y-85113652D01*
X116537115Y-84962738D01*
X116592887Y-84794426D01*
X116603500Y-84690545D01*
X116603499Y-83349456D01*
X116592887Y-83245574D01*
X116537115Y-83077262D01*
X116444030Y-82926348D01*
X116318652Y-82800970D01*
X116318648Y-82800967D01*
X116164444Y-82705852D01*
X116117719Y-82653904D01*
X116106498Y-82584942D01*
X116134341Y-82520860D01*
X116141838Y-82512655D01*
X116276461Y-82378033D01*
X116403999Y-82202492D01*
X116502506Y-82009160D01*
X116569557Y-81802800D01*
X116584642Y-81707551D01*
X116603500Y-81588495D01*
X116603500Y-81371504D01*
X116579790Y-81221811D01*
X116569557Y-81157200D01*
X116502506Y-80950840D01*
X116403999Y-80757508D01*
X116276461Y-80581967D01*
X116123033Y-80428539D01*
X115947492Y-80301001D01*
X115754163Y-80202495D01*
X115719178Y-80191127D01*
X115661504Y-80151688D01*
X115634308Y-80087328D01*
X115633500Y-80073197D01*
X115633500Y-77522499D01*
X115653185Y-77455460D01*
X115705989Y-77409705D01*
X115757500Y-77398499D01*
X115895537Y-77398499D01*
X115895544Y-77398499D01*
X115999426Y-77387887D01*
X116167738Y-77332115D01*
X116318652Y-77239030D01*
X116444030Y-77113652D01*
X116537115Y-76962738D01*
X116592887Y-76794426D01*
X116603500Y-76690545D01*
X116603499Y-75349456D01*
X116592887Y-75245574D01*
X116537115Y-75077262D01*
X116444030Y-74926348D01*
X116318652Y-74800970D01*
X116167738Y-74707885D01*
X116167736Y-74707884D01*
X116161591Y-74704094D01*
X116162484Y-74702644D01*
X116116783Y-74662395D01*
X116097639Y-74595199D01*
X116117863Y-74528320D01*
X116133954Y-74508516D01*
X116269977Y-74372493D01*
X116396728Y-74198036D01*
X116494627Y-74005901D01*
X116561266Y-73800809D01*
X116572481Y-73730000D01*
X115542709Y-73730000D01*
X115554452Y-73709661D01*
X115595000Y-73558333D01*
X115595000Y-73401667D01*
X115554452Y-73250339D01*
X115542709Y-73230000D01*
X116572481Y-73230000D01*
X116561266Y-73159190D01*
X116494627Y-72954098D01*
X116396728Y-72761963D01*
X116269974Y-72587503D01*
X116269974Y-72587502D01*
X116117497Y-72435025D01*
X115943036Y-72308271D01*
X115750901Y-72210372D01*
X115545809Y-72143734D01*
X115332820Y-72110000D01*
X115250000Y-72110000D01*
X115250000Y-72937290D01*
X115229661Y-72925548D01*
X115078333Y-72885000D01*
X114921667Y-72885000D01*
X114770339Y-72925548D01*
X114750000Y-72937290D01*
X114750000Y-72110000D01*
X114667180Y-72110000D01*
X114454190Y-72143734D01*
X114249098Y-72210372D01*
X114056963Y-72308271D01*
X113882503Y-72435025D01*
X113882502Y-72435025D01*
X113730025Y-72587502D01*
X113730025Y-72587503D01*
X113603271Y-72761963D01*
X113505372Y-72954098D01*
X113438733Y-73159190D01*
X113427519Y-73230000D01*
X114457291Y-73230000D01*
X114445548Y-73250339D01*
X114405000Y-73401667D01*
X114405000Y-73558333D01*
X114445548Y-73709661D01*
X114457291Y-73730000D01*
X113427519Y-73730000D01*
X113438733Y-73800809D01*
X113505372Y-74005901D01*
X113603271Y-74198036D01*
X113730025Y-74372496D01*
X113730025Y-74372497D01*
X113866045Y-74508517D01*
X113899530Y-74569840D01*
X113894546Y-74639532D01*
X113852674Y-74695465D01*
X113838370Y-74704031D01*
X113838409Y-74704094D01*
X113832263Y-74707884D01*
X113832262Y-74707885D01*
X113763983Y-74750000D01*
X113681346Y-74800971D01*
X113555971Y-74926346D01*
X113462886Y-75077259D01*
X113462884Y-75077264D01*
X113407113Y-75245572D01*
X113396500Y-75349447D01*
X113396500Y-76690537D01*
X113396501Y-76690553D01*
X113407113Y-76794427D01*
X113444913Y-76908500D01*
X113462885Y-76962738D01*
X113555970Y-77113652D01*
X113681348Y-77239030D01*
X113832262Y-77332115D01*
X114000574Y-77387887D01*
X114104455Y-77398500D01*
X114242500Y-77398499D01*
X114309539Y-77418183D01*
X114355294Y-77470987D01*
X114366500Y-77522499D01*
X114366500Y-80073197D01*
X114346815Y-80140236D01*
X114294011Y-80185991D01*
X114280822Y-80191127D01*
X114245836Y-80202495D01*
X114052507Y-80301001D01*
X113952355Y-80373766D01*
X113876967Y-80428539D01*
X113876965Y-80428541D01*
X113876964Y-80428541D01*
X113723541Y-80581964D01*
X113723541Y-80581965D01*
X113723539Y-80581967D01*
X113670723Y-80654662D01*
X113596001Y-80757507D01*
X113497495Y-80950837D01*
X113430442Y-81157203D01*
X113396500Y-81371504D01*
X113396500Y-81588495D01*
X113425907Y-81774162D01*
X113430443Y-81802800D01*
X113497494Y-82009160D01*
X113596001Y-82202492D01*
X113723539Y-82378033D01*
X113723541Y-82378035D01*
X113858139Y-82512633D01*
X113891624Y-82573956D01*
X113886640Y-82643648D01*
X113844768Y-82699581D01*
X113835556Y-82705852D01*
X113681348Y-82800969D01*
X113555971Y-82926346D01*
X113462886Y-83077259D01*
X113462884Y-83077264D01*
X113407113Y-83245572D01*
X113396500Y-83349447D01*
X113396500Y-84690537D01*
X113396501Y-84690553D01*
X113407113Y-84794426D01*
X113462885Y-84962738D01*
X113555970Y-85113652D01*
X113681348Y-85239030D01*
X113832262Y-85332115D01*
X114000574Y-85387887D01*
X114104455Y-85398500D01*
X114242500Y-85398499D01*
X114309539Y-85418183D01*
X114355294Y-85470987D01*
X114366500Y-85522499D01*
X114366500Y-91506232D01*
X114346815Y-91573271D01*
X114330175Y-91593920D01*
X114323502Y-91600592D01*
X114262176Y-91634072D01*
X114228736Y-91635969D01*
X114228701Y-91636661D01*
X114225551Y-91636500D01*
X114225545Y-91636500D01*
X114225538Y-91636500D01*
X113374462Y-91636500D01*
X113374446Y-91636501D01*
X113270572Y-91647113D01*
X113102264Y-91702884D01*
X113102259Y-91702886D01*
X112951346Y-91795971D01*
X112825971Y-91921346D01*
X112732886Y-92072259D01*
X112732884Y-92072264D01*
X112677113Y-92240572D01*
X112666500Y-92344447D01*
X112133498Y-92344447D01*
X112122887Y-92240574D01*
X112067115Y-92072262D01*
X111974030Y-91921348D01*
X111848652Y-91795970D01*
X111754898Y-91738142D01*
X111697740Y-91702886D01*
X111697735Y-91702884D01*
X111529427Y-91647113D01*
X111425546Y-91636500D01*
X110574462Y-91636500D01*
X110574446Y-91636501D01*
X110470572Y-91647113D01*
X110302264Y-91702884D01*
X110302259Y-91702886D01*
X110151346Y-91795971D01*
X110025970Y-91921347D01*
X110021489Y-91927015D01*
X110019372Y-91925341D01*
X109976681Y-91963710D01*
X109907714Y-91974905D01*
X109843643Y-91947037D01*
X109835453Y-91939549D01*
X108144819Y-90248915D01*
X108111334Y-90187592D01*
X108108500Y-90161234D01*
X108108500Y-88851362D01*
X108108499Y-88851345D01*
X108104061Y-88810072D01*
X108101989Y-88790799D01*
X108100720Y-88787398D01*
X108069369Y-88703342D01*
X108050889Y-88653796D01*
X107963261Y-88536739D01*
X107846204Y-88449111D01*
X107709203Y-88398011D01*
X107648654Y-88391500D01*
X107648638Y-88391500D01*
X106351362Y-88391500D01*
X106351345Y-88391500D01*
X106290797Y-88398011D01*
X106290795Y-88398011D01*
X106153795Y-88449111D01*
X106036739Y-88536739D01*
X105949111Y-88653795D01*
X105898011Y-88790795D01*
X105898011Y-88790797D01*
X105891500Y-88851345D01*
X103548499Y-88851345D01*
X103544061Y-88810072D01*
X103541989Y-88790799D01*
X103540720Y-88787398D01*
X103509369Y-88703342D01*
X103490889Y-88653796D01*
X103403261Y-88536739D01*
X103286204Y-88449111D01*
X103149203Y-88398011D01*
X103088654Y-88391500D01*
X103088638Y-88391500D01*
X101791362Y-88391500D01*
X101791345Y-88391500D01*
X101730797Y-88398011D01*
X101730795Y-88398011D01*
X101593795Y-88449111D01*
X101476739Y-88536739D01*
X101389111Y-88653795D01*
X101338011Y-88790795D01*
X101338011Y-88790797D01*
X101331500Y-88851345D01*
X101331500Y-89136233D01*
X101311815Y-89203272D01*
X101259011Y-89249027D01*
X101189853Y-89258971D01*
X101126297Y-89229946D01*
X101119819Y-89223914D01*
X100403836Y-88507931D01*
X100403832Y-88507928D01*
X100300081Y-88438603D01*
X100300072Y-88438598D01*
X100184785Y-88390845D01*
X100184777Y-88390843D01*
X100062398Y-88366500D01*
X100062394Y-88366500D01*
X99707309Y-88366500D01*
X99640270Y-88346815D01*
X99615160Y-88325473D01*
X99611254Y-88321135D01*
X99564575Y-88287220D01*
X99456752Y-88208882D01*
X99282288Y-88131206D01*
X99282286Y-88131205D01*
X99095487Y-88091500D01*
X98904513Y-88091500D01*
X98717714Y-88131205D01*
X98543246Y-88208883D01*
X98388745Y-88321135D01*
X98260959Y-88463057D01*
X98165473Y-88628443D01*
X98165470Y-88628450D01*
X98112720Y-88790799D01*
X98106458Y-88810072D01*
X98086496Y-89000000D01*
X95895904Y-89000000D01*
X95394819Y-88498915D01*
X95361334Y-88437592D01*
X95358500Y-88411234D01*
X95358500Y-80124447D01*
X100081500Y-80124447D01*
X100081500Y-81915537D01*
X100081501Y-81915553D01*
X100092113Y-82019427D01*
X100133072Y-82143034D01*
X100147885Y-82187738D01*
X100240970Y-82338652D01*
X100366348Y-82464030D01*
X100517262Y-82557115D01*
X100685574Y-82612887D01*
X100789455Y-82623500D01*
X102130544Y-82623499D01*
X102234426Y-82612887D01*
X102402738Y-82557115D01*
X102553652Y-82464030D01*
X102679030Y-82338652D01*
X102772115Y-82187738D01*
X102772116Y-82187735D01*
X102775906Y-82181591D01*
X102777358Y-82182486D01*
X102817587Y-82136794D01*
X102884780Y-82117639D01*
X102951662Y-82137852D01*
X102971482Y-82153954D01*
X103107502Y-82289974D01*
X103281963Y-82416728D01*
X103474098Y-82514627D01*
X103679190Y-82581266D01*
X103750000Y-82592481D01*
X103750000Y-81562709D01*
X103770339Y-81574452D01*
X103921667Y-81615000D01*
X104078333Y-81615000D01*
X104229661Y-81574452D01*
X104250000Y-81562709D01*
X104250000Y-82592480D01*
X104320809Y-82581266D01*
X104525901Y-82514627D01*
X104718036Y-82416728D01*
X104892496Y-82289974D01*
X104892497Y-82289974D01*
X105044974Y-82137497D01*
X105044979Y-82137491D01*
X105164428Y-81973085D01*
X105219758Y-81930419D01*
X105289371Y-81924440D01*
X105351166Y-81957046D01*
X105365062Y-81973082D01*
X105488539Y-82143033D01*
X105641967Y-82296461D01*
X105817508Y-82423999D01*
X106010840Y-82522506D01*
X106217200Y-82589557D01*
X106297566Y-82602285D01*
X106431505Y-82623500D01*
X106431510Y-82623500D01*
X106648495Y-82623500D01*
X106767551Y-82604642D01*
X106862800Y-82589557D01*
X107069160Y-82522506D01*
X107262492Y-82423999D01*
X107438033Y-82296461D01*
X107591461Y-82143033D01*
X107718999Y-81967492D01*
X107817506Y-81774160D01*
X107884557Y-81567800D01*
X107903422Y-81448688D01*
X107918500Y-81353495D01*
X107918500Y-80686504D01*
X107884557Y-80472203D01*
X107884557Y-80472200D01*
X107817506Y-80265840D01*
X107718999Y-80072508D01*
X107591461Y-79896967D01*
X107438033Y-79743539D01*
X107262492Y-79616001D01*
X107069160Y-79517494D01*
X106862800Y-79450443D01*
X106862798Y-79450442D01*
X106862796Y-79450442D01*
X106648495Y-79416500D01*
X106648490Y-79416500D01*
X106431510Y-79416500D01*
X106431505Y-79416500D01*
X106217203Y-79450442D01*
X106010837Y-79517495D01*
X105817507Y-79616001D01*
X105717355Y-79688766D01*
X105641967Y-79743539D01*
X105641965Y-79743541D01*
X105641964Y-79743541D01*
X105488541Y-79896964D01*
X105488541Y-79896965D01*
X105488539Y-79896967D01*
X105439343Y-79964680D01*
X105365064Y-80066915D01*
X105309734Y-80109580D01*
X105240120Y-80115559D01*
X105178325Y-80082953D01*
X105164428Y-80066915D01*
X105044974Y-79902503D01*
X105044974Y-79902502D01*
X104892497Y-79750025D01*
X104718036Y-79623271D01*
X104525899Y-79525372D01*
X104320805Y-79458733D01*
X104250000Y-79447518D01*
X104250000Y-80477290D01*
X104229661Y-80465548D01*
X104078333Y-80425000D01*
X103921667Y-80425000D01*
X103770339Y-80465548D01*
X103750000Y-80477290D01*
X103750000Y-79447518D01*
X103749999Y-79447518D01*
X103679194Y-79458733D01*
X103474100Y-79525372D01*
X103281963Y-79623271D01*
X103107506Y-79750022D01*
X102971482Y-79886046D01*
X102910159Y-79919530D01*
X102840467Y-79914546D01*
X102784534Y-79872674D01*
X102775969Y-79858369D01*
X102775906Y-79858409D01*
X102772115Y-79852263D01*
X102772115Y-79852262D01*
X102679030Y-79701348D01*
X102553652Y-79575970D01*
X102402738Y-79482885D01*
X102304830Y-79450442D01*
X102234427Y-79427113D01*
X102130545Y-79416500D01*
X100789462Y-79416500D01*
X100789446Y-79416501D01*
X100685572Y-79427113D01*
X100517264Y-79482884D01*
X100517259Y-79482886D01*
X100366346Y-79575971D01*
X100240971Y-79701346D01*
X100147886Y-79852259D01*
X100147884Y-79852264D01*
X100092113Y-80020572D01*
X100081500Y-80124447D01*
X95358500Y-80124447D01*
X95358500Y-76000000D01*
X97086496Y-76000000D01*
X97106458Y-76189928D01*
X97106459Y-76189931D01*
X97165470Y-76371549D01*
X97165473Y-76371556D01*
X97260960Y-76536944D01*
X97388747Y-76678866D01*
X97543248Y-76791118D01*
X97717712Y-76868794D01*
X97904513Y-76908500D01*
X98095487Y-76908500D01*
X98282288Y-76868794D01*
X98456752Y-76791118D01*
X98611253Y-76678866D01*
X98739040Y-76536944D01*
X98834527Y-76371556D01*
X98893542Y-76189928D01*
X98910981Y-76023997D01*
X98937564Y-75959387D01*
X98946611Y-75949291D01*
X100952071Y-73943833D01*
X101021400Y-73840075D01*
X101069155Y-73724785D01*
X101093500Y-73602394D01*
X101093500Y-73477607D01*
X101093500Y-72739261D01*
X101113185Y-72672222D01*
X101165989Y-72626467D01*
X101204898Y-72615903D01*
X101234426Y-72612887D01*
X101402738Y-72557115D01*
X101553652Y-72464030D01*
X101679030Y-72338652D01*
X101772115Y-72187738D01*
X101772115Y-72187735D01*
X101774146Y-72184444D01*
X101826094Y-72137720D01*
X101895057Y-72126497D01*
X101959139Y-72154341D01*
X101967366Y-72161860D01*
X102101967Y-72296461D01*
X102277508Y-72423999D01*
X102470840Y-72522506D01*
X102677200Y-72589557D01*
X102757566Y-72602285D01*
X102891505Y-72623500D01*
X102891510Y-72623500D01*
X103108495Y-72623500D01*
X103227551Y-72604642D01*
X103322800Y-72589557D01*
X103529160Y-72522506D01*
X103722492Y-72423999D01*
X103898033Y-72296461D01*
X104051461Y-72143033D01*
X104178999Y-71967492D01*
X104277506Y-71774160D01*
X104344557Y-71567800D01*
X104359642Y-71472551D01*
X104378500Y-71353495D01*
X104378500Y-70686504D01*
X104344557Y-70472203D01*
X104344557Y-70472200D01*
X104277506Y-70265840D01*
X104178999Y-70072508D01*
X104051461Y-69896967D01*
X103898033Y-69743539D01*
X103722492Y-69616001D01*
X103722491Y-69616000D01*
X103722489Y-69615999D01*
X103701202Y-69605152D01*
X103650407Y-69557177D01*
X103633500Y-69494669D01*
X103633500Y-67933765D01*
X103653185Y-67866726D01*
X103669814Y-67846089D01*
X107582250Y-63933652D01*
X107643571Y-63900169D01*
X107713263Y-63905153D01*
X107719331Y-63907601D01*
X107912256Y-63991400D01*
X108190011Y-64069223D01*
X108428404Y-64101989D01*
X108475774Y-64108500D01*
X108475775Y-64108500D01*
X108764226Y-64108500D01*
X108811596Y-64101989D01*
X109049989Y-64069223D01*
X109327744Y-63991400D01*
X109587180Y-63878711D01*
X114149500Y-63878711D01*
X114149500Y-64121288D01*
X114181161Y-64361785D01*
X114243947Y-64596104D01*
X114336773Y-64820205D01*
X114336776Y-64820212D01*
X114458064Y-65030289D01*
X114458066Y-65030292D01*
X114458067Y-65030293D01*
X114605733Y-65222736D01*
X114605739Y-65222743D01*
X114777256Y-65394260D01*
X114777262Y-65394265D01*
X114969711Y-65541936D01*
X115179788Y-65663224D01*
X115403900Y-65756054D01*
X115638211Y-65818838D01*
X115818586Y-65842584D01*
X115878711Y-65850500D01*
X115878712Y-65850500D01*
X116121289Y-65850500D01*
X116169388Y-65844167D01*
X116361789Y-65818838D01*
X116596100Y-65756054D01*
X116820212Y-65663224D01*
X117030289Y-65541936D01*
X117222738Y-65394265D01*
X117394265Y-65222738D01*
X117541936Y-65030289D01*
X117663224Y-64820212D01*
X117756054Y-64596100D01*
X117818838Y-64361789D01*
X117850500Y-64121288D01*
X117850500Y-63878712D01*
X117818838Y-63638211D01*
X117756054Y-63403900D01*
X117663224Y-63179788D01*
X117541936Y-62969711D01*
X117443934Y-62841992D01*
X117394266Y-62777263D01*
X117394260Y-62777256D01*
X117222743Y-62605739D01*
X117222736Y-62605733D01*
X117030293Y-62458067D01*
X117030292Y-62458066D01*
X117030289Y-62458064D01*
X116820212Y-62336776D01*
X116820205Y-62336773D01*
X116596104Y-62243947D01*
X116361785Y-62181161D01*
X116121289Y-62149500D01*
X116121288Y-62149500D01*
X115878712Y-62149500D01*
X115878711Y-62149500D01*
X115638214Y-62181161D01*
X115403895Y-62243947D01*
X115179794Y-62336773D01*
X115179785Y-62336777D01*
X114969706Y-62458067D01*
X114777263Y-62605733D01*
X114777256Y-62605739D01*
X114605739Y-62777256D01*
X114605733Y-62777263D01*
X114458067Y-62969706D01*
X114458064Y-62969710D01*
X114458064Y-62969711D01*
X114441817Y-62997851D01*
X114336777Y-63179785D01*
X114336773Y-63179794D01*
X114243947Y-63403895D01*
X114181161Y-63638214D01*
X114149500Y-63878711D01*
X109587180Y-63878711D01*
X109592314Y-63876481D01*
X109838772Y-63726606D01*
X110062526Y-63544568D01*
X110259409Y-63333758D01*
X110425753Y-63098103D01*
X110558459Y-62841992D01*
X110655055Y-62570196D01*
X110655055Y-62570191D01*
X110655058Y-62570185D01*
X110703560Y-62336776D01*
X110713742Y-62287778D01*
X110733427Y-62000000D01*
X110713742Y-61712222D01*
X110695972Y-61626708D01*
X110655058Y-61429814D01*
X110655053Y-61429798D01*
X110628836Y-61356030D01*
X110558459Y-61158008D01*
X110425753Y-60901897D01*
X110259409Y-60666242D01*
X110259404Y-60666236D01*
X110122470Y-60519616D01*
X110062526Y-60455432D01*
X110062524Y-60455431D01*
X110062522Y-60455428D01*
X109838771Y-60273393D01*
X109592309Y-60123516D01*
X109327745Y-60008600D01*
X109049995Y-59930778D01*
X109049990Y-59930777D01*
X109049989Y-59930777D01*
X108907107Y-59911138D01*
X108764226Y-59891500D01*
X108764225Y-59891500D01*
X108475775Y-59891500D01*
X108475774Y-59891500D01*
X108190011Y-59930777D01*
X108190004Y-59930778D01*
X107912254Y-60008600D01*
X107647690Y-60123516D01*
X107401228Y-60273393D01*
X107177477Y-60455428D01*
X106980595Y-60666236D01*
X106980595Y-60666237D01*
X106814247Y-60901896D01*
X106681540Y-61158009D01*
X106584946Y-61429798D01*
X106584941Y-61429814D01*
X106526258Y-61712219D01*
X106526257Y-61712221D01*
X106506573Y-62000000D01*
X106526257Y-62287778D01*
X106526258Y-62287780D01*
X106584941Y-62570185D01*
X106584946Y-62570201D01*
X106658534Y-62777256D01*
X106681541Y-62841992D01*
X106708248Y-62893535D01*
X106721613Y-62962113D01*
X106695779Y-63027031D01*
X106685831Y-63038263D01*
X102596167Y-67127929D01*
X102552047Y-67172049D01*
X102507927Y-67216168D01*
X102438603Y-67319918D01*
X102438598Y-67319927D01*
X102390845Y-67435214D01*
X102390843Y-67435222D01*
X102366500Y-67557601D01*
X102366500Y-69494669D01*
X102346815Y-69561708D01*
X102298798Y-69605152D01*
X102277510Y-69615999D01*
X102101968Y-69743538D01*
X101967366Y-69878140D01*
X101906043Y-69911624D01*
X101836351Y-69906640D01*
X101780418Y-69864768D01*
X101774147Y-69855555D01*
X101679032Y-69701351D01*
X101679029Y-69701347D01*
X101553653Y-69575971D01*
X101553652Y-69575970D01*
X101402738Y-69482885D01*
X101402735Y-69482884D01*
X101234427Y-69427113D01*
X101130545Y-69416500D01*
X99789462Y-69416500D01*
X99789446Y-69416501D01*
X99685572Y-69427113D01*
X99517264Y-69482884D01*
X99517259Y-69482886D01*
X99366346Y-69575971D01*
X99240971Y-69701346D01*
X99147886Y-69852259D01*
X99147884Y-69852264D01*
X99092113Y-70020572D01*
X99081500Y-70124447D01*
X99081500Y-71915537D01*
X99081501Y-71915553D01*
X99092113Y-72019427D01*
X99139310Y-72161860D01*
X99147885Y-72187738D01*
X99240970Y-72338652D01*
X99366348Y-72464030D01*
X99517262Y-72557115D01*
X99685574Y-72612887D01*
X99685573Y-72612887D01*
X99690397Y-72613379D01*
X99715101Y-72615903D01*
X99779792Y-72642297D01*
X99819945Y-72699477D01*
X99826500Y-72739261D01*
X99826500Y-73226234D01*
X99806815Y-73293273D01*
X99790181Y-73313915D01*
X98048915Y-75055181D01*
X97987592Y-75088666D01*
X97961234Y-75091500D01*
X97904513Y-75091500D01*
X97717714Y-75131205D01*
X97543246Y-75208883D01*
X97388745Y-75321135D01*
X97260959Y-75463057D01*
X97165473Y-75628443D01*
X97165470Y-75628450D01*
X97115199Y-75783170D01*
X97106458Y-75810072D01*
X97086496Y-76000000D01*
X95358500Y-76000000D01*
X95358500Y-72977496D01*
X95378185Y-72910457D01*
X95417402Y-72871958D01*
X95490846Y-72826658D01*
X95614158Y-72703346D01*
X95705709Y-72554920D01*
X95760562Y-72389381D01*
X95771000Y-72287213D01*
X95770999Y-71712788D01*
X95760562Y-71610619D01*
X95705709Y-71445080D01*
X95705705Y-71445074D01*
X95705704Y-71445071D01*
X95614160Y-71296657D01*
X95614157Y-71296653D01*
X95490845Y-71173341D01*
X95417402Y-71128040D01*
X95370678Y-71076091D01*
X95358500Y-71022502D01*
X95358500Y-63984175D01*
X95378185Y-63917136D01*
X95383226Y-63909873D01*
X95430889Y-63846204D01*
X95481989Y-63709201D01*
X95485591Y-63675692D01*
X95488499Y-63648654D01*
X95488500Y-63648637D01*
X95488500Y-60351362D01*
X95488499Y-60351345D01*
X95485157Y-60320270D01*
X95481989Y-60290799D01*
X95475497Y-60273394D01*
X95459522Y-60230564D01*
X95430889Y-60153796D01*
X95343261Y-60036739D01*
X95226204Y-59949111D01*
X95089203Y-59898011D01*
X95028654Y-59891500D01*
X95028638Y-59891500D01*
X91731362Y-59891500D01*
X91731345Y-59891500D01*
X91670797Y-59898011D01*
X91670795Y-59898011D01*
X91533795Y-59949111D01*
X91416739Y-60036739D01*
X91329111Y-60153795D01*
X91278011Y-60290795D01*
X91278011Y-60290797D01*
X91271500Y-60351345D01*
X91271500Y-63648654D01*
X91278011Y-63709202D01*
X91278011Y-63709204D01*
X91329111Y-63846204D01*
X91416739Y-63963261D01*
X91533796Y-64050889D01*
X91670799Y-64101989D01*
X91698050Y-64104918D01*
X91731345Y-64108499D01*
X91731362Y-64108500D01*
X93967500Y-64108500D01*
X94034539Y-64128185D01*
X94080294Y-64180989D01*
X94091500Y-64232500D01*
X94091500Y-71022502D01*
X94071815Y-71089541D01*
X94032598Y-71128040D01*
X93959154Y-71173341D01*
X93959153Y-71173342D01*
X93950181Y-71182315D01*
X93888858Y-71215800D01*
X93819166Y-71210816D01*
X93774819Y-71182315D01*
X93765846Y-71173342D01*
X93765842Y-71173339D01*
X93617428Y-71081795D01*
X93617422Y-71081792D01*
X93617420Y-71081791D01*
X93513286Y-71047285D01*
X93451882Y-71026938D01*
X93349720Y-71016500D01*
X93349713Y-71016500D01*
X92963766Y-71016500D01*
X92896727Y-70996815D01*
X92876085Y-70980181D01*
X92532319Y-70636415D01*
X92498834Y-70575092D01*
X92496000Y-70548734D01*
X92496000Y-69977496D01*
X92515685Y-69910457D01*
X92554902Y-69871958D01*
X92628346Y-69826658D01*
X92751658Y-69703346D01*
X92843209Y-69554920D01*
X92898062Y-69389381D01*
X92908500Y-69287213D01*
X92908499Y-68712788D01*
X92898062Y-68610619D01*
X92843209Y-68445080D01*
X92843205Y-68445074D01*
X92843204Y-68445071D01*
X92751660Y-68296657D01*
X92751657Y-68296653D01*
X92628346Y-68173342D01*
X92628342Y-68173339D01*
X92479928Y-68081795D01*
X92479922Y-68081792D01*
X92479920Y-68081791D01*
X92479917Y-68081790D01*
X92314382Y-68026938D01*
X92212214Y-68016500D01*
X91512794Y-68016500D01*
X91512778Y-68016501D01*
X91410617Y-68026938D01*
X91245082Y-68081790D01*
X91245071Y-68081795D01*
X91096657Y-68173339D01*
X91096652Y-68173343D01*
X91081668Y-68188327D01*
X91020344Y-68221811D01*
X90950653Y-68216825D01*
X90906308Y-68188325D01*
X90898038Y-68180055D01*
X90898034Y-68180052D01*
X90751311Y-68089551D01*
X90751300Y-68089546D01*
X90587652Y-68035319D01*
X90486654Y-68025000D01*
X90387500Y-68025000D01*
X90387500Y-69974999D01*
X90486640Y-69974999D01*
X90486654Y-69974998D01*
X90587652Y-69964680D01*
X90751300Y-69910453D01*
X90751311Y-69910448D01*
X90898034Y-69819947D01*
X90906301Y-69811680D01*
X90967622Y-69778191D01*
X91037314Y-69783170D01*
X91081670Y-69811674D01*
X91096654Y-69826658D01*
X91170097Y-69871958D01*
X91216821Y-69923905D01*
X91229000Y-69977496D01*
X91229000Y-70924898D01*
X91253343Y-71047277D01*
X91253345Y-71047285D01*
X91301098Y-71162572D01*
X91301103Y-71162581D01*
X91370428Y-71266332D01*
X91370431Y-71266336D01*
X91917681Y-71813585D01*
X91951166Y-71874908D01*
X91954000Y-71901266D01*
X91954000Y-72098733D01*
X91934315Y-72165772D01*
X91917680Y-72186414D01*
X91458667Y-72645429D01*
X91431874Y-72672222D01*
X91370427Y-72733668D01*
X91301103Y-72837418D01*
X91301098Y-72837427D01*
X91253345Y-72952714D01*
X91253343Y-72952722D01*
X91229000Y-73075101D01*
X91229000Y-74022502D01*
X91209315Y-74089541D01*
X91170098Y-74128040D01*
X91096654Y-74173341D01*
X91081668Y-74188327D01*
X91020344Y-74221811D01*
X90950653Y-74216825D01*
X90906308Y-74188325D01*
X90898038Y-74180055D01*
X90898034Y-74180052D01*
X90751311Y-74089551D01*
X90751300Y-74089546D01*
X90587652Y-74035319D01*
X90486654Y-74025000D01*
X90387500Y-74025000D01*
X90387500Y-75974999D01*
X90486640Y-75974999D01*
X90486654Y-75974998D01*
X90587652Y-75964680D01*
X90751300Y-75910453D01*
X90751311Y-75910448D01*
X90898034Y-75819947D01*
X90906301Y-75811680D01*
X90967622Y-75778191D01*
X91037314Y-75783170D01*
X91081670Y-75811674D01*
X91096654Y-75826658D01*
X91170097Y-75871958D01*
X91216821Y-75923905D01*
X91229000Y-75977496D01*
X91229000Y-78022502D01*
X91209315Y-78089541D01*
X91170098Y-78128040D01*
X91096654Y-78173341D01*
X91081668Y-78188327D01*
X91020344Y-78221811D01*
X90950653Y-78216825D01*
X90906308Y-78188325D01*
X90898038Y-78180055D01*
X90898034Y-78180052D01*
X90751311Y-78089551D01*
X90751300Y-78089546D01*
X90587652Y-78035319D01*
X90486654Y-78025000D01*
X90387500Y-78025000D01*
X90387500Y-79974999D01*
X90486640Y-79974999D01*
X90486654Y-79974998D01*
X90587652Y-79964680D01*
X90751300Y-79910453D01*
X90751311Y-79910448D01*
X90898034Y-79819947D01*
X90906301Y-79811680D01*
X90967622Y-79778191D01*
X91037314Y-79783170D01*
X91081670Y-79811674D01*
X91096654Y-79826658D01*
X91170097Y-79871958D01*
X91216821Y-79923905D01*
X91229000Y-79977496D01*
X91229000Y-81022502D01*
X91209315Y-81089541D01*
X91170098Y-81128040D01*
X91096654Y-81173341D01*
X91081668Y-81188327D01*
X91020344Y-81221811D01*
X90950653Y-81216825D01*
X90906308Y-81188325D01*
X90898038Y-81180055D01*
X90898034Y-81180052D01*
X90751311Y-81089551D01*
X90751300Y-81089546D01*
X90587652Y-81035319D01*
X90486654Y-81025000D01*
X90387500Y-81025000D01*
X90387500Y-82974999D01*
X90486640Y-82974999D01*
X90486654Y-82974998D01*
X90587652Y-82964680D01*
X90751300Y-82910453D01*
X90751311Y-82910448D01*
X90898034Y-82819947D01*
X90906301Y-82811680D01*
X90967622Y-82778191D01*
X91037314Y-82783170D01*
X91081670Y-82811674D01*
X91096654Y-82826658D01*
X91170097Y-82871958D01*
X91216821Y-82923905D01*
X91229000Y-82977496D01*
X91229000Y-84022502D01*
X91209315Y-84089541D01*
X91170098Y-84128040D01*
X91096654Y-84173341D01*
X91081668Y-84188327D01*
X91020344Y-84221811D01*
X90950653Y-84216825D01*
X90906308Y-84188325D01*
X90898038Y-84180055D01*
X90898034Y-84180052D01*
X90751311Y-84089551D01*
X90751300Y-84089546D01*
X90587652Y-84035319D01*
X90486654Y-84025000D01*
X90387500Y-84025000D01*
X90387500Y-85974999D01*
X90486640Y-85974999D01*
X90486654Y-85974998D01*
X90587652Y-85964680D01*
X90751300Y-85910453D01*
X90751311Y-85910448D01*
X90898034Y-85819947D01*
X90906301Y-85811680D01*
X90967622Y-85778191D01*
X91037314Y-85783170D01*
X91081670Y-85811674D01*
X91096654Y-85826658D01*
X91170097Y-85871958D01*
X91216821Y-85923905D01*
X91229000Y-85977496D01*
X91229000Y-86839432D01*
X91209315Y-86906471D01*
X91208102Y-86908322D01*
X91163601Y-86974922D01*
X91163600Y-86974923D01*
X91138709Y-87035016D01*
X91094867Y-87089419D01*
X91089245Y-87093100D01*
X90959157Y-87173339D01*
X90959152Y-87173343D01*
X90944168Y-87188327D01*
X90882844Y-87221811D01*
X90813153Y-87216825D01*
X90768808Y-87188325D01*
X90760538Y-87180055D01*
X90760534Y-87180052D01*
X90613811Y-87089551D01*
X90613800Y-87089546D01*
X90450152Y-87035319D01*
X90349154Y-87025000D01*
X90250000Y-87025000D01*
X89750000Y-87025000D01*
X89750000Y-87024999D01*
X89650860Y-87025000D01*
X89650844Y-87025001D01*
X89549847Y-87035319D01*
X89386199Y-87089546D01*
X89386188Y-87089551D01*
X89239465Y-87180052D01*
X89239461Y-87180055D01*
X89117555Y-87301961D01*
X89117552Y-87301965D01*
X89027051Y-87448688D01*
X89027046Y-87448699D01*
X88972819Y-87612347D01*
X88962500Y-87713345D01*
X86941803Y-87713345D01*
X86931174Y-85286654D01*
X89100001Y-85286654D01*
X89110319Y-85387652D01*
X89164546Y-85551300D01*
X89164551Y-85551311D01*
X89255052Y-85698034D01*
X89255055Y-85698038D01*
X89376961Y-85819944D01*
X89376965Y-85819947D01*
X89523688Y-85910448D01*
X89523699Y-85910453D01*
X89687347Y-85964680D01*
X89788351Y-85974999D01*
X89887500Y-85974998D01*
X89887500Y-85250000D01*
X89100001Y-85250000D01*
X89100001Y-85286654D01*
X86931174Y-85286654D01*
X86928663Y-84713345D01*
X89100000Y-84713345D01*
X89100000Y-84750000D01*
X89887500Y-84750000D01*
X89887500Y-84024999D01*
X89788360Y-84025000D01*
X89788344Y-84025001D01*
X89687347Y-84035319D01*
X89523699Y-84089546D01*
X89523688Y-84089551D01*
X89376965Y-84180052D01*
X89376961Y-84180055D01*
X89255055Y-84301961D01*
X89255052Y-84301965D01*
X89164551Y-84448688D01*
X89164546Y-84448699D01*
X89110319Y-84612347D01*
X89100000Y-84713345D01*
X86928663Y-84713345D01*
X86918034Y-82286654D01*
X89100001Y-82286654D01*
X89110319Y-82387652D01*
X89164546Y-82551300D01*
X89164551Y-82551311D01*
X89255052Y-82698034D01*
X89255055Y-82698038D01*
X89376961Y-82819944D01*
X89376965Y-82819947D01*
X89523688Y-82910448D01*
X89523699Y-82910453D01*
X89687347Y-82964680D01*
X89788351Y-82974999D01*
X89887500Y-82974998D01*
X89887500Y-82250000D01*
X89100001Y-82250000D01*
X89100001Y-82286654D01*
X86918034Y-82286654D01*
X86915523Y-81713345D01*
X89100000Y-81713345D01*
X89100000Y-81750000D01*
X89887500Y-81750000D01*
X89887500Y-81024999D01*
X89788360Y-81025000D01*
X89788344Y-81025001D01*
X89687347Y-81035319D01*
X89523699Y-81089546D01*
X89523688Y-81089551D01*
X89376965Y-81180052D01*
X89376961Y-81180055D01*
X89255055Y-81301961D01*
X89255052Y-81301965D01*
X89164551Y-81448688D01*
X89164546Y-81448699D01*
X89110319Y-81612347D01*
X89100000Y-81713345D01*
X86915523Y-81713345D01*
X86904894Y-79286654D01*
X89100001Y-79286654D01*
X89110319Y-79387652D01*
X89164546Y-79551300D01*
X89164551Y-79551311D01*
X89255052Y-79698034D01*
X89255055Y-79698038D01*
X89376961Y-79819944D01*
X89376965Y-79819947D01*
X89523688Y-79910448D01*
X89523699Y-79910453D01*
X89687347Y-79964680D01*
X89788351Y-79974999D01*
X89887500Y-79974998D01*
X89887500Y-79250000D01*
X89100001Y-79250000D01*
X89100001Y-79286654D01*
X86904894Y-79286654D01*
X86902383Y-78713345D01*
X89100000Y-78713345D01*
X89100000Y-78750000D01*
X89887500Y-78750000D01*
X89887500Y-78024999D01*
X89788360Y-78025000D01*
X89788344Y-78025001D01*
X89687347Y-78035319D01*
X89523699Y-78089546D01*
X89523688Y-78089551D01*
X89376965Y-78180052D01*
X89376961Y-78180055D01*
X89255055Y-78301961D01*
X89255052Y-78301965D01*
X89164551Y-78448688D01*
X89164546Y-78448699D01*
X89110319Y-78612347D01*
X89100000Y-78713345D01*
X86902383Y-78713345D01*
X86887374Y-75286654D01*
X89100001Y-75286654D01*
X89110319Y-75387652D01*
X89164546Y-75551300D01*
X89164551Y-75551311D01*
X89255052Y-75698034D01*
X89255055Y-75698038D01*
X89376961Y-75819944D01*
X89376965Y-75819947D01*
X89523688Y-75910448D01*
X89523699Y-75910453D01*
X89687347Y-75964680D01*
X89788351Y-75974999D01*
X89887500Y-75974998D01*
X89887500Y-75250000D01*
X89100001Y-75250000D01*
X89100001Y-75286654D01*
X86887374Y-75286654D01*
X86884863Y-74713345D01*
X89100000Y-74713345D01*
X89100000Y-74750000D01*
X89887500Y-74750000D01*
X89887500Y-74024999D01*
X89788360Y-74025000D01*
X89788344Y-74025001D01*
X89687347Y-74035319D01*
X89523699Y-74089546D01*
X89523688Y-74089551D01*
X89376965Y-74180052D01*
X89376961Y-74180055D01*
X89255055Y-74301961D01*
X89255052Y-74301965D01*
X89164551Y-74448688D01*
X89164546Y-74448699D01*
X89110319Y-74612347D01*
X89100000Y-74713345D01*
X86884863Y-74713345D01*
X86861094Y-69286654D01*
X89100001Y-69286654D01*
X89110319Y-69387652D01*
X89164546Y-69551300D01*
X89164551Y-69551311D01*
X89255052Y-69698034D01*
X89255055Y-69698038D01*
X89376961Y-69819944D01*
X89376965Y-69819947D01*
X89523688Y-69910448D01*
X89523699Y-69910453D01*
X89687347Y-69964680D01*
X89788351Y-69974999D01*
X89887500Y-69974998D01*
X89887500Y-69250000D01*
X89100001Y-69250000D01*
X89100001Y-69286654D01*
X86861094Y-69286654D01*
X86858583Y-68713345D01*
X89100000Y-68713345D01*
X89100000Y-68750000D01*
X89887500Y-68750000D01*
X89887500Y-68024999D01*
X89788360Y-68025000D01*
X89788344Y-68025001D01*
X89687347Y-68035319D01*
X89523699Y-68089546D01*
X89523688Y-68089551D01*
X89376965Y-68180052D01*
X89376961Y-68180055D01*
X89255055Y-68301961D01*
X89255052Y-68301965D01*
X89164551Y-68448688D01*
X89164546Y-68448699D01*
X89110319Y-68612347D01*
X89100000Y-68713345D01*
X86858583Y-68713345D01*
X86828431Y-61829371D01*
X86828439Y-61827391D01*
X86830694Y-61637389D01*
X86831281Y-61626720D01*
X86868659Y-61247189D01*
X86870444Y-61235159D01*
X86944692Y-60861880D01*
X86947648Y-60850076D01*
X87058138Y-60485836D01*
X87062229Y-60474402D01*
X87207886Y-60122751D01*
X87213076Y-60111779D01*
X87392509Y-59776081D01*
X87398736Y-59765690D01*
X87610218Y-59449185D01*
X87617439Y-59439448D01*
X87858916Y-59145207D01*
X87867069Y-59136212D01*
X88136212Y-58867069D01*
X88145207Y-58858916D01*
X88439448Y-58617439D01*
X88449185Y-58610218D01*
X88765690Y-58398736D01*
X88776081Y-58392509D01*
X89111779Y-58213076D01*
X89122751Y-58207886D01*
X89474402Y-58062229D01*
X89485836Y-58058138D01*
X89850082Y-57947646D01*
X89861873Y-57944693D01*
X90235168Y-57870442D01*
X90247189Y-57868659D01*
X90626720Y-57831281D01*
X90637380Y-57830694D01*
X90821195Y-57828512D01*
X90827670Y-57828436D01*
X90829141Y-57828427D01*
X116170859Y-57828427D01*
X116172330Y-57828436D01*
G37*
%TD.AperFunction*%
%TD*%
M02*
