%TF.GenerationSoftware,KiCad,Pcbnew,8.0.9*%
%TF.CreationDate,2025-09-30T21:00:13-05:00*%
%TF.ProjectId,Horns_pro,486f726e-735f-4707-926f-2e6b69636164,1.0*%
%TF.SameCoordinates,Original*%
%TF.FileFunction,Copper,L2,Bot*%
%TF.FilePolarity,Positive*%
%FSLAX46Y46*%
G04 Gerber Fmt 4.6, Leading zero omitted, Abs format (unit mm)*
G04 Created by KiCad (PCBNEW 8.0.9) date 2025-09-30 21:00:13*
%MOMM*%
%LPD*%
G01*
G04 APERTURE LIST*
G04 Aperture macros list*
%AMRoundRect*
0 Rectangle with rounded corners*
0 $1 Rounding radius*
0 $2 $3 $4 $5 $6 $7 $8 $9 X,Y pos of 4 corners*
0 Add a 4 corners polygon primitive as box body*
4,1,4,$2,$3,$4,$5,$6,$7,$8,$9,$2,$3,0*
0 Add four circle primitives for the rounded corners*
1,1,$1+$1,$2,$3*
1,1,$1+$1,$4,$5*
1,1,$1+$1,$6,$7*
1,1,$1+$1,$8,$9*
0 Add four rect primitives between the rounded corners*
20,1,$1+$1,$2,$3,$4,$5,0*
20,1,$1+$1,$4,$5,$6,$7,0*
20,1,$1+$1,$6,$7,$8,$9,0*
20,1,$1+$1,$8,$9,$2,$3,0*%
G04 Aperture macros list end*
%TA.AperFunction,ComponentPad*%
%ADD10RoundRect,0.250000X0.845000X-0.620000X0.845000X0.620000X-0.845000X0.620000X-0.845000X-0.620000X0*%
%TD*%
%TA.AperFunction,ComponentPad*%
%ADD11O,2.190000X1.740000*%
%TD*%
%TA.AperFunction,ComponentPad*%
%ADD12R,3.200000X3.200000*%
%TD*%
%TA.AperFunction,ComponentPad*%
%ADD13O,3.200000X3.200000*%
%TD*%
%TA.AperFunction,ComponentPad*%
%ADD14RoundRect,0.250000X-0.620000X-0.845000X0.620000X-0.845000X0.620000X0.845000X-0.620000X0.845000X0*%
%TD*%
%TA.AperFunction,ComponentPad*%
%ADD15O,1.740000X2.190000*%
%TD*%
%TA.AperFunction,ViaPad*%
%ADD16C,0.800000*%
%TD*%
G04 APERTURE END LIST*
D10*
%TO.P,J4,1,Pin_1*%
%TO.N,Net-(J3-Pin_2)*%
X115000000Y-76020000D03*
D11*
%TO.P,J4,2,Pin_2*%
%TO.N,+24V*%
X115000000Y-73480000D03*
%TD*%
D10*
%TO.P,J3,1,Pin_1*%
%TO.N,Net-(J3-Pin_1)*%
X115000000Y-84020000D03*
D11*
%TO.P,J3,2,Pin_2*%
%TO.N,Net-(J3-Pin_2)*%
X115000000Y-81480000D03*
%TD*%
D12*
%TO.P,D1,1,K*%
%TO.N,Net-(D1-K)*%
X93380000Y-62000000D03*
D13*
%TO.P,D1,2,A*%
%TO.N,/Horn input*%
X108620000Y-62000000D03*
%TD*%
D14*
%TO.P,J1,1,Pin_1*%
%TO.N,GND*%
X101460000Y-81020000D03*
D15*
%TO.P,J1,2,Pin_2*%
%TO.N,+24V*%
X104000000Y-81020000D03*
%TO.P,J1,3,Pin_3*%
%TO.N,GND*%
X106540000Y-81020000D03*
%TD*%
D14*
%TO.P,J2,1,Pin_1*%
%TO.N,GND*%
X100460000Y-71020000D03*
D15*
%TO.P,J2,2,Pin_2*%
%TO.N,/Horn input*%
X103000000Y-71020000D03*
%TD*%
D16*
%TO.N,GND*%
X99000000Y-89000000D03*
X97000000Y-99000000D03*
X98000000Y-76000000D03*
%TD*%
%TA.AperFunction,Conductor*%
%TO.N,GND*%
G36*
X116172330Y-57828436D02*
G01*
X116178982Y-57828514D01*
X116362618Y-57830694D01*
X116373281Y-57831281D01*
X116752807Y-57868658D01*
X116764834Y-57870443D01*
X117138121Y-57944692D01*
X117149921Y-57947647D01*
X117514156Y-58058136D01*
X117525603Y-58062232D01*
X117877240Y-58207883D01*
X117888227Y-58213080D01*
X118223909Y-58392504D01*
X118234317Y-58398742D01*
X118550804Y-58610211D01*
X118560565Y-58617450D01*
X118854781Y-58858907D01*
X118863797Y-58867079D01*
X119132920Y-59136202D01*
X119141092Y-59145218D01*
X119382549Y-59439434D01*
X119389791Y-59449198D01*
X119601253Y-59765676D01*
X119607501Y-59776100D01*
X119786916Y-60111765D01*
X119792119Y-60122766D01*
X119937765Y-60474391D01*
X119941865Y-60485848D01*
X120052351Y-60850076D01*
X120055307Y-60861880D01*
X120129555Y-61235159D01*
X120131341Y-61247197D01*
X120168717Y-61626708D01*
X120169305Y-61637389D01*
X120171564Y-61827668D01*
X120171573Y-61829140D01*
X120171573Y-101170859D01*
X120171564Y-101172331D01*
X120169305Y-101362610D01*
X120168717Y-101373291D01*
X120131341Y-101752802D01*
X120129555Y-101764840D01*
X120055307Y-102138119D01*
X120052351Y-102149923D01*
X119941865Y-102514151D01*
X119937765Y-102525608D01*
X119792119Y-102877233D01*
X119786916Y-102888234D01*
X119607501Y-103223899D01*
X119601247Y-103234332D01*
X119389798Y-103550791D01*
X119382549Y-103560565D01*
X119141092Y-103854781D01*
X119132920Y-103863797D01*
X118863797Y-104132920D01*
X118854781Y-104141092D01*
X118560565Y-104382549D01*
X118550791Y-104389798D01*
X118234337Y-104601245D01*
X118223899Y-104607501D01*
X117888234Y-104786916D01*
X117877233Y-104792119D01*
X117525608Y-104937765D01*
X117514151Y-104941865D01*
X117149923Y-105052351D01*
X117138119Y-105055307D01*
X116764840Y-105129555D01*
X116752802Y-105131341D01*
X116373291Y-105168717D01*
X116362610Y-105169305D01*
X116172739Y-105171559D01*
X116170422Y-105171565D01*
X91000420Y-105000002D01*
X90999744Y-104999996D01*
X90808937Y-104997656D01*
X90798304Y-104997068D01*
X90418781Y-104959688D01*
X90406744Y-104957902D01*
X90033474Y-104883654D01*
X90021670Y-104880698D01*
X89657455Y-104770214D01*
X89645997Y-104766114D01*
X89294372Y-104620467D01*
X89283372Y-104615264D01*
X88947724Y-104435856D01*
X88937286Y-104429600D01*
X88620830Y-104218150D01*
X88611057Y-104210902D01*
X88316851Y-103969455D01*
X88307834Y-103961282D01*
X88038717Y-103692165D01*
X88030544Y-103683148D01*
X87789097Y-103388942D01*
X87781849Y-103379169D01*
X87570399Y-103062713D01*
X87564143Y-103052275D01*
X87384735Y-102716627D01*
X87379532Y-102705627D01*
X87233885Y-102354002D01*
X87229785Y-102342544D01*
X87193444Y-102222743D01*
X87119300Y-101978327D01*
X87116345Y-101966525D01*
X87087240Y-101820205D01*
X87042096Y-101593249D01*
X87040311Y-101581218D01*
X87019832Y-101373291D01*
X87002930Y-101201681D01*
X87002343Y-101191077D01*
X87000003Y-101000280D01*
X86999998Y-100999698D01*
X86999468Y-100878711D01*
X89149500Y-100878711D01*
X89149500Y-101121288D01*
X89181161Y-101361785D01*
X89243947Y-101596104D01*
X89308854Y-101752802D01*
X89336776Y-101820212D01*
X89458064Y-102030289D01*
X89458066Y-102030292D01*
X89458067Y-102030293D01*
X89605733Y-102222736D01*
X89605739Y-102222743D01*
X89777256Y-102394260D01*
X89777262Y-102394265D01*
X89969711Y-102541936D01*
X90179788Y-102663224D01*
X90403900Y-102756054D01*
X90638211Y-102818838D01*
X90818586Y-102842584D01*
X90878711Y-102850500D01*
X90878712Y-102850500D01*
X91121289Y-102850500D01*
X91169388Y-102844167D01*
X91361789Y-102818838D01*
X91596100Y-102756054D01*
X91820212Y-102663224D01*
X92030289Y-102541936D01*
X92222738Y-102394265D01*
X92394265Y-102222738D01*
X92541936Y-102030289D01*
X92663224Y-101820212D01*
X92756054Y-101596100D01*
X92818838Y-101361789D01*
X92850500Y-101121288D01*
X92850500Y-100878712D01*
X92818838Y-100638211D01*
X92756054Y-100403900D01*
X92663224Y-100179788D01*
X92541936Y-99969711D01*
X92394265Y-99777262D01*
X92394260Y-99777256D01*
X92222743Y-99605739D01*
X92222736Y-99605733D01*
X92030293Y-99458067D01*
X92030292Y-99458066D01*
X92030289Y-99458064D01*
X91820212Y-99336776D01*
X91820205Y-99336773D01*
X91596104Y-99243947D01*
X91361785Y-99181161D01*
X91121289Y-99149500D01*
X91121288Y-99149500D01*
X90878712Y-99149500D01*
X90878711Y-99149500D01*
X90638214Y-99181161D01*
X90403895Y-99243947D01*
X90179794Y-99336773D01*
X90179785Y-99336777D01*
X89969706Y-99458067D01*
X89777263Y-99605733D01*
X89777256Y-99605739D01*
X89605739Y-99777256D01*
X89605733Y-99777263D01*
X89458067Y-99969706D01*
X89336777Y-100179785D01*
X89336773Y-100179794D01*
X89243947Y-100403895D01*
X89181161Y-100638214D01*
X89149500Y-100878711D01*
X86999468Y-100878711D01*
X86908566Y-80125013D01*
X100090000Y-80125013D01*
X100090000Y-80770000D01*
X100917291Y-80770000D01*
X100905548Y-80790339D01*
X100865000Y-80941667D01*
X100865000Y-81098333D01*
X100905548Y-81249661D01*
X100917291Y-81270000D01*
X100090001Y-81270000D01*
X100090001Y-81914986D01*
X100100494Y-82017697D01*
X100155641Y-82184119D01*
X100155643Y-82184124D01*
X100247684Y-82333345D01*
X100371654Y-82457315D01*
X100520875Y-82549356D01*
X100520880Y-82549358D01*
X100687302Y-82604505D01*
X100687309Y-82604506D01*
X100790019Y-82614999D01*
X101209999Y-82614999D01*
X101210000Y-82614998D01*
X101210000Y-81562709D01*
X101230339Y-81574452D01*
X101381667Y-81615000D01*
X101538333Y-81615000D01*
X101689661Y-81574452D01*
X101710000Y-81562709D01*
X101710000Y-82614999D01*
X102129972Y-82614999D01*
X102129986Y-82614998D01*
X102232697Y-82604505D01*
X102399119Y-82549358D01*
X102399124Y-82549356D01*
X102548345Y-82457315D01*
X102672317Y-82333343D01*
X102767968Y-82178267D01*
X102819916Y-82131542D01*
X102888878Y-82120319D01*
X102952960Y-82148162D01*
X102961188Y-82155682D01*
X103101967Y-82296461D01*
X103277508Y-82423999D01*
X103470840Y-82522506D01*
X103677200Y-82589557D01*
X103757566Y-82602285D01*
X103891505Y-82623500D01*
X103891510Y-82623500D01*
X104108495Y-82623500D01*
X104228421Y-82604505D01*
X104322800Y-82589557D01*
X104529160Y-82522506D01*
X104722492Y-82423999D01*
X104898033Y-82296461D01*
X105051461Y-82143033D01*
X105174936Y-81973084D01*
X105230265Y-81930419D01*
X105299878Y-81924440D01*
X105361673Y-81957046D01*
X105375571Y-81973084D01*
X105495025Y-82137496D01*
X105495025Y-82137497D01*
X105647502Y-82289974D01*
X105821963Y-82416728D01*
X106014098Y-82514627D01*
X106219190Y-82581266D01*
X106290000Y-82592481D01*
X106290000Y-81562709D01*
X106310339Y-81574452D01*
X106461667Y-81615000D01*
X106618333Y-81615000D01*
X106769661Y-81574452D01*
X106790000Y-81562709D01*
X106790000Y-82592480D01*
X106860809Y-82581266D01*
X107065901Y-82514627D01*
X107258036Y-82416728D01*
X107432496Y-82289974D01*
X107432497Y-82289974D01*
X107584974Y-82137497D01*
X107584974Y-82137496D01*
X107711728Y-81963036D01*
X107809627Y-81770901D01*
X107876265Y-81565809D01*
X107907041Y-81371504D01*
X113396500Y-81371504D01*
X113396500Y-81588495D01*
X113430442Y-81802796D01*
X113430443Y-81802800D01*
X113497494Y-82009160D01*
X113596001Y-82202492D01*
X113723539Y-82378033D01*
X113723541Y-82378035D01*
X113858139Y-82512633D01*
X113891624Y-82573956D01*
X113886640Y-82643648D01*
X113844768Y-82699581D01*
X113835556Y-82705852D01*
X113681348Y-82800969D01*
X113555971Y-82926346D01*
X113462886Y-83077259D01*
X113462884Y-83077264D01*
X113407113Y-83245572D01*
X113396500Y-83349447D01*
X113396500Y-84690537D01*
X113396501Y-84690553D01*
X113407113Y-84794426D01*
X113462885Y-84962738D01*
X113555970Y-85113652D01*
X113681348Y-85239030D01*
X113832262Y-85332115D01*
X114000574Y-85387887D01*
X114104455Y-85398500D01*
X115895544Y-85398499D01*
X115999426Y-85387887D01*
X116167738Y-85332115D01*
X116318652Y-85239030D01*
X116444030Y-85113652D01*
X116537115Y-84962738D01*
X116592887Y-84794426D01*
X116603500Y-84690545D01*
X116603499Y-83349456D01*
X116592887Y-83245574D01*
X116537115Y-83077262D01*
X116444030Y-82926348D01*
X116318652Y-82800970D01*
X116318648Y-82800967D01*
X116164444Y-82705852D01*
X116117719Y-82653904D01*
X116106498Y-82584942D01*
X116134341Y-82520860D01*
X116141838Y-82512655D01*
X116276461Y-82378033D01*
X116403999Y-82202492D01*
X116502506Y-82009160D01*
X116569557Y-81802800D01*
X116584642Y-81707551D01*
X116603500Y-81588495D01*
X116603500Y-81371504D01*
X116569557Y-81157203D01*
X116569557Y-81157200D01*
X116502506Y-80950840D01*
X116403999Y-80757508D01*
X116276461Y-80581967D01*
X116123033Y-80428539D01*
X115947492Y-80301001D01*
X115754160Y-80202494D01*
X115547800Y-80135443D01*
X115547798Y-80135442D01*
X115547796Y-80135442D01*
X115333495Y-80101500D01*
X115333490Y-80101500D01*
X114666510Y-80101500D01*
X114666505Y-80101500D01*
X114452203Y-80135442D01*
X114245837Y-80202495D01*
X114052507Y-80301001D01*
X113952355Y-80373766D01*
X113876967Y-80428539D01*
X113876965Y-80428541D01*
X113876964Y-80428541D01*
X113723541Y-80581964D01*
X113723541Y-80581965D01*
X113723539Y-80581967D01*
X113670723Y-80654662D01*
X113596001Y-80757507D01*
X113497495Y-80950837D01*
X113430442Y-81157203D01*
X113396500Y-81371504D01*
X107907041Y-81371504D01*
X107910000Y-81352820D01*
X107910000Y-81270000D01*
X107082709Y-81270000D01*
X107094452Y-81249661D01*
X107135000Y-81098333D01*
X107135000Y-80941667D01*
X107094452Y-80790339D01*
X107082709Y-80770000D01*
X107910000Y-80770000D01*
X107910000Y-80687179D01*
X107876265Y-80474190D01*
X107809627Y-80269098D01*
X107711728Y-80076963D01*
X107584974Y-79902503D01*
X107584974Y-79902502D01*
X107432497Y-79750025D01*
X107258036Y-79623271D01*
X107065899Y-79525372D01*
X106860805Y-79458733D01*
X106790000Y-79447518D01*
X106790000Y-80477290D01*
X106769661Y-80465548D01*
X106618333Y-80425000D01*
X106461667Y-80425000D01*
X106310339Y-80465548D01*
X106290000Y-80477290D01*
X106290000Y-79447518D01*
X106289999Y-79447518D01*
X106219194Y-79458733D01*
X106014100Y-79525372D01*
X105821963Y-79623271D01*
X105647503Y-79750025D01*
X105647502Y-79750025D01*
X105495024Y-79902503D01*
X105375571Y-80066915D01*
X105320240Y-80109580D01*
X105250627Y-80115559D01*
X105188832Y-80082953D01*
X105174935Y-80066914D01*
X105099839Y-79963553D01*
X105051461Y-79896967D01*
X104898033Y-79743539D01*
X104722492Y-79616001D01*
X104529160Y-79517494D01*
X104322800Y-79450443D01*
X104322798Y-79450442D01*
X104322796Y-79450442D01*
X104108495Y-79416500D01*
X104108490Y-79416500D01*
X103891510Y-79416500D01*
X103891505Y-79416500D01*
X103677203Y-79450442D01*
X103470837Y-79517495D01*
X103277507Y-79616001D01*
X103101968Y-79743538D01*
X102961188Y-79884318D01*
X102899865Y-79917802D01*
X102830173Y-79912818D01*
X102774240Y-79870946D01*
X102767968Y-79861732D01*
X102672317Y-79706656D01*
X102548345Y-79582684D01*
X102399124Y-79490643D01*
X102399119Y-79490641D01*
X102232697Y-79435494D01*
X102232690Y-79435493D01*
X102129986Y-79425000D01*
X101710000Y-79425000D01*
X101710000Y-80477290D01*
X101689661Y-80465548D01*
X101538333Y-80425000D01*
X101381667Y-80425000D01*
X101230339Y-80465548D01*
X101210000Y-80477290D01*
X101210000Y-79425000D01*
X100790028Y-79425000D01*
X100790012Y-79425001D01*
X100687302Y-79435494D01*
X100520880Y-79490641D01*
X100520875Y-79490643D01*
X100371654Y-79582684D01*
X100247684Y-79706654D01*
X100155643Y-79855875D01*
X100155641Y-79855880D01*
X100100494Y-80022302D01*
X100100493Y-80022309D01*
X100090000Y-80125013D01*
X86908566Y-80125013D01*
X86878986Y-73371504D01*
X113396500Y-73371504D01*
X113396500Y-73588495D01*
X113430442Y-73802796D01*
X113430443Y-73802800D01*
X113497494Y-74009160D01*
X113596001Y-74202492D01*
X113723539Y-74378033D01*
X113723541Y-74378035D01*
X113858139Y-74512633D01*
X113891624Y-74573956D01*
X113886640Y-74643648D01*
X113844768Y-74699581D01*
X113835556Y-74705852D01*
X113681348Y-74800969D01*
X113555971Y-74926346D01*
X113462886Y-75077259D01*
X113462884Y-75077264D01*
X113407113Y-75245572D01*
X113396500Y-75349447D01*
X113396500Y-76690537D01*
X113396501Y-76690553D01*
X113407113Y-76794426D01*
X113462885Y-76962738D01*
X113555970Y-77113652D01*
X113681348Y-77239030D01*
X113832262Y-77332115D01*
X114000574Y-77387887D01*
X114104455Y-77398500D01*
X115895544Y-77398499D01*
X115999426Y-77387887D01*
X116167738Y-77332115D01*
X116318652Y-77239030D01*
X116444030Y-77113652D01*
X116537115Y-76962738D01*
X116592887Y-76794426D01*
X116603500Y-76690545D01*
X116603499Y-75349456D01*
X116592887Y-75245574D01*
X116537115Y-75077262D01*
X116444030Y-74926348D01*
X116318652Y-74800970D01*
X116318648Y-74800967D01*
X116164444Y-74705852D01*
X116117719Y-74653904D01*
X116106498Y-74584942D01*
X116134341Y-74520860D01*
X116141838Y-74512655D01*
X116276461Y-74378033D01*
X116403999Y-74202492D01*
X116502506Y-74009160D01*
X116569557Y-73802800D01*
X116584642Y-73707551D01*
X116603500Y-73588495D01*
X116603500Y-73371504D01*
X116569557Y-73157203D01*
X116569557Y-73157200D01*
X116502506Y-72950840D01*
X116403999Y-72757508D01*
X116276461Y-72581967D01*
X116123033Y-72428539D01*
X115947492Y-72301001D01*
X115754160Y-72202494D01*
X115547800Y-72135443D01*
X115547798Y-72135442D01*
X115547796Y-72135442D01*
X115333495Y-72101500D01*
X115333490Y-72101500D01*
X114666510Y-72101500D01*
X114666505Y-72101500D01*
X114452203Y-72135442D01*
X114245837Y-72202495D01*
X114052507Y-72301001D01*
X114007990Y-72333345D01*
X113876967Y-72428539D01*
X113876965Y-72428541D01*
X113876964Y-72428541D01*
X113723541Y-72581964D01*
X113723541Y-72581965D01*
X113723539Y-72581967D01*
X113699541Y-72614998D01*
X113596001Y-72757507D01*
X113497495Y-72950837D01*
X113430442Y-73157203D01*
X113396500Y-73371504D01*
X86878986Y-73371504D01*
X86864766Y-70125013D01*
X99090000Y-70125013D01*
X99090000Y-70770000D01*
X99917291Y-70770000D01*
X99905548Y-70790339D01*
X99865000Y-70941667D01*
X99865000Y-71098333D01*
X99905548Y-71249661D01*
X99917291Y-71270000D01*
X99090001Y-71270000D01*
X99090001Y-71914986D01*
X99100494Y-72017697D01*
X99155641Y-72184119D01*
X99155643Y-72184124D01*
X99247684Y-72333345D01*
X99371654Y-72457315D01*
X99520875Y-72549356D01*
X99520880Y-72549358D01*
X99687302Y-72604505D01*
X99687309Y-72604506D01*
X99790019Y-72614999D01*
X100209999Y-72614999D01*
X100210000Y-72614998D01*
X100210000Y-71562709D01*
X100230339Y-71574452D01*
X100381667Y-71615000D01*
X100538333Y-71615000D01*
X100689661Y-71574452D01*
X100710000Y-71562709D01*
X100710000Y-72614999D01*
X101129972Y-72614999D01*
X101129986Y-72614998D01*
X101232697Y-72604505D01*
X101399119Y-72549358D01*
X101399124Y-72549356D01*
X101548345Y-72457315D01*
X101672317Y-72333343D01*
X101767968Y-72178267D01*
X101819916Y-72131542D01*
X101888878Y-72120319D01*
X101952960Y-72148162D01*
X101961188Y-72155682D01*
X102101967Y-72296461D01*
X102277508Y-72423999D01*
X102470840Y-72522506D01*
X102677200Y-72589557D01*
X102757566Y-72602285D01*
X102891505Y-72623500D01*
X102891510Y-72623500D01*
X103108495Y-72623500D01*
X103228421Y-72604505D01*
X103322800Y-72589557D01*
X103529160Y-72522506D01*
X103722492Y-72423999D01*
X103898033Y-72296461D01*
X104051461Y-72143033D01*
X104178999Y-71967492D01*
X104277506Y-71774160D01*
X104344557Y-71567800D01*
X104373456Y-71385338D01*
X104378500Y-71353495D01*
X104378500Y-70686504D01*
X104344557Y-70472203D01*
X104344557Y-70472200D01*
X104277506Y-70265840D01*
X104178999Y-70072508D01*
X104051461Y-69896967D01*
X103898033Y-69743539D01*
X103722492Y-69616001D01*
X103529160Y-69517494D01*
X103322800Y-69450443D01*
X103322798Y-69450442D01*
X103322796Y-69450442D01*
X103108495Y-69416500D01*
X103108490Y-69416500D01*
X102891510Y-69416500D01*
X102891505Y-69416500D01*
X102677203Y-69450442D01*
X102470837Y-69517495D01*
X102277507Y-69616001D01*
X102101968Y-69743538D01*
X101961188Y-69884318D01*
X101899865Y-69917802D01*
X101830173Y-69912818D01*
X101774240Y-69870946D01*
X101767968Y-69861732D01*
X101672317Y-69706656D01*
X101548345Y-69582684D01*
X101399124Y-69490643D01*
X101399119Y-69490641D01*
X101232697Y-69435494D01*
X101232690Y-69435493D01*
X101129986Y-69425000D01*
X100710000Y-69425000D01*
X100710000Y-70477290D01*
X100689661Y-70465548D01*
X100538333Y-70425000D01*
X100381667Y-70425000D01*
X100230339Y-70465548D01*
X100210000Y-70477290D01*
X100210000Y-69425000D01*
X99790028Y-69425000D01*
X99790012Y-69425001D01*
X99687302Y-69435494D01*
X99520880Y-69490641D01*
X99520875Y-69490643D01*
X99371654Y-69582684D01*
X99247684Y-69706654D01*
X99155643Y-69855875D01*
X99155641Y-69855880D01*
X99100494Y-70022302D01*
X99100493Y-70022309D01*
X99090000Y-70125013D01*
X86864766Y-70125013D01*
X86828431Y-61829371D01*
X86828439Y-61827391D01*
X86830694Y-61637389D01*
X86831281Y-61626720D01*
X86868659Y-61247189D01*
X86870444Y-61235159D01*
X86944692Y-60861880D01*
X86947648Y-60850076D01*
X87058138Y-60485836D01*
X87062229Y-60474402D01*
X87113200Y-60351345D01*
X91271500Y-60351345D01*
X91271500Y-63648654D01*
X91278011Y-63709202D01*
X91278011Y-63709204D01*
X91329111Y-63846204D01*
X91416739Y-63963261D01*
X91533796Y-64050889D01*
X91670799Y-64101989D01*
X91698050Y-64104918D01*
X91731345Y-64108499D01*
X91731362Y-64108500D01*
X95028638Y-64108500D01*
X95028654Y-64108499D01*
X95055692Y-64105591D01*
X95089201Y-64101989D01*
X95226204Y-64050889D01*
X95343261Y-63963261D01*
X95430889Y-63846204D01*
X95481989Y-63709201D01*
X95485591Y-63675692D01*
X95488499Y-63648654D01*
X95488500Y-63648637D01*
X95488500Y-62000000D01*
X106506573Y-62000000D01*
X106526257Y-62287778D01*
X106526258Y-62287780D01*
X106584941Y-62570185D01*
X106584946Y-62570201D01*
X106658536Y-62777262D01*
X106681541Y-62841992D01*
X106814247Y-63098103D01*
X106980591Y-63333758D01*
X106980595Y-63333762D01*
X106980595Y-63333763D01*
X107177477Y-63544571D01*
X107305412Y-63648654D01*
X107401228Y-63726606D01*
X107647686Y-63876481D01*
X107647688Y-63876482D01*
X107647690Y-63876483D01*
X107652822Y-63878712D01*
X107912256Y-63991400D01*
X108190011Y-64069223D01*
X108428404Y-64101989D01*
X108475774Y-64108500D01*
X108475775Y-64108500D01*
X108764226Y-64108500D01*
X108811596Y-64101989D01*
X109049989Y-64069223D01*
X109327744Y-63991400D01*
X109587180Y-63878711D01*
X114149500Y-63878711D01*
X114149500Y-64121288D01*
X114181161Y-64361785D01*
X114243947Y-64596104D01*
X114336773Y-64820205D01*
X114336776Y-64820212D01*
X114458064Y-65030289D01*
X114458066Y-65030292D01*
X114458067Y-65030293D01*
X114605733Y-65222736D01*
X114605739Y-65222743D01*
X114777256Y-65394260D01*
X114777262Y-65394265D01*
X114969711Y-65541936D01*
X115179788Y-65663224D01*
X115403900Y-65756054D01*
X115638211Y-65818838D01*
X115818586Y-65842584D01*
X115878711Y-65850500D01*
X115878712Y-65850500D01*
X116121289Y-65850500D01*
X116169388Y-65844167D01*
X116361789Y-65818838D01*
X116596100Y-65756054D01*
X116820212Y-65663224D01*
X117030289Y-65541936D01*
X117222738Y-65394265D01*
X117394265Y-65222738D01*
X117541936Y-65030289D01*
X117663224Y-64820212D01*
X117756054Y-64596100D01*
X117818838Y-64361789D01*
X117850500Y-64121288D01*
X117850500Y-63878712D01*
X117818838Y-63638211D01*
X117756054Y-63403900D01*
X117663224Y-63179788D01*
X117541936Y-62969711D01*
X117443934Y-62841992D01*
X117394266Y-62777263D01*
X117394260Y-62777256D01*
X117222743Y-62605739D01*
X117222736Y-62605733D01*
X117030293Y-62458067D01*
X117030292Y-62458066D01*
X117030289Y-62458064D01*
X116820212Y-62336776D01*
X116820205Y-62336773D01*
X116596104Y-62243947D01*
X116361785Y-62181161D01*
X116121289Y-62149500D01*
X116121288Y-62149500D01*
X115878712Y-62149500D01*
X115878711Y-62149500D01*
X115638214Y-62181161D01*
X115403895Y-62243947D01*
X115179794Y-62336773D01*
X115179785Y-62336777D01*
X114969706Y-62458067D01*
X114777263Y-62605733D01*
X114777256Y-62605739D01*
X114605739Y-62777256D01*
X114605733Y-62777263D01*
X114458067Y-62969706D01*
X114336777Y-63179785D01*
X114336773Y-63179794D01*
X114243947Y-63403895D01*
X114181161Y-63638214D01*
X114149500Y-63878711D01*
X109587180Y-63878711D01*
X109592314Y-63876481D01*
X109838772Y-63726606D01*
X110062526Y-63544568D01*
X110259409Y-63333758D01*
X110425753Y-63098103D01*
X110558459Y-62841992D01*
X110655055Y-62570196D01*
X110655055Y-62570191D01*
X110655058Y-62570185D01*
X110703560Y-62336776D01*
X110713742Y-62287778D01*
X110733427Y-62000000D01*
X110713742Y-61712222D01*
X110695972Y-61626708D01*
X110655058Y-61429814D01*
X110655053Y-61429798D01*
X110628836Y-61356030D01*
X110558459Y-61158008D01*
X110425753Y-60901897D01*
X110259409Y-60666242D01*
X110259404Y-60666236D01*
X110122470Y-60519616D01*
X110062526Y-60455432D01*
X110062524Y-60455431D01*
X110062522Y-60455428D01*
X109838771Y-60273393D01*
X109592309Y-60123516D01*
X109327745Y-60008600D01*
X109049995Y-59930778D01*
X109049990Y-59930777D01*
X109049989Y-59930777D01*
X108907107Y-59911138D01*
X108764226Y-59891500D01*
X108764225Y-59891500D01*
X108475775Y-59891500D01*
X108475774Y-59891500D01*
X108190011Y-59930777D01*
X108190004Y-59930778D01*
X107912254Y-60008600D01*
X107647690Y-60123516D01*
X107401228Y-60273393D01*
X107177477Y-60455428D01*
X106980595Y-60666236D01*
X106980595Y-60666237D01*
X106814247Y-60901896D01*
X106681540Y-61158009D01*
X106584946Y-61429798D01*
X106584941Y-61429814D01*
X106526258Y-61712219D01*
X106526257Y-61712221D01*
X106506573Y-62000000D01*
X95488500Y-62000000D01*
X95488500Y-60351362D01*
X95488499Y-60351345D01*
X95485157Y-60320270D01*
X95481989Y-60290799D01*
X95475497Y-60273394D01*
X95459522Y-60230564D01*
X95430889Y-60153796D01*
X95343261Y-60036739D01*
X95226204Y-59949111D01*
X95089203Y-59898011D01*
X95028654Y-59891500D01*
X95028638Y-59891500D01*
X91731362Y-59891500D01*
X91731345Y-59891500D01*
X91670797Y-59898011D01*
X91670795Y-59898011D01*
X91533795Y-59949111D01*
X91416739Y-60036739D01*
X91329111Y-60153795D01*
X91278011Y-60290795D01*
X91278011Y-60290797D01*
X91271500Y-60351345D01*
X87113200Y-60351345D01*
X87207886Y-60122751D01*
X87213076Y-60111779D01*
X87392509Y-59776081D01*
X87398736Y-59765690D01*
X87610218Y-59449185D01*
X87617439Y-59439448D01*
X87858916Y-59145207D01*
X87867069Y-59136212D01*
X88136212Y-58867069D01*
X88145207Y-58858916D01*
X88439448Y-58617439D01*
X88449185Y-58610218D01*
X88765690Y-58398736D01*
X88776081Y-58392509D01*
X89111779Y-58213076D01*
X89122751Y-58207886D01*
X89474402Y-58062229D01*
X89485836Y-58058138D01*
X89850082Y-57947646D01*
X89861873Y-57944693D01*
X90235168Y-57870442D01*
X90247189Y-57868659D01*
X90626720Y-57831281D01*
X90637380Y-57830694D01*
X90821195Y-57828512D01*
X90827670Y-57828436D01*
X90829141Y-57828427D01*
X116170859Y-57828427D01*
X116172330Y-57828436D01*
G37*
%TD.AperFunction*%
%TD*%
M02*
