%TF.GenerationSoftware,KiCad,Pcbnew,8.0.5*%
%TF.CreationDate,2024-10-05T15:02:31-05:00*%
%TF.ProjectId,HornsBoard,486f726e-7342-46f6-9172-642e6b696361,0.0*%
%TF.SameCoordinates,Original*%
%TF.FileFunction,Copper,L1,Top*%
%TF.FilePolarity,Positive*%
%FSLAX46Y46*%
G04 Gerber Fmt 4.6, Leading zero omitted, Abs format (unit mm)*
G04 Created by KiCad (PCBNEW 8.0.5) date 2024-10-05 15:02:31*
%MOMM*%
%LPD*%
G01*
G04 APERTURE LIST*
G04 Aperture macros list*
%AMRoundRect*
0 Rectangle with rounded corners*
0 $1 Rounding radius*
0 $2 $3 $4 $5 $6 $7 $8 $9 X,Y pos of 4 corners*
0 Add a 4 corners polygon primitive as box body*
4,1,4,$2,$3,$4,$5,$6,$7,$8,$9,$2,$3,0*
0 Add four circle primitives for the rounded corners*
1,1,$1+$1,$2,$3*
1,1,$1+$1,$4,$5*
1,1,$1+$1,$6,$7*
1,1,$1+$1,$8,$9*
0 Add four rect primitives between the rounded corners*
20,1,$1+$1,$2,$3,$4,$5,0*
20,1,$1+$1,$4,$5,$6,$7,0*
20,1,$1+$1,$6,$7,$8,$9,0*
20,1,$1+$1,$8,$9,$2,$3,0*%
G04 Aperture macros list end*
%TA.AperFunction,ComponentPad*%
%ADD10RoundRect,0.250000X-1.330000X-1.800000X1.330000X-1.800000X1.330000X1.800000X-1.330000X1.800000X0*%
%TD*%
%TA.AperFunction,ComponentPad*%
%ADD11O,3.160000X4.100000*%
%TD*%
%TA.AperFunction,SMDPad,CuDef*%
%ADD12RoundRect,0.100000X-0.130000X-0.100000X0.130000X-0.100000X0.130000X0.100000X-0.130000X0.100000X0*%
%TD*%
%TA.AperFunction,ComponentPad*%
%ADD13R,1.050000X1.500000*%
%TD*%
%TA.AperFunction,ComponentPad*%
%ADD14O,1.050000X1.500000*%
%TD*%
%TA.AperFunction,ComponentPad*%
%ADD15RoundRect,0.250000X1.800000X-1.330000X1.800000X1.330000X-1.800000X1.330000X-1.800000X-1.330000X0*%
%TD*%
%TA.AperFunction,ComponentPad*%
%ADD16O,4.100000X3.160000*%
%TD*%
%TA.AperFunction,SMDPad,CuDef*%
%ADD17RoundRect,0.250000X-1.050000X-0.550000X1.050000X-0.550000X1.050000X0.550000X-1.050000X0.550000X0*%
%TD*%
%TA.AperFunction,SMDPad,CuDef*%
%ADD18RoundRect,0.218750X-0.218750X-0.256250X0.218750X-0.256250X0.218750X0.256250X-0.218750X0.256250X0*%
%TD*%
%TA.AperFunction,SMDPad,CuDef*%
%ADD19R,2.500000X1.800000*%
%TD*%
%TA.AperFunction,ViaPad*%
%ADD20C,0.800000*%
%TD*%
%TA.AperFunction,Conductor*%
%ADD21C,0.250000*%
%TD*%
G04 APERTURE END LIST*
D10*
%TO.P,J4,1,Pin_1*%
%TO.N,Net-(J4-Pin_1)*%
X168250000Y-95000000D03*
D11*
%TO.P,J4,2,Pin_2*%
%TO.N,Net-(J3-Pin_1)*%
X172210000Y-95000000D03*
%TD*%
D12*
%TO.P,R1,1*%
%TO.N,/HornCtrl*%
X145930000Y-81500000D03*
%TO.P,R1,2*%
%TO.N,Net-(C1-Pad1)*%
X146570000Y-81500000D03*
%TD*%
D13*
%TO.P,Q1,1,D*%
%TO.N,Net-(Q1-D)*%
X161250000Y-86500000D03*
D14*
%TO.P,Q1,2,G*%
%TO.N,Net-(Q1-G)*%
X159980000Y-86500000D03*
%TO.P,Q1,3,S*%
%TO.N,GND*%
X158710000Y-86500000D03*
%TD*%
D15*
%TO.P,J2,1,Pin_1*%
%TO.N,GND*%
X137500000Y-88500000D03*
D16*
%TO.P,J2,2,Pin_2*%
%TO.N,/HornCtrl*%
X137500000Y-84540000D03*
%TD*%
D17*
%TO.P,C1,1*%
%TO.N,Net-(C1-Pad1)*%
X150150000Y-89000000D03*
%TO.P,C1,2*%
%TO.N,Net-(Q1-G)*%
X153750000Y-89000000D03*
%TD*%
D10*
%TO.P,J3,1,Pin_1*%
%TO.N,Net-(J3-Pin_1)*%
X169040000Y-109250000D03*
D11*
%TO.P,J3,2,Pin_2*%
%TO.N,/HornIn*%
X173000000Y-109250000D03*
%TD*%
D17*
%TO.P,C2,1*%
%TO.N,Net-(C2-Pad1)*%
X145650000Y-101750000D03*
%TO.P,C2,2*%
%TO.N,Net-(C2-Pad2)*%
X149250000Y-101750000D03*
%TD*%
%TO.P,C9,1*%
%TO.N,Net-(C8-Pad1)*%
X145650000Y-94500000D03*
%TO.P,C9,2*%
%TO.N,Net-(C2-Pad1)*%
X149250000Y-94500000D03*
%TD*%
D18*
%TO.P,F1,1*%
%TO.N,Net-(Q1-D)*%
X164175000Y-87000000D03*
%TO.P,F1,2*%
%TO.N,Net-(J4-Pin_1)*%
X165750000Y-87000000D03*
%TD*%
D19*
%TO.P,D1,1,K*%
%TO.N,+24V*%
X164250000Y-119250000D03*
%TO.P,D1,2,A*%
%TO.N,/HornIn*%
X168250000Y-119250000D03*
%TD*%
D10*
%TO.P,J1,1,Pin_1*%
%TO.N,GND*%
X155580000Y-109750000D03*
D11*
%TO.P,J1,2,Pin_2*%
%TO.N,+24V*%
X159540000Y-109750000D03*
%TO.P,J1,3,Pin_3*%
%TO.N,GND*%
X163500000Y-109750000D03*
%TD*%
D17*
%TO.P,C5,1*%
%TO.N,Net-(C5-Pad1)*%
X137400000Y-101000000D03*
%TO.P,C5,2*%
%TO.N,Net-(C5-Pad2)*%
X141000000Y-101000000D03*
%TD*%
%TO.P,C8,1*%
%TO.N,Net-(C8-Pad1)*%
X137650000Y-94500000D03*
%TO.P,C8,2*%
%TO.N,Net-(C5-Pad1)*%
X141250000Y-94500000D03*
%TD*%
%TO.P,C7,1*%
%TO.N,Net-(C6-Pad2)*%
X129900000Y-101000000D03*
%TO.P,C7,2*%
%TO.N,GND*%
X133500000Y-101000000D03*
%TD*%
%TO.P,C4,1*%
%TO.N,Net-(C3-Pad2)*%
X145650000Y-115250000D03*
%TO.P,C4,2*%
%TO.N,+24V*%
X149250000Y-115250000D03*
%TD*%
%TO.P,C6,1*%
%TO.N,Net-(C5-Pad2)*%
X137400000Y-109000000D03*
%TO.P,C6,2*%
%TO.N,Net-(C6-Pad2)*%
X141000000Y-109000000D03*
%TD*%
%TO.P,C3,1*%
%TO.N,Net-(C2-Pad2)*%
X145650000Y-108250000D03*
%TO.P,C3,2*%
%TO.N,Net-(C3-Pad2)*%
X149250000Y-108250000D03*
%TD*%
D20*
%TO.N,GND*%
X164250000Y-102500000D03*
X151750000Y-111750000D03*
X144500000Y-89000000D03*
%TD*%
D21*
%TO.N,Net-(Q1-D)*%
X163675000Y-86500000D02*
X164175000Y-87000000D01*
X161250000Y-86500000D02*
X163675000Y-86500000D01*
%TO.N,Net-(Q1-G)*%
X156500000Y-82500000D02*
X159250000Y-82500000D01*
X160000000Y-83250000D02*
X159980000Y-83270000D01*
X155750000Y-83250000D02*
X156500000Y-82500000D01*
X155750000Y-87000000D02*
X155750000Y-83250000D01*
X159250000Y-82500000D02*
X160000000Y-83250000D01*
X153750000Y-89000000D02*
X155750000Y-87000000D01*
X159980000Y-83270000D02*
X159980000Y-86500000D01*
%TO.N,GND*%
X155580000Y-109750000D02*
X153750000Y-109750000D01*
X153750000Y-109750000D02*
X151750000Y-111750000D01*
X162250000Y-100250000D02*
X155580000Y-106920000D01*
X158710000Y-90710000D02*
X161250000Y-93250000D01*
X133500000Y-101000000D02*
X133500000Y-92500000D01*
X162250000Y-93250000D02*
X162250000Y-100250000D01*
X155580000Y-106920000D02*
X155580000Y-109750000D01*
X163500000Y-109750000D02*
X163500000Y-103250000D01*
X163500000Y-103250000D02*
X164250000Y-102500000D01*
X137500000Y-88500000D02*
X144000000Y-88500000D01*
X133500000Y-92500000D02*
X137500000Y-88500000D01*
X144000000Y-88500000D02*
X144500000Y-89000000D01*
X158710000Y-86500000D02*
X158710000Y-90710000D01*
X161250000Y-93250000D02*
X162250000Y-93250000D01*
%TO.N,/HornIn*%
X173000000Y-114500000D02*
X168250000Y-119250000D01*
X173000000Y-109250000D02*
X173000000Y-114500000D01*
%TO.N,+24V*%
X159500000Y-117500000D02*
X159540000Y-117460000D01*
X164250000Y-119250000D02*
X160750000Y-119250000D01*
X159540000Y-117460000D02*
X159540000Y-109750000D01*
X159530100Y-109750000D02*
X154030100Y-115250000D01*
X154030100Y-115250000D02*
X149250000Y-115250000D01*
X160750000Y-119250000D02*
X159500000Y-118000000D01*
X159540000Y-109750000D02*
X159530100Y-109750000D01*
X159500000Y-118000000D02*
X159500000Y-117500000D01*
%TO.N,/HornCtrl*%
X142890000Y-84540000D02*
X145930000Y-81500000D01*
X137500000Y-84540000D02*
X142890000Y-84540000D01*
%TO.N,Net-(C1-Pad1)*%
X146570000Y-81500000D02*
X146570000Y-88320000D01*
X146570000Y-88320000D02*
X147250000Y-89000000D01*
X147250000Y-89000000D02*
X150150000Y-89000000D01*
%TO.N,Net-(J4-Pin_1)*%
X165750000Y-92500000D02*
X168250000Y-95000000D01*
X165750000Y-87000000D02*
X165750000Y-92500000D01*
%TO.N,Net-(J3-Pin_1)*%
X172210000Y-95000000D02*
X172210000Y-106080000D01*
X172210000Y-106080000D02*
X169040000Y-109250000D01*
%TO.N,Net-(C2-Pad2)*%
X145650000Y-108250000D02*
X149250000Y-104650000D01*
X149250000Y-104650000D02*
X149250000Y-101750000D01*
%TO.N,Net-(C2-Pad1)*%
X149250000Y-98150000D02*
X149250000Y-94500000D01*
X145650000Y-101750000D02*
X149250000Y-98150000D01*
%TO.N,Net-(C3-Pad2)*%
X149250000Y-111650000D02*
X149250000Y-108250000D01*
X145650000Y-115250000D02*
X149250000Y-111650000D01*
%TO.N,Net-(C5-Pad2)*%
X137400000Y-104600000D02*
X137400000Y-109000000D01*
X141000000Y-101000000D02*
X137400000Y-104600000D01*
%TO.N,Net-(C5-Pad1)*%
X141250000Y-94500000D02*
X137400000Y-98350000D01*
X137400000Y-98350000D02*
X137400000Y-101000000D01*
%TO.N,Net-(C6-Pad2)*%
X129500000Y-111000000D02*
X129900000Y-110600000D01*
X141000000Y-112250000D02*
X140250000Y-113000000D01*
X129900000Y-110600000D02*
X129900000Y-101000000D01*
X140250000Y-113000000D02*
X131500000Y-113000000D01*
X131500000Y-113000000D02*
X129500000Y-111000000D01*
X141000000Y-109000000D02*
X141000000Y-112250000D01*
%TO.N,Net-(C8-Pad1)*%
X145650000Y-94500000D02*
X144525000Y-93375000D01*
X138775000Y-93375000D02*
X137650000Y-94500000D01*
X144525000Y-93375000D02*
X138775000Y-93375000D01*
%TD*%
%TA.AperFunction,Conductor*%
%TO.N,+24V*%
G36*
X170048808Y-79500365D02*
G01*
X170550231Y-79538927D01*
X170559648Y-79540015D01*
X171081656Y-79620784D01*
X171090959Y-79622592D01*
X171605213Y-79743144D01*
X171614373Y-79745667D01*
X172117862Y-79905297D01*
X172126815Y-79908518D01*
X172288453Y-79973786D01*
X172616577Y-80106281D01*
X172625238Y-80110172D01*
X173098394Y-80344908D01*
X173106724Y-80349446D01*
X173560521Y-80619793D01*
X173568474Y-80624955D01*
X173767132Y-80764998D01*
X174000178Y-80929283D01*
X174007739Y-80935060D01*
X174414836Y-81271595D01*
X174421897Y-81277903D01*
X174802015Y-81644689D01*
X174808585Y-81651535D01*
X175125283Y-82007928D01*
X175159430Y-82046354D01*
X175165473Y-82053704D01*
X175485001Y-82474252D01*
X175490463Y-82482043D01*
X175776816Y-82925872D01*
X175781664Y-82934060D01*
X176033132Y-83398524D01*
X176037338Y-83407059D01*
X176252455Y-83889448D01*
X176255993Y-83898279D01*
X176269704Y-83936707D01*
X176433486Y-84395740D01*
X176436337Y-84404818D01*
X176575161Y-84914417D01*
X176577308Y-84923687D01*
X176676647Y-85442432D01*
X176678077Y-85451839D01*
X176737414Y-85977264D01*
X176738071Y-85985591D01*
X176749874Y-86247215D01*
X176750000Y-86252785D01*
X176754461Y-117499360D01*
X176754456Y-117500542D01*
X176751977Y-117764675D01*
X176751617Y-117773019D01*
X176711073Y-118300212D01*
X176709980Y-118309665D01*
X176629217Y-118831636D01*
X176627402Y-118840976D01*
X176506857Y-119355198D01*
X176504332Y-119364372D01*
X176344703Y-119867861D01*
X176341481Y-119876814D01*
X176143722Y-120366566D01*
X176139823Y-120375246D01*
X175905097Y-120848380D01*
X175900545Y-120856736D01*
X175630215Y-121310506D01*
X175625035Y-121318488D01*
X175320720Y-121750171D01*
X175314943Y-121757731D01*
X174978407Y-122164829D01*
X174972067Y-122171925D01*
X174605326Y-122551998D01*
X174598461Y-122558587D01*
X174203645Y-122909429D01*
X174196295Y-122915472D01*
X173775747Y-123235000D01*
X173767956Y-123240462D01*
X173324127Y-123526815D01*
X173315939Y-123531663D01*
X172851475Y-123783131D01*
X172842940Y-123787337D01*
X172360551Y-124002454D01*
X172351718Y-124005993D01*
X171854259Y-124183485D01*
X171845181Y-124186336D01*
X171335582Y-124325160D01*
X171326312Y-124327307D01*
X170807567Y-124426646D01*
X170798160Y-124428076D01*
X170272735Y-124487413D01*
X170264409Y-124488070D01*
X170002857Y-124499870D01*
X169997143Y-124499996D01*
X134114274Y-124463946D01*
X134113237Y-124463941D01*
X133849035Y-124461466D01*
X133840689Y-124461106D01*
X133313497Y-124420563D01*
X133304044Y-124419470D01*
X132782073Y-124338707D01*
X132772733Y-124336892D01*
X132258510Y-124216347D01*
X132249336Y-124213822D01*
X131745847Y-124054194D01*
X131736894Y-124050972D01*
X131247141Y-123853213D01*
X131238461Y-123849314D01*
X130765327Y-123614588D01*
X130756971Y-123610036D01*
X130625416Y-123531663D01*
X130303192Y-123339701D01*
X130295239Y-123334539D01*
X129863531Y-123030208D01*
X129855975Y-123024434D01*
X129448876Y-122687897D01*
X129441787Y-122681563D01*
X129061704Y-122314813D01*
X129055118Y-122307951D01*
X128934243Y-122171925D01*
X128704268Y-121913125D01*
X128698241Y-121905794D01*
X128378701Y-121485231D01*
X128373239Y-121477439D01*
X128086895Y-121033620D01*
X128082047Y-121025433D01*
X127830573Y-120560957D01*
X127826367Y-120552422D01*
X127808903Y-120513260D01*
X127611247Y-120070024D01*
X127607716Y-120061210D01*
X127430222Y-119563745D01*
X127427371Y-119554667D01*
X127375532Y-119364372D01*
X127311334Y-119128711D01*
X137649500Y-119128711D01*
X137649500Y-119371288D01*
X137681161Y-119611785D01*
X137743947Y-119846104D01*
X137756668Y-119876814D01*
X137836776Y-120070212D01*
X137958064Y-120280289D01*
X137958066Y-120280292D01*
X137958067Y-120280293D01*
X138105733Y-120472736D01*
X138105739Y-120472743D01*
X138277256Y-120644260D01*
X138277263Y-120644266D01*
X138284736Y-120650000D01*
X138469711Y-120791936D01*
X138679788Y-120913224D01*
X138903900Y-121006054D01*
X139138211Y-121068838D01*
X139318586Y-121092584D01*
X139378711Y-121100500D01*
X139378712Y-121100500D01*
X139621289Y-121100500D01*
X139669388Y-121094167D01*
X139861789Y-121068838D01*
X140096100Y-121006054D01*
X140320212Y-120913224D01*
X140530289Y-120791936D01*
X140722738Y-120644265D01*
X140894265Y-120472738D01*
X141041936Y-120280289D01*
X141089536Y-120197844D01*
X162500000Y-120197844D01*
X162506401Y-120257372D01*
X162506403Y-120257379D01*
X162556645Y-120392086D01*
X162556649Y-120392093D01*
X162642809Y-120507187D01*
X162642812Y-120507190D01*
X162757906Y-120593350D01*
X162757913Y-120593354D01*
X162892620Y-120643596D01*
X162892627Y-120643598D01*
X162952155Y-120649999D01*
X162952172Y-120650000D01*
X164000000Y-120650000D01*
X164500000Y-120650000D01*
X165547828Y-120650000D01*
X165547844Y-120649999D01*
X165607372Y-120643598D01*
X165607379Y-120643596D01*
X165742086Y-120593354D01*
X165742093Y-120593350D01*
X165857187Y-120507190D01*
X165857190Y-120507187D01*
X165943350Y-120392093D01*
X165943354Y-120392086D01*
X165993596Y-120257379D01*
X165993598Y-120257372D01*
X165999999Y-120197844D01*
X166000000Y-120197827D01*
X166000000Y-119500000D01*
X164500000Y-119500000D01*
X164500000Y-120650000D01*
X164000000Y-120650000D01*
X164000000Y-119500000D01*
X162500000Y-119500000D01*
X162500000Y-120197844D01*
X141089536Y-120197844D01*
X141163224Y-120070212D01*
X141256054Y-119846100D01*
X141318838Y-119611789D01*
X141350500Y-119371288D01*
X141350500Y-119128712D01*
X141318838Y-118888211D01*
X141256054Y-118653900D01*
X141163224Y-118429788D01*
X141089535Y-118302155D01*
X162500000Y-118302155D01*
X162500000Y-119000000D01*
X164000000Y-119000000D01*
X164500000Y-119000000D01*
X166000000Y-119000000D01*
X166000000Y-118302172D01*
X165999999Y-118302155D01*
X165993598Y-118242627D01*
X165993596Y-118242620D01*
X165943354Y-118107913D01*
X165943350Y-118107906D01*
X165857190Y-117992812D01*
X165857187Y-117992809D01*
X165742093Y-117906649D01*
X165742086Y-117906645D01*
X165607379Y-117856403D01*
X165607372Y-117856401D01*
X165547844Y-117850000D01*
X164500000Y-117850000D01*
X164500000Y-119000000D01*
X164000000Y-119000000D01*
X164000000Y-117850000D01*
X162952155Y-117850000D01*
X162892627Y-117856401D01*
X162892620Y-117856403D01*
X162757913Y-117906645D01*
X162757906Y-117906649D01*
X162642812Y-117992809D01*
X162642809Y-117992812D01*
X162556649Y-118107906D01*
X162556645Y-118107913D01*
X162506403Y-118242620D01*
X162506401Y-118242627D01*
X162500000Y-118302155D01*
X141089535Y-118302155D01*
X141041936Y-118219711D01*
X140956145Y-118107906D01*
X140894266Y-118027263D01*
X140894260Y-118027256D01*
X140722743Y-117855739D01*
X140722736Y-117855733D01*
X140530293Y-117708067D01*
X140530292Y-117708066D01*
X140530289Y-117708064D01*
X140320212Y-117586776D01*
X140320205Y-117586773D01*
X140096104Y-117493947D01*
X139861785Y-117431161D01*
X139621289Y-117399500D01*
X139621288Y-117399500D01*
X139378712Y-117399500D01*
X139378711Y-117399500D01*
X139138214Y-117431161D01*
X138903895Y-117493947D01*
X138679794Y-117586773D01*
X138679785Y-117586777D01*
X138469706Y-117708067D01*
X138277263Y-117855733D01*
X138277256Y-117855739D01*
X138105739Y-118027256D01*
X138105733Y-118027263D01*
X137958067Y-118219706D01*
X137958064Y-118219710D01*
X137958064Y-118219711D01*
X137944833Y-118242627D01*
X137836777Y-118429785D01*
X137836773Y-118429794D01*
X137743947Y-118653895D01*
X137681161Y-118888214D01*
X137649500Y-119128711D01*
X127311334Y-119128711D01*
X127288545Y-119045056D01*
X127286404Y-119035811D01*
X127219795Y-118687983D01*
X127217584Y-118665355D01*
X127116107Y-100399447D01*
X128091500Y-100399447D01*
X128091500Y-101600537D01*
X128091501Y-101600553D01*
X128102113Y-101704427D01*
X128103590Y-101708883D01*
X128157885Y-101872738D01*
X128250970Y-102023652D01*
X128376348Y-102149030D01*
X128527262Y-102242115D01*
X128695574Y-102297887D01*
X128799455Y-102308500D01*
X129142500Y-102308499D01*
X129209539Y-102328183D01*
X129255294Y-102380987D01*
X129266500Y-102432499D01*
X129266500Y-110286234D01*
X129246815Y-110353273D01*
X129230181Y-110373915D01*
X129096167Y-110507929D01*
X129052047Y-110552049D01*
X129007927Y-110596168D01*
X128938603Y-110699918D01*
X128938598Y-110699927D01*
X128890845Y-110815214D01*
X128890843Y-110815222D01*
X128866500Y-110937601D01*
X128866500Y-111062398D01*
X128890843Y-111184777D01*
X128890845Y-111184785D01*
X128938598Y-111300072D01*
X128938603Y-111300081D01*
X129007928Y-111403832D01*
X129007931Y-111403836D01*
X131096163Y-113492068D01*
X131096167Y-113492071D01*
X131199918Y-113561396D01*
X131199924Y-113561399D01*
X131199925Y-113561400D01*
X131315215Y-113609155D01*
X131437601Y-113633499D01*
X131437605Y-113633500D01*
X131437606Y-113633500D01*
X140312395Y-113633500D01*
X140312396Y-113633499D01*
X140434785Y-113609155D01*
X140550075Y-113561400D01*
X140653833Y-113492071D01*
X141492071Y-112653833D01*
X141561400Y-112550075D01*
X141609155Y-112434785D01*
X141633500Y-112312394D01*
X141633500Y-112187606D01*
X141633500Y-110432499D01*
X141653185Y-110365460D01*
X141705989Y-110319705D01*
X141757500Y-110308499D01*
X142100537Y-110308499D01*
X142100544Y-110308499D01*
X142204426Y-110297887D01*
X142372738Y-110242115D01*
X142523652Y-110149030D01*
X142649030Y-110023652D01*
X142742115Y-109872738D01*
X142797887Y-109704426D01*
X142808500Y-109600545D01*
X142808499Y-108399456D01*
X142797887Y-108295574D01*
X142742115Y-108127262D01*
X142649030Y-107976348D01*
X142523652Y-107850970D01*
X142372738Y-107757885D01*
X142372735Y-107757884D01*
X142204427Y-107702113D01*
X142100545Y-107691500D01*
X139899462Y-107691500D01*
X139899446Y-107691501D01*
X139795572Y-107702113D01*
X139627264Y-107757884D01*
X139627259Y-107757886D01*
X139476346Y-107850971D01*
X139350970Y-107976347D01*
X139350967Y-107976351D01*
X139305538Y-108050003D01*
X139253590Y-108096728D01*
X139184627Y-108107949D01*
X139120545Y-108080106D01*
X139094462Y-108050003D01*
X139049032Y-107976351D01*
X139049029Y-107976347D01*
X138923653Y-107850971D01*
X138923652Y-107850970D01*
X138772738Y-107757885D01*
X138772735Y-107757884D01*
X138604427Y-107702113D01*
X138500552Y-107691500D01*
X138500545Y-107691500D01*
X138157500Y-107691500D01*
X138090461Y-107671815D01*
X138044706Y-107619011D01*
X138033500Y-107567500D01*
X138033500Y-104913765D01*
X138053185Y-104846726D01*
X138069814Y-104826089D01*
X140551085Y-102344817D01*
X140612408Y-102311333D01*
X140638766Y-102308499D01*
X142100537Y-102308499D01*
X142100544Y-102308499D01*
X142204426Y-102297887D01*
X142372738Y-102242115D01*
X142523652Y-102149030D01*
X142649030Y-102023652D01*
X142742115Y-101872738D01*
X142797887Y-101704426D01*
X142808500Y-101600545D01*
X142808499Y-100399456D01*
X142797887Y-100295574D01*
X142742115Y-100127262D01*
X142649030Y-99976348D01*
X142523652Y-99850970D01*
X142372738Y-99757885D01*
X142372735Y-99757884D01*
X142204427Y-99702113D01*
X142100545Y-99691500D01*
X139899462Y-99691500D01*
X139899446Y-99691501D01*
X139795572Y-99702113D01*
X139627264Y-99757884D01*
X139627259Y-99757886D01*
X139476346Y-99850971D01*
X139350970Y-99976347D01*
X139350967Y-99976351D01*
X139305538Y-100050003D01*
X139253590Y-100096728D01*
X139184627Y-100107949D01*
X139120545Y-100080106D01*
X139094462Y-100050003D01*
X139049032Y-99976351D01*
X139049029Y-99976347D01*
X138923653Y-99850971D01*
X138923652Y-99850970D01*
X138772738Y-99757885D01*
X138772735Y-99757884D01*
X138604427Y-99702113D01*
X138500552Y-99691500D01*
X138500545Y-99691500D01*
X138157500Y-99691500D01*
X138090461Y-99671815D01*
X138044706Y-99619011D01*
X138033500Y-99567500D01*
X138033500Y-98663765D01*
X138053185Y-98596726D01*
X138069814Y-98576089D01*
X140801085Y-95844817D01*
X140862408Y-95811333D01*
X140888766Y-95808499D01*
X142350537Y-95808499D01*
X142350544Y-95808499D01*
X142454426Y-95797887D01*
X142622738Y-95742115D01*
X142773652Y-95649030D01*
X142899030Y-95523652D01*
X142992115Y-95372738D01*
X143047887Y-95204426D01*
X143058500Y-95100545D01*
X143058499Y-94132499D01*
X143078183Y-94065461D01*
X143130987Y-94019706D01*
X143182499Y-94008500D01*
X143717500Y-94008500D01*
X143784539Y-94028185D01*
X143830294Y-94080989D01*
X143841500Y-94132500D01*
X143841500Y-95100537D01*
X143841501Y-95100553D01*
X143850000Y-95183742D01*
X143852113Y-95204426D01*
X143907885Y-95372738D01*
X144000970Y-95523652D01*
X144126348Y-95649030D01*
X144277262Y-95742115D01*
X144445574Y-95797887D01*
X144549455Y-95808500D01*
X146750544Y-95808499D01*
X146854426Y-95797887D01*
X147022738Y-95742115D01*
X147173652Y-95649030D01*
X147299030Y-95523652D01*
X147344462Y-95449994D01*
X147396409Y-95403272D01*
X147465372Y-95392049D01*
X147529454Y-95419893D01*
X147555536Y-95449993D01*
X147600970Y-95523652D01*
X147726348Y-95649030D01*
X147877262Y-95742115D01*
X148045574Y-95797887D01*
X148149455Y-95808500D01*
X148492500Y-95808499D01*
X148559539Y-95828183D01*
X148605294Y-95880987D01*
X148616500Y-95932499D01*
X148616500Y-97836233D01*
X148596815Y-97903272D01*
X148580181Y-97923914D01*
X146098913Y-100405181D01*
X146037590Y-100438666D01*
X146011232Y-100441500D01*
X144549462Y-100441500D01*
X144549446Y-100441501D01*
X144445572Y-100452113D01*
X144277264Y-100507884D01*
X144277259Y-100507886D01*
X144126346Y-100600971D01*
X144000971Y-100726346D01*
X143907886Y-100877259D01*
X143907884Y-100877264D01*
X143852113Y-101045572D01*
X143841500Y-101149447D01*
X143841500Y-102350537D01*
X143841501Y-102350553D01*
X143852113Y-102454427D01*
X143873901Y-102520180D01*
X143907885Y-102622738D01*
X144000970Y-102773652D01*
X144126348Y-102899030D01*
X144277262Y-102992115D01*
X144445574Y-103047887D01*
X144549455Y-103058500D01*
X146750544Y-103058499D01*
X146854426Y-103047887D01*
X147022738Y-102992115D01*
X147173652Y-102899030D01*
X147299030Y-102773652D01*
X147344462Y-102699994D01*
X147396409Y-102653272D01*
X147465372Y-102642049D01*
X147529454Y-102669893D01*
X147555536Y-102699993D01*
X147600970Y-102773652D01*
X147726348Y-102899030D01*
X147877262Y-102992115D01*
X148045574Y-103047887D01*
X148149455Y-103058500D01*
X148492500Y-103058499D01*
X148559539Y-103078183D01*
X148605294Y-103130987D01*
X148616500Y-103182499D01*
X148616500Y-104336233D01*
X148596815Y-104403272D01*
X148580181Y-104423914D01*
X146098913Y-106905181D01*
X146037590Y-106938666D01*
X146011232Y-106941500D01*
X144549462Y-106941500D01*
X144549446Y-106941501D01*
X144445572Y-106952113D01*
X144277264Y-107007884D01*
X144277259Y-107007886D01*
X144126346Y-107100971D01*
X144000971Y-107226346D01*
X143907886Y-107377259D01*
X143907884Y-107377264D01*
X143852113Y-107545572D01*
X143841500Y-107649447D01*
X143841500Y-108850537D01*
X143841501Y-108850553D01*
X143852113Y-108954427D01*
X143907884Y-109122735D01*
X143907886Y-109122740D01*
X143926719Y-109153272D01*
X144000970Y-109273652D01*
X144126348Y-109399030D01*
X144277262Y-109492115D01*
X144445574Y-109547887D01*
X144549455Y-109558500D01*
X146750544Y-109558499D01*
X146854426Y-109547887D01*
X147022738Y-109492115D01*
X147173652Y-109399030D01*
X147299030Y-109273652D01*
X147344462Y-109199994D01*
X147396409Y-109153272D01*
X147465372Y-109142049D01*
X147529454Y-109169893D01*
X147555536Y-109199993D01*
X147600970Y-109273652D01*
X147726348Y-109399030D01*
X147877262Y-109492115D01*
X148045574Y-109547887D01*
X148149455Y-109558500D01*
X148492500Y-109558499D01*
X148559539Y-109578183D01*
X148605294Y-109630987D01*
X148616500Y-109682499D01*
X148616500Y-111336233D01*
X148596815Y-111403272D01*
X148580181Y-111423914D01*
X146098913Y-113905181D01*
X146037590Y-113938666D01*
X146011232Y-113941500D01*
X144549462Y-113941500D01*
X144549446Y-113941501D01*
X144445572Y-113952113D01*
X144277264Y-114007884D01*
X144277259Y-114007886D01*
X144126346Y-114100971D01*
X144000971Y-114226346D01*
X143907886Y-114377259D01*
X143907884Y-114377264D01*
X143852113Y-114545572D01*
X143841500Y-114649447D01*
X143841500Y-115850537D01*
X143841501Y-115850553D01*
X143852113Y-115954427D01*
X143907884Y-116122735D01*
X143907886Y-116122740D01*
X143921725Y-116145176D01*
X144000970Y-116273652D01*
X144126348Y-116399030D01*
X144277262Y-116492115D01*
X144445574Y-116547887D01*
X144549455Y-116558500D01*
X146750544Y-116558499D01*
X146854426Y-116547887D01*
X147022738Y-116492115D01*
X147173652Y-116399030D01*
X147299030Y-116273652D01*
X147349455Y-116191899D01*
X147401402Y-116145176D01*
X147470364Y-116133953D01*
X147534446Y-116161796D01*
X147560531Y-116191900D01*
X147607680Y-116268340D01*
X147607683Y-116268344D01*
X147731654Y-116392315D01*
X147880875Y-116484356D01*
X147880880Y-116484358D01*
X148047302Y-116539505D01*
X148047309Y-116539506D01*
X148150019Y-116549999D01*
X148999999Y-116549999D01*
X149500000Y-116549999D01*
X150349972Y-116549999D01*
X150349986Y-116549998D01*
X150452697Y-116539505D01*
X150619119Y-116484358D01*
X150619124Y-116484356D01*
X150768345Y-116392315D01*
X150892315Y-116268345D01*
X150984356Y-116119124D01*
X150984358Y-116119119D01*
X151039505Y-115952697D01*
X151039506Y-115952690D01*
X151049999Y-115849986D01*
X151050000Y-115849973D01*
X151050000Y-115500000D01*
X149500000Y-115500000D01*
X149500000Y-116549999D01*
X148999999Y-116549999D01*
X149000000Y-116549998D01*
X149000000Y-115000000D01*
X149500000Y-115000000D01*
X151049999Y-115000000D01*
X151049999Y-114650028D01*
X151049998Y-114650013D01*
X151039505Y-114547302D01*
X150984358Y-114380880D01*
X150984356Y-114380875D01*
X150892315Y-114231654D01*
X150768345Y-114107684D01*
X150619124Y-114015643D01*
X150619119Y-114015641D01*
X150452697Y-113960494D01*
X150452690Y-113960493D01*
X150349986Y-113950000D01*
X149500000Y-113950000D01*
X149500000Y-115000000D01*
X149000000Y-115000000D01*
X149000000Y-113950000D01*
X148999999Y-113950000D01*
X148146865Y-113950001D01*
X148146865Y-113948837D01*
X148083473Y-113933643D01*
X148035119Y-113883208D01*
X148021708Y-113814638D01*
X148047498Y-113749702D01*
X148057487Y-113738416D01*
X149742071Y-112053833D01*
X149811400Y-111950075D01*
X149859155Y-111834785D01*
X149883500Y-111712394D01*
X149883500Y-111587606D01*
X149883500Y-109682499D01*
X149903185Y-109615460D01*
X149955989Y-109569705D01*
X150007500Y-109558499D01*
X150350537Y-109558499D01*
X150350544Y-109558499D01*
X150454426Y-109547887D01*
X150622738Y-109492115D01*
X150773652Y-109399030D01*
X150899030Y-109273652D01*
X150992115Y-109122738D01*
X151047887Y-108954426D01*
X151058500Y-108850545D01*
X151058499Y-107649456D01*
X151047887Y-107545574D01*
X150992115Y-107377262D01*
X150899030Y-107226348D01*
X150773652Y-107100970D01*
X150622738Y-107007885D01*
X150622735Y-107007884D01*
X150454427Y-106952113D01*
X150350552Y-106941500D01*
X148153764Y-106941500D01*
X148086725Y-106921815D01*
X148040970Y-106869011D01*
X148031026Y-106799853D01*
X148060051Y-106736297D01*
X148066065Y-106729837D01*
X149742071Y-105053833D01*
X149811400Y-104950075D01*
X149859155Y-104834785D01*
X149883500Y-104712394D01*
X149883500Y-104587606D01*
X149883500Y-103182499D01*
X149903185Y-103115460D01*
X149955989Y-103069705D01*
X150007500Y-103058499D01*
X150350537Y-103058499D01*
X150350544Y-103058499D01*
X150454426Y-103047887D01*
X150622738Y-102992115D01*
X150773652Y-102899030D01*
X150899030Y-102773652D01*
X150992115Y-102622738D01*
X151047887Y-102454426D01*
X151058500Y-102350545D01*
X151058499Y-101149456D01*
X151047887Y-101045574D01*
X150992115Y-100877262D01*
X150899030Y-100726348D01*
X150773652Y-100600970D01*
X150622738Y-100507885D01*
X150622735Y-100507884D01*
X150454427Y-100452113D01*
X150350552Y-100441500D01*
X148153764Y-100441500D01*
X148086725Y-100421815D01*
X148040970Y-100369011D01*
X148031026Y-100299853D01*
X148060051Y-100236297D01*
X148066065Y-100229837D01*
X149742071Y-98553833D01*
X149811400Y-98450075D01*
X149859155Y-98334785D01*
X149883500Y-98212394D01*
X149883500Y-98087606D01*
X149883500Y-96378711D01*
X155899500Y-96378711D01*
X155899500Y-96621288D01*
X155929682Y-96850553D01*
X155931162Y-96861789D01*
X155962554Y-96978944D01*
X155993947Y-97096104D01*
X156086773Y-97320205D01*
X156086776Y-97320212D01*
X156208064Y-97530289D01*
X156208066Y-97530292D01*
X156208067Y-97530293D01*
X156355733Y-97722736D01*
X156355739Y-97722743D01*
X156527256Y-97894260D01*
X156527262Y-97894265D01*
X156719711Y-98041936D01*
X156929788Y-98163224D01*
X157153900Y-98256054D01*
X157388211Y-98318838D01*
X157568586Y-98342584D01*
X157628711Y-98350500D01*
X157628712Y-98350500D01*
X157871289Y-98350500D01*
X157919388Y-98344167D01*
X158111789Y-98318838D01*
X158346100Y-98256054D01*
X158570212Y-98163224D01*
X158780289Y-98041936D01*
X158972738Y-97894265D01*
X159144265Y-97722738D01*
X159291936Y-97530289D01*
X159413224Y-97320212D01*
X159506054Y-97096100D01*
X159568838Y-96861789D01*
X159600500Y-96621288D01*
X159600500Y-96378712D01*
X159568838Y-96138211D01*
X159506054Y-95903900D01*
X159413224Y-95679788D01*
X159291936Y-95469711D01*
X159144265Y-95277262D01*
X159144260Y-95277256D01*
X158972743Y-95105739D01*
X158972736Y-95105733D01*
X158780293Y-94958067D01*
X158780292Y-94958066D01*
X158780289Y-94958064D01*
X158570212Y-94836776D01*
X158570205Y-94836773D01*
X158346104Y-94743947D01*
X158111785Y-94681161D01*
X157871289Y-94649500D01*
X157871288Y-94649500D01*
X157628712Y-94649500D01*
X157628711Y-94649500D01*
X157388214Y-94681161D01*
X157153895Y-94743947D01*
X156929794Y-94836773D01*
X156929785Y-94836777D01*
X156719706Y-94958067D01*
X156527263Y-95105733D01*
X156527256Y-95105739D01*
X156355739Y-95277256D01*
X156355733Y-95277263D01*
X156208067Y-95469706D01*
X156086777Y-95679785D01*
X156086773Y-95679794D01*
X155993947Y-95903895D01*
X155931161Y-96138214D01*
X155899500Y-96378711D01*
X149883500Y-96378711D01*
X149883500Y-95932499D01*
X149903185Y-95865460D01*
X149955989Y-95819705D01*
X150007500Y-95808499D01*
X150350537Y-95808499D01*
X150350544Y-95808499D01*
X150454426Y-95797887D01*
X150622738Y-95742115D01*
X150773652Y-95649030D01*
X150899030Y-95523652D01*
X150992115Y-95372738D01*
X151047887Y-95204426D01*
X151058500Y-95100545D01*
X151058499Y-93899456D01*
X151047887Y-93795574D01*
X150992115Y-93627262D01*
X150899030Y-93476348D01*
X150773652Y-93350970D01*
X150674234Y-93289648D01*
X150622740Y-93257886D01*
X150622735Y-93257884D01*
X150454427Y-93202113D01*
X150350545Y-93191500D01*
X148149462Y-93191500D01*
X148149446Y-93191501D01*
X148045572Y-93202113D01*
X147877264Y-93257884D01*
X147877259Y-93257886D01*
X147726346Y-93350971D01*
X147600970Y-93476347D01*
X147600967Y-93476351D01*
X147555538Y-93550003D01*
X147503590Y-93596728D01*
X147434627Y-93607949D01*
X147370545Y-93580106D01*
X147344462Y-93550003D01*
X147299032Y-93476351D01*
X147299029Y-93476347D01*
X147173653Y-93350971D01*
X147173652Y-93350970D01*
X147074234Y-93289648D01*
X147022740Y-93257886D01*
X147022735Y-93257884D01*
X146854427Y-93202113D01*
X146750552Y-93191500D01*
X146750545Y-93191500D01*
X145288766Y-93191500D01*
X145221727Y-93171815D01*
X145201085Y-93155181D01*
X144928836Y-92882931D01*
X144928832Y-92882928D01*
X144825081Y-92813603D01*
X144825072Y-92813598D01*
X144709785Y-92765845D01*
X144709777Y-92765843D01*
X144587398Y-92741500D01*
X144587394Y-92741500D01*
X138837394Y-92741500D01*
X138712606Y-92741500D01*
X138712601Y-92741500D01*
X138590222Y-92765843D01*
X138590214Y-92765845D01*
X138474927Y-92813598D01*
X138474918Y-92813603D01*
X138371167Y-92882928D01*
X138371163Y-92882931D01*
X138098913Y-93155181D01*
X138037590Y-93188666D01*
X138011232Y-93191500D01*
X136549462Y-93191500D01*
X136549446Y-93191501D01*
X136445572Y-93202113D01*
X136277264Y-93257884D01*
X136277259Y-93257886D01*
X136126346Y-93350971D01*
X136000971Y-93476346D01*
X135907886Y-93627259D01*
X135907884Y-93627264D01*
X135852113Y-93795572D01*
X135841500Y-93899447D01*
X135841500Y-95100537D01*
X135841501Y-95100553D01*
X135850000Y-95183742D01*
X135852113Y-95204426D01*
X135907885Y-95372738D01*
X136000970Y-95523652D01*
X136126348Y-95649030D01*
X136277262Y-95742115D01*
X136445574Y-95797887D01*
X136549455Y-95808500D01*
X138746234Y-95808499D01*
X138813273Y-95828184D01*
X138859028Y-95880987D01*
X138868972Y-95950146D01*
X138839947Y-96013702D01*
X138833915Y-96020180D01*
X137899670Y-96954426D01*
X136996167Y-97857929D01*
X136966500Y-97887596D01*
X136907927Y-97946168D01*
X136838603Y-98049918D01*
X136838598Y-98049927D01*
X136790845Y-98165214D01*
X136790843Y-98165222D01*
X136766500Y-98287601D01*
X136766500Y-99567500D01*
X136746815Y-99634539D01*
X136694011Y-99680294D01*
X136642500Y-99691500D01*
X136299462Y-99691500D01*
X136299446Y-99691501D01*
X136195572Y-99702113D01*
X136027264Y-99757884D01*
X136027259Y-99757886D01*
X135876346Y-99850971D01*
X135750971Y-99976346D01*
X135657886Y-100127259D01*
X135657884Y-100127264D01*
X135602113Y-100295572D01*
X135591500Y-100399447D01*
X135591500Y-101600537D01*
X135591501Y-101600553D01*
X135602113Y-101704427D01*
X135603590Y-101708883D01*
X135657885Y-101872738D01*
X135750970Y-102023652D01*
X135876348Y-102149030D01*
X136027262Y-102242115D01*
X136195574Y-102297887D01*
X136299455Y-102308500D01*
X138496234Y-102308499D01*
X138563273Y-102328184D01*
X138609028Y-102380987D01*
X138618972Y-102450146D01*
X138589947Y-102513702D01*
X138583915Y-102520180D01*
X137735302Y-103368794D01*
X136996167Y-104107929D01*
X136952047Y-104152049D01*
X136907927Y-104196168D01*
X136838603Y-104299918D01*
X136838598Y-104299927D01*
X136790845Y-104415214D01*
X136790843Y-104415222D01*
X136766500Y-104537601D01*
X136766500Y-107567500D01*
X136746815Y-107634539D01*
X136694011Y-107680294D01*
X136642500Y-107691500D01*
X136299462Y-107691500D01*
X136299446Y-107691501D01*
X136195572Y-107702113D01*
X136027264Y-107757884D01*
X136027259Y-107757886D01*
X135876346Y-107850971D01*
X135750971Y-107976346D01*
X135657886Y-108127259D01*
X135657884Y-108127264D01*
X135602113Y-108295572D01*
X135591500Y-108399447D01*
X135591500Y-109600537D01*
X135591501Y-109600553D01*
X135598216Y-109666282D01*
X135602113Y-109704426D01*
X135657885Y-109872738D01*
X135750970Y-110023652D01*
X135876348Y-110149030D01*
X136027262Y-110242115D01*
X136195574Y-110297887D01*
X136299455Y-110308500D01*
X138500544Y-110308499D01*
X138604426Y-110297887D01*
X138772738Y-110242115D01*
X138923652Y-110149030D01*
X139049030Y-110023652D01*
X139094462Y-109949994D01*
X139146409Y-109903272D01*
X139215372Y-109892049D01*
X139279454Y-109919893D01*
X139305536Y-109949993D01*
X139350970Y-110023652D01*
X139476348Y-110149030D01*
X139627262Y-110242115D01*
X139795574Y-110297887D01*
X139899455Y-110308500D01*
X140242500Y-110308499D01*
X140309539Y-110328183D01*
X140355294Y-110380987D01*
X140366500Y-110432499D01*
X140366500Y-111936234D01*
X140346815Y-112003273D01*
X140330181Y-112023915D01*
X140023915Y-112330181D01*
X139962592Y-112363666D01*
X139936234Y-112366500D01*
X131813766Y-112366500D01*
X131746727Y-112346815D01*
X131726085Y-112330181D01*
X130467099Y-111071195D01*
X130433614Y-111009872D01*
X130438598Y-110940180D01*
X130451676Y-110914627D01*
X130461400Y-110900075D01*
X130509155Y-110784785D01*
X130533500Y-110662394D01*
X130533500Y-102432499D01*
X130553185Y-102365460D01*
X130605989Y-102319705D01*
X130657500Y-102308499D01*
X131000537Y-102308499D01*
X131000544Y-102308499D01*
X131104426Y-102297887D01*
X131272738Y-102242115D01*
X131423652Y-102149030D01*
X131549030Y-102023652D01*
X131594462Y-101949994D01*
X131646409Y-101903272D01*
X131715372Y-101892049D01*
X131779454Y-101919893D01*
X131805536Y-101949993D01*
X131850970Y-102023652D01*
X131976348Y-102149030D01*
X132127262Y-102242115D01*
X132295574Y-102297887D01*
X132399455Y-102308500D01*
X134600544Y-102308499D01*
X134704426Y-102297887D01*
X134872738Y-102242115D01*
X135023652Y-102149030D01*
X135149030Y-102023652D01*
X135242115Y-101872738D01*
X135297887Y-101704426D01*
X135308500Y-101600545D01*
X135308499Y-100399456D01*
X135297887Y-100295574D01*
X135242115Y-100127262D01*
X135149030Y-99976348D01*
X135023652Y-99850970D01*
X134872738Y-99757885D01*
X134872735Y-99757884D01*
X134704427Y-99702113D01*
X134600552Y-99691500D01*
X134600545Y-99691500D01*
X134257500Y-99691500D01*
X134190461Y-99671815D01*
X134144706Y-99619011D01*
X134133500Y-99567500D01*
X134133500Y-92813765D01*
X134153185Y-92746726D01*
X134169814Y-92726089D01*
X136271085Y-90624817D01*
X136332408Y-90591333D01*
X136358766Y-90588499D01*
X139350537Y-90588499D01*
X139350544Y-90588499D01*
X139454426Y-90577887D01*
X139622738Y-90522115D01*
X139773652Y-90429030D01*
X139899030Y-90303652D01*
X139992115Y-90152738D01*
X140047887Y-89984426D01*
X140058500Y-89880545D01*
X140058500Y-89257500D01*
X140078185Y-89190461D01*
X140130989Y-89144706D01*
X140182500Y-89133500D01*
X143498032Y-89133500D01*
X143565071Y-89153185D01*
X143610826Y-89205989D01*
X143615963Y-89219182D01*
X143665470Y-89371549D01*
X143665473Y-89371556D01*
X143760960Y-89536944D01*
X143888747Y-89678866D01*
X144043248Y-89791118D01*
X144217712Y-89868794D01*
X144404513Y-89908500D01*
X144595487Y-89908500D01*
X144782288Y-89868794D01*
X144956752Y-89791118D01*
X145111253Y-89678866D01*
X145239040Y-89536944D01*
X145334527Y-89371556D01*
X145393542Y-89189928D01*
X145413504Y-89000000D01*
X145393542Y-88810072D01*
X145334527Y-88628444D01*
X145239040Y-88463056D01*
X145111253Y-88321134D01*
X144956752Y-88208882D01*
X144782288Y-88131206D01*
X144782286Y-88131205D01*
X144595487Y-88091500D01*
X144538766Y-88091500D01*
X144471727Y-88071815D01*
X144451084Y-88055180D01*
X144403836Y-88007931D01*
X144403832Y-88007928D01*
X144300081Y-87938603D01*
X144300072Y-87938598D01*
X144184785Y-87890845D01*
X144184777Y-87890843D01*
X144062398Y-87866500D01*
X144062394Y-87866500D01*
X140182499Y-87866500D01*
X140115460Y-87846815D01*
X140069705Y-87794011D01*
X140058499Y-87742500D01*
X140058499Y-87119462D01*
X140058498Y-87119446D01*
X140052670Y-87062395D01*
X140047887Y-87015574D01*
X139992115Y-86847262D01*
X139899030Y-86696348D01*
X139773652Y-86570970D01*
X139622738Y-86477885D01*
X139622735Y-86477884D01*
X139454427Y-86422113D01*
X139350552Y-86411500D01*
X139350545Y-86411500D01*
X139327042Y-86411500D01*
X139260003Y-86391815D01*
X139214248Y-86339011D01*
X139204304Y-86269853D01*
X139233329Y-86206297D01*
X139251555Y-86189124D01*
X139272296Y-86173209D01*
X139349998Y-86113586D01*
X139543586Y-85919998D01*
X139710250Y-85702798D01*
X139847138Y-85465702D01*
X139936465Y-85250046D01*
X139980306Y-85195644D01*
X140046600Y-85173579D01*
X140051026Y-85173500D01*
X142952395Y-85173500D01*
X142952396Y-85173499D01*
X143074785Y-85149155D01*
X143190075Y-85101400D01*
X143293833Y-85032071D01*
X145724819Y-82601085D01*
X145786142Y-82567600D01*
X145855834Y-82572584D01*
X145911767Y-82614456D01*
X145936184Y-82679920D01*
X145936500Y-82688766D01*
X145936500Y-88382398D01*
X145960843Y-88504777D01*
X145960845Y-88504785D01*
X146008598Y-88620072D01*
X146008603Y-88620081D01*
X146077928Y-88723832D01*
X146077931Y-88723836D01*
X146757929Y-89403833D01*
X146846167Y-89492071D01*
X146846168Y-89492072D01*
X146949918Y-89561396D01*
X146949924Y-89561399D01*
X146949925Y-89561400D01*
X147065215Y-89609155D01*
X147187601Y-89633499D01*
X147187605Y-89633500D01*
X147187606Y-89633500D01*
X148239069Y-89633500D01*
X148306108Y-89653185D01*
X148351863Y-89705989D01*
X148356775Y-89718496D01*
X148407885Y-89872738D01*
X148500970Y-90023652D01*
X148626348Y-90149030D01*
X148777262Y-90242115D01*
X148945574Y-90297887D01*
X149049455Y-90308500D01*
X151250544Y-90308499D01*
X151354426Y-90297887D01*
X151522738Y-90242115D01*
X151673652Y-90149030D01*
X151799030Y-90023652D01*
X151844462Y-89949994D01*
X151896409Y-89903272D01*
X151965372Y-89892049D01*
X152029454Y-89919893D01*
X152055536Y-89949993D01*
X152100970Y-90023652D01*
X152226348Y-90149030D01*
X152377262Y-90242115D01*
X152545574Y-90297887D01*
X152649455Y-90308500D01*
X154850544Y-90308499D01*
X154954426Y-90297887D01*
X155122738Y-90242115D01*
X155273652Y-90149030D01*
X155399030Y-90023652D01*
X155492115Y-89872738D01*
X155547887Y-89704426D01*
X155558500Y-89600545D01*
X155558499Y-88399456D01*
X155547887Y-88295574D01*
X155522773Y-88219786D01*
X155520372Y-88149960D01*
X155552797Y-88093105D01*
X156242071Y-87403833D01*
X156311400Y-87300075D01*
X156359155Y-87184785D01*
X156383500Y-87062394D01*
X156383500Y-86937606D01*
X156383500Y-83563766D01*
X156403185Y-83496727D01*
X156419819Y-83476085D01*
X156726085Y-83169819D01*
X156787408Y-83136334D01*
X156813766Y-83133500D01*
X158936234Y-83133500D01*
X159003273Y-83153185D01*
X159023915Y-83169819D01*
X159310181Y-83456085D01*
X159343666Y-83517408D01*
X159346500Y-83543766D01*
X159346500Y-85234415D01*
X159326815Y-85301454D01*
X159274011Y-85347209D01*
X159204853Y-85357153D01*
X159175048Y-85348976D01*
X159011465Y-85281218D01*
X159011453Y-85281215D01*
X158811794Y-85241500D01*
X158811791Y-85241500D01*
X158608209Y-85241500D01*
X158608206Y-85241500D01*
X158408546Y-85281215D01*
X158408534Y-85281218D01*
X158220460Y-85359120D01*
X158220447Y-85359127D01*
X158051182Y-85472227D01*
X158051178Y-85472230D01*
X157907230Y-85616178D01*
X157907227Y-85616182D01*
X157794127Y-85785447D01*
X157794120Y-85785460D01*
X157716218Y-85973534D01*
X157716215Y-85973546D01*
X157676500Y-86173204D01*
X157676500Y-86826795D01*
X157716215Y-87026453D01*
X157716218Y-87026465D01*
X157794120Y-87214539D01*
X157794127Y-87214552D01*
X157907226Y-87383816D01*
X157907227Y-87383817D01*
X157907228Y-87383818D01*
X158040182Y-87516772D01*
X158073666Y-87578093D01*
X158076500Y-87604452D01*
X158076500Y-90772398D01*
X158100843Y-90894777D01*
X158100845Y-90894785D01*
X158148598Y-91010072D01*
X158148603Y-91010081D01*
X158217928Y-91113832D01*
X158217931Y-91113836D01*
X160757929Y-93653833D01*
X160846167Y-93742071D01*
X160846168Y-93742072D01*
X160949918Y-93811396D01*
X160949924Y-93811399D01*
X160949925Y-93811400D01*
X161065215Y-93859155D01*
X161187601Y-93883499D01*
X161187605Y-93883500D01*
X161187606Y-93883500D01*
X161492500Y-93883500D01*
X161559539Y-93903185D01*
X161605294Y-93955989D01*
X161616500Y-94007500D01*
X161616500Y-99936234D01*
X161596815Y-100003273D01*
X161580181Y-100023915D01*
X155176167Y-106427929D01*
X155132047Y-106472049D01*
X155087927Y-106516168D01*
X155018603Y-106619918D01*
X155018598Y-106619927D01*
X154970845Y-106735214D01*
X154970843Y-106735222D01*
X154946500Y-106857601D01*
X154946500Y-107067500D01*
X154926815Y-107134539D01*
X154874011Y-107180294D01*
X154822500Y-107191500D01*
X154199462Y-107191500D01*
X154199446Y-107191501D01*
X154095572Y-107202113D01*
X153927264Y-107257884D01*
X153927259Y-107257886D01*
X153776346Y-107350971D01*
X153650971Y-107476346D01*
X153557886Y-107627259D01*
X153557884Y-107627264D01*
X153502113Y-107795572D01*
X153491500Y-107899447D01*
X153491500Y-109094541D01*
X153471815Y-109161580D01*
X153436391Y-109197643D01*
X153346167Y-109257928D01*
X153346163Y-109257931D01*
X151798915Y-110805181D01*
X151737592Y-110838666D01*
X151711234Y-110841500D01*
X151654513Y-110841500D01*
X151467714Y-110881205D01*
X151293246Y-110958883D01*
X151138745Y-111071135D01*
X151010959Y-111213057D01*
X150915473Y-111378443D01*
X150915470Y-111378450D01*
X150868291Y-111523653D01*
X150856458Y-111560072D01*
X150836496Y-111750000D01*
X150856458Y-111939928D01*
X150856459Y-111939931D01*
X150915470Y-112121549D01*
X150915473Y-112121556D01*
X151010960Y-112286944D01*
X151138747Y-112428866D01*
X151293248Y-112541118D01*
X151467712Y-112618794D01*
X151654513Y-112658500D01*
X151845487Y-112658500D01*
X152032288Y-112618794D01*
X152206752Y-112541118D01*
X152361253Y-112428866D01*
X152489040Y-112286944D01*
X152584527Y-112121556D01*
X152643542Y-111939928D01*
X152660981Y-111773997D01*
X152687564Y-111709387D01*
X152696611Y-111699291D01*
X153279821Y-111116081D01*
X153341142Y-111082598D01*
X153410834Y-111087582D01*
X153466767Y-111129454D01*
X153491184Y-111194918D01*
X153491500Y-111203764D01*
X153491500Y-111600537D01*
X153491501Y-111600553D01*
X153502113Y-111704427D01*
X153517214Y-111750000D01*
X153557885Y-111872738D01*
X153650970Y-112023652D01*
X153776348Y-112149030D01*
X153927262Y-112242115D01*
X154095574Y-112297887D01*
X154199455Y-112308500D01*
X156960544Y-112308499D01*
X157064426Y-112297887D01*
X157232738Y-112242115D01*
X157383652Y-112149030D01*
X157509030Y-112023652D01*
X157602115Y-111872738D01*
X157657887Y-111704426D01*
X157668500Y-111600545D01*
X157668499Y-111563078D01*
X157688182Y-111496042D01*
X157740985Y-111450286D01*
X157810143Y-111440341D01*
X157873699Y-111469364D01*
X157890874Y-111487592D01*
X157972818Y-111594382D01*
X157972826Y-111594391D01*
X158165609Y-111787174D01*
X158165617Y-111787181D01*
X158381933Y-111953168D01*
X158618062Y-112089496D01*
X158618072Y-112089500D01*
X158869970Y-112193840D01*
X159133344Y-112264411D01*
X159290000Y-112285034D01*
X159290000Y-110566480D01*
X159292064Y-110567335D01*
X159456282Y-110600000D01*
X159623718Y-110600000D01*
X159787936Y-110567335D01*
X159790000Y-110566480D01*
X159790000Y-112285033D01*
X159946655Y-112264411D01*
X160210029Y-112193840D01*
X160461927Y-112089500D01*
X160461937Y-112089496D01*
X160698066Y-111953168D01*
X160914382Y-111787181D01*
X160914391Y-111787174D01*
X161107174Y-111594391D01*
X161107181Y-111594382D01*
X161273169Y-111378065D01*
X161273171Y-111378061D01*
X161407705Y-111145040D01*
X161458271Y-111096824D01*
X161526878Y-111083600D01*
X161591743Y-111109568D01*
X161622479Y-111145039D01*
X161759745Y-111382790D01*
X161759756Y-111382806D01*
X161926412Y-111599996D01*
X161926418Y-111600003D01*
X162119996Y-111793581D01*
X162120003Y-111793587D01*
X162223157Y-111872740D01*
X162337202Y-111960250D01*
X162337209Y-111960254D01*
X162574290Y-112097134D01*
X162574295Y-112097136D01*
X162574298Y-112097138D01*
X162733795Y-112163203D01*
X162807757Y-112193840D01*
X162827233Y-112201907D01*
X163091680Y-112272765D01*
X163350046Y-112306779D01*
X163363096Y-112308498D01*
X163363112Y-112308500D01*
X163363119Y-112308500D01*
X163636881Y-112308500D01*
X163636888Y-112308500D01*
X163908320Y-112272765D01*
X164172767Y-112201907D01*
X164425702Y-112097138D01*
X164662798Y-111960250D01*
X164879998Y-111793586D01*
X165073586Y-111599998D01*
X165240250Y-111382798D01*
X165377138Y-111145702D01*
X165481907Y-110892767D01*
X165552765Y-110628320D01*
X165588500Y-110356888D01*
X165588500Y-109143112D01*
X165552765Y-108871680D01*
X165481907Y-108607233D01*
X165377138Y-108354298D01*
X165377136Y-108354295D01*
X165377134Y-108354290D01*
X165240254Y-108117209D01*
X165240250Y-108117202D01*
X165168390Y-108023552D01*
X165073587Y-107900003D01*
X165073581Y-107899996D01*
X164880003Y-107706418D01*
X164879996Y-107706412D01*
X164662806Y-107539756D01*
X164662804Y-107539754D01*
X164662798Y-107539750D01*
X164662793Y-107539747D01*
X164662790Y-107539745D01*
X164425709Y-107402865D01*
X164425698Y-107402860D01*
X164210047Y-107313535D01*
X164155644Y-107269694D01*
X164133579Y-107203400D01*
X164133500Y-107198974D01*
X164133500Y-103563766D01*
X164153185Y-103496727D01*
X164169819Y-103476085D01*
X164201085Y-103444819D01*
X164262408Y-103411334D01*
X164288766Y-103408500D01*
X164345487Y-103408500D01*
X164532288Y-103368794D01*
X164706752Y-103291118D01*
X164861253Y-103178866D01*
X164989040Y-103036944D01*
X165084527Y-102871556D01*
X165143542Y-102689928D01*
X165163504Y-102500000D01*
X165143542Y-102310072D01*
X165084527Y-102128444D01*
X164989040Y-101963056D01*
X164861253Y-101821134D01*
X164706752Y-101708882D01*
X164532288Y-101631206D01*
X164532286Y-101631205D01*
X164345487Y-101591500D01*
X164154513Y-101591500D01*
X163967714Y-101631205D01*
X163967712Y-101631206D01*
X163803257Y-101704426D01*
X163793246Y-101708883D01*
X163638745Y-101821135D01*
X163510959Y-101963057D01*
X163415473Y-102128443D01*
X163415470Y-102128450D01*
X163356459Y-102310068D01*
X163356458Y-102310072D01*
X163350637Y-102365460D01*
X163339019Y-102475997D01*
X163312434Y-102540611D01*
X163303379Y-102550716D01*
X163184203Y-102669893D01*
X163096167Y-102757929D01*
X163052047Y-102802049D01*
X163007927Y-102846168D01*
X162938603Y-102949918D01*
X162938598Y-102949927D01*
X162890845Y-103065214D01*
X162890843Y-103065222D01*
X162866500Y-103187601D01*
X162866500Y-107198974D01*
X162846815Y-107266013D01*
X162794011Y-107311768D01*
X162789953Y-107313535D01*
X162574301Y-107402860D01*
X162574290Y-107402865D01*
X162337209Y-107539745D01*
X162337193Y-107539756D01*
X162120003Y-107706412D01*
X162119996Y-107706418D01*
X161926418Y-107899996D01*
X161926412Y-107900003D01*
X161759756Y-108117193D01*
X161759745Y-108117209D01*
X161622479Y-108354960D01*
X161571912Y-108403176D01*
X161503305Y-108416398D01*
X161438440Y-108390430D01*
X161407705Y-108354960D01*
X161273168Y-108121933D01*
X161107181Y-107905617D01*
X161107174Y-107905609D01*
X160914391Y-107712826D01*
X160914382Y-107712818D01*
X160698066Y-107546831D01*
X160461937Y-107410503D01*
X160461927Y-107410499D01*
X160210029Y-107306159D01*
X159946655Y-107235588D01*
X159790000Y-107214963D01*
X159790000Y-108933519D01*
X159787936Y-108932665D01*
X159623718Y-108900000D01*
X159456282Y-108900000D01*
X159292064Y-108932665D01*
X159290000Y-108933519D01*
X159290000Y-107214963D01*
X159289999Y-107214963D01*
X159133344Y-107235588D01*
X158869970Y-107306159D01*
X158618072Y-107410499D01*
X158618062Y-107410503D01*
X158381933Y-107546831D01*
X158165617Y-107712818D01*
X157972818Y-107905617D01*
X157890874Y-108012408D01*
X157834446Y-108053611D01*
X157764700Y-108057765D01*
X157703780Y-108023552D01*
X157671028Y-107961834D01*
X157668499Y-107936921D01*
X157668499Y-107899462D01*
X157668498Y-107899446D01*
X157663546Y-107850970D01*
X157657887Y-107795574D01*
X157602115Y-107627262D01*
X157509030Y-107476348D01*
X157383652Y-107350970D01*
X157280866Y-107287571D01*
X157232740Y-107257886D01*
X157232735Y-107257884D01*
X157064427Y-107202113D01*
X156960552Y-107191500D01*
X156960545Y-107191500D01*
X156503766Y-107191500D01*
X156436727Y-107171815D01*
X156390972Y-107119011D01*
X156381028Y-107049853D01*
X156410053Y-106986297D01*
X156416085Y-106979819D01*
X162742068Y-100653836D01*
X162742071Y-100653833D01*
X162811400Y-100550075D01*
X162859155Y-100434785D01*
X162883500Y-100312394D01*
X162883500Y-93187606D01*
X162859155Y-93065215D01*
X162811400Y-92949925D01*
X162811399Y-92949924D01*
X162811396Y-92949918D01*
X162742071Y-92846167D01*
X162742068Y-92846163D01*
X162653836Y-92757931D01*
X162653832Y-92757928D01*
X162550081Y-92688603D01*
X162550072Y-92688598D01*
X162434785Y-92640845D01*
X162434777Y-92640843D01*
X162312398Y-92616500D01*
X162312394Y-92616500D01*
X161563766Y-92616500D01*
X161496727Y-92596815D01*
X161476085Y-92580181D01*
X159379819Y-90483915D01*
X159346334Y-90422592D01*
X159343500Y-90396234D01*
X159343500Y-87765584D01*
X159363185Y-87698545D01*
X159415989Y-87652790D01*
X159485147Y-87642846D01*
X159514947Y-87651021D01*
X159678539Y-87718783D01*
X159845471Y-87751988D01*
X159878204Y-87758499D01*
X159878207Y-87758500D01*
X159878209Y-87758500D01*
X160081793Y-87758500D01*
X160081794Y-87758499D01*
X160281461Y-87718783D01*
X160358656Y-87686807D01*
X160428122Y-87679339D01*
X160470403Y-87697744D01*
X160471008Y-87696637D01*
X160478793Y-87700888D01*
X160504264Y-87710388D01*
X160615799Y-87751989D01*
X160643050Y-87754918D01*
X160676345Y-87758499D01*
X160676362Y-87758500D01*
X161823638Y-87758500D01*
X161823654Y-87758499D01*
X161850692Y-87755591D01*
X161884201Y-87751989D01*
X162021204Y-87700889D01*
X162138261Y-87613261D01*
X162225889Y-87496204D01*
X162276989Y-87359201D01*
X162280591Y-87325692D01*
X162283499Y-87298654D01*
X162283500Y-87298637D01*
X162283500Y-87257500D01*
X162303185Y-87190461D01*
X162355989Y-87144706D01*
X162407500Y-87133500D01*
X163105001Y-87133500D01*
X163172040Y-87153185D01*
X163217795Y-87205989D01*
X163229001Y-87257500D01*
X163229001Y-87304719D01*
X163239176Y-87404314D01*
X163292651Y-87565692D01*
X163381900Y-87710387D01*
X163502113Y-87830600D01*
X163646808Y-87919849D01*
X163808186Y-87973324D01*
X163907789Y-87983500D01*
X164442210Y-87983499D01*
X164541814Y-87973324D01*
X164703192Y-87919849D01*
X164847887Y-87830600D01*
X164874819Y-87803668D01*
X164936142Y-87770183D01*
X165005834Y-87775167D01*
X165050181Y-87803668D01*
X165080181Y-87833668D01*
X165113666Y-87894991D01*
X165116500Y-87921349D01*
X165116500Y-92562398D01*
X165140843Y-92684777D01*
X165140845Y-92684785D01*
X165188598Y-92800072D01*
X165188603Y-92800081D01*
X165257928Y-92903832D01*
X165257931Y-92903836D01*
X166125181Y-93771085D01*
X166158666Y-93832408D01*
X166161500Y-93858766D01*
X166161500Y-96850537D01*
X166161501Y-96850553D01*
X166172113Y-96954427D01*
X166227884Y-97122735D01*
X166227885Y-97122738D01*
X166320970Y-97273652D01*
X166446348Y-97399030D01*
X166597262Y-97492115D01*
X166765574Y-97547887D01*
X166869455Y-97558500D01*
X169630544Y-97558499D01*
X169734426Y-97547887D01*
X169902738Y-97492115D01*
X170053652Y-97399030D01*
X170179030Y-97273652D01*
X170272115Y-97122738D01*
X170327887Y-96954426D01*
X170338500Y-96850545D01*
X170338499Y-96827042D01*
X170358181Y-96760005D01*
X170410983Y-96714249D01*
X170480141Y-96704302D01*
X170543698Y-96733325D01*
X170560874Y-96751553D01*
X170636412Y-96849996D01*
X170636418Y-96850003D01*
X170829996Y-97043581D01*
X170830003Y-97043587D01*
X170933157Y-97122740D01*
X171047202Y-97210250D01*
X171047209Y-97210254D01*
X171284290Y-97347134D01*
X171284295Y-97347136D01*
X171284298Y-97347138D01*
X171499953Y-97436465D01*
X171554356Y-97480306D01*
X171576421Y-97546600D01*
X171576500Y-97551026D01*
X171576500Y-105766233D01*
X171556815Y-105833272D01*
X171540181Y-105853914D01*
X170704361Y-106689733D01*
X170643038Y-106723218D01*
X170577676Y-106719758D01*
X170524426Y-106702113D01*
X170420545Y-106691500D01*
X167659462Y-106691500D01*
X167659446Y-106691501D01*
X167555572Y-106702113D01*
X167387264Y-106757884D01*
X167387259Y-106757886D01*
X167236346Y-106850971D01*
X167110971Y-106976346D01*
X167017886Y-107127259D01*
X167017884Y-107127264D01*
X166962113Y-107295572D01*
X166951500Y-107399447D01*
X166951500Y-111100537D01*
X166951501Y-111100553D01*
X166962113Y-111204427D01*
X167017884Y-111372735D01*
X167017886Y-111372740D01*
X167049451Y-111423914D01*
X167110970Y-111523652D01*
X167236348Y-111649030D01*
X167387262Y-111742115D01*
X167555574Y-111797887D01*
X167659455Y-111808500D01*
X170420544Y-111808499D01*
X170524426Y-111797887D01*
X170692738Y-111742115D01*
X170843652Y-111649030D01*
X170969030Y-111523652D01*
X171062115Y-111372738D01*
X171117887Y-111204426D01*
X171128500Y-111100545D01*
X171128499Y-111077042D01*
X171148181Y-111010005D01*
X171200983Y-110964249D01*
X171270141Y-110954302D01*
X171333698Y-110983325D01*
X171350874Y-111001553D01*
X171426412Y-111099996D01*
X171426418Y-111100003D01*
X171619996Y-111293581D01*
X171620003Y-111293587D01*
X171736265Y-111382798D01*
X171837202Y-111460250D01*
X171837209Y-111460254D01*
X172074290Y-111597134D01*
X172074295Y-111597136D01*
X172074298Y-111597138D01*
X172289953Y-111686465D01*
X172344356Y-111730306D01*
X172366421Y-111796600D01*
X172366500Y-111801026D01*
X172366500Y-114186234D01*
X172346815Y-114253273D01*
X172330181Y-114273915D01*
X168798915Y-117805181D01*
X168737592Y-117838666D01*
X168711234Y-117841500D01*
X166951345Y-117841500D01*
X166890797Y-117848011D01*
X166890795Y-117848011D01*
X166753795Y-117899111D01*
X166636739Y-117986739D01*
X166549111Y-118103795D01*
X166498011Y-118240795D01*
X166498011Y-118240797D01*
X166491500Y-118301345D01*
X166491500Y-120198654D01*
X166498011Y-120259202D01*
X166498011Y-120259204D01*
X166538056Y-120366566D01*
X166549111Y-120396204D01*
X166636739Y-120513261D01*
X166753796Y-120600889D01*
X166868297Y-120643596D01*
X166885463Y-120649999D01*
X166890799Y-120651989D01*
X166918050Y-120654918D01*
X166951345Y-120658499D01*
X166951362Y-120658500D01*
X169548638Y-120658500D01*
X169548654Y-120658499D01*
X169575692Y-120655591D01*
X169609201Y-120651989D01*
X169614537Y-120649999D01*
X169629907Y-120644266D01*
X169746204Y-120600889D01*
X169863261Y-120513261D01*
X169950889Y-120396204D01*
X170001989Y-120259201D01*
X170005591Y-120225692D01*
X170008499Y-120198654D01*
X170008500Y-120198637D01*
X170008500Y-118438766D01*
X170028185Y-118371727D01*
X170044819Y-118351085D01*
X173492068Y-114903836D01*
X173492071Y-114903833D01*
X173561400Y-114800075D01*
X173609155Y-114684785D01*
X173611454Y-114673224D01*
X173616182Y-114649458D01*
X173616182Y-114649455D01*
X173633500Y-114562394D01*
X173633500Y-111801026D01*
X173653185Y-111733987D01*
X173705989Y-111688232D01*
X173710047Y-111686465D01*
X173925702Y-111597138D01*
X174162798Y-111460250D01*
X174379998Y-111293586D01*
X174573586Y-111099998D01*
X174740250Y-110882798D01*
X174877138Y-110645702D01*
X174981907Y-110392767D01*
X175052765Y-110128320D01*
X175088500Y-109856888D01*
X175088500Y-108643112D01*
X175052765Y-108371680D01*
X174981907Y-108107233D01*
X174877138Y-107854298D01*
X174877136Y-107854295D01*
X174877134Y-107854290D01*
X174740254Y-107617209D01*
X174740250Y-107617202D01*
X174573586Y-107400002D01*
X174573581Y-107399996D01*
X174380003Y-107206418D01*
X174379996Y-107206412D01*
X174162806Y-107039756D01*
X174162804Y-107039754D01*
X174162798Y-107039750D01*
X174162793Y-107039747D01*
X174162790Y-107039745D01*
X173925709Y-106902865D01*
X173925698Y-106902860D01*
X173672776Y-106798096D01*
X173672769Y-106798094D01*
X173672767Y-106798093D01*
X173408320Y-106727235D01*
X173351527Y-106719758D01*
X173136895Y-106691500D01*
X173136888Y-106691500D01*
X172863112Y-106691500D01*
X172863107Y-106691500D01*
X172863099Y-106691501D01*
X172800669Y-106699720D01*
X172731634Y-106688954D01*
X172679379Y-106642574D01*
X172660494Y-106575305D01*
X172680975Y-106508504D01*
X172696803Y-106489100D01*
X172702071Y-106483833D01*
X172771400Y-106380075D01*
X172819155Y-106264785D01*
X172843500Y-106142394D01*
X172843500Y-106017606D01*
X172843500Y-97551026D01*
X172863185Y-97483987D01*
X172915989Y-97438232D01*
X172920047Y-97436465D01*
X173135702Y-97347138D01*
X173372798Y-97210250D01*
X173589998Y-97043586D01*
X173783586Y-96849998D01*
X173950250Y-96632798D01*
X174087138Y-96395702D01*
X174191907Y-96142767D01*
X174262765Y-95878320D01*
X174298500Y-95606888D01*
X174298500Y-94393112D01*
X174262765Y-94121680D01*
X174191907Y-93857233D01*
X174087138Y-93604298D01*
X174087136Y-93604295D01*
X174087134Y-93604290D01*
X173950254Y-93367209D01*
X173950250Y-93367202D01*
X173820319Y-93197873D01*
X173783587Y-93150003D01*
X173783581Y-93149996D01*
X173590003Y-92956418D01*
X173589996Y-92956412D01*
X173372806Y-92789756D01*
X173372804Y-92789754D01*
X173372798Y-92789750D01*
X173372793Y-92789747D01*
X173372790Y-92789745D01*
X173135709Y-92652865D01*
X173135698Y-92652860D01*
X172882776Y-92548096D01*
X172882769Y-92548094D01*
X172882767Y-92548093D01*
X172618320Y-92477235D01*
X172561527Y-92469758D01*
X172346895Y-92441500D01*
X172346888Y-92441500D01*
X172073112Y-92441500D01*
X172073104Y-92441500D01*
X171814745Y-92475514D01*
X171801680Y-92477235D01*
X171537233Y-92548093D01*
X171537223Y-92548096D01*
X171284301Y-92652860D01*
X171284290Y-92652865D01*
X171047209Y-92789745D01*
X171047193Y-92789756D01*
X170830003Y-92956412D01*
X170829996Y-92956418D01*
X170636418Y-93149996D01*
X170560875Y-93248446D01*
X170504447Y-93289648D01*
X170434701Y-93293803D01*
X170373780Y-93259590D01*
X170341028Y-93197873D01*
X170338499Y-93172959D01*
X170338499Y-93149462D01*
X170338498Y-93149446D01*
X170338218Y-93146707D01*
X170327887Y-93045574D01*
X170272115Y-92877262D01*
X170179030Y-92726348D01*
X170053652Y-92600970D01*
X169902738Y-92507885D01*
X169810238Y-92477234D01*
X169734427Y-92452113D01*
X169630545Y-92441500D01*
X166869462Y-92441500D01*
X166869446Y-92441501D01*
X166765570Y-92452113D01*
X166712321Y-92469758D01*
X166642492Y-92472159D01*
X166585637Y-92439733D01*
X166419819Y-92273915D01*
X166386334Y-92212592D01*
X166383500Y-92186234D01*
X166383500Y-87921349D01*
X166403185Y-87854310D01*
X166419819Y-87833668D01*
X166478320Y-87775167D01*
X166543100Y-87710387D01*
X166632349Y-87565692D01*
X166685824Y-87404314D01*
X166696000Y-87304711D01*
X166695999Y-86695290D01*
X166685824Y-86595686D01*
X166632349Y-86434308D01*
X166543100Y-86289613D01*
X166422887Y-86169400D01*
X166278192Y-86080151D01*
X166116814Y-86026676D01*
X166116811Y-86026675D01*
X166116812Y-86026675D01*
X166017212Y-86016500D01*
X165482796Y-86016500D01*
X165482780Y-86016501D01*
X165383184Y-86026676D01*
X165221810Y-86080150D01*
X165221805Y-86080152D01*
X165077111Y-86169401D01*
X165050181Y-86196332D01*
X164988858Y-86229817D01*
X164919166Y-86224833D01*
X164874819Y-86196332D01*
X164847888Y-86169401D01*
X164847887Y-86169400D01*
X164703192Y-86080151D01*
X164541814Y-86026676D01*
X164541811Y-86026675D01*
X164541812Y-86026675D01*
X164442218Y-86016500D01*
X164442211Y-86016500D01*
X164129276Y-86016500D01*
X164062237Y-85996815D01*
X164060385Y-85995602D01*
X163975081Y-85938603D01*
X163975072Y-85938598D01*
X163859785Y-85890845D01*
X163859777Y-85890843D01*
X163737398Y-85866500D01*
X163737394Y-85866500D01*
X162407500Y-85866500D01*
X162340461Y-85846815D01*
X162294706Y-85794011D01*
X162283500Y-85742500D01*
X162283500Y-85701362D01*
X162283499Y-85701345D01*
X162280157Y-85670270D01*
X162276989Y-85640799D01*
X162267807Y-85616182D01*
X162254522Y-85580564D01*
X162225889Y-85503796D01*
X162138261Y-85386739D01*
X162021204Y-85299111D01*
X161973232Y-85281218D01*
X161884203Y-85248011D01*
X161823654Y-85241500D01*
X161823638Y-85241500D01*
X160737500Y-85241500D01*
X160670461Y-85221815D01*
X160624706Y-85169011D01*
X160613500Y-85117500D01*
X160613500Y-83425152D01*
X160615883Y-83400960D01*
X160616368Y-83398524D01*
X160633500Y-83312394D01*
X160633500Y-83187607D01*
X160622738Y-83133500D01*
X160609155Y-83065215D01*
X160561400Y-82949925D01*
X160561399Y-82949924D01*
X160561396Y-82949918D01*
X160492071Y-82846167D01*
X160492068Y-82846163D01*
X159653836Y-82007931D01*
X159653832Y-82007928D01*
X159550081Y-81938603D01*
X159550072Y-81938598D01*
X159434785Y-81890845D01*
X159434777Y-81890843D01*
X159312398Y-81866500D01*
X159312394Y-81866500D01*
X156562394Y-81866500D01*
X156437606Y-81866500D01*
X156437601Y-81866500D01*
X156315222Y-81890843D01*
X156315214Y-81890845D01*
X156199927Y-81938598D01*
X156199918Y-81938603D01*
X156096167Y-82007928D01*
X156096163Y-82007931D01*
X155531512Y-82572584D01*
X155346167Y-82757929D01*
X155304351Y-82799745D01*
X155257927Y-82846168D01*
X155188603Y-82949918D01*
X155188598Y-82949927D01*
X155140845Y-83065214D01*
X155140843Y-83065222D01*
X155116500Y-83187601D01*
X155116500Y-86686233D01*
X155096815Y-86753272D01*
X155080181Y-86773914D01*
X154198914Y-87655181D01*
X154137591Y-87688666D01*
X154111233Y-87691500D01*
X152649462Y-87691500D01*
X152649446Y-87691501D01*
X152545572Y-87702113D01*
X152377264Y-87757884D01*
X152377259Y-87757886D01*
X152226346Y-87850971D01*
X152100970Y-87976347D01*
X152100967Y-87976351D01*
X152055538Y-88050003D01*
X152003590Y-88096728D01*
X151934627Y-88107949D01*
X151870545Y-88080106D01*
X151844462Y-88050003D01*
X151799032Y-87976351D01*
X151799029Y-87976347D01*
X151673653Y-87850971D01*
X151673652Y-87850970D01*
X151579898Y-87793142D01*
X151522740Y-87757886D01*
X151522735Y-87757884D01*
X151354427Y-87702113D01*
X151250545Y-87691500D01*
X149049462Y-87691500D01*
X149049446Y-87691501D01*
X148945572Y-87702113D01*
X148777264Y-87757884D01*
X148777259Y-87757886D01*
X148626346Y-87850971D01*
X148500971Y-87976346D01*
X148407886Y-88127259D01*
X148407884Y-88127264D01*
X148356775Y-88281504D01*
X148317003Y-88338949D01*
X148252487Y-88365772D01*
X148239069Y-88366500D01*
X147563766Y-88366500D01*
X147496727Y-88346815D01*
X147476085Y-88330181D01*
X147239819Y-88093915D01*
X147206334Y-88032592D01*
X147203500Y-88006234D01*
X147203500Y-81437605D01*
X147203499Y-81437601D01*
X147179156Y-81315222D01*
X147179155Y-81315215D01*
X147131400Y-81199925D01*
X147131399Y-81199924D01*
X147131396Y-81199918D01*
X147062071Y-81096167D01*
X147062068Y-81096163D01*
X146973836Y-81007931D01*
X146973832Y-81007928D01*
X146870081Y-80938603D01*
X146870072Y-80938598D01*
X146754785Y-80890845D01*
X146754777Y-80890843D01*
X146632398Y-80866500D01*
X146632394Y-80866500D01*
X146507606Y-80866500D01*
X146507601Y-80866500D01*
X146385222Y-80890843D01*
X146385210Y-80890846D01*
X146297452Y-80927197D01*
X146227983Y-80934666D01*
X146202548Y-80927197D01*
X146114789Y-80890846D01*
X146114777Y-80890843D01*
X145992398Y-80866500D01*
X145992394Y-80866500D01*
X145867606Y-80866500D01*
X145867601Y-80866500D01*
X145745222Y-80890843D01*
X145745214Y-80890845D01*
X145629927Y-80938598D01*
X145629918Y-80938603D01*
X145526167Y-81007928D01*
X145526163Y-81007931D01*
X142663915Y-83870181D01*
X142602592Y-83903666D01*
X142576234Y-83906500D01*
X140051026Y-83906500D01*
X139983987Y-83886815D01*
X139938232Y-83834011D01*
X139936465Y-83829953D01*
X139847138Y-83614298D01*
X139847136Y-83614295D01*
X139847134Y-83614290D01*
X139710254Y-83377209D01*
X139710250Y-83377202D01*
X139564768Y-83187607D01*
X139543587Y-83160003D01*
X139543581Y-83159996D01*
X139350003Y-82966418D01*
X139349996Y-82966412D01*
X139132806Y-82799756D01*
X139132804Y-82799754D01*
X139132798Y-82799750D01*
X139132793Y-82799747D01*
X139132790Y-82799745D01*
X138895709Y-82662865D01*
X138895698Y-82662860D01*
X138642776Y-82558096D01*
X138642769Y-82558094D01*
X138642767Y-82558093D01*
X138378320Y-82487235D01*
X138332959Y-82481263D01*
X138106895Y-82451500D01*
X138106888Y-82451500D01*
X136893112Y-82451500D01*
X136893104Y-82451500D01*
X136634745Y-82485514D01*
X136621680Y-82487235D01*
X136357233Y-82558093D01*
X136357223Y-82558096D01*
X136104301Y-82662860D01*
X136104290Y-82662865D01*
X135867209Y-82799745D01*
X135867193Y-82799756D01*
X135650003Y-82966412D01*
X135649996Y-82966418D01*
X135456418Y-83159996D01*
X135456412Y-83160003D01*
X135289756Y-83377193D01*
X135289745Y-83377209D01*
X135152865Y-83614290D01*
X135152860Y-83614301D01*
X135048096Y-83867223D01*
X135048093Y-83867233D01*
X134979512Y-84123184D01*
X134977236Y-84131677D01*
X134977234Y-84131688D01*
X134941500Y-84403104D01*
X134941500Y-84676895D01*
X134971263Y-84902959D01*
X134977235Y-84948320D01*
X135037593Y-85173579D01*
X135048093Y-85212766D01*
X135048096Y-85212776D01*
X135152860Y-85465698D01*
X135152865Y-85465709D01*
X135289745Y-85702790D01*
X135289756Y-85702806D01*
X135456412Y-85919996D01*
X135456418Y-85920003D01*
X135649996Y-86113581D01*
X135650002Y-86113586D01*
X135727697Y-86173204D01*
X135748445Y-86189124D01*
X135789648Y-86245552D01*
X135793803Y-86315298D01*
X135759591Y-86376218D01*
X135697874Y-86408971D01*
X135672964Y-86411500D01*
X135649465Y-86411500D01*
X135649446Y-86411501D01*
X135545572Y-86422113D01*
X135377264Y-86477884D01*
X135377259Y-86477886D01*
X135226346Y-86570971D01*
X135100971Y-86696346D01*
X135007886Y-86847259D01*
X135007884Y-86847264D01*
X134952113Y-87015572D01*
X134941500Y-87119447D01*
X134941500Y-89880537D01*
X134941501Y-89880553D01*
X134952113Y-89984427D01*
X134969758Y-90037676D01*
X134972160Y-90107504D01*
X134939733Y-90164361D01*
X133096167Y-92007929D01*
X133052047Y-92052049D01*
X133007927Y-92096168D01*
X132938603Y-92199918D01*
X132938598Y-92199927D01*
X132890845Y-92315214D01*
X132890843Y-92315222D01*
X132866500Y-92437601D01*
X132866500Y-99567500D01*
X132846815Y-99634539D01*
X132794011Y-99680294D01*
X132742500Y-99691500D01*
X132399462Y-99691500D01*
X132399446Y-99691501D01*
X132295572Y-99702113D01*
X132127264Y-99757884D01*
X132127259Y-99757886D01*
X131976346Y-99850971D01*
X131850970Y-99976347D01*
X131850967Y-99976351D01*
X131805538Y-100050003D01*
X131753590Y-100096728D01*
X131684627Y-100107949D01*
X131620545Y-100080106D01*
X131594462Y-100050003D01*
X131549032Y-99976351D01*
X131549029Y-99976347D01*
X131423653Y-99850971D01*
X131423652Y-99850970D01*
X131272738Y-99757885D01*
X131272735Y-99757884D01*
X131104427Y-99702113D01*
X131000545Y-99691500D01*
X128799462Y-99691500D01*
X128799446Y-99691501D01*
X128695572Y-99702113D01*
X128527264Y-99757884D01*
X128527259Y-99757886D01*
X128376346Y-99850971D01*
X128250971Y-99976346D01*
X128157886Y-100127259D01*
X128157884Y-100127264D01*
X128102113Y-100295572D01*
X128091500Y-100399447D01*
X127116107Y-100399447D01*
X127034773Y-85759244D01*
X127035136Y-85749057D01*
X127038693Y-85702806D01*
X127038927Y-85699767D01*
X127040015Y-85690354D01*
X127120785Y-85168338D01*
X127122591Y-85159045D01*
X127243146Y-84644780D01*
X127245667Y-84635626D01*
X127405297Y-84132137D01*
X127408518Y-84123184D01*
X127496014Y-83906500D01*
X127606285Y-83633413D01*
X127610167Y-83624770D01*
X127844913Y-83151594D01*
X127849439Y-83143286D01*
X128119800Y-82689466D01*
X128124946Y-82681537D01*
X128429289Y-82249813D01*
X128435053Y-82242268D01*
X128771606Y-81835150D01*
X128777891Y-81828114D01*
X129144702Y-81447970D01*
X129151521Y-81441426D01*
X129546376Y-81090550D01*
X129553681Y-81084544D01*
X129974259Y-80764992D01*
X129982035Y-80759541D01*
X130425892Y-80473170D01*
X130434040Y-80468346D01*
X130898544Y-80216856D01*
X130907038Y-80212670D01*
X131389471Y-79997534D01*
X131398257Y-79994014D01*
X131895750Y-79816509D01*
X131904807Y-79813665D01*
X132414435Y-79674833D01*
X132423668Y-79672695D01*
X132942437Y-79573351D01*
X132951834Y-79571922D01*
X133477280Y-79512583D01*
X133485575Y-79511929D01*
X133747207Y-79500125D01*
X133752795Y-79500000D01*
X170039300Y-79500000D01*
X170048808Y-79500365D01*
G37*
%TD.AperFunction*%
%TD*%
M02*
