%TF.GenerationSoftware,KiCad,Pcbnew,8.0.5*%
%TF.CreationDate,2024-10-05T15:02:32-05:00*%
%TF.ProjectId,HornsBoard,486f726e-7342-46f6-9172-642e6b696361,0.0*%
%TF.SameCoordinates,Original*%
%TF.FileFunction,Legend,Top*%
%TF.FilePolarity,Positive*%
%FSLAX46Y46*%
G04 Gerber Fmt 4.6, Leading zero omitted, Abs format (unit mm)*
G04 Created by KiCad (PCBNEW 8.0.5) date 2024-10-05 15:02:32*
%MOMM*%
%LPD*%
G01*
G04 APERTURE LIST*
%ADD10C,0.150000*%
%ADD11C,0.120000*%
G04 APERTURE END LIST*
D10*
X169896666Y-88144819D02*
X169896666Y-88859104D01*
X169896666Y-88859104D02*
X169849047Y-89001961D01*
X169849047Y-89001961D02*
X169753809Y-89097200D01*
X169753809Y-89097200D02*
X169610952Y-89144819D01*
X169610952Y-89144819D02*
X169515714Y-89144819D01*
X170801428Y-88478152D02*
X170801428Y-89144819D01*
X170563333Y-88097200D02*
X170325238Y-88811485D01*
X170325238Y-88811485D02*
X170944285Y-88811485D01*
X146083333Y-80904819D02*
X145750000Y-80428628D01*
X145511905Y-80904819D02*
X145511905Y-79904819D01*
X145511905Y-79904819D02*
X145892857Y-79904819D01*
X145892857Y-79904819D02*
X145988095Y-79952438D01*
X145988095Y-79952438D02*
X146035714Y-80000057D01*
X146035714Y-80000057D02*
X146083333Y-80095295D01*
X146083333Y-80095295D02*
X146083333Y-80238152D01*
X146083333Y-80238152D02*
X146035714Y-80333390D01*
X146035714Y-80333390D02*
X145988095Y-80381009D01*
X145988095Y-80381009D02*
X145892857Y-80428628D01*
X145892857Y-80428628D02*
X145511905Y-80428628D01*
X147035714Y-80904819D02*
X146464286Y-80904819D01*
X146750000Y-80904819D02*
X146750000Y-79904819D01*
X146750000Y-79904819D02*
X146654762Y-80047676D01*
X146654762Y-80047676D02*
X146559524Y-80142914D01*
X146559524Y-80142914D02*
X146464286Y-80190533D01*
X159884761Y-90610057D02*
X159789523Y-90562438D01*
X159789523Y-90562438D02*
X159694285Y-90467200D01*
X159694285Y-90467200D02*
X159551428Y-90324342D01*
X159551428Y-90324342D02*
X159456190Y-90276723D01*
X159456190Y-90276723D02*
X159360952Y-90276723D01*
X159408571Y-90514819D02*
X159313333Y-90467200D01*
X159313333Y-90467200D02*
X159218095Y-90371961D01*
X159218095Y-90371961D02*
X159170476Y-90181485D01*
X159170476Y-90181485D02*
X159170476Y-89848152D01*
X159170476Y-89848152D02*
X159218095Y-89657676D01*
X159218095Y-89657676D02*
X159313333Y-89562438D01*
X159313333Y-89562438D02*
X159408571Y-89514819D01*
X159408571Y-89514819D02*
X159599047Y-89514819D01*
X159599047Y-89514819D02*
X159694285Y-89562438D01*
X159694285Y-89562438D02*
X159789523Y-89657676D01*
X159789523Y-89657676D02*
X159837142Y-89848152D01*
X159837142Y-89848152D02*
X159837142Y-90181485D01*
X159837142Y-90181485D02*
X159789523Y-90371961D01*
X159789523Y-90371961D02*
X159694285Y-90467200D01*
X159694285Y-90467200D02*
X159599047Y-90514819D01*
X159599047Y-90514819D02*
X159408571Y-90514819D01*
X160789523Y-90514819D02*
X160218095Y-90514819D01*
X160503809Y-90514819D02*
X160503809Y-89514819D01*
X160503809Y-89514819D02*
X160408571Y-89657676D01*
X160408571Y-89657676D02*
X160313333Y-89752914D01*
X160313333Y-89752914D02*
X160218095Y-89800533D01*
X130644819Y-86853333D02*
X131359104Y-86853333D01*
X131359104Y-86853333D02*
X131501961Y-86900952D01*
X131501961Y-86900952D02*
X131597200Y-86996190D01*
X131597200Y-86996190D02*
X131644819Y-87139047D01*
X131644819Y-87139047D02*
X131644819Y-87234285D01*
X130740057Y-86424761D02*
X130692438Y-86377142D01*
X130692438Y-86377142D02*
X130644819Y-86281904D01*
X130644819Y-86281904D02*
X130644819Y-86043809D01*
X130644819Y-86043809D02*
X130692438Y-85948571D01*
X130692438Y-85948571D02*
X130740057Y-85900952D01*
X130740057Y-85900952D02*
X130835295Y-85853333D01*
X130835295Y-85853333D02*
X130930533Y-85853333D01*
X130930533Y-85853333D02*
X131073390Y-85900952D01*
X131073390Y-85900952D02*
X131644819Y-86472380D01*
X131644819Y-86472380D02*
X131644819Y-85853333D01*
X151783333Y-86159580D02*
X151735714Y-86207200D01*
X151735714Y-86207200D02*
X151592857Y-86254819D01*
X151592857Y-86254819D02*
X151497619Y-86254819D01*
X151497619Y-86254819D02*
X151354762Y-86207200D01*
X151354762Y-86207200D02*
X151259524Y-86111961D01*
X151259524Y-86111961D02*
X151211905Y-86016723D01*
X151211905Y-86016723D02*
X151164286Y-85826247D01*
X151164286Y-85826247D02*
X151164286Y-85683390D01*
X151164286Y-85683390D02*
X151211905Y-85492914D01*
X151211905Y-85492914D02*
X151259524Y-85397676D01*
X151259524Y-85397676D02*
X151354762Y-85302438D01*
X151354762Y-85302438D02*
X151497619Y-85254819D01*
X151497619Y-85254819D02*
X151592857Y-85254819D01*
X151592857Y-85254819D02*
X151735714Y-85302438D01*
X151735714Y-85302438D02*
X151783333Y-85350057D01*
X152735714Y-86254819D02*
X152164286Y-86254819D01*
X152450000Y-86254819D02*
X152450000Y-85254819D01*
X152450000Y-85254819D02*
X152354762Y-85397676D01*
X152354762Y-85397676D02*
X152259524Y-85492914D01*
X152259524Y-85492914D02*
X152164286Y-85540533D01*
X170686666Y-102394819D02*
X170686666Y-103109104D01*
X170686666Y-103109104D02*
X170639047Y-103251961D01*
X170639047Y-103251961D02*
X170543809Y-103347200D01*
X170543809Y-103347200D02*
X170400952Y-103394819D01*
X170400952Y-103394819D02*
X170305714Y-103394819D01*
X171067619Y-102394819D02*
X171686666Y-102394819D01*
X171686666Y-102394819D02*
X171353333Y-102775771D01*
X171353333Y-102775771D02*
X171496190Y-102775771D01*
X171496190Y-102775771D02*
X171591428Y-102823390D01*
X171591428Y-102823390D02*
X171639047Y-102871009D01*
X171639047Y-102871009D02*
X171686666Y-102966247D01*
X171686666Y-102966247D02*
X171686666Y-103204342D01*
X171686666Y-103204342D02*
X171639047Y-103299580D01*
X171639047Y-103299580D02*
X171591428Y-103347200D01*
X171591428Y-103347200D02*
X171496190Y-103394819D01*
X171496190Y-103394819D02*
X171210476Y-103394819D01*
X171210476Y-103394819D02*
X171115238Y-103347200D01*
X171115238Y-103347200D02*
X171067619Y-103299580D01*
X147283333Y-98909580D02*
X147235714Y-98957200D01*
X147235714Y-98957200D02*
X147092857Y-99004819D01*
X147092857Y-99004819D02*
X146997619Y-99004819D01*
X146997619Y-99004819D02*
X146854762Y-98957200D01*
X146854762Y-98957200D02*
X146759524Y-98861961D01*
X146759524Y-98861961D02*
X146711905Y-98766723D01*
X146711905Y-98766723D02*
X146664286Y-98576247D01*
X146664286Y-98576247D02*
X146664286Y-98433390D01*
X146664286Y-98433390D02*
X146711905Y-98242914D01*
X146711905Y-98242914D02*
X146759524Y-98147676D01*
X146759524Y-98147676D02*
X146854762Y-98052438D01*
X146854762Y-98052438D02*
X146997619Y-98004819D01*
X146997619Y-98004819D02*
X147092857Y-98004819D01*
X147092857Y-98004819D02*
X147235714Y-98052438D01*
X147235714Y-98052438D02*
X147283333Y-98100057D01*
X147664286Y-98100057D02*
X147711905Y-98052438D01*
X147711905Y-98052438D02*
X147807143Y-98004819D01*
X147807143Y-98004819D02*
X148045238Y-98004819D01*
X148045238Y-98004819D02*
X148140476Y-98052438D01*
X148140476Y-98052438D02*
X148188095Y-98100057D01*
X148188095Y-98100057D02*
X148235714Y-98195295D01*
X148235714Y-98195295D02*
X148235714Y-98290533D01*
X148235714Y-98290533D02*
X148188095Y-98433390D01*
X148188095Y-98433390D02*
X147616667Y-99004819D01*
X147616667Y-99004819D02*
X148235714Y-99004819D01*
X147283333Y-91659580D02*
X147235714Y-91707200D01*
X147235714Y-91707200D02*
X147092857Y-91754819D01*
X147092857Y-91754819D02*
X146997619Y-91754819D01*
X146997619Y-91754819D02*
X146854762Y-91707200D01*
X146854762Y-91707200D02*
X146759524Y-91611961D01*
X146759524Y-91611961D02*
X146711905Y-91516723D01*
X146711905Y-91516723D02*
X146664286Y-91326247D01*
X146664286Y-91326247D02*
X146664286Y-91183390D01*
X146664286Y-91183390D02*
X146711905Y-90992914D01*
X146711905Y-90992914D02*
X146759524Y-90897676D01*
X146759524Y-90897676D02*
X146854762Y-90802438D01*
X146854762Y-90802438D02*
X146997619Y-90754819D01*
X146997619Y-90754819D02*
X147092857Y-90754819D01*
X147092857Y-90754819D02*
X147235714Y-90802438D01*
X147235714Y-90802438D02*
X147283333Y-90850057D01*
X147759524Y-91754819D02*
X147950000Y-91754819D01*
X147950000Y-91754819D02*
X148045238Y-91707200D01*
X148045238Y-91707200D02*
X148092857Y-91659580D01*
X148092857Y-91659580D02*
X148188095Y-91516723D01*
X148188095Y-91516723D02*
X148235714Y-91326247D01*
X148235714Y-91326247D02*
X148235714Y-90945295D01*
X148235714Y-90945295D02*
X148188095Y-90850057D01*
X148188095Y-90850057D02*
X148140476Y-90802438D01*
X148140476Y-90802438D02*
X148045238Y-90754819D01*
X148045238Y-90754819D02*
X147854762Y-90754819D01*
X147854762Y-90754819D02*
X147759524Y-90802438D01*
X147759524Y-90802438D02*
X147711905Y-90850057D01*
X147711905Y-90850057D02*
X147664286Y-90945295D01*
X147664286Y-90945295D02*
X147664286Y-91183390D01*
X147664286Y-91183390D02*
X147711905Y-91278628D01*
X147711905Y-91278628D02*
X147759524Y-91326247D01*
X147759524Y-91326247D02*
X147854762Y-91373866D01*
X147854762Y-91373866D02*
X148045238Y-91373866D01*
X148045238Y-91373866D02*
X148140476Y-91326247D01*
X148140476Y-91326247D02*
X148188095Y-91278628D01*
X148188095Y-91278628D02*
X148235714Y-91183390D01*
X138166666Y-115504819D02*
X137833333Y-115028628D01*
X137595238Y-115504819D02*
X137595238Y-114504819D01*
X137595238Y-114504819D02*
X137976190Y-114504819D01*
X137976190Y-114504819D02*
X138071428Y-114552438D01*
X138071428Y-114552438D02*
X138119047Y-114600057D01*
X138119047Y-114600057D02*
X138166666Y-114695295D01*
X138166666Y-114695295D02*
X138166666Y-114838152D01*
X138166666Y-114838152D02*
X138119047Y-114933390D01*
X138119047Y-114933390D02*
X138071428Y-114981009D01*
X138071428Y-114981009D02*
X137976190Y-115028628D01*
X137976190Y-115028628D02*
X137595238Y-115028628D01*
X138595238Y-114981009D02*
X138928571Y-114981009D01*
X139071428Y-115504819D02*
X138595238Y-115504819D01*
X138595238Y-115504819D02*
X138595238Y-114504819D01*
X138595238Y-114504819D02*
X139071428Y-114504819D01*
X139833333Y-114981009D02*
X139500000Y-114981009D01*
X139500000Y-115504819D02*
X139500000Y-114504819D01*
X139500000Y-114504819D02*
X139976190Y-114504819D01*
X140500000Y-114504819D02*
X140500000Y-114742914D01*
X140261905Y-114647676D02*
X140500000Y-114742914D01*
X140500000Y-114742914D02*
X140738095Y-114647676D01*
X140357143Y-114933390D02*
X140500000Y-114742914D01*
X140500000Y-114742914D02*
X140642857Y-114933390D01*
X141261905Y-114504819D02*
X141261905Y-114742914D01*
X141023810Y-114647676D02*
X141261905Y-114742914D01*
X141261905Y-114742914D02*
X141500000Y-114647676D01*
X141119048Y-114933390D02*
X141261905Y-114742914D01*
X141261905Y-114742914D02*
X141404762Y-114933390D01*
X164629166Y-85501009D02*
X164295833Y-85501009D01*
X164295833Y-86024819D02*
X164295833Y-85024819D01*
X164295833Y-85024819D02*
X164772023Y-85024819D01*
X165676785Y-86024819D02*
X165105357Y-86024819D01*
X165391071Y-86024819D02*
X165391071Y-85024819D01*
X165391071Y-85024819D02*
X165295833Y-85167676D01*
X165295833Y-85167676D02*
X165200595Y-85262914D01*
X165200595Y-85262914D02*
X165105357Y-85310533D01*
X165511905Y-117204819D02*
X165511905Y-116204819D01*
X165511905Y-116204819D02*
X165750000Y-116204819D01*
X165750000Y-116204819D02*
X165892857Y-116252438D01*
X165892857Y-116252438D02*
X165988095Y-116347676D01*
X165988095Y-116347676D02*
X166035714Y-116442914D01*
X166035714Y-116442914D02*
X166083333Y-116633390D01*
X166083333Y-116633390D02*
X166083333Y-116776247D01*
X166083333Y-116776247D02*
X166035714Y-116966723D01*
X166035714Y-116966723D02*
X165988095Y-117061961D01*
X165988095Y-117061961D02*
X165892857Y-117157200D01*
X165892857Y-117157200D02*
X165750000Y-117204819D01*
X165750000Y-117204819D02*
X165511905Y-117204819D01*
X167035714Y-117204819D02*
X166464286Y-117204819D01*
X166750000Y-117204819D02*
X166750000Y-116204819D01*
X166750000Y-116204819D02*
X166654762Y-116347676D01*
X166654762Y-116347676D02*
X166559524Y-116442914D01*
X166559524Y-116442914D02*
X166464286Y-116490533D01*
X159206666Y-102894819D02*
X159206666Y-103609104D01*
X159206666Y-103609104D02*
X159159047Y-103751961D01*
X159159047Y-103751961D02*
X159063809Y-103847200D01*
X159063809Y-103847200D02*
X158920952Y-103894819D01*
X158920952Y-103894819D02*
X158825714Y-103894819D01*
X160206666Y-103894819D02*
X159635238Y-103894819D01*
X159920952Y-103894819D02*
X159920952Y-102894819D01*
X159920952Y-102894819D02*
X159825714Y-103037676D01*
X159825714Y-103037676D02*
X159730476Y-103132914D01*
X159730476Y-103132914D02*
X159635238Y-103180533D01*
X139033333Y-98159580D02*
X138985714Y-98207200D01*
X138985714Y-98207200D02*
X138842857Y-98254819D01*
X138842857Y-98254819D02*
X138747619Y-98254819D01*
X138747619Y-98254819D02*
X138604762Y-98207200D01*
X138604762Y-98207200D02*
X138509524Y-98111961D01*
X138509524Y-98111961D02*
X138461905Y-98016723D01*
X138461905Y-98016723D02*
X138414286Y-97826247D01*
X138414286Y-97826247D02*
X138414286Y-97683390D01*
X138414286Y-97683390D02*
X138461905Y-97492914D01*
X138461905Y-97492914D02*
X138509524Y-97397676D01*
X138509524Y-97397676D02*
X138604762Y-97302438D01*
X138604762Y-97302438D02*
X138747619Y-97254819D01*
X138747619Y-97254819D02*
X138842857Y-97254819D01*
X138842857Y-97254819D02*
X138985714Y-97302438D01*
X138985714Y-97302438D02*
X139033333Y-97350057D01*
X139938095Y-97254819D02*
X139461905Y-97254819D01*
X139461905Y-97254819D02*
X139414286Y-97731009D01*
X139414286Y-97731009D02*
X139461905Y-97683390D01*
X139461905Y-97683390D02*
X139557143Y-97635771D01*
X139557143Y-97635771D02*
X139795238Y-97635771D01*
X139795238Y-97635771D02*
X139890476Y-97683390D01*
X139890476Y-97683390D02*
X139938095Y-97731009D01*
X139938095Y-97731009D02*
X139985714Y-97826247D01*
X139985714Y-97826247D02*
X139985714Y-98064342D01*
X139985714Y-98064342D02*
X139938095Y-98159580D01*
X139938095Y-98159580D02*
X139890476Y-98207200D01*
X139890476Y-98207200D02*
X139795238Y-98254819D01*
X139795238Y-98254819D02*
X139557143Y-98254819D01*
X139557143Y-98254819D02*
X139461905Y-98207200D01*
X139461905Y-98207200D02*
X139414286Y-98159580D01*
X139283333Y-91659580D02*
X139235714Y-91707200D01*
X139235714Y-91707200D02*
X139092857Y-91754819D01*
X139092857Y-91754819D02*
X138997619Y-91754819D01*
X138997619Y-91754819D02*
X138854762Y-91707200D01*
X138854762Y-91707200D02*
X138759524Y-91611961D01*
X138759524Y-91611961D02*
X138711905Y-91516723D01*
X138711905Y-91516723D02*
X138664286Y-91326247D01*
X138664286Y-91326247D02*
X138664286Y-91183390D01*
X138664286Y-91183390D02*
X138711905Y-90992914D01*
X138711905Y-90992914D02*
X138759524Y-90897676D01*
X138759524Y-90897676D02*
X138854762Y-90802438D01*
X138854762Y-90802438D02*
X138997619Y-90754819D01*
X138997619Y-90754819D02*
X139092857Y-90754819D01*
X139092857Y-90754819D02*
X139235714Y-90802438D01*
X139235714Y-90802438D02*
X139283333Y-90850057D01*
X139854762Y-91183390D02*
X139759524Y-91135771D01*
X139759524Y-91135771D02*
X139711905Y-91088152D01*
X139711905Y-91088152D02*
X139664286Y-90992914D01*
X139664286Y-90992914D02*
X139664286Y-90945295D01*
X139664286Y-90945295D02*
X139711905Y-90850057D01*
X139711905Y-90850057D02*
X139759524Y-90802438D01*
X139759524Y-90802438D02*
X139854762Y-90754819D01*
X139854762Y-90754819D02*
X140045238Y-90754819D01*
X140045238Y-90754819D02*
X140140476Y-90802438D01*
X140140476Y-90802438D02*
X140188095Y-90850057D01*
X140188095Y-90850057D02*
X140235714Y-90945295D01*
X140235714Y-90945295D02*
X140235714Y-90992914D01*
X140235714Y-90992914D02*
X140188095Y-91088152D01*
X140188095Y-91088152D02*
X140140476Y-91135771D01*
X140140476Y-91135771D02*
X140045238Y-91183390D01*
X140045238Y-91183390D02*
X139854762Y-91183390D01*
X139854762Y-91183390D02*
X139759524Y-91231009D01*
X139759524Y-91231009D02*
X139711905Y-91278628D01*
X139711905Y-91278628D02*
X139664286Y-91373866D01*
X139664286Y-91373866D02*
X139664286Y-91564342D01*
X139664286Y-91564342D02*
X139711905Y-91659580D01*
X139711905Y-91659580D02*
X139759524Y-91707200D01*
X139759524Y-91707200D02*
X139854762Y-91754819D01*
X139854762Y-91754819D02*
X140045238Y-91754819D01*
X140045238Y-91754819D02*
X140140476Y-91707200D01*
X140140476Y-91707200D02*
X140188095Y-91659580D01*
X140188095Y-91659580D02*
X140235714Y-91564342D01*
X140235714Y-91564342D02*
X140235714Y-91373866D01*
X140235714Y-91373866D02*
X140188095Y-91278628D01*
X140188095Y-91278628D02*
X140140476Y-91231009D01*
X140140476Y-91231009D02*
X140045238Y-91183390D01*
X131533333Y-98409580D02*
X131485714Y-98457200D01*
X131485714Y-98457200D02*
X131342857Y-98504819D01*
X131342857Y-98504819D02*
X131247619Y-98504819D01*
X131247619Y-98504819D02*
X131104762Y-98457200D01*
X131104762Y-98457200D02*
X131009524Y-98361961D01*
X131009524Y-98361961D02*
X130961905Y-98266723D01*
X130961905Y-98266723D02*
X130914286Y-98076247D01*
X130914286Y-98076247D02*
X130914286Y-97933390D01*
X130914286Y-97933390D02*
X130961905Y-97742914D01*
X130961905Y-97742914D02*
X131009524Y-97647676D01*
X131009524Y-97647676D02*
X131104762Y-97552438D01*
X131104762Y-97552438D02*
X131247619Y-97504819D01*
X131247619Y-97504819D02*
X131342857Y-97504819D01*
X131342857Y-97504819D02*
X131485714Y-97552438D01*
X131485714Y-97552438D02*
X131533333Y-97600057D01*
X131866667Y-97504819D02*
X132533333Y-97504819D01*
X132533333Y-97504819D02*
X132104762Y-98504819D01*
X147283333Y-112409580D02*
X147235714Y-112457200D01*
X147235714Y-112457200D02*
X147092857Y-112504819D01*
X147092857Y-112504819D02*
X146997619Y-112504819D01*
X146997619Y-112504819D02*
X146854762Y-112457200D01*
X146854762Y-112457200D02*
X146759524Y-112361961D01*
X146759524Y-112361961D02*
X146711905Y-112266723D01*
X146711905Y-112266723D02*
X146664286Y-112076247D01*
X146664286Y-112076247D02*
X146664286Y-111933390D01*
X146664286Y-111933390D02*
X146711905Y-111742914D01*
X146711905Y-111742914D02*
X146759524Y-111647676D01*
X146759524Y-111647676D02*
X146854762Y-111552438D01*
X146854762Y-111552438D02*
X146997619Y-111504819D01*
X146997619Y-111504819D02*
X147092857Y-111504819D01*
X147092857Y-111504819D02*
X147235714Y-111552438D01*
X147235714Y-111552438D02*
X147283333Y-111600057D01*
X148140476Y-111838152D02*
X148140476Y-112504819D01*
X147902381Y-111457200D02*
X147664286Y-112171485D01*
X147664286Y-112171485D02*
X148283333Y-112171485D01*
X139033333Y-106159580D02*
X138985714Y-106207200D01*
X138985714Y-106207200D02*
X138842857Y-106254819D01*
X138842857Y-106254819D02*
X138747619Y-106254819D01*
X138747619Y-106254819D02*
X138604762Y-106207200D01*
X138604762Y-106207200D02*
X138509524Y-106111961D01*
X138509524Y-106111961D02*
X138461905Y-106016723D01*
X138461905Y-106016723D02*
X138414286Y-105826247D01*
X138414286Y-105826247D02*
X138414286Y-105683390D01*
X138414286Y-105683390D02*
X138461905Y-105492914D01*
X138461905Y-105492914D02*
X138509524Y-105397676D01*
X138509524Y-105397676D02*
X138604762Y-105302438D01*
X138604762Y-105302438D02*
X138747619Y-105254819D01*
X138747619Y-105254819D02*
X138842857Y-105254819D01*
X138842857Y-105254819D02*
X138985714Y-105302438D01*
X138985714Y-105302438D02*
X139033333Y-105350057D01*
X139890476Y-105254819D02*
X139700000Y-105254819D01*
X139700000Y-105254819D02*
X139604762Y-105302438D01*
X139604762Y-105302438D02*
X139557143Y-105350057D01*
X139557143Y-105350057D02*
X139461905Y-105492914D01*
X139461905Y-105492914D02*
X139414286Y-105683390D01*
X139414286Y-105683390D02*
X139414286Y-106064342D01*
X139414286Y-106064342D02*
X139461905Y-106159580D01*
X139461905Y-106159580D02*
X139509524Y-106207200D01*
X139509524Y-106207200D02*
X139604762Y-106254819D01*
X139604762Y-106254819D02*
X139795238Y-106254819D01*
X139795238Y-106254819D02*
X139890476Y-106207200D01*
X139890476Y-106207200D02*
X139938095Y-106159580D01*
X139938095Y-106159580D02*
X139985714Y-106064342D01*
X139985714Y-106064342D02*
X139985714Y-105826247D01*
X139985714Y-105826247D02*
X139938095Y-105731009D01*
X139938095Y-105731009D02*
X139890476Y-105683390D01*
X139890476Y-105683390D02*
X139795238Y-105635771D01*
X139795238Y-105635771D02*
X139604762Y-105635771D01*
X139604762Y-105635771D02*
X139509524Y-105683390D01*
X139509524Y-105683390D02*
X139461905Y-105731009D01*
X139461905Y-105731009D02*
X139414286Y-105826247D01*
X156416666Y-92754819D02*
X156083333Y-92278628D01*
X155845238Y-92754819D02*
X155845238Y-91754819D01*
X155845238Y-91754819D02*
X156226190Y-91754819D01*
X156226190Y-91754819D02*
X156321428Y-91802438D01*
X156321428Y-91802438D02*
X156369047Y-91850057D01*
X156369047Y-91850057D02*
X156416666Y-91945295D01*
X156416666Y-91945295D02*
X156416666Y-92088152D01*
X156416666Y-92088152D02*
X156369047Y-92183390D01*
X156369047Y-92183390D02*
X156321428Y-92231009D01*
X156321428Y-92231009D02*
X156226190Y-92278628D01*
X156226190Y-92278628D02*
X155845238Y-92278628D01*
X156845238Y-92231009D02*
X157178571Y-92231009D01*
X157321428Y-92754819D02*
X156845238Y-92754819D01*
X156845238Y-92754819D02*
X156845238Y-91754819D01*
X156845238Y-91754819D02*
X157321428Y-91754819D01*
X158083333Y-92231009D02*
X157750000Y-92231009D01*
X157750000Y-92754819D02*
X157750000Y-91754819D01*
X157750000Y-91754819D02*
X158226190Y-91754819D01*
X158750000Y-91754819D02*
X158750000Y-91992914D01*
X158511905Y-91897676D02*
X158750000Y-91992914D01*
X158750000Y-91992914D02*
X158988095Y-91897676D01*
X158607143Y-92183390D02*
X158750000Y-91992914D01*
X158750000Y-91992914D02*
X158892857Y-92183390D01*
X159511905Y-91754819D02*
X159511905Y-91992914D01*
X159273810Y-91897676D02*
X159511905Y-91992914D01*
X159511905Y-91992914D02*
X159750000Y-91897676D01*
X159369048Y-92183390D02*
X159511905Y-91992914D01*
X159511905Y-91992914D02*
X159654762Y-92183390D01*
X147283333Y-105409580D02*
X147235714Y-105457200D01*
X147235714Y-105457200D02*
X147092857Y-105504819D01*
X147092857Y-105504819D02*
X146997619Y-105504819D01*
X146997619Y-105504819D02*
X146854762Y-105457200D01*
X146854762Y-105457200D02*
X146759524Y-105361961D01*
X146759524Y-105361961D02*
X146711905Y-105266723D01*
X146711905Y-105266723D02*
X146664286Y-105076247D01*
X146664286Y-105076247D02*
X146664286Y-104933390D01*
X146664286Y-104933390D02*
X146711905Y-104742914D01*
X146711905Y-104742914D02*
X146759524Y-104647676D01*
X146759524Y-104647676D02*
X146854762Y-104552438D01*
X146854762Y-104552438D02*
X146997619Y-104504819D01*
X146997619Y-104504819D02*
X147092857Y-104504819D01*
X147092857Y-104504819D02*
X147235714Y-104552438D01*
X147235714Y-104552438D02*
X147283333Y-104600057D01*
X147616667Y-104504819D02*
X148235714Y-104504819D01*
X148235714Y-104504819D02*
X147902381Y-104885771D01*
X147902381Y-104885771D02*
X148045238Y-104885771D01*
X148045238Y-104885771D02*
X148140476Y-104933390D01*
X148140476Y-104933390D02*
X148188095Y-104981009D01*
X148188095Y-104981009D02*
X148235714Y-105076247D01*
X148235714Y-105076247D02*
X148235714Y-105314342D01*
X148235714Y-105314342D02*
X148188095Y-105409580D01*
X148188095Y-105409580D02*
X148140476Y-105457200D01*
X148140476Y-105457200D02*
X148045238Y-105504819D01*
X148045238Y-105504819D02*
X147759524Y-105504819D01*
X147759524Y-105504819D02*
X147664286Y-105457200D01*
X147664286Y-105457200D02*
X147616667Y-105409580D01*
D11*
%TO.C,J4*%
X165940000Y-93000000D02*
X165940000Y-97000000D01*
X166230000Y-89780000D02*
X174230000Y-89780000D01*
X166230000Y-99005000D02*
X166230000Y-89780000D01*
X167450000Y-89780000D02*
X167450000Y-90380000D01*
X167450000Y-90380000D02*
X169050000Y-90380000D01*
X168135000Y-99005000D02*
X166230000Y-99005000D01*
X168135000Y-100010000D02*
X168135000Y-99005000D01*
X168250000Y-97340000D02*
X172210000Y-97340000D01*
X168250000Y-99010000D02*
X168250000Y-97340000D01*
X168250000Y-99010000D02*
X172210000Y-99010000D01*
X168250000Y-100010000D02*
X168250000Y-99010000D01*
X169050000Y-90380000D02*
X169050000Y-89780000D01*
X171410000Y-89780000D02*
X171410000Y-90380000D01*
X171410000Y-90380000D02*
X173010000Y-90380000D01*
X172210000Y-97340000D02*
X172210000Y-99010000D01*
X172210000Y-99010000D02*
X172210000Y-100010000D01*
X172325000Y-99005000D02*
X172325000Y-100010000D01*
X172325000Y-100010000D02*
X168135000Y-100010000D01*
X173010000Y-90380000D02*
X173010000Y-89780000D01*
X174230000Y-89780000D02*
X174230000Y-99005000D01*
X174230000Y-99005000D02*
X172325000Y-99005000D01*
%TO.C,Q1*%
X161780000Y-84650000D02*
X158180000Y-84650000D01*
X159980000Y-89100000D02*
G75*
G02*
X158141522Y-84661522I0J2600000D01*
G01*
X161818478Y-84661522D02*
G75*
G02*
X159980000Y-89100001I-1838478J-1838478D01*
G01*
%TO.C,J2*%
X132280000Y-82520000D02*
X141505000Y-82520000D01*
X132280000Y-85340000D02*
X132880000Y-85340000D01*
X132280000Y-89300000D02*
X132880000Y-89300000D01*
X132280000Y-90520000D02*
X132280000Y-82520000D01*
X132880000Y-83740000D02*
X132280000Y-83740000D01*
X132880000Y-85340000D02*
X132880000Y-83740000D01*
X132880000Y-87700000D02*
X132280000Y-87700000D01*
X132880000Y-89300000D02*
X132880000Y-87700000D01*
X135500000Y-90810000D02*
X139500000Y-90810000D01*
X139840000Y-84540000D02*
X141510000Y-84540000D01*
X139840000Y-88500000D02*
X139840000Y-84540000D01*
X141505000Y-82520000D02*
X141505000Y-84425000D01*
X141505000Y-84425000D02*
X142510000Y-84425000D01*
X141505000Y-88615000D02*
X141505000Y-90520000D01*
X141505000Y-90520000D02*
X132280000Y-90520000D01*
X141510000Y-84540000D02*
X142510000Y-84540000D01*
X141510000Y-88500000D02*
X139840000Y-88500000D01*
X141510000Y-88500000D02*
X141510000Y-84540000D01*
X142510000Y-84425000D02*
X142510000Y-88615000D01*
X142510000Y-88500000D02*
X141510000Y-88500000D01*
X142510000Y-88615000D02*
X141505000Y-88615000D01*
%TO.C,C1*%
X148950000Y-87440000D02*
X149450000Y-87440000D01*
X149200000Y-87190000D02*
X149200000Y-87690000D01*
X149690000Y-87804437D02*
X149690000Y-87940000D01*
X149690000Y-87804437D02*
X150754437Y-86740000D01*
X149690000Y-90195563D02*
X149690000Y-90060000D01*
X149690000Y-90195563D02*
X150754437Y-91260000D01*
X150754437Y-86740000D02*
X154210000Y-86740000D01*
X150754437Y-91260000D02*
X154210000Y-91260000D01*
X154210000Y-86740000D02*
X154210000Y-87940000D01*
X154210000Y-91260000D02*
X154210000Y-90060000D01*
%TO.C,J3*%
X166730000Y-107250000D02*
X166730000Y-111250000D01*
X167020000Y-104030000D02*
X175020000Y-104030000D01*
X167020000Y-113255000D02*
X167020000Y-104030000D01*
X168240000Y-104030000D02*
X168240000Y-104630000D01*
X168240000Y-104630000D02*
X169840000Y-104630000D01*
X168925000Y-113255000D02*
X167020000Y-113255000D01*
X168925000Y-114260000D02*
X168925000Y-113255000D01*
X169040000Y-111590000D02*
X173000000Y-111590000D01*
X169040000Y-113260000D02*
X169040000Y-111590000D01*
X169040000Y-113260000D02*
X173000000Y-113260000D01*
X169040000Y-114260000D02*
X169040000Y-113260000D01*
X169840000Y-104630000D02*
X169840000Y-104030000D01*
X172200000Y-104030000D02*
X172200000Y-104630000D01*
X172200000Y-104630000D02*
X173800000Y-104630000D01*
X173000000Y-111590000D02*
X173000000Y-113260000D01*
X173000000Y-113260000D02*
X173000000Y-114260000D01*
X173115000Y-113255000D02*
X173115000Y-114260000D01*
X173115000Y-114260000D02*
X168925000Y-114260000D01*
X173800000Y-104630000D02*
X173800000Y-104030000D01*
X175020000Y-104030000D02*
X175020000Y-113255000D01*
X175020000Y-113255000D02*
X173115000Y-113255000D01*
%TO.C,C2*%
X144450000Y-100190000D02*
X144950000Y-100190000D01*
X144700000Y-99940000D02*
X144700000Y-100440000D01*
X145190000Y-100554437D02*
X145190000Y-100690000D01*
X145190000Y-100554437D02*
X146254437Y-99490000D01*
X145190000Y-102945563D02*
X145190000Y-102810000D01*
X145190000Y-102945563D02*
X146254437Y-104010000D01*
X146254437Y-99490000D02*
X149710000Y-99490000D01*
X146254437Y-104010000D02*
X149710000Y-104010000D01*
X149710000Y-99490000D02*
X149710000Y-100690000D01*
X149710000Y-104010000D02*
X149710000Y-102810000D01*
%TO.C,C9*%
X144450000Y-92940000D02*
X144950000Y-92940000D01*
X144700000Y-92690000D02*
X144700000Y-93190000D01*
X145190000Y-93304437D02*
X145190000Y-93440000D01*
X145190000Y-93304437D02*
X146254437Y-92240000D01*
X145190000Y-95695563D02*
X145190000Y-95560000D01*
X145190000Y-95695563D02*
X146254437Y-96760000D01*
X146254437Y-92240000D02*
X149710000Y-92240000D01*
X146254437Y-96760000D02*
X149710000Y-96760000D01*
X149710000Y-92240000D02*
X149710000Y-93440000D01*
X149710000Y-96760000D02*
X149710000Y-95560000D01*
%TO.C,F1*%
X164799721Y-86490000D02*
X165125279Y-86490000D01*
X164799721Y-87510000D02*
X165125279Y-87510000D01*
%TO.C,D1*%
X162850000Y-117600000D02*
X162850000Y-120900000D01*
X162850000Y-117600000D02*
X168250000Y-117600000D01*
X162850000Y-120900000D02*
X168250000Y-120900000D01*
%TO.C,J1*%
X153270000Y-107750000D02*
X153270000Y-111750000D01*
X153560000Y-104530000D02*
X165520000Y-104530000D01*
X153560000Y-113755000D02*
X153560000Y-104530000D01*
X154780000Y-104530000D02*
X154780000Y-105130000D01*
X154780000Y-105130000D02*
X156380000Y-105130000D01*
X155465000Y-113755000D02*
X153560000Y-113755000D01*
X155465000Y-114760000D02*
X155465000Y-113755000D01*
X155580000Y-112090000D02*
X163500000Y-112090000D01*
X155580000Y-113760000D02*
X155580000Y-112090000D01*
X155580000Y-113760000D02*
X163500000Y-113760000D01*
X155580000Y-114760000D02*
X155580000Y-113760000D01*
X156380000Y-105130000D02*
X156380000Y-104530000D01*
X158740000Y-104530000D02*
X158740000Y-105130000D01*
X158740000Y-105130000D02*
X160340000Y-105130000D01*
X160340000Y-105130000D02*
X160340000Y-104530000D01*
X162700000Y-104530000D02*
X162700000Y-105130000D01*
X162700000Y-105130000D02*
X164300000Y-105130000D01*
X163500000Y-112090000D02*
X163500000Y-113760000D01*
X163500000Y-113760000D02*
X163500000Y-114760000D01*
X163615000Y-113755000D02*
X163615000Y-114760000D01*
X163615000Y-114760000D02*
X155465000Y-114760000D01*
X164300000Y-105130000D02*
X164300000Y-104530000D01*
X165520000Y-104530000D02*
X165520000Y-113755000D01*
X165520000Y-113755000D02*
X163615000Y-113755000D01*
%TO.C,C5*%
X136200000Y-99440000D02*
X136700000Y-99440000D01*
X136450000Y-99190000D02*
X136450000Y-99690000D01*
X136940000Y-99804437D02*
X136940000Y-99940000D01*
X136940000Y-99804437D02*
X138004437Y-98740000D01*
X136940000Y-102195563D02*
X136940000Y-102060000D01*
X136940000Y-102195563D02*
X138004437Y-103260000D01*
X138004437Y-98740000D02*
X141460000Y-98740000D01*
X138004437Y-103260000D02*
X141460000Y-103260000D01*
X141460000Y-98740000D02*
X141460000Y-99940000D01*
X141460000Y-103260000D02*
X141460000Y-102060000D01*
%TO.C,C8*%
X136450000Y-92940000D02*
X136950000Y-92940000D01*
X136700000Y-92690000D02*
X136700000Y-93190000D01*
X137190000Y-93304437D02*
X137190000Y-93440000D01*
X137190000Y-93304437D02*
X138254437Y-92240000D01*
X137190000Y-95695563D02*
X137190000Y-95560000D01*
X137190000Y-95695563D02*
X138254437Y-96760000D01*
X138254437Y-92240000D02*
X141710000Y-92240000D01*
X138254437Y-96760000D02*
X141710000Y-96760000D01*
X141710000Y-92240000D02*
X141710000Y-93440000D01*
X141710000Y-96760000D02*
X141710000Y-95560000D01*
%TO.C,C7*%
X128700000Y-99440000D02*
X129200000Y-99440000D01*
X128950000Y-99190000D02*
X128950000Y-99690000D01*
X129440000Y-99804437D02*
X129440000Y-99940000D01*
X129440000Y-99804437D02*
X130504437Y-98740000D01*
X129440000Y-102195563D02*
X129440000Y-102060000D01*
X129440000Y-102195563D02*
X130504437Y-103260000D01*
X130504437Y-98740000D02*
X133960000Y-98740000D01*
X130504437Y-103260000D02*
X133960000Y-103260000D01*
X133960000Y-98740000D02*
X133960000Y-99940000D01*
X133960000Y-103260000D02*
X133960000Y-102060000D01*
%TO.C,C4*%
X144450000Y-113690000D02*
X144950000Y-113690000D01*
X144700000Y-113440000D02*
X144700000Y-113940000D01*
X145190000Y-114054437D02*
X145190000Y-114190000D01*
X145190000Y-114054437D02*
X146254437Y-112990000D01*
X145190000Y-116445563D02*
X145190000Y-116310000D01*
X145190000Y-116445563D02*
X146254437Y-117510000D01*
X146254437Y-112990000D02*
X149710000Y-112990000D01*
X146254437Y-117510000D02*
X149710000Y-117510000D01*
X149710000Y-112990000D02*
X149710000Y-114190000D01*
X149710000Y-117510000D02*
X149710000Y-116310000D01*
%TO.C,C6*%
X136200000Y-107440000D02*
X136700000Y-107440000D01*
X136450000Y-107190000D02*
X136450000Y-107690000D01*
X136940000Y-107804437D02*
X136940000Y-107940000D01*
X136940000Y-107804437D02*
X138004437Y-106740000D01*
X136940000Y-110195563D02*
X136940000Y-110060000D01*
X136940000Y-110195563D02*
X138004437Y-111260000D01*
X138004437Y-106740000D02*
X141460000Y-106740000D01*
X138004437Y-111260000D02*
X141460000Y-111260000D01*
X141460000Y-106740000D02*
X141460000Y-107940000D01*
X141460000Y-111260000D02*
X141460000Y-110060000D01*
%TO.C,C3*%
X144450000Y-106690000D02*
X144950000Y-106690000D01*
X144700000Y-106440000D02*
X144700000Y-106940000D01*
X145190000Y-107054437D02*
X145190000Y-107190000D01*
X145190000Y-107054437D02*
X146254437Y-105990000D01*
X145190000Y-109445563D02*
X145190000Y-109310000D01*
X145190000Y-109445563D02*
X146254437Y-110510000D01*
X146254437Y-105990000D02*
X149710000Y-105990000D01*
X146254437Y-110510000D02*
X149710000Y-110510000D01*
X149710000Y-105990000D02*
X149710000Y-107190000D01*
X149710000Y-110510000D02*
X149710000Y-109310000D01*
%TD*%
M02*
