%TF.GenerationSoftware,KiCad,Pcbnew,8.0.9*%
%TF.CreationDate,2025-09-30T19:49:28-05:00*%
%TF.ProjectId,horns,686f726e-732e-46b6-9963-61645f706362,1.0.0*%
%TF.SameCoordinates,Original*%
%TF.FileFunction,Copper,L1,Top*%
%TF.FilePolarity,Positive*%
%FSLAX46Y46*%
G04 Gerber Fmt 4.6, Leading zero omitted, Abs format (unit mm)*
G04 Created by KiCad (PCBNEW 8.0.9) date 2025-09-30 19:49:28*
%MOMM*%
%LPD*%
G01*
G04 APERTURE LIST*
G04 Aperture macros list*
%AMRoundRect*
0 Rectangle with rounded corners*
0 $1 Rounding radius*
0 $2 $3 $4 $5 $6 $7 $8 $9 X,Y pos of 4 corners*
0 Add a 4 corners polygon primitive as box body*
4,1,4,$2,$3,$4,$5,$6,$7,$8,$9,$2,$3,0*
0 Add four circle primitives for the rounded corners*
1,1,$1+$1,$2,$3*
1,1,$1+$1,$4,$5*
1,1,$1+$1,$6,$7*
1,1,$1+$1,$8,$9*
0 Add four rect primitives between the rounded corners*
20,1,$1+$1,$2,$3,$4,$5,0*
20,1,$1+$1,$4,$5,$6,$7,0*
20,1,$1+$1,$6,$7,$8,$9,0*
20,1,$1+$1,$8,$9,$2,$3,0*%
G04 Aperture macros list end*
%TA.AperFunction,SMDPad,CuDef*%
%ADD10RoundRect,0.250000X-0.475000X0.250000X-0.475000X-0.250000X0.475000X-0.250000X0.475000X0.250000X0*%
%TD*%
%TA.AperFunction,SMDPad,CuDef*%
%ADD11RoundRect,0.250000X0.250000X0.475000X-0.250000X0.475000X-0.250000X-0.475000X0.250000X-0.475000X0*%
%TD*%
%TA.AperFunction,SMDPad,CuDef*%
%ADD12R,1.200000X2.200000*%
%TD*%
%TA.AperFunction,SMDPad,CuDef*%
%ADD13R,5.800000X6.400000*%
%TD*%
%TA.AperFunction,SMDPad,CuDef*%
%ADD14RoundRect,0.250000X0.625000X-0.375000X0.625000X0.375000X-0.625000X0.375000X-0.625000X-0.375000X0*%
%TD*%
%TA.AperFunction,ComponentPad*%
%ADD15RoundRect,0.250000X0.845000X-0.620000X0.845000X0.620000X-0.845000X0.620000X-0.845000X-0.620000X0*%
%TD*%
%TA.AperFunction,ComponentPad*%
%ADD16O,2.190000X1.740000*%
%TD*%
%TA.AperFunction,SMDPad,CuDef*%
%ADD17R,1.800000X2.500000*%
%TD*%
%TA.AperFunction,ComponentPad*%
%ADD18RoundRect,0.250000X0.620000X0.845000X-0.620000X0.845000X-0.620000X-0.845000X0.620000X-0.845000X0*%
%TD*%
%TA.AperFunction,ComponentPad*%
%ADD19O,1.740000X2.190000*%
%TD*%
%TA.AperFunction,ComponentPad*%
%ADD20RoundRect,0.250000X-0.620000X-0.845000X0.620000X-0.845000X0.620000X0.845000X-0.620000X0.845000X0*%
%TD*%
%TA.AperFunction,SMDPad,CuDef*%
%ADD21RoundRect,0.237500X-0.237500X0.250000X-0.237500X-0.250000X0.237500X-0.250000X0.237500X0.250000X0*%
%TD*%
%TA.AperFunction,ComponentPad*%
%ADD22C,1.500000*%
%TD*%
%TA.AperFunction,ViaPad*%
%ADD23C,0.800000*%
%TD*%
%TA.AperFunction,Conductor*%
%ADD24C,0.250000*%
%TD*%
G04 APERTURE END LIST*
D10*
%TO.P,C2,1*%
%TO.N,GND*%
X120000000Y-102000000D03*
%TO.P,C2,2*%
%TO.N,+24V*%
X120000000Y-103900000D03*
%TD*%
D11*
%TO.P,C5,1*%
%TO.N,GND*%
X113000000Y-99030000D03*
%TO.P,C5,2*%
%TO.N,+24V*%
X111100000Y-99030000D03*
%TD*%
%TO.P,C8-C4,1*%
%TO.N,GND*%
X112000000Y-90000000D03*
%TO.P,C8-C4,2*%
%TO.N,+24V*%
X110100000Y-90000000D03*
%TD*%
D12*
%TO.P,Q1,1,D*%
%TO.N,/HORN_IN*%
X119720000Y-72300000D03*
D13*
%TO.P,Q1,2,S*%
%TO.N,GND*%
X122000000Y-66000000D03*
D12*
%TO.P,Q1,3,G*%
%TO.N,/HORNS_CTRL*%
X124280000Y-72300000D03*
%TD*%
D14*
%TO.P,F1,1*%
%TO.N,Net-(D2-A)*%
X120000000Y-78000000D03*
%TO.P,F1,2*%
%TO.N,/HORN_IN*%
X120000000Y-75200000D03*
%TD*%
D15*
%TO.P,J4,1,Pin_1*%
%TO.N,+24V*%
X114000000Y-85540000D03*
D16*
%TO.P,J4,2,Pin_2*%
%TO.N,Net-(J3-Pin_1)*%
X114000000Y-83000000D03*
%TD*%
D11*
%TO.P,C4,1*%
%TO.N,GND*%
X115000000Y-102030000D03*
%TO.P,C4,2*%
%TO.N,+24V*%
X113100000Y-102030000D03*
%TD*%
D17*
%TO.P,D2,1,K*%
%TO.N,+24V*%
X124000000Y-80000000D03*
%TO.P,D2,2,A*%
%TO.N,Net-(D2-A)*%
X124000000Y-76000000D03*
%TD*%
D10*
%TO.P,C3,1*%
%TO.N,GND*%
X117000000Y-102000000D03*
%TO.P,C3,2*%
%TO.N,+24V*%
X117000000Y-103900000D03*
%TD*%
D11*
%TO.P,C7,1*%
%TO.N,GND*%
X112000000Y-93010000D03*
%TO.P,C7,2*%
%TO.N,+24V*%
X110100000Y-93010000D03*
%TD*%
%TO.P,C10,1*%
%TO.N,GND*%
X130900000Y-77000000D03*
%TO.P,C10,2*%
%TO.N,Net-(C10-Pad2)*%
X129000000Y-77000000D03*
%TD*%
D18*
%TO.P,J1,1,Pin_1*%
%TO.N,GND*%
X125000000Y-86000000D03*
D19*
%TO.P,J1,2,Pin_2*%
%TO.N,+24V*%
X122460000Y-86000000D03*
%TO.P,J1,3,Pin_3*%
%TO.N,GND*%
X119920000Y-86000000D03*
%TD*%
D18*
%TO.P,J2,1,Pin_1*%
%TO.N,GND*%
X132000000Y-70000000D03*
D19*
%TO.P,J2,2,Pin_2*%
%TO.N,/HORNS_CTRL*%
X129460000Y-70000000D03*
%TD*%
D20*
%TO.P,J3,1,Pin_1*%
%TO.N,Net-(J3-Pin_1)*%
X113000000Y-77000000D03*
D19*
%TO.P,J3,2,Pin_2*%
%TO.N,Net-(D2-A)*%
X115540000Y-77000000D03*
%TD*%
D21*
%TO.P,R2,1*%
%TO.N,/HORNS_CTRL*%
X127000000Y-74956250D03*
%TO.P,R2,2*%
%TO.N,Net-(C10-Pad2)*%
X127000000Y-76781250D03*
%TD*%
D11*
%TO.P,C6,1*%
%TO.N,GND*%
X112000000Y-96020000D03*
%TO.P,C6,2*%
%TO.N,+24V*%
X110100000Y-96020000D03*
%TD*%
D22*
%TO.P,C9,1*%
%TO.N,GND*%
X127750000Y-94000000D03*
%TO.P,C9,2*%
%TO.N,+24V*%
X116250000Y-94000000D03*
%TD*%
D23*
%TO.N,GND*%
X115000000Y-102030000D03*
X112000000Y-96020000D03*
X120000000Y-102000000D03*
X113000000Y-99030000D03*
X112000000Y-93010000D03*
X130900000Y-77000000D03*
X112000000Y-90000000D03*
X117000000Y-102000000D03*
X122000000Y-66000000D03*
%TD*%
D24*
%TO.N,/HORN_IN*%
X119720000Y-73720000D02*
X120000000Y-74000000D01*
X120000000Y-74000000D02*
X120000000Y-75200000D01*
X119720000Y-72300000D02*
X119720000Y-73720000D01*
%TO.N,Net-(C10-Pad2)*%
X129000000Y-77000000D02*
X128218750Y-77000000D01*
X127000000Y-76781250D02*
X128000000Y-76781250D01*
X128218750Y-77000000D02*
X128000000Y-76781250D01*
%TO.N,/HORNS_CTRL*%
X125700000Y-72700000D02*
X127000000Y-74000000D01*
X125700000Y-72300000D02*
X124280000Y-72300000D01*
X129460000Y-70000000D02*
X128000000Y-70000000D01*
X128000000Y-70000000D02*
X125700000Y-72300000D01*
X125700000Y-72300000D02*
X125700000Y-72700000D01*
X127000000Y-74000000D02*
X127000000Y-74956250D01*
%TO.N,Net-(J3-Pin_1)*%
X113000000Y-80000000D02*
X114000000Y-81000000D01*
X114000000Y-81000000D02*
X114000000Y-83000000D01*
X113000000Y-77000000D02*
X113000000Y-80000000D01*
%TO.N,Net-(D2-A)*%
X118000000Y-78000000D02*
X117000000Y-77000000D01*
X117000000Y-77000000D02*
X115540000Y-77000000D01*
X121000000Y-78000000D02*
X123000000Y-76000000D01*
X120000000Y-78000000D02*
X121000000Y-78000000D01*
X120000000Y-78000000D02*
X118000000Y-78000000D01*
X123000000Y-76000000D02*
X124000000Y-76000000D01*
%TD*%
%TA.AperFunction,Conductor*%
%TO.N,+24V*%
G36*
X133001121Y-61000020D02*
G01*
X133135109Y-61002409D01*
X133150528Y-61003650D01*
X133416897Y-61041948D01*
X133434184Y-61045708D01*
X133691313Y-61121209D01*
X133707887Y-61127391D01*
X133817159Y-61177293D01*
X133951659Y-61238717D01*
X133967173Y-61247188D01*
X134192628Y-61392080D01*
X134206787Y-61402679D01*
X134409317Y-61578172D01*
X134421827Y-61590682D01*
X134597320Y-61793212D01*
X134607921Y-61807374D01*
X134752808Y-62032821D01*
X134761284Y-62048345D01*
X134872608Y-62292112D01*
X134878791Y-62308688D01*
X134954290Y-62565814D01*
X134958051Y-62583102D01*
X134996348Y-62849463D01*
X134997590Y-62864898D01*
X134999980Y-62998877D01*
X135000000Y-63001089D01*
X135000000Y-104998910D01*
X134999980Y-105001122D01*
X134997590Y-105135101D01*
X134996348Y-105150536D01*
X134958051Y-105416897D01*
X134954290Y-105434185D01*
X134878791Y-105691311D01*
X134872608Y-105707887D01*
X134761284Y-105951654D01*
X134752805Y-105967183D01*
X134607922Y-106192624D01*
X134597320Y-106206787D01*
X134421827Y-106409317D01*
X134409317Y-106421827D01*
X134206787Y-106597320D01*
X134192624Y-106607922D01*
X133967183Y-106752805D01*
X133951654Y-106761284D01*
X133707887Y-106872608D01*
X133691311Y-106878791D01*
X133434185Y-106954290D01*
X133416897Y-106958051D01*
X133150536Y-106996348D01*
X133135101Y-106997590D01*
X133004818Y-106999914D01*
X133001120Y-106999980D01*
X132998910Y-107000000D01*
X110001090Y-107000000D01*
X109998879Y-106999980D01*
X109995015Y-106999911D01*
X109864898Y-106997590D01*
X109849463Y-106996348D01*
X109583102Y-106958051D01*
X109565814Y-106954290D01*
X109308688Y-106878791D01*
X109292112Y-106872608D01*
X109048345Y-106761284D01*
X109032821Y-106752808D01*
X108807374Y-106607921D01*
X108793212Y-106597320D01*
X108590682Y-106421827D01*
X108578172Y-106409317D01*
X108402679Y-106206787D01*
X108392077Y-106192624D01*
X108247188Y-105967173D01*
X108238715Y-105951654D01*
X108127391Y-105707887D01*
X108121208Y-105691311D01*
X108045709Y-105434185D01*
X108041948Y-105416897D01*
X108003651Y-105150536D01*
X108002409Y-105135109D01*
X108000020Y-105001121D01*
X108000000Y-104998910D01*
X108000000Y-104199986D01*
X115775001Y-104199986D01*
X115785494Y-104302697D01*
X115840641Y-104469119D01*
X115840643Y-104469124D01*
X115932684Y-104618345D01*
X116056654Y-104742315D01*
X116205875Y-104834356D01*
X116205880Y-104834358D01*
X116372302Y-104889505D01*
X116372309Y-104889506D01*
X116475019Y-104899999D01*
X116749999Y-104899999D01*
X117250000Y-104899999D01*
X117524972Y-104899999D01*
X117524986Y-104899998D01*
X117627697Y-104889505D01*
X117794119Y-104834358D01*
X117794124Y-104834356D01*
X117943345Y-104742315D01*
X118067315Y-104618345D01*
X118159356Y-104469124D01*
X118159358Y-104469119D01*
X118214505Y-104302697D01*
X118214506Y-104302690D01*
X118224999Y-104199986D01*
X118775001Y-104199986D01*
X118785494Y-104302697D01*
X118840641Y-104469119D01*
X118840643Y-104469124D01*
X118932684Y-104618345D01*
X119056654Y-104742315D01*
X119205875Y-104834356D01*
X119205880Y-104834358D01*
X119372302Y-104889505D01*
X119372309Y-104889506D01*
X119475019Y-104899999D01*
X119749999Y-104899999D01*
X120250000Y-104899999D01*
X120524972Y-104899999D01*
X120524986Y-104899998D01*
X120627697Y-104889505D01*
X120794119Y-104834358D01*
X120794124Y-104834356D01*
X120943345Y-104742315D01*
X121067315Y-104618345D01*
X121159356Y-104469124D01*
X121159358Y-104469119D01*
X121214505Y-104302697D01*
X121214506Y-104302690D01*
X121224999Y-104199986D01*
X121225000Y-104199973D01*
X121225000Y-104150000D01*
X120250000Y-104150000D01*
X120250000Y-104899999D01*
X119749999Y-104899999D01*
X119750000Y-104899998D01*
X119750000Y-104150000D01*
X118775001Y-104150000D01*
X118775001Y-104199986D01*
X118224999Y-104199986D01*
X118225000Y-104199973D01*
X118225000Y-104150000D01*
X117250000Y-104150000D01*
X117250000Y-104899999D01*
X116749999Y-104899999D01*
X116750000Y-104899998D01*
X116750000Y-104150000D01*
X115775001Y-104150000D01*
X115775001Y-104199986D01*
X108000000Y-104199986D01*
X108000000Y-102554986D01*
X112100001Y-102554986D01*
X112110494Y-102657697D01*
X112165641Y-102824119D01*
X112165643Y-102824124D01*
X112257684Y-102973345D01*
X112381654Y-103097315D01*
X112530875Y-103189356D01*
X112530880Y-103189358D01*
X112697302Y-103244505D01*
X112697309Y-103244506D01*
X112800019Y-103254999D01*
X112849999Y-103254998D01*
X112850000Y-103254998D01*
X112850000Y-102280000D01*
X112100001Y-102280000D01*
X112100001Y-102554986D01*
X108000000Y-102554986D01*
X108000000Y-101505013D01*
X112100000Y-101505013D01*
X112100000Y-101780000D01*
X112850000Y-101780000D01*
X112850000Y-100805000D01*
X113350000Y-100805000D01*
X113350000Y-103254999D01*
X113399972Y-103254999D01*
X113399986Y-103254998D01*
X113502697Y-103244505D01*
X113669119Y-103189358D01*
X113669124Y-103189356D01*
X113818345Y-103097315D01*
X113942316Y-102973344D01*
X113946798Y-102967677D01*
X113948991Y-102969411D01*
X113991357Y-102931265D01*
X114060314Y-102920008D01*
X114124410Y-102947818D01*
X114146334Y-102973106D01*
X114146489Y-102972985D01*
X114149183Y-102976392D01*
X114150545Y-102977963D01*
X114150970Y-102978652D01*
X114276348Y-103104030D01*
X114427262Y-103197115D01*
X114595574Y-103252887D01*
X114699455Y-103263500D01*
X115300544Y-103263499D01*
X115404426Y-103252887D01*
X115572738Y-103197115D01*
X115693029Y-103122917D01*
X115760418Y-103104478D01*
X115827082Y-103125400D01*
X115871852Y-103179041D01*
X115880514Y-103248372D01*
X115863664Y-103293552D01*
X115840645Y-103330873D01*
X115840641Y-103330880D01*
X115785494Y-103497302D01*
X115785493Y-103497309D01*
X115775000Y-103600013D01*
X115775000Y-103650000D01*
X118224999Y-103650000D01*
X118224999Y-103600028D01*
X118224998Y-103600013D01*
X118214505Y-103497302D01*
X118159358Y-103330880D01*
X118159356Y-103330875D01*
X118067315Y-103181654D01*
X117943344Y-103057683D01*
X117937677Y-103053202D01*
X117939404Y-103051016D01*
X117901240Y-103008589D01*
X117890015Y-102939627D01*
X117917855Y-102875543D01*
X117943106Y-102853664D01*
X117942985Y-102853511D01*
X117946401Y-102850809D01*
X117947969Y-102849451D01*
X117948652Y-102849030D01*
X118074030Y-102723652D01*
X118167115Y-102572738D01*
X118222887Y-102404426D01*
X118233500Y-102300545D01*
X118233499Y-101699456D01*
X118233498Y-101699447D01*
X118766500Y-101699447D01*
X118766500Y-102300537D01*
X118766501Y-102300553D01*
X118772757Y-102361785D01*
X118777113Y-102404426D01*
X118832885Y-102572738D01*
X118925970Y-102723652D01*
X119051348Y-102849030D01*
X119052031Y-102849451D01*
X119052401Y-102849863D01*
X119057015Y-102853511D01*
X119056391Y-102854298D01*
X119098759Y-102901397D01*
X119109984Y-102970359D01*
X119082144Y-103034442D01*
X119061582Y-103052264D01*
X119062323Y-103053202D01*
X119056655Y-103057683D01*
X118932684Y-103181654D01*
X118840643Y-103330875D01*
X118840641Y-103330880D01*
X118785494Y-103497302D01*
X118785493Y-103497309D01*
X118775000Y-103600013D01*
X118775000Y-103650000D01*
X121224999Y-103650000D01*
X121224999Y-103600028D01*
X121224998Y-103600013D01*
X121214505Y-103497302D01*
X121159358Y-103330880D01*
X121159356Y-103330875D01*
X121067315Y-103181654D01*
X120943344Y-103057683D01*
X120937677Y-103053202D01*
X120939404Y-103051016D01*
X120901240Y-103008589D01*
X120890015Y-102939627D01*
X120917855Y-102875543D01*
X120943106Y-102853664D01*
X120942985Y-102853511D01*
X120946401Y-102850809D01*
X120947969Y-102849451D01*
X120948652Y-102849030D01*
X121074030Y-102723652D01*
X121167115Y-102572738D01*
X121222887Y-102404426D01*
X121233500Y-102300545D01*
X121233499Y-101878711D01*
X128149500Y-101878711D01*
X128149500Y-102121288D01*
X128181161Y-102361785D01*
X128243947Y-102596104D01*
X128336773Y-102820205D01*
X128336777Y-102820214D01*
X128356456Y-102854298D01*
X128458064Y-103030289D01*
X128458066Y-103030292D01*
X128458067Y-103030293D01*
X128605733Y-103222736D01*
X128605739Y-103222743D01*
X128777256Y-103394260D01*
X128777262Y-103394265D01*
X128969711Y-103541936D01*
X129179788Y-103663224D01*
X129403900Y-103756054D01*
X129638211Y-103818838D01*
X129818586Y-103842584D01*
X129878711Y-103850500D01*
X129878712Y-103850500D01*
X130121289Y-103850500D01*
X130169388Y-103844167D01*
X130361789Y-103818838D01*
X130596100Y-103756054D01*
X130820212Y-103663224D01*
X131030289Y-103541936D01*
X131222738Y-103394265D01*
X131394265Y-103222738D01*
X131541936Y-103030289D01*
X131663224Y-102820212D01*
X131756054Y-102596100D01*
X131818838Y-102361789D01*
X131850500Y-102121288D01*
X131850500Y-101878712D01*
X131818838Y-101638211D01*
X131756054Y-101403900D01*
X131663224Y-101179788D01*
X131541936Y-100969711D01*
X131465917Y-100870641D01*
X131394266Y-100777263D01*
X131394260Y-100777256D01*
X131222743Y-100605739D01*
X131222736Y-100605733D01*
X131030293Y-100458067D01*
X131030292Y-100458066D01*
X131030289Y-100458064D01*
X130820212Y-100336776D01*
X130820205Y-100336773D01*
X130596104Y-100243947D01*
X130421318Y-100197113D01*
X130361789Y-100181162D01*
X130361788Y-100181161D01*
X130361785Y-100181161D01*
X130121289Y-100149500D01*
X130121288Y-100149500D01*
X129878712Y-100149500D01*
X129878711Y-100149500D01*
X129638214Y-100181161D01*
X129403895Y-100243947D01*
X129179794Y-100336773D01*
X129179785Y-100336777D01*
X128969706Y-100458067D01*
X128777263Y-100605733D01*
X128777256Y-100605739D01*
X128605739Y-100777256D01*
X128605733Y-100777263D01*
X128458067Y-100969706D01*
X128336777Y-101179785D01*
X128336773Y-101179794D01*
X128243947Y-101403895D01*
X128181161Y-101638214D01*
X128149500Y-101878711D01*
X121233499Y-101878711D01*
X121233499Y-101699456D01*
X121222887Y-101595574D01*
X121167115Y-101427262D01*
X121074030Y-101276348D01*
X120948652Y-101150970D01*
X120835781Y-101081350D01*
X120797740Y-101057886D01*
X120797735Y-101057884D01*
X120629427Y-101002113D01*
X120525546Y-100991500D01*
X119474462Y-100991500D01*
X119474446Y-100991501D01*
X119370572Y-101002113D01*
X119202264Y-101057884D01*
X119202259Y-101057886D01*
X119051346Y-101150971D01*
X118925971Y-101276346D01*
X118832886Y-101427259D01*
X118832884Y-101427264D01*
X118777113Y-101595572D01*
X118766500Y-101699447D01*
X118233498Y-101699447D01*
X118222887Y-101595574D01*
X118167115Y-101427262D01*
X118074030Y-101276348D01*
X117948652Y-101150970D01*
X117835781Y-101081350D01*
X117797740Y-101057886D01*
X117797735Y-101057884D01*
X117629427Y-101002113D01*
X117525546Y-100991500D01*
X116474462Y-100991500D01*
X116474446Y-100991501D01*
X116370572Y-101002113D01*
X116202264Y-101057884D01*
X116202259Y-101057886D01*
X116106287Y-101117083D01*
X116051348Y-101150970D01*
X116051346Y-101150971D01*
X116045201Y-101154762D01*
X116044138Y-101153039D01*
X115988708Y-101175393D01*
X115920068Y-101162344D01*
X115871072Y-101117083D01*
X115849030Y-101081348D01*
X115723653Y-100955971D01*
X115723652Y-100955970D01*
X115585316Y-100870643D01*
X115572740Y-100862886D01*
X115572735Y-100862884D01*
X115404427Y-100807113D01*
X115300546Y-100796500D01*
X114699462Y-100796500D01*
X114699446Y-100796501D01*
X114595572Y-100807113D01*
X114427264Y-100862884D01*
X114427259Y-100862886D01*
X114276346Y-100955971D01*
X114150970Y-101081347D01*
X114150968Y-101081350D01*
X114150541Y-101082043D01*
X114150123Y-101082418D01*
X114146489Y-101087015D01*
X114145703Y-101086393D01*
X114098591Y-101128764D01*
X114029627Y-101139983D01*
X113965547Y-101112136D01*
X113947739Y-101091578D01*
X113946798Y-101092323D01*
X113942316Y-101086655D01*
X113818345Y-100962684D01*
X113669124Y-100870643D01*
X113669119Y-100870641D01*
X113502697Y-100815494D01*
X113502690Y-100815493D01*
X113399986Y-100805000D01*
X113350000Y-100805000D01*
X112850000Y-100805000D01*
X112849999Y-100804999D01*
X112800029Y-100805000D01*
X112800011Y-100805001D01*
X112697302Y-100815494D01*
X112530880Y-100870641D01*
X112530875Y-100870643D01*
X112381654Y-100962684D01*
X112257684Y-101086654D01*
X112165643Y-101235875D01*
X112165641Y-101235880D01*
X112110494Y-101402302D01*
X112110493Y-101402309D01*
X112100000Y-101505013D01*
X108000000Y-101505013D01*
X108000000Y-99554986D01*
X110100001Y-99554986D01*
X110110494Y-99657697D01*
X110165641Y-99824119D01*
X110165643Y-99824124D01*
X110257684Y-99973345D01*
X110381654Y-100097315D01*
X110530875Y-100189356D01*
X110530880Y-100189358D01*
X110697302Y-100244505D01*
X110697309Y-100244506D01*
X110800019Y-100254999D01*
X110849999Y-100254998D01*
X110850000Y-100254998D01*
X110850000Y-99280000D01*
X110100001Y-99280000D01*
X110100001Y-99554986D01*
X108000000Y-99554986D01*
X108000000Y-98505013D01*
X110100000Y-98505013D01*
X110100000Y-98780000D01*
X110850000Y-98780000D01*
X110850000Y-97805000D01*
X111350000Y-97805000D01*
X111350000Y-100254999D01*
X111399972Y-100254999D01*
X111399986Y-100254998D01*
X111502697Y-100244505D01*
X111669119Y-100189358D01*
X111669124Y-100189356D01*
X111818345Y-100097315D01*
X111942316Y-99973344D01*
X111946798Y-99967677D01*
X111948991Y-99969411D01*
X111991357Y-99931265D01*
X112060314Y-99920008D01*
X112124410Y-99947818D01*
X112146334Y-99973106D01*
X112146489Y-99972985D01*
X112149183Y-99976392D01*
X112150545Y-99977963D01*
X112150970Y-99978652D01*
X112276348Y-100104030D01*
X112427262Y-100197115D01*
X112595574Y-100252887D01*
X112699455Y-100263500D01*
X113300544Y-100263499D01*
X113404426Y-100252887D01*
X113572738Y-100197115D01*
X113723652Y-100104030D01*
X113849030Y-99978652D01*
X113942115Y-99827738D01*
X113997887Y-99659426D01*
X114008500Y-99555545D01*
X114008499Y-98504456D01*
X113997887Y-98400574D01*
X113942115Y-98232262D01*
X113849030Y-98081348D01*
X113723652Y-97955970D01*
X113585316Y-97870643D01*
X113572740Y-97862886D01*
X113572735Y-97862884D01*
X113404427Y-97807113D01*
X113300546Y-97796500D01*
X112699462Y-97796500D01*
X112699446Y-97796501D01*
X112595572Y-97807113D01*
X112427264Y-97862884D01*
X112427259Y-97862886D01*
X112276346Y-97955971D01*
X112150970Y-98081347D01*
X112150968Y-98081350D01*
X112150541Y-98082043D01*
X112150123Y-98082418D01*
X112146489Y-98087015D01*
X112145703Y-98086393D01*
X112098591Y-98128764D01*
X112029627Y-98139983D01*
X111965547Y-98112136D01*
X111947739Y-98091578D01*
X111946798Y-98092323D01*
X111942316Y-98086655D01*
X111818345Y-97962684D01*
X111669124Y-97870643D01*
X111669119Y-97870641D01*
X111502697Y-97815494D01*
X111502690Y-97815493D01*
X111399986Y-97805000D01*
X111350000Y-97805000D01*
X110850000Y-97805000D01*
X110849999Y-97804999D01*
X110800029Y-97805000D01*
X110800011Y-97805001D01*
X110697302Y-97815494D01*
X110530880Y-97870641D01*
X110530875Y-97870643D01*
X110381654Y-97962684D01*
X110257684Y-98086654D01*
X110165643Y-98235875D01*
X110165641Y-98235880D01*
X110110494Y-98402302D01*
X110110493Y-98402309D01*
X110100000Y-98505013D01*
X108000000Y-98505013D01*
X108000000Y-96544986D01*
X109100001Y-96544986D01*
X109110494Y-96647697D01*
X109165641Y-96814119D01*
X109165643Y-96814124D01*
X109257684Y-96963345D01*
X109381654Y-97087315D01*
X109530875Y-97179356D01*
X109530880Y-97179358D01*
X109697302Y-97234505D01*
X109697309Y-97234506D01*
X109800019Y-97244999D01*
X109849999Y-97244998D01*
X109850000Y-97244998D01*
X109850000Y-96270000D01*
X109100001Y-96270000D01*
X109100001Y-96544986D01*
X108000000Y-96544986D01*
X108000000Y-95495013D01*
X109100000Y-95495013D01*
X109100000Y-95770000D01*
X109850000Y-95770000D01*
X109850000Y-94795000D01*
X110350000Y-94795000D01*
X110350000Y-97244999D01*
X110399972Y-97244999D01*
X110399986Y-97244998D01*
X110502697Y-97234505D01*
X110669119Y-97179358D01*
X110669124Y-97179356D01*
X110818345Y-97087315D01*
X110942316Y-96963344D01*
X110946798Y-96957677D01*
X110948991Y-96959411D01*
X110991357Y-96921265D01*
X111060314Y-96910008D01*
X111124410Y-96937818D01*
X111146334Y-96963106D01*
X111146489Y-96962985D01*
X111149183Y-96966392D01*
X111150545Y-96967963D01*
X111150970Y-96968652D01*
X111276348Y-97094030D01*
X111427262Y-97187115D01*
X111595574Y-97242887D01*
X111699455Y-97253500D01*
X112300544Y-97253499D01*
X112404426Y-97242887D01*
X112572738Y-97187115D01*
X112723652Y-97094030D01*
X112849030Y-96968652D01*
X112942115Y-96817738D01*
X112997887Y-96649426D01*
X113008500Y-96545545D01*
X113008499Y-95494456D01*
X112997887Y-95390574D01*
X112942115Y-95222262D01*
X112849030Y-95071348D01*
X112820806Y-95043124D01*
X115560427Y-95043124D01*
X115622612Y-95086666D01*
X115820840Y-95179101D01*
X115820849Y-95179105D01*
X116032105Y-95235710D01*
X116032115Y-95235712D01*
X116249999Y-95254775D01*
X116250001Y-95254775D01*
X116467884Y-95235712D01*
X116467894Y-95235710D01*
X116679150Y-95179105D01*
X116679164Y-95179100D01*
X116877383Y-95086669D01*
X116877385Y-95086668D01*
X116939571Y-95043124D01*
X116250001Y-94353553D01*
X116250000Y-94353553D01*
X115560427Y-95043124D01*
X112820806Y-95043124D01*
X112723652Y-94945970D01*
X112585316Y-94860643D01*
X112572740Y-94852886D01*
X112572735Y-94852884D01*
X112404427Y-94797113D01*
X112300546Y-94786500D01*
X111699462Y-94786500D01*
X111699446Y-94786501D01*
X111595572Y-94797113D01*
X111427264Y-94852884D01*
X111427259Y-94852886D01*
X111276346Y-94945971D01*
X111150970Y-95071347D01*
X111150968Y-95071350D01*
X111150541Y-95072043D01*
X111150123Y-95072418D01*
X111146489Y-95077015D01*
X111145703Y-95076393D01*
X111098591Y-95118764D01*
X111029627Y-95129983D01*
X110965547Y-95102136D01*
X110947739Y-95081578D01*
X110946798Y-95082323D01*
X110942316Y-95076655D01*
X110818345Y-94952684D01*
X110669124Y-94860643D01*
X110669119Y-94860641D01*
X110502697Y-94805494D01*
X110502690Y-94805493D01*
X110399986Y-94795000D01*
X110350000Y-94795000D01*
X109850000Y-94795000D01*
X109849999Y-94794999D01*
X109800029Y-94795000D01*
X109800011Y-94795001D01*
X109697302Y-94805494D01*
X109530880Y-94860641D01*
X109530875Y-94860643D01*
X109381654Y-94952684D01*
X109257684Y-95076654D01*
X109165643Y-95225875D01*
X109165641Y-95225880D01*
X109110494Y-95392302D01*
X109110493Y-95392309D01*
X109100000Y-95495013D01*
X108000000Y-95495013D01*
X108000000Y-93534986D01*
X109100001Y-93534986D01*
X109110494Y-93637697D01*
X109165641Y-93804119D01*
X109165643Y-93804124D01*
X109257684Y-93953345D01*
X109381654Y-94077315D01*
X109530875Y-94169356D01*
X109530880Y-94169358D01*
X109697302Y-94224505D01*
X109697309Y-94224506D01*
X109800019Y-94234999D01*
X109849999Y-94234998D01*
X109850000Y-94234998D01*
X109850000Y-93260000D01*
X109100001Y-93260000D01*
X109100001Y-93534986D01*
X108000000Y-93534986D01*
X108000000Y-92485013D01*
X109100000Y-92485013D01*
X109100000Y-92760000D01*
X109850000Y-92760000D01*
X109850000Y-91785000D01*
X110350000Y-91785000D01*
X110350000Y-94234999D01*
X110399972Y-94234999D01*
X110399986Y-94234998D01*
X110502697Y-94224505D01*
X110669119Y-94169358D01*
X110669124Y-94169356D01*
X110818345Y-94077315D01*
X110942316Y-93953344D01*
X110946798Y-93947677D01*
X110948991Y-93949411D01*
X110991357Y-93911265D01*
X111060314Y-93900008D01*
X111124410Y-93927818D01*
X111146334Y-93953106D01*
X111146489Y-93952985D01*
X111149183Y-93956392D01*
X111150545Y-93957963D01*
X111150970Y-93958652D01*
X111276348Y-94084030D01*
X111427262Y-94177115D01*
X111595574Y-94232887D01*
X111699455Y-94243500D01*
X112300544Y-94243499D01*
X112404426Y-94232887D01*
X112572738Y-94177115D01*
X112723652Y-94084030D01*
X112807683Y-93999999D01*
X114995225Y-93999999D01*
X114995225Y-94000000D01*
X115014287Y-94217884D01*
X115014289Y-94217894D01*
X115070894Y-94429150D01*
X115070898Y-94429159D01*
X115163333Y-94627387D01*
X115206874Y-94689571D01*
X115896446Y-94000000D01*
X115896446Y-93999999D01*
X115853660Y-93957213D01*
X115925000Y-93957213D01*
X115925000Y-94042787D01*
X115947149Y-94125445D01*
X115989936Y-94199554D01*
X116050446Y-94260064D01*
X116124555Y-94302851D01*
X116207213Y-94325000D01*
X116292787Y-94325000D01*
X116375445Y-94302851D01*
X116449554Y-94260064D01*
X116510064Y-94199554D01*
X116552851Y-94125445D01*
X116575000Y-94042787D01*
X116575000Y-93999999D01*
X116603553Y-93999999D01*
X116603553Y-94000000D01*
X117293124Y-94689570D01*
X117336668Y-94627385D01*
X117336669Y-94627383D01*
X117429100Y-94429164D01*
X117429105Y-94429150D01*
X117485710Y-94217894D01*
X117485712Y-94217884D01*
X117504775Y-94000000D01*
X117504775Y-93999999D01*
X117504775Y-93999997D01*
X126486693Y-93999997D01*
X126486693Y-94000002D01*
X126505884Y-94219365D01*
X126505885Y-94219372D01*
X126512350Y-94243498D01*
X126562880Y-94432076D01*
X126655944Y-94631654D01*
X126782251Y-94812038D01*
X126937962Y-94967749D01*
X127118346Y-95094056D01*
X127317924Y-95187120D01*
X127530629Y-95244115D01*
X127687322Y-95257823D01*
X127749998Y-95263307D01*
X127750000Y-95263307D01*
X127750002Y-95263307D01*
X127804842Y-95258509D01*
X127969371Y-95244115D01*
X128182076Y-95187120D01*
X128381654Y-95094056D01*
X128562038Y-94967749D01*
X128717749Y-94812038D01*
X128844056Y-94631654D01*
X128937120Y-94432076D01*
X128994115Y-94219371D01*
X129013307Y-94000000D01*
X129009204Y-93953106D01*
X129002332Y-93874555D01*
X128994115Y-93780629D01*
X128937120Y-93567924D01*
X128844056Y-93368347D01*
X128844054Y-93368344D01*
X128844053Y-93368342D01*
X128780902Y-93278154D01*
X128717749Y-93187962D01*
X128562038Y-93032251D01*
X128381654Y-92905944D01*
X128199271Y-92820898D01*
X128182081Y-92812882D01*
X128182079Y-92812881D01*
X128182076Y-92812880D01*
X128000735Y-92764289D01*
X127969372Y-92755885D01*
X127969365Y-92755884D01*
X127750002Y-92736693D01*
X127749998Y-92736693D01*
X127530634Y-92755884D01*
X127530627Y-92755885D01*
X127317920Y-92812881D01*
X127118346Y-92905944D01*
X127118342Y-92905946D01*
X126937967Y-93032247D01*
X126937960Y-93032252D01*
X126782252Y-93187960D01*
X126782247Y-93187967D01*
X126655946Y-93368342D01*
X126655944Y-93368346D01*
X126562881Y-93567920D01*
X126505885Y-93780627D01*
X126505884Y-93780634D01*
X126486693Y-93999997D01*
X117504775Y-93999997D01*
X117485712Y-93782115D01*
X117485710Y-93782105D01*
X117429105Y-93570849D01*
X117429101Y-93570840D01*
X117336668Y-93372615D01*
X117293123Y-93310428D01*
X116603553Y-93999999D01*
X116575000Y-93999999D01*
X116575000Y-93957213D01*
X116552851Y-93874555D01*
X116510064Y-93800446D01*
X116449554Y-93739936D01*
X116375445Y-93697149D01*
X116292787Y-93675000D01*
X116207213Y-93675000D01*
X116124555Y-93697149D01*
X116050446Y-93739936D01*
X115989936Y-93800446D01*
X115947149Y-93874555D01*
X115925000Y-93957213D01*
X115853660Y-93957213D01*
X115206875Y-93310427D01*
X115206875Y-93310428D01*
X115163333Y-93372612D01*
X115163332Y-93372614D01*
X115070898Y-93570840D01*
X115070894Y-93570849D01*
X115014289Y-93782105D01*
X115014287Y-93782115D01*
X114995225Y-93999999D01*
X112807683Y-93999999D01*
X112849030Y-93958652D01*
X112942115Y-93807738D01*
X112997887Y-93639426D01*
X113008500Y-93535545D01*
X113008499Y-92956875D01*
X115560427Y-92956875D01*
X116250000Y-93646446D01*
X116250001Y-93646446D01*
X116939571Y-92956874D01*
X116877387Y-92913333D01*
X116679159Y-92820898D01*
X116679150Y-92820894D01*
X116467894Y-92764289D01*
X116467884Y-92764287D01*
X116250001Y-92745225D01*
X116249999Y-92745225D01*
X116032115Y-92764287D01*
X116032105Y-92764289D01*
X115820849Y-92820894D01*
X115820840Y-92820898D01*
X115622614Y-92913332D01*
X115622612Y-92913333D01*
X115560428Y-92956875D01*
X115560427Y-92956875D01*
X113008499Y-92956875D01*
X113008499Y-92484456D01*
X112997887Y-92380574D01*
X112942115Y-92212262D01*
X112849030Y-92061348D01*
X112723652Y-91935970D01*
X112585316Y-91850643D01*
X112572740Y-91842886D01*
X112572735Y-91842884D01*
X112404427Y-91787113D01*
X112300546Y-91776500D01*
X111699462Y-91776500D01*
X111699446Y-91776501D01*
X111595572Y-91787113D01*
X111427264Y-91842884D01*
X111427259Y-91842886D01*
X111276346Y-91935971D01*
X111150970Y-92061347D01*
X111150968Y-92061350D01*
X111150541Y-92062043D01*
X111150123Y-92062418D01*
X111146489Y-92067015D01*
X111145703Y-92066393D01*
X111098591Y-92108764D01*
X111029627Y-92119983D01*
X110965547Y-92092136D01*
X110947739Y-92071578D01*
X110946798Y-92072323D01*
X110942316Y-92066655D01*
X110818345Y-91942684D01*
X110669124Y-91850643D01*
X110669119Y-91850641D01*
X110502697Y-91795494D01*
X110502690Y-91795493D01*
X110399986Y-91785000D01*
X110350000Y-91785000D01*
X109850000Y-91785000D01*
X109849999Y-91784999D01*
X109800029Y-91785000D01*
X109800011Y-91785001D01*
X109697302Y-91795494D01*
X109530880Y-91850641D01*
X109530875Y-91850643D01*
X109381654Y-91942684D01*
X109257684Y-92066654D01*
X109165643Y-92215875D01*
X109165641Y-92215880D01*
X109110494Y-92382302D01*
X109110493Y-92382309D01*
X109100000Y-92485013D01*
X108000000Y-92485013D01*
X108000000Y-90524986D01*
X109100001Y-90524986D01*
X109110494Y-90627697D01*
X109165641Y-90794119D01*
X109165643Y-90794124D01*
X109257684Y-90943345D01*
X109381654Y-91067315D01*
X109530875Y-91159356D01*
X109530880Y-91159358D01*
X109697302Y-91214505D01*
X109697309Y-91214506D01*
X109800019Y-91224999D01*
X109849999Y-91224998D01*
X109850000Y-91224998D01*
X109850000Y-90250000D01*
X109100001Y-90250000D01*
X109100001Y-90524986D01*
X108000000Y-90524986D01*
X108000000Y-89475013D01*
X109100000Y-89475013D01*
X109100000Y-89750000D01*
X109850000Y-89750000D01*
X109850000Y-88775000D01*
X110350000Y-88775000D01*
X110350000Y-91224999D01*
X110399972Y-91224999D01*
X110399986Y-91224998D01*
X110502697Y-91214505D01*
X110669119Y-91159358D01*
X110669124Y-91159356D01*
X110818345Y-91067315D01*
X110942316Y-90943344D01*
X110946798Y-90937677D01*
X110948991Y-90939411D01*
X110991357Y-90901265D01*
X111060314Y-90890008D01*
X111124410Y-90917818D01*
X111146334Y-90943106D01*
X111146489Y-90942985D01*
X111149183Y-90946392D01*
X111150545Y-90947963D01*
X111150970Y-90948652D01*
X111276348Y-91074030D01*
X111427262Y-91167115D01*
X111595574Y-91222887D01*
X111699455Y-91233500D01*
X112300544Y-91233499D01*
X112404426Y-91222887D01*
X112572738Y-91167115D01*
X112723652Y-91074030D01*
X112849030Y-90948652D01*
X112942115Y-90797738D01*
X112997887Y-90629426D01*
X113008500Y-90525545D01*
X113008499Y-89474456D01*
X112997887Y-89370574D01*
X112942115Y-89202262D01*
X112849030Y-89051348D01*
X112723652Y-88925970D01*
X112585316Y-88840643D01*
X112572740Y-88832886D01*
X112572735Y-88832884D01*
X112404427Y-88777113D01*
X112300546Y-88766500D01*
X111699462Y-88766500D01*
X111699446Y-88766501D01*
X111595572Y-88777113D01*
X111427264Y-88832884D01*
X111427259Y-88832886D01*
X111276346Y-88925971D01*
X111150970Y-89051347D01*
X111150968Y-89051350D01*
X111150541Y-89052043D01*
X111150123Y-89052418D01*
X111146489Y-89057015D01*
X111145703Y-89056393D01*
X111098591Y-89098764D01*
X111029627Y-89109983D01*
X110965547Y-89082136D01*
X110947739Y-89061578D01*
X110946798Y-89062323D01*
X110942316Y-89056655D01*
X110818345Y-88932684D01*
X110669124Y-88840643D01*
X110669119Y-88840641D01*
X110502697Y-88785494D01*
X110502690Y-88785493D01*
X110399986Y-88775000D01*
X110350000Y-88775000D01*
X109850000Y-88775000D01*
X109849999Y-88774999D01*
X109800029Y-88775000D01*
X109800011Y-88775001D01*
X109697302Y-88785494D01*
X109530880Y-88840641D01*
X109530875Y-88840643D01*
X109381654Y-88932684D01*
X109257684Y-89056654D01*
X109165643Y-89205875D01*
X109165641Y-89205880D01*
X109110494Y-89372302D01*
X109110493Y-89372309D01*
X109100000Y-89475013D01*
X108000000Y-89475013D01*
X108000000Y-76104447D01*
X111621500Y-76104447D01*
X111621500Y-77895537D01*
X111621501Y-77895553D01*
X111632113Y-77999427D01*
X111679310Y-78141860D01*
X111687885Y-78167738D01*
X111780970Y-78318652D01*
X111906348Y-78444030D01*
X112057262Y-78537115D01*
X112169470Y-78574296D01*
X112225573Y-78592887D01*
X112230397Y-78593379D01*
X112255101Y-78595903D01*
X112319792Y-78622297D01*
X112359945Y-78679477D01*
X112366500Y-78719261D01*
X112366500Y-80062398D01*
X112390843Y-80184777D01*
X112390845Y-80184785D01*
X112438598Y-80300072D01*
X112438603Y-80300081D01*
X112507928Y-80403832D01*
X112507931Y-80403836D01*
X113330181Y-81226085D01*
X113363666Y-81287408D01*
X113366500Y-81313766D01*
X113366500Y-81593197D01*
X113346815Y-81660236D01*
X113294011Y-81705991D01*
X113280822Y-81711127D01*
X113245836Y-81722495D01*
X113052507Y-81821001D01*
X112952355Y-81893766D01*
X112876967Y-81948539D01*
X112876965Y-81948541D01*
X112876964Y-81948541D01*
X112723541Y-82101964D01*
X112723541Y-82101965D01*
X112723539Y-82101967D01*
X112668766Y-82177355D01*
X112596001Y-82277507D01*
X112497495Y-82470837D01*
X112430442Y-82677203D01*
X112396500Y-82891504D01*
X112396500Y-83108495D01*
X112430442Y-83322796D01*
X112430443Y-83322800D01*
X112497494Y-83529160D01*
X112596001Y-83722492D01*
X112723539Y-83898033D01*
X112723541Y-83898035D01*
X112864317Y-84038811D01*
X112897802Y-84100134D01*
X112892818Y-84169826D01*
X112850946Y-84225759D01*
X112841733Y-84232031D01*
X112686654Y-84327684D01*
X112562684Y-84451654D01*
X112470643Y-84600875D01*
X112470641Y-84600880D01*
X112415494Y-84767302D01*
X112415493Y-84767309D01*
X112405000Y-84870013D01*
X112405000Y-85290000D01*
X113457291Y-85290000D01*
X113445548Y-85310339D01*
X113405000Y-85461667D01*
X113405000Y-85618333D01*
X113445548Y-85769661D01*
X113457291Y-85790000D01*
X112405001Y-85790000D01*
X112405001Y-86209986D01*
X112415494Y-86312697D01*
X112470641Y-86479119D01*
X112470643Y-86479124D01*
X112562684Y-86628345D01*
X112686654Y-86752315D01*
X112835875Y-86844356D01*
X112835880Y-86844358D01*
X113002302Y-86899505D01*
X113002309Y-86899506D01*
X113105019Y-86909999D01*
X113749999Y-86909999D01*
X113750000Y-86909998D01*
X113750000Y-86082709D01*
X113770339Y-86094452D01*
X113921667Y-86135000D01*
X114078333Y-86135000D01*
X114229661Y-86094452D01*
X114250000Y-86082709D01*
X114250000Y-86909999D01*
X114894972Y-86909999D01*
X114894986Y-86909998D01*
X114997697Y-86899505D01*
X115164119Y-86844358D01*
X115164124Y-86844356D01*
X115313345Y-86752315D01*
X115437315Y-86628345D01*
X115529356Y-86479124D01*
X115529358Y-86479119D01*
X115584505Y-86312697D01*
X115584506Y-86312690D01*
X115594999Y-86209986D01*
X115595000Y-86209973D01*
X115595000Y-85790000D01*
X114542709Y-85790000D01*
X114554452Y-85769661D01*
X114582093Y-85666504D01*
X118541500Y-85666504D01*
X118541500Y-86333495D01*
X118575442Y-86547796D01*
X118575443Y-86547800D01*
X118642494Y-86754160D01*
X118741001Y-86947492D01*
X118868539Y-87123033D01*
X119021967Y-87276461D01*
X119197508Y-87403999D01*
X119390840Y-87502506D01*
X119597200Y-87569557D01*
X119677566Y-87582285D01*
X119811505Y-87603500D01*
X119811510Y-87603500D01*
X120028495Y-87603500D01*
X120147551Y-87584642D01*
X120242800Y-87569557D01*
X120449160Y-87502506D01*
X120642492Y-87403999D01*
X120818033Y-87276461D01*
X120971461Y-87123033D01*
X121094936Y-86953084D01*
X121150265Y-86910419D01*
X121219878Y-86904440D01*
X121281673Y-86937046D01*
X121295571Y-86953084D01*
X121415025Y-87117496D01*
X121415025Y-87117497D01*
X121567502Y-87269974D01*
X121741963Y-87396728D01*
X121934098Y-87494627D01*
X122139190Y-87561266D01*
X122210000Y-87572481D01*
X122210000Y-86542709D01*
X122230339Y-86554452D01*
X122381667Y-86595000D01*
X122538333Y-86595000D01*
X122689661Y-86554452D01*
X122710000Y-86542709D01*
X122710000Y-87572480D01*
X122780809Y-87561266D01*
X122985901Y-87494627D01*
X123178036Y-87396728D01*
X123352493Y-87269977D01*
X123488516Y-87133954D01*
X123549839Y-87100469D01*
X123619531Y-87105453D01*
X123675465Y-87147324D01*
X123684031Y-87161629D01*
X123684094Y-87161591D01*
X123687884Y-87167735D01*
X123687885Y-87167738D01*
X123780970Y-87318652D01*
X123906348Y-87444030D01*
X124057262Y-87537115D01*
X124225574Y-87592887D01*
X124329455Y-87603500D01*
X125670544Y-87603499D01*
X125774426Y-87592887D01*
X125942738Y-87537115D01*
X126093652Y-87444030D01*
X126219030Y-87318652D01*
X126312115Y-87167738D01*
X126367887Y-86999426D01*
X126378500Y-86895545D01*
X126378499Y-85104456D01*
X126367887Y-85000574D01*
X126312115Y-84832262D01*
X126219030Y-84681348D01*
X126093652Y-84555970D01*
X125942738Y-84462885D01*
X125942735Y-84462884D01*
X125774427Y-84407113D01*
X125670545Y-84396500D01*
X124329462Y-84396500D01*
X124329446Y-84396501D01*
X124225572Y-84407113D01*
X124057264Y-84462884D01*
X124057259Y-84462886D01*
X123906346Y-84555971D01*
X123780971Y-84681346D01*
X123684094Y-84838409D01*
X123682646Y-84837516D01*
X123642387Y-84883221D01*
X123575190Y-84902360D01*
X123508313Y-84882131D01*
X123488517Y-84866045D01*
X123352497Y-84730025D01*
X123178036Y-84603271D01*
X122985899Y-84505372D01*
X122780805Y-84438733D01*
X122710000Y-84427518D01*
X122710000Y-85457290D01*
X122689661Y-85445548D01*
X122538333Y-85405000D01*
X122381667Y-85405000D01*
X122230339Y-85445548D01*
X122210000Y-85457290D01*
X122210000Y-84427518D01*
X122209999Y-84427518D01*
X122139194Y-84438733D01*
X121934100Y-84505372D01*
X121741963Y-84603271D01*
X121567503Y-84730025D01*
X121567502Y-84730025D01*
X121415024Y-84882503D01*
X121295571Y-85046915D01*
X121240240Y-85089580D01*
X121170627Y-85095559D01*
X121108832Y-85062953D01*
X121094935Y-85046914D01*
X120971463Y-84876970D01*
X120971458Y-84876964D01*
X120818035Y-84723541D01*
X120818033Y-84723539D01*
X120642492Y-84596001D01*
X120449160Y-84497494D01*
X120242800Y-84430443D01*
X120242798Y-84430442D01*
X120242796Y-84430442D01*
X120028495Y-84396500D01*
X120028490Y-84396500D01*
X119811510Y-84396500D01*
X119811505Y-84396500D01*
X119597203Y-84430442D01*
X119390837Y-84497495D01*
X119197507Y-84596001D01*
X119097355Y-84668766D01*
X119021967Y-84723539D01*
X119021965Y-84723541D01*
X119021964Y-84723541D01*
X118868541Y-84876964D01*
X118868541Y-84876965D01*
X118868539Y-84876967D01*
X118850090Y-84902360D01*
X118741001Y-85052507D01*
X118642495Y-85245837D01*
X118575442Y-85452203D01*
X118541500Y-85666504D01*
X114582093Y-85666504D01*
X114595000Y-85618333D01*
X114595000Y-85461667D01*
X114554452Y-85310339D01*
X114542709Y-85290000D01*
X115594999Y-85290000D01*
X115594999Y-84870028D01*
X115594998Y-84870013D01*
X115584505Y-84767302D01*
X115529358Y-84600880D01*
X115529356Y-84600875D01*
X115437315Y-84451654D01*
X115313345Y-84327684D01*
X115158266Y-84232031D01*
X115111542Y-84180083D01*
X115100319Y-84111120D01*
X115128163Y-84047038D01*
X115135660Y-84038833D01*
X115276461Y-83898033D01*
X115403999Y-83722492D01*
X115502506Y-83529160D01*
X115569557Y-83322800D01*
X115584642Y-83227551D01*
X115603500Y-83108495D01*
X115603500Y-82891504D01*
X115569557Y-82677203D01*
X115569557Y-82677200D01*
X115502506Y-82470840D01*
X115403999Y-82277508D01*
X115276461Y-82101967D01*
X115123033Y-81948539D01*
X114947492Y-81821001D01*
X114754163Y-81722495D01*
X114719178Y-81711127D01*
X114661504Y-81671688D01*
X114634308Y-81607328D01*
X114633500Y-81593197D01*
X114633500Y-81297844D01*
X122600000Y-81297844D01*
X122606401Y-81357372D01*
X122606403Y-81357379D01*
X122656645Y-81492086D01*
X122656649Y-81492093D01*
X122742809Y-81607187D01*
X122742812Y-81607190D01*
X122857906Y-81693350D01*
X122857913Y-81693354D01*
X122992620Y-81743596D01*
X122992627Y-81743598D01*
X123052155Y-81749999D01*
X123052172Y-81750000D01*
X123750000Y-81750000D01*
X124250000Y-81750000D01*
X124947828Y-81750000D01*
X124947844Y-81749999D01*
X125007372Y-81743598D01*
X125007379Y-81743596D01*
X125142086Y-81693354D01*
X125142093Y-81693350D01*
X125257187Y-81607190D01*
X125257190Y-81607187D01*
X125343350Y-81492093D01*
X125343354Y-81492086D01*
X125393596Y-81357379D01*
X125393598Y-81357372D01*
X125399999Y-81297844D01*
X125400000Y-81297827D01*
X125400000Y-80250000D01*
X124250000Y-80250000D01*
X124250000Y-81750000D01*
X123750000Y-81750000D01*
X123750000Y-80250000D01*
X122600000Y-80250000D01*
X122600000Y-81297844D01*
X114633500Y-81297844D01*
X114633500Y-80937605D01*
X114633499Y-80937601D01*
X114609157Y-80815222D01*
X114609154Y-80815213D01*
X114595168Y-80781447D01*
X114561401Y-80699925D01*
X114561399Y-80699923D01*
X114561399Y-80699921D01*
X114492072Y-80596167D01*
X114492069Y-80596163D01*
X113669819Y-79773913D01*
X113636334Y-79712590D01*
X113633500Y-79686232D01*
X113633500Y-78719261D01*
X113653185Y-78652222D01*
X113705989Y-78606467D01*
X113744898Y-78595903D01*
X113774426Y-78592887D01*
X113942738Y-78537115D01*
X114093652Y-78444030D01*
X114219030Y-78318652D01*
X114312115Y-78167738D01*
X114312115Y-78167735D01*
X114314146Y-78164444D01*
X114366094Y-78117720D01*
X114435057Y-78106497D01*
X114499139Y-78134341D01*
X114507366Y-78141860D01*
X114641967Y-78276461D01*
X114817508Y-78403999D01*
X115010840Y-78502506D01*
X115217200Y-78569557D01*
X115297566Y-78582285D01*
X115431505Y-78603500D01*
X115431510Y-78603500D01*
X115648495Y-78603500D01*
X115767551Y-78584642D01*
X115862800Y-78569557D01*
X116069160Y-78502506D01*
X116262492Y-78403999D01*
X116438033Y-78276461D01*
X116591461Y-78123033D01*
X116718999Y-77947492D01*
X116753778Y-77879233D01*
X116801750Y-77828439D01*
X116869571Y-77811643D01*
X116935706Y-77834180D01*
X116951943Y-77847848D01*
X117596163Y-78492069D01*
X117596166Y-78492072D01*
X117699919Y-78561397D01*
X117699925Y-78561401D01*
X117718929Y-78569272D01*
X117775932Y-78592884D01*
X117775937Y-78592885D01*
X117775941Y-78592887D01*
X117815215Y-78609155D01*
X117881285Y-78622297D01*
X117937601Y-78633499D01*
X117937605Y-78633500D01*
X117937606Y-78633500D01*
X117937607Y-78633500D01*
X118062394Y-78633500D01*
X118574056Y-78633500D01*
X118641095Y-78653185D01*
X118679595Y-78692403D01*
X118682883Y-78697733D01*
X118682885Y-78697738D01*
X118775970Y-78848652D01*
X118901348Y-78974030D01*
X119052262Y-79067115D01*
X119220574Y-79122887D01*
X119324455Y-79133500D01*
X120675544Y-79133499D01*
X120779426Y-79122887D01*
X120947738Y-79067115D01*
X121098652Y-78974030D01*
X121224030Y-78848652D01*
X121314391Y-78702155D01*
X122600000Y-78702155D01*
X122600000Y-79750000D01*
X123750000Y-79750000D01*
X124250000Y-79750000D01*
X125400000Y-79750000D01*
X125400000Y-78702172D01*
X125399999Y-78702155D01*
X125393598Y-78642627D01*
X125393596Y-78642620D01*
X125343354Y-78507913D01*
X125343350Y-78507906D01*
X125257190Y-78392812D01*
X125257187Y-78392809D01*
X125142093Y-78306649D01*
X125142086Y-78306645D01*
X125007379Y-78256403D01*
X125007372Y-78256401D01*
X124947844Y-78250000D01*
X124250000Y-78250000D01*
X124250000Y-79750000D01*
X123750000Y-79750000D01*
X123750000Y-78250000D01*
X123052155Y-78250000D01*
X122992627Y-78256401D01*
X122992620Y-78256403D01*
X122857913Y-78306645D01*
X122857906Y-78306649D01*
X122742812Y-78392809D01*
X122742809Y-78392812D01*
X122656649Y-78507906D01*
X122656645Y-78507913D01*
X122606403Y-78642620D01*
X122606401Y-78642627D01*
X122600000Y-78702155D01*
X121314391Y-78702155D01*
X121317115Y-78697738D01*
X121367038Y-78547076D01*
X121400908Y-78497762D01*
X121399525Y-78496379D01*
X121645904Y-78250000D01*
X122444924Y-77450978D01*
X122506245Y-77417495D01*
X122575936Y-77422479D01*
X122631870Y-77464350D01*
X122648782Y-77495324D01*
X122649111Y-77496204D01*
X122649112Y-77496206D01*
X122671075Y-77525545D01*
X122736739Y-77613261D01*
X122853796Y-77700889D01*
X122990799Y-77751989D01*
X123018050Y-77754918D01*
X123051345Y-77758499D01*
X123051362Y-77758500D01*
X124948638Y-77758500D01*
X124948654Y-77758499D01*
X124975692Y-77755591D01*
X125009201Y-77751989D01*
X125146204Y-77700889D01*
X125263261Y-77613261D01*
X125350889Y-77496204D01*
X125401989Y-77359201D01*
X125407537Y-77307597D01*
X125408499Y-77298654D01*
X125408500Y-77298637D01*
X125408500Y-74701362D01*
X125408499Y-74701345D01*
X125405157Y-74670270D01*
X125401989Y-74640799D01*
X125350889Y-74503796D01*
X125263261Y-74386739D01*
X125146204Y-74299111D01*
X125009203Y-74248011D01*
X124948654Y-74241500D01*
X124948638Y-74241500D01*
X123051362Y-74241500D01*
X123051345Y-74241500D01*
X122990797Y-74248011D01*
X122990795Y-74248011D01*
X122853795Y-74299111D01*
X122736739Y-74386739D01*
X122649111Y-74503795D01*
X122598011Y-74640795D01*
X122598011Y-74640797D01*
X122591500Y-74701345D01*
X122591500Y-75461233D01*
X122571815Y-75528272D01*
X122555181Y-75548914D01*
X121155285Y-76948809D01*
X121093962Y-76982294D01*
X121024270Y-76977310D01*
X121002508Y-76966667D01*
X120947744Y-76932888D01*
X120947739Y-76932886D01*
X120947738Y-76932885D01*
X120947735Y-76932884D01*
X120779427Y-76877113D01*
X120675545Y-76866500D01*
X119324462Y-76866500D01*
X119324446Y-76866501D01*
X119220572Y-76877113D01*
X119052264Y-76932884D01*
X119052259Y-76932886D01*
X118901346Y-77025971D01*
X118775971Y-77151346D01*
X118775970Y-77151348D01*
X118682885Y-77302262D01*
X118682884Y-77302264D01*
X118679595Y-77307597D01*
X118627647Y-77354321D01*
X118574056Y-77366500D01*
X118313767Y-77366500D01*
X118246728Y-77346815D01*
X118226086Y-77330181D01*
X117403836Y-76507931D01*
X117403832Y-76507928D01*
X117300081Y-76438603D01*
X117300072Y-76438598D01*
X117184785Y-76390845D01*
X117184777Y-76390843D01*
X117062398Y-76366500D01*
X117062394Y-76366500D01*
X116946802Y-76366500D01*
X116879763Y-76346815D01*
X116834008Y-76294011D01*
X116828871Y-76280819D01*
X116824418Y-76267115D01*
X116817506Y-76245840D01*
X116817504Y-76245837D01*
X116817504Y-76245835D01*
X116725571Y-76065407D01*
X116718999Y-76052508D01*
X116591461Y-75876967D01*
X116438033Y-75723539D01*
X116262492Y-75596001D01*
X116069160Y-75497494D01*
X115862800Y-75430443D01*
X115862798Y-75430442D01*
X115862796Y-75430442D01*
X115648495Y-75396500D01*
X115648490Y-75396500D01*
X115431510Y-75396500D01*
X115431505Y-75396500D01*
X115217203Y-75430442D01*
X115010837Y-75497495D01*
X114817507Y-75596001D01*
X114641968Y-75723538D01*
X114507366Y-75858140D01*
X114446043Y-75891624D01*
X114376351Y-75886640D01*
X114320418Y-75844768D01*
X114314147Y-75835555D01*
X114219032Y-75681351D01*
X114219029Y-75681347D01*
X114093653Y-75555971D01*
X114093652Y-75555970D01*
X113942738Y-75462885D01*
X113942735Y-75462884D01*
X113774427Y-75407113D01*
X113670545Y-75396500D01*
X112329462Y-75396500D01*
X112329446Y-75396501D01*
X112225572Y-75407113D01*
X112057264Y-75462884D01*
X112057259Y-75462886D01*
X111906346Y-75555971D01*
X111780971Y-75681346D01*
X111687886Y-75832259D01*
X111687884Y-75832264D01*
X111632113Y-76000572D01*
X111621500Y-76104447D01*
X108000000Y-76104447D01*
X108000000Y-71151345D01*
X118611500Y-71151345D01*
X118611500Y-73448654D01*
X118618011Y-73509202D01*
X118618011Y-73509204D01*
X118650448Y-73596167D01*
X118669111Y-73646204D01*
X118756739Y-73763261D01*
X118873796Y-73850889D01*
X118950564Y-73879522D01*
X119010795Y-73901988D01*
X119018341Y-73903771D01*
X119017655Y-73906674D01*
X119069318Y-73928043D01*
X119109196Y-73985415D01*
X119111725Y-74055239D01*
X119076103Y-74115346D01*
X119056658Y-74130172D01*
X118901351Y-74225967D01*
X118901347Y-74225970D01*
X118775971Y-74351346D01*
X118682886Y-74502259D01*
X118682884Y-74502264D01*
X118627113Y-74670572D01*
X118616500Y-74774447D01*
X118616500Y-75625537D01*
X118616501Y-75625553D01*
X118627113Y-75729427D01*
X118676001Y-75876964D01*
X118682885Y-75897738D01*
X118775970Y-76048652D01*
X118901348Y-76174030D01*
X119052262Y-76267115D01*
X119220574Y-76322887D01*
X119324455Y-76333500D01*
X120675544Y-76333499D01*
X120779426Y-76322887D01*
X120947738Y-76267115D01*
X121098652Y-76174030D01*
X121224030Y-76048652D01*
X121317115Y-75897738D01*
X121372887Y-75729426D01*
X121383500Y-75625545D01*
X121383499Y-74774456D01*
X121372887Y-74670574D01*
X121317115Y-74502262D01*
X121224030Y-74351348D01*
X121098652Y-74225970D01*
X120947738Y-74132885D01*
X120894808Y-74115346D01*
X120779427Y-74077113D01*
X120744896Y-74073585D01*
X120680205Y-74047188D01*
X120640054Y-73990007D01*
X120633500Y-73950227D01*
X120633500Y-73937603D01*
X120625008Y-73894913D01*
X120631235Y-73825321D01*
X120672315Y-73771454D01*
X120683261Y-73763261D01*
X120770889Y-73646204D01*
X120821989Y-73509201D01*
X120826679Y-73465577D01*
X120828499Y-73448654D01*
X120828500Y-73448637D01*
X120828500Y-71151362D01*
X120828499Y-71151345D01*
X123171500Y-71151345D01*
X123171500Y-73448654D01*
X123178011Y-73509202D01*
X123178011Y-73509204D01*
X123210448Y-73596167D01*
X123229111Y-73646204D01*
X123316739Y-73763261D01*
X123433796Y-73850889D01*
X123570799Y-73901989D01*
X123598050Y-73904918D01*
X123631345Y-73908499D01*
X123631362Y-73908500D01*
X124928638Y-73908500D01*
X124928654Y-73908499D01*
X124955692Y-73905591D01*
X124989201Y-73901989D01*
X125126204Y-73850889D01*
X125243261Y-73763261D01*
X125330889Y-73646204D01*
X125377398Y-73521509D01*
X125419269Y-73465577D01*
X125484734Y-73441161D01*
X125553006Y-73456013D01*
X125581259Y-73477163D01*
X125919305Y-73815210D01*
X126171239Y-74067144D01*
X126204724Y-74128467D01*
X126199740Y-74198159D01*
X126176768Y-74233909D01*
X126177820Y-74234741D01*
X126173339Y-74240407D01*
X126081795Y-74388821D01*
X126081790Y-74388832D01*
X126026938Y-74554367D01*
X126016500Y-74656529D01*
X126016500Y-75255955D01*
X126016501Y-75255971D01*
X126026938Y-75358132D01*
X126081790Y-75523667D01*
X126081795Y-75523678D01*
X126173339Y-75672092D01*
X126173340Y-75672093D01*
X126173342Y-75672096D01*
X126230672Y-75729426D01*
X126282315Y-75781069D01*
X126315799Y-75842392D01*
X126310815Y-75912084D01*
X126282315Y-75956431D01*
X126173339Y-76065407D01*
X126081795Y-76213821D01*
X126081790Y-76213832D01*
X126026938Y-76379367D01*
X126016500Y-76481529D01*
X126016500Y-77080955D01*
X126016501Y-77080971D01*
X126026938Y-77183132D01*
X126081790Y-77348667D01*
X126081795Y-77348678D01*
X126173339Y-77497092D01*
X126173342Y-77497096D01*
X126296653Y-77620407D01*
X126296657Y-77620410D01*
X126445071Y-77711954D01*
X126445074Y-77711955D01*
X126445080Y-77711959D01*
X126610619Y-77766812D01*
X126712787Y-77777250D01*
X127287212Y-77777249D01*
X127389381Y-77766812D01*
X127554920Y-77711959D01*
X127703346Y-77620408D01*
X127753008Y-77570746D01*
X127814331Y-77537260D01*
X127884022Y-77542244D01*
X127909582Y-77555325D01*
X127918669Y-77561397D01*
X127918671Y-77561398D01*
X127918673Y-77561399D01*
X127918675Y-77561400D01*
X127936847Y-77568927D01*
X127991250Y-77612765D01*
X128007102Y-77644484D01*
X128043445Y-77754160D01*
X128057885Y-77797738D01*
X128150970Y-77948652D01*
X128276348Y-78074030D01*
X128427262Y-78167115D01*
X128595574Y-78222887D01*
X128699455Y-78233500D01*
X129300544Y-78233499D01*
X129404426Y-78222887D01*
X129572738Y-78167115D01*
X129723652Y-78074030D01*
X129849030Y-77948652D01*
X129849032Y-77948647D01*
X129852732Y-77943970D01*
X129909753Y-77903591D01*
X129979552Y-77900451D01*
X130039968Y-77935545D01*
X130047268Y-77943970D01*
X130050969Y-77948651D01*
X130050970Y-77948652D01*
X130176348Y-78074030D01*
X130327262Y-78167115D01*
X130495574Y-78222887D01*
X130599455Y-78233500D01*
X131200544Y-78233499D01*
X131304426Y-78222887D01*
X131472738Y-78167115D01*
X131623652Y-78074030D01*
X131749030Y-77948652D01*
X131842115Y-77797738D01*
X131897887Y-77629426D01*
X131908500Y-77525545D01*
X131908499Y-76474456D01*
X131897887Y-76370574D01*
X131842115Y-76202262D01*
X131749030Y-76051348D01*
X131623652Y-75925970D01*
X131513683Y-75858140D01*
X131472740Y-75832886D01*
X131472735Y-75832884D01*
X131304427Y-75777113D01*
X131200546Y-75766500D01*
X130599462Y-75766500D01*
X130599446Y-75766501D01*
X130495572Y-75777113D01*
X130327264Y-75832884D01*
X130327259Y-75832886D01*
X130176346Y-75925971D01*
X130050972Y-76051345D01*
X130047265Y-76056034D01*
X129990242Y-76096410D01*
X129920443Y-76099547D01*
X129860028Y-76064450D01*
X129852735Y-76056034D01*
X129849032Y-76051351D01*
X129849030Y-76051348D01*
X129723652Y-75925970D01*
X129613683Y-75858140D01*
X129572740Y-75832886D01*
X129572735Y-75832884D01*
X129404427Y-75777113D01*
X129300546Y-75766500D01*
X128699462Y-75766500D01*
X128699446Y-75766501D01*
X128595572Y-75777113D01*
X128427264Y-75832884D01*
X128427259Y-75832886D01*
X128276349Y-75925969D01*
X128150969Y-76051348D01*
X128127839Y-76088848D01*
X128075890Y-76135572D01*
X128022301Y-76147750D01*
X127946656Y-76147750D01*
X127879617Y-76128065D01*
X127841117Y-76088846D01*
X127826658Y-76065404D01*
X127717685Y-75956431D01*
X127684200Y-75895108D01*
X127689184Y-75825416D01*
X127717685Y-75781069D01*
X127769328Y-75729426D01*
X127826658Y-75672096D01*
X127918209Y-75523670D01*
X127973062Y-75358131D01*
X127983500Y-75255963D01*
X127983499Y-74656538D01*
X127973062Y-74554369D01*
X127918209Y-74388830D01*
X127918205Y-74388824D01*
X127918204Y-74388821D01*
X127826660Y-74240407D01*
X127826657Y-74240403D01*
X127703346Y-74117092D01*
X127703340Y-74117087D01*
X127692400Y-74110339D01*
X127645677Y-74058390D01*
X127633500Y-74004803D01*
X127633500Y-73937605D01*
X127633499Y-73937601D01*
X127616251Y-73850889D01*
X127609155Y-73815215D01*
X127587635Y-73763261D01*
X127587634Y-73763259D01*
X127561404Y-73699932D01*
X127561403Y-73699931D01*
X127561401Y-73699925D01*
X127525506Y-73646204D01*
X127492072Y-73596166D01*
X126483585Y-72587679D01*
X126450100Y-72526356D01*
X126455084Y-72456664D01*
X126483583Y-72412319D01*
X128048057Y-70847845D01*
X128109378Y-70814362D01*
X128179070Y-70819346D01*
X128235003Y-70861218D01*
X128246221Y-70879233D01*
X128254536Y-70895552D01*
X128281001Y-70947492D01*
X128408539Y-71123033D01*
X128561967Y-71276461D01*
X128737508Y-71403999D01*
X128930840Y-71502506D01*
X129137200Y-71569557D01*
X129217566Y-71582285D01*
X129351505Y-71603500D01*
X129351510Y-71603500D01*
X129568495Y-71603500D01*
X129687551Y-71584642D01*
X129782800Y-71569557D01*
X129989160Y-71502506D01*
X130182492Y-71403999D01*
X130358033Y-71276461D01*
X130492636Y-71141857D01*
X130553955Y-71108375D01*
X130623647Y-71113359D01*
X130679581Y-71155230D01*
X130685852Y-71164444D01*
X130780967Y-71318648D01*
X130780970Y-71318652D01*
X130906348Y-71444030D01*
X131057262Y-71537115D01*
X131225574Y-71592887D01*
X131329455Y-71603500D01*
X132670544Y-71603499D01*
X132774426Y-71592887D01*
X132942738Y-71537115D01*
X133093652Y-71444030D01*
X133219030Y-71318652D01*
X133312115Y-71167738D01*
X133367887Y-70999426D01*
X133378500Y-70895545D01*
X133378499Y-69104456D01*
X133367887Y-69000574D01*
X133312115Y-68832262D01*
X133219030Y-68681348D01*
X133093652Y-68555970D01*
X132942738Y-68462885D01*
X132844830Y-68430442D01*
X132774427Y-68407113D01*
X132670545Y-68396500D01*
X131329462Y-68396500D01*
X131329446Y-68396501D01*
X131225572Y-68407113D01*
X131057264Y-68462884D01*
X131057259Y-68462886D01*
X130906346Y-68555971D01*
X130780969Y-68681348D01*
X130685852Y-68835556D01*
X130633904Y-68882280D01*
X130564941Y-68893501D01*
X130500859Y-68865658D01*
X130492633Y-68858139D01*
X130358035Y-68723541D01*
X130358033Y-68723539D01*
X130182492Y-68596001D01*
X129989160Y-68497494D01*
X129782800Y-68430443D01*
X129782798Y-68430442D01*
X129782796Y-68430442D01*
X129568495Y-68396500D01*
X129568490Y-68396500D01*
X129351510Y-68396500D01*
X129351505Y-68396500D01*
X129137203Y-68430442D01*
X128930837Y-68497495D01*
X128737507Y-68596001D01*
X128644986Y-68663222D01*
X128561967Y-68723539D01*
X128561965Y-68723541D01*
X128561964Y-68723541D01*
X128408541Y-68876964D01*
X128408541Y-68876965D01*
X128408539Y-68876967D01*
X128353766Y-68952355D01*
X128281001Y-69052507D01*
X128182495Y-69245835D01*
X128171129Y-69280819D01*
X128131691Y-69338494D01*
X128067332Y-69365692D01*
X128053198Y-69366500D01*
X127937601Y-69366500D01*
X127815222Y-69390843D01*
X127815214Y-69390845D01*
X127699927Y-69438598D01*
X127699918Y-69438603D01*
X127596167Y-69507928D01*
X127596163Y-69507931D01*
X125600181Y-71503914D01*
X125538858Y-71537399D01*
X125469166Y-71532415D01*
X125413233Y-71490543D01*
X125388816Y-71425079D01*
X125388500Y-71416233D01*
X125388500Y-71151362D01*
X125388499Y-71151345D01*
X125384414Y-71113359D01*
X125381989Y-71090799D01*
X125330889Y-70953796D01*
X125243261Y-70836739D01*
X125126204Y-70749111D01*
X124989203Y-70698011D01*
X124928654Y-70691500D01*
X124928638Y-70691500D01*
X123631362Y-70691500D01*
X123631345Y-70691500D01*
X123570797Y-70698011D01*
X123570795Y-70698011D01*
X123433795Y-70749111D01*
X123316739Y-70836739D01*
X123229111Y-70953795D01*
X123178011Y-71090795D01*
X123178011Y-71090797D01*
X123171500Y-71151345D01*
X120828499Y-71151345D01*
X120824414Y-71113359D01*
X120821989Y-71090799D01*
X120770889Y-70953796D01*
X120683261Y-70836739D01*
X120566204Y-70749111D01*
X120429203Y-70698011D01*
X120368654Y-70691500D01*
X120368638Y-70691500D01*
X119071362Y-70691500D01*
X119071345Y-70691500D01*
X119010797Y-70698011D01*
X119010795Y-70698011D01*
X118873795Y-70749111D01*
X118756739Y-70836739D01*
X118669111Y-70953795D01*
X118618011Y-71090795D01*
X118618011Y-71090797D01*
X118611500Y-71151345D01*
X108000000Y-71151345D01*
X108000000Y-66878711D01*
X111149500Y-66878711D01*
X111149500Y-67121288D01*
X111181161Y-67361785D01*
X111243947Y-67596104D01*
X111336773Y-67820205D01*
X111336776Y-67820212D01*
X111458064Y-68030289D01*
X111458066Y-68030292D01*
X111458067Y-68030293D01*
X111605733Y-68222736D01*
X111605739Y-68222743D01*
X111777256Y-68394260D01*
X111777263Y-68394266D01*
X111866691Y-68462886D01*
X111969711Y-68541936D01*
X112179788Y-68663224D01*
X112403900Y-68756054D01*
X112638211Y-68818838D01*
X112818586Y-68842584D01*
X112878711Y-68850500D01*
X112878712Y-68850500D01*
X113121289Y-68850500D01*
X113169388Y-68844167D01*
X113361789Y-68818838D01*
X113596100Y-68756054D01*
X113820212Y-68663224D01*
X114030289Y-68541936D01*
X114222738Y-68394265D01*
X114394265Y-68222738D01*
X114541936Y-68030289D01*
X114663224Y-67820212D01*
X114756054Y-67596100D01*
X114818838Y-67361789D01*
X114850500Y-67121288D01*
X114850500Y-66878712D01*
X114818838Y-66638211D01*
X114756054Y-66403900D01*
X114663224Y-66179788D01*
X114541936Y-65969711D01*
X114394265Y-65777262D01*
X114394260Y-65777256D01*
X114222743Y-65605739D01*
X114222736Y-65605733D01*
X114030293Y-65458067D01*
X114030292Y-65458066D01*
X114030289Y-65458064D01*
X113820212Y-65336776D01*
X113820205Y-65336773D01*
X113596104Y-65243947D01*
X113361785Y-65181161D01*
X113121289Y-65149500D01*
X113121288Y-65149500D01*
X112878712Y-65149500D01*
X112878711Y-65149500D01*
X112638214Y-65181161D01*
X112403895Y-65243947D01*
X112179794Y-65336773D01*
X112179785Y-65336777D01*
X111969706Y-65458067D01*
X111777263Y-65605733D01*
X111777256Y-65605739D01*
X111605739Y-65777256D01*
X111605733Y-65777263D01*
X111458067Y-65969706D01*
X111336777Y-66179785D01*
X111336773Y-66179794D01*
X111243947Y-66403895D01*
X111181161Y-66638214D01*
X111149500Y-66878711D01*
X108000000Y-66878711D01*
X108000000Y-63001089D01*
X108000020Y-62998878D01*
X108000020Y-62998877D01*
X108002409Y-62864889D01*
X108003650Y-62849472D01*
X108017758Y-62751345D01*
X118591500Y-62751345D01*
X118591500Y-69248654D01*
X118598011Y-69309202D01*
X118598011Y-69309204D01*
X118646274Y-69438598D01*
X118649111Y-69446204D01*
X118736739Y-69563261D01*
X118853796Y-69650889D01*
X118990799Y-69701989D01*
X119018050Y-69704918D01*
X119051345Y-69708499D01*
X119051362Y-69708500D01*
X124948638Y-69708500D01*
X124948654Y-69708499D01*
X124975692Y-69705591D01*
X125009201Y-69701989D01*
X125146204Y-69650889D01*
X125263261Y-69563261D01*
X125350889Y-69446204D01*
X125401989Y-69309201D01*
X125405591Y-69275692D01*
X125408499Y-69248654D01*
X125408500Y-69248637D01*
X125408500Y-62751362D01*
X125408499Y-62751345D01*
X125405157Y-62720270D01*
X125401989Y-62690799D01*
X125350889Y-62553796D01*
X125263261Y-62436739D01*
X125146204Y-62349111D01*
X125009203Y-62298011D01*
X124948654Y-62291500D01*
X124948638Y-62291500D01*
X119051362Y-62291500D01*
X119051345Y-62291500D01*
X118990797Y-62298011D01*
X118990795Y-62298011D01*
X118853795Y-62349111D01*
X118736739Y-62436739D01*
X118649111Y-62553795D01*
X118598011Y-62690795D01*
X118598011Y-62690797D01*
X118591500Y-62751345D01*
X108017758Y-62751345D01*
X108041948Y-62583099D01*
X108045709Y-62565814D01*
X108109339Y-62349111D01*
X108121210Y-62308681D01*
X108127391Y-62292112D01*
X108238720Y-62048334D01*
X108247185Y-62032832D01*
X108392084Y-61807364D01*
X108402670Y-61793222D01*
X108578177Y-61590676D01*
X108590676Y-61578177D01*
X108793222Y-61402670D01*
X108807364Y-61392084D01*
X109032832Y-61247185D01*
X109048334Y-61238720D01*
X109292112Y-61127390D01*
X109308681Y-61121210D01*
X109565818Y-61045707D01*
X109583099Y-61041948D01*
X109849472Y-61003650D01*
X109864889Y-61002409D01*
X109998879Y-61000020D01*
X110001090Y-61000000D01*
X132998910Y-61000000D01*
X133001121Y-61000020D01*
G37*
%TD.AperFunction*%
%TD*%
M02*
