M48
; DRILL file {KiCad 8.0.9} date 2025-09-30T19:49:43-0500
; FORMAT={-:-/ absolute / inch / decimal}
; #@! TF.CreationDate,2025-09-30T19:49:43-05:00
; #@! TF.GenerationSoftware,Kicad,Pcbnew,8.0.9
; #@! TF.FileFunction,Plated,1,2,PTH
FMAT,2
INCH
; #@! TA.AperFunction,Plated,PTH,ViaDrill
T1C0.0157
; #@! TA.AperFunction,Plated,PTH,ComponentDrill
T2C0.0256
; #@! TA.AperFunction,Plated,PTH,ComponentDrill
T3C0.0469
%
G90
G05
T1
X4.4094Y-3.5433
X4.4094Y-3.6618
X4.4094Y-3.7803
X4.4488Y-3.8988
X4.5276Y-4.0169
X4.6063Y-4.0157
X4.7244Y-4.0157
X4.8031Y-2.5984
X5.1535Y-3.0315
T2
X4.5768Y-3.7008
X5.0295Y-3.7008
T3
X4.4488Y-3.0315
X4.4882Y-3.2677
X4.4882Y-3.3677
X4.5488Y-3.0315
X4.7213Y-3.3858
X4.8213Y-3.3858
X4.9213Y-3.3858
X5.0969Y-2.7559
X5.1969Y-2.7559
M30
