%TF.GenerationSoftware,KiCad,Pcbnew,8.0.9*%
%TF.CreationDate,2025-09-30T19:49:28-05:00*%
%TF.ProjectId,horns,686f726e-732e-46b6-9963-61645f706362,1.0.0*%
%TF.SameCoordinates,Original*%
%TF.FileFunction,Legend,Top*%
%TF.FilePolarity,Positive*%
%FSLAX46Y46*%
G04 Gerber Fmt 4.6, Leading zero omitted, Abs format (unit mm)*
G04 Created by KiCad (PCBNEW 8.0.9) date 2025-09-30 19:49:28*
%MOMM*%
%LPD*%
G01*
G04 APERTURE LIST*
%ADD10C,0.150000*%
%ADD11C,0.120000*%
G04 APERTURE END LIST*
D10*
X120359580Y-100166666D02*
X120407200Y-100214285D01*
X120407200Y-100214285D02*
X120454819Y-100357142D01*
X120454819Y-100357142D02*
X120454819Y-100452380D01*
X120454819Y-100452380D02*
X120407200Y-100595237D01*
X120407200Y-100595237D02*
X120311961Y-100690475D01*
X120311961Y-100690475D02*
X120216723Y-100738094D01*
X120216723Y-100738094D02*
X120026247Y-100785713D01*
X120026247Y-100785713D02*
X119883390Y-100785713D01*
X119883390Y-100785713D02*
X119692914Y-100738094D01*
X119692914Y-100738094D02*
X119597676Y-100690475D01*
X119597676Y-100690475D02*
X119502438Y-100595237D01*
X119502438Y-100595237D02*
X119454819Y-100452380D01*
X119454819Y-100452380D02*
X119454819Y-100357142D01*
X119454819Y-100357142D02*
X119502438Y-100214285D01*
X119502438Y-100214285D02*
X119550057Y-100166666D01*
X119550057Y-99785713D02*
X119502438Y-99738094D01*
X119502438Y-99738094D02*
X119454819Y-99642856D01*
X119454819Y-99642856D02*
X119454819Y-99404761D01*
X119454819Y-99404761D02*
X119502438Y-99309523D01*
X119502438Y-99309523D02*
X119550057Y-99261904D01*
X119550057Y-99261904D02*
X119645295Y-99214285D01*
X119645295Y-99214285D02*
X119740533Y-99214285D01*
X119740533Y-99214285D02*
X119883390Y-99261904D01*
X119883390Y-99261904D02*
X120454819Y-99833332D01*
X120454819Y-99833332D02*
X120454819Y-99214285D01*
X109359580Y-101761904D02*
X109407200Y-101809523D01*
X109407200Y-101809523D02*
X109454819Y-101952380D01*
X109454819Y-101952380D02*
X109454819Y-102047618D01*
X109454819Y-102047618D02*
X109407200Y-102190475D01*
X109407200Y-102190475D02*
X109311961Y-102285713D01*
X109311961Y-102285713D02*
X109216723Y-102333332D01*
X109216723Y-102333332D02*
X109026247Y-102380951D01*
X109026247Y-102380951D02*
X108883390Y-102380951D01*
X108883390Y-102380951D02*
X108692914Y-102333332D01*
X108692914Y-102333332D02*
X108597676Y-102285713D01*
X108597676Y-102285713D02*
X108502438Y-102190475D01*
X108502438Y-102190475D02*
X108454819Y-102047618D01*
X108454819Y-102047618D02*
X108454819Y-101952380D01*
X108454819Y-101952380D02*
X108502438Y-101809523D01*
X108502438Y-101809523D02*
X108550057Y-101761904D01*
X108883390Y-101190475D02*
X108835771Y-101285713D01*
X108835771Y-101285713D02*
X108788152Y-101333332D01*
X108788152Y-101333332D02*
X108692914Y-101380951D01*
X108692914Y-101380951D02*
X108645295Y-101380951D01*
X108645295Y-101380951D02*
X108550057Y-101333332D01*
X108550057Y-101333332D02*
X108502438Y-101285713D01*
X108502438Y-101285713D02*
X108454819Y-101190475D01*
X108454819Y-101190475D02*
X108454819Y-100999999D01*
X108454819Y-100999999D02*
X108502438Y-100904761D01*
X108502438Y-100904761D02*
X108550057Y-100857142D01*
X108550057Y-100857142D02*
X108645295Y-100809523D01*
X108645295Y-100809523D02*
X108692914Y-100809523D01*
X108692914Y-100809523D02*
X108788152Y-100857142D01*
X108788152Y-100857142D02*
X108835771Y-100904761D01*
X108835771Y-100904761D02*
X108883390Y-100999999D01*
X108883390Y-100999999D02*
X108883390Y-101190475D01*
X108883390Y-101190475D02*
X108931009Y-101285713D01*
X108931009Y-101285713D02*
X108978628Y-101333332D01*
X108978628Y-101333332D02*
X109073866Y-101380951D01*
X109073866Y-101380951D02*
X109264342Y-101380951D01*
X109264342Y-101380951D02*
X109359580Y-101333332D01*
X109359580Y-101333332D02*
X109407200Y-101285713D01*
X109407200Y-101285713D02*
X109454819Y-101190475D01*
X109454819Y-101190475D02*
X109454819Y-100999999D01*
X109454819Y-100999999D02*
X109407200Y-100904761D01*
X109407200Y-100904761D02*
X109359580Y-100857142D01*
X109359580Y-100857142D02*
X109264342Y-100809523D01*
X109264342Y-100809523D02*
X109073866Y-100809523D01*
X109073866Y-100809523D02*
X108978628Y-100857142D01*
X108978628Y-100857142D02*
X108931009Y-100904761D01*
X108931009Y-100904761D02*
X108883390Y-100999999D01*
X109073866Y-100380951D02*
X109073866Y-99619047D01*
X109359580Y-98571428D02*
X109407200Y-98619047D01*
X109407200Y-98619047D02*
X109454819Y-98761904D01*
X109454819Y-98761904D02*
X109454819Y-98857142D01*
X109454819Y-98857142D02*
X109407200Y-98999999D01*
X109407200Y-98999999D02*
X109311961Y-99095237D01*
X109311961Y-99095237D02*
X109216723Y-99142856D01*
X109216723Y-99142856D02*
X109026247Y-99190475D01*
X109026247Y-99190475D02*
X108883390Y-99190475D01*
X108883390Y-99190475D02*
X108692914Y-99142856D01*
X108692914Y-99142856D02*
X108597676Y-99095237D01*
X108597676Y-99095237D02*
X108502438Y-98999999D01*
X108502438Y-98999999D02*
X108454819Y-98857142D01*
X108454819Y-98857142D02*
X108454819Y-98761904D01*
X108454819Y-98761904D02*
X108502438Y-98619047D01*
X108502438Y-98619047D02*
X108550057Y-98571428D01*
X108788152Y-97714285D02*
X109454819Y-97714285D01*
X108407200Y-97952380D02*
X109121485Y-98190475D01*
X109121485Y-98190475D02*
X109121485Y-97571428D01*
X118550057Y-67095238D02*
X118502438Y-67190476D01*
X118502438Y-67190476D02*
X118407200Y-67285714D01*
X118407200Y-67285714D02*
X118264342Y-67428571D01*
X118264342Y-67428571D02*
X118216723Y-67523809D01*
X118216723Y-67523809D02*
X118216723Y-67619047D01*
X118454819Y-67571428D02*
X118407200Y-67666666D01*
X118407200Y-67666666D02*
X118311961Y-67761904D01*
X118311961Y-67761904D02*
X118121485Y-67809523D01*
X118121485Y-67809523D02*
X117788152Y-67809523D01*
X117788152Y-67809523D02*
X117597676Y-67761904D01*
X117597676Y-67761904D02*
X117502438Y-67666666D01*
X117502438Y-67666666D02*
X117454819Y-67571428D01*
X117454819Y-67571428D02*
X117454819Y-67380952D01*
X117454819Y-67380952D02*
X117502438Y-67285714D01*
X117502438Y-67285714D02*
X117597676Y-67190476D01*
X117597676Y-67190476D02*
X117788152Y-67142857D01*
X117788152Y-67142857D02*
X118121485Y-67142857D01*
X118121485Y-67142857D02*
X118311961Y-67190476D01*
X118311961Y-67190476D02*
X118407200Y-67285714D01*
X118407200Y-67285714D02*
X118454819Y-67380952D01*
X118454819Y-67380952D02*
X118454819Y-67571428D01*
X118454819Y-66190476D02*
X118454819Y-66761904D01*
X118454819Y-66476190D02*
X117454819Y-66476190D01*
X117454819Y-66476190D02*
X117597676Y-66571428D01*
X117597676Y-66571428D02*
X117692914Y-66666666D01*
X117692914Y-66666666D02*
X117740533Y-66761904D01*
X118181009Y-76283333D02*
X118181009Y-76616666D01*
X118704819Y-76616666D02*
X117704819Y-76616666D01*
X117704819Y-76616666D02*
X117704819Y-76140476D01*
X118704819Y-75235714D02*
X118704819Y-75807142D01*
X118704819Y-75521428D02*
X117704819Y-75521428D01*
X117704819Y-75521428D02*
X117847676Y-75616666D01*
X117847676Y-75616666D02*
X117942914Y-75711904D01*
X117942914Y-75711904D02*
X117990533Y-75807142D01*
X113666666Y-80454819D02*
X113666666Y-81169104D01*
X113666666Y-81169104D02*
X113619047Y-81311961D01*
X113619047Y-81311961D02*
X113523809Y-81407200D01*
X113523809Y-81407200D02*
X113380952Y-81454819D01*
X113380952Y-81454819D02*
X113285714Y-81454819D01*
X114571428Y-80788152D02*
X114571428Y-81454819D01*
X114333333Y-80407200D02*
X114095238Y-81121485D01*
X114095238Y-81121485D02*
X114714285Y-81121485D01*
X121954819Y-80738094D02*
X120954819Y-80738094D01*
X120954819Y-80738094D02*
X120954819Y-80499999D01*
X120954819Y-80499999D02*
X121002438Y-80357142D01*
X121002438Y-80357142D02*
X121097676Y-80261904D01*
X121097676Y-80261904D02*
X121192914Y-80214285D01*
X121192914Y-80214285D02*
X121383390Y-80166666D01*
X121383390Y-80166666D02*
X121526247Y-80166666D01*
X121526247Y-80166666D02*
X121716723Y-80214285D01*
X121716723Y-80214285D02*
X121811961Y-80261904D01*
X121811961Y-80261904D02*
X121907200Y-80357142D01*
X121907200Y-80357142D02*
X121954819Y-80499999D01*
X121954819Y-80499999D02*
X121954819Y-80738094D01*
X121050057Y-79785713D02*
X121002438Y-79738094D01*
X121002438Y-79738094D02*
X120954819Y-79642856D01*
X120954819Y-79642856D02*
X120954819Y-79404761D01*
X120954819Y-79404761D02*
X121002438Y-79309523D01*
X121002438Y-79309523D02*
X121050057Y-79261904D01*
X121050057Y-79261904D02*
X121145295Y-79214285D01*
X121145295Y-79214285D02*
X121240533Y-79214285D01*
X121240533Y-79214285D02*
X121383390Y-79261904D01*
X121383390Y-79261904D02*
X121954819Y-79833332D01*
X121954819Y-79833332D02*
X121954819Y-79214285D01*
X117349580Y-100166666D02*
X117397200Y-100214285D01*
X117397200Y-100214285D02*
X117444819Y-100357142D01*
X117444819Y-100357142D02*
X117444819Y-100452380D01*
X117444819Y-100452380D02*
X117397200Y-100595237D01*
X117397200Y-100595237D02*
X117301961Y-100690475D01*
X117301961Y-100690475D02*
X117206723Y-100738094D01*
X117206723Y-100738094D02*
X117016247Y-100785713D01*
X117016247Y-100785713D02*
X116873390Y-100785713D01*
X116873390Y-100785713D02*
X116682914Y-100738094D01*
X116682914Y-100738094D02*
X116587676Y-100690475D01*
X116587676Y-100690475D02*
X116492438Y-100595237D01*
X116492438Y-100595237D02*
X116444819Y-100452380D01*
X116444819Y-100452380D02*
X116444819Y-100357142D01*
X116444819Y-100357142D02*
X116492438Y-100214285D01*
X116492438Y-100214285D02*
X116540057Y-100166666D01*
X116444819Y-99833332D02*
X116444819Y-99214285D01*
X116444819Y-99214285D02*
X116825771Y-99547618D01*
X116825771Y-99547618D02*
X116825771Y-99404761D01*
X116825771Y-99404761D02*
X116873390Y-99309523D01*
X116873390Y-99309523D02*
X116921009Y-99261904D01*
X116921009Y-99261904D02*
X117016247Y-99214285D01*
X117016247Y-99214285D02*
X117254342Y-99214285D01*
X117254342Y-99214285D02*
X117349580Y-99261904D01*
X117349580Y-99261904D02*
X117397200Y-99309523D01*
X117397200Y-99309523D02*
X117444819Y-99404761D01*
X117444819Y-99404761D02*
X117444819Y-99690475D01*
X117444819Y-99690475D02*
X117397200Y-99785713D01*
X117397200Y-99785713D02*
X117349580Y-99833332D01*
X129307142Y-75359580D02*
X129259523Y-75407200D01*
X129259523Y-75407200D02*
X129116666Y-75454819D01*
X129116666Y-75454819D02*
X129021428Y-75454819D01*
X129021428Y-75454819D02*
X128878571Y-75407200D01*
X128878571Y-75407200D02*
X128783333Y-75311961D01*
X128783333Y-75311961D02*
X128735714Y-75216723D01*
X128735714Y-75216723D02*
X128688095Y-75026247D01*
X128688095Y-75026247D02*
X128688095Y-74883390D01*
X128688095Y-74883390D02*
X128735714Y-74692914D01*
X128735714Y-74692914D02*
X128783333Y-74597676D01*
X128783333Y-74597676D02*
X128878571Y-74502438D01*
X128878571Y-74502438D02*
X129021428Y-74454819D01*
X129021428Y-74454819D02*
X129116666Y-74454819D01*
X129116666Y-74454819D02*
X129259523Y-74502438D01*
X129259523Y-74502438D02*
X129307142Y-74550057D01*
X130259523Y-75454819D02*
X129688095Y-75454819D01*
X129973809Y-75454819D02*
X129973809Y-74454819D01*
X129973809Y-74454819D02*
X129878571Y-74597676D01*
X129878571Y-74597676D02*
X129783333Y-74692914D01*
X129783333Y-74692914D02*
X129688095Y-74740533D01*
X130878571Y-74454819D02*
X130973809Y-74454819D01*
X130973809Y-74454819D02*
X131069047Y-74502438D01*
X131069047Y-74502438D02*
X131116666Y-74550057D01*
X131116666Y-74550057D02*
X131164285Y-74645295D01*
X131164285Y-74645295D02*
X131211904Y-74835771D01*
X131211904Y-74835771D02*
X131211904Y-75073866D01*
X131211904Y-75073866D02*
X131164285Y-75264342D01*
X131164285Y-75264342D02*
X131116666Y-75359580D01*
X131116666Y-75359580D02*
X131069047Y-75407200D01*
X131069047Y-75407200D02*
X130973809Y-75454819D01*
X130973809Y-75454819D02*
X130878571Y-75454819D01*
X130878571Y-75454819D02*
X130783333Y-75407200D01*
X130783333Y-75407200D02*
X130735714Y-75359580D01*
X130735714Y-75359580D02*
X130688095Y-75264342D01*
X130688095Y-75264342D02*
X130640476Y-75073866D01*
X130640476Y-75073866D02*
X130640476Y-74835771D01*
X130640476Y-74835771D02*
X130688095Y-74645295D01*
X130688095Y-74645295D02*
X130735714Y-74550057D01*
X130735714Y-74550057D02*
X130783333Y-74502438D01*
X130783333Y-74502438D02*
X130878571Y-74454819D01*
X127666666Y-85454819D02*
X127666666Y-86169104D01*
X127666666Y-86169104D02*
X127619047Y-86311961D01*
X127619047Y-86311961D02*
X127523809Y-86407200D01*
X127523809Y-86407200D02*
X127380952Y-86454819D01*
X127380952Y-86454819D02*
X127285714Y-86454819D01*
X128666666Y-86454819D02*
X128095238Y-86454819D01*
X128380952Y-86454819D02*
X128380952Y-85454819D01*
X128380952Y-85454819D02*
X128285714Y-85597676D01*
X128285714Y-85597676D02*
X128190476Y-85692914D01*
X128190476Y-85692914D02*
X128095238Y-85740533D01*
X130396666Y-65454819D02*
X130396666Y-66169104D01*
X130396666Y-66169104D02*
X130349047Y-66311961D01*
X130349047Y-66311961D02*
X130253809Y-66407200D01*
X130253809Y-66407200D02*
X130110952Y-66454819D01*
X130110952Y-66454819D02*
X130015714Y-66454819D01*
X130825238Y-65550057D02*
X130872857Y-65502438D01*
X130872857Y-65502438D02*
X130968095Y-65454819D01*
X130968095Y-65454819D02*
X131206190Y-65454819D01*
X131206190Y-65454819D02*
X131301428Y-65502438D01*
X131301428Y-65502438D02*
X131349047Y-65550057D01*
X131349047Y-65550057D02*
X131396666Y-65645295D01*
X131396666Y-65645295D02*
X131396666Y-65740533D01*
X131396666Y-65740533D02*
X131349047Y-65883390D01*
X131349047Y-65883390D02*
X130777619Y-66454819D01*
X130777619Y-66454819D02*
X131396666Y-66454819D01*
X113936666Y-72334819D02*
X113936666Y-73049104D01*
X113936666Y-73049104D02*
X113889047Y-73191961D01*
X113889047Y-73191961D02*
X113793809Y-73287200D01*
X113793809Y-73287200D02*
X113650952Y-73334819D01*
X113650952Y-73334819D02*
X113555714Y-73334819D01*
X114317619Y-72334819D02*
X114936666Y-72334819D01*
X114936666Y-72334819D02*
X114603333Y-72715771D01*
X114603333Y-72715771D02*
X114746190Y-72715771D01*
X114746190Y-72715771D02*
X114841428Y-72763390D01*
X114841428Y-72763390D02*
X114889047Y-72811009D01*
X114889047Y-72811009D02*
X114936666Y-72906247D01*
X114936666Y-72906247D02*
X114936666Y-73144342D01*
X114936666Y-73144342D02*
X114889047Y-73239580D01*
X114889047Y-73239580D02*
X114841428Y-73287200D01*
X114841428Y-73287200D02*
X114746190Y-73334819D01*
X114746190Y-73334819D02*
X114460476Y-73334819D01*
X114460476Y-73334819D02*
X114365238Y-73287200D01*
X114365238Y-73287200D02*
X114317619Y-73239580D01*
X131833333Y-94359580D02*
X131785714Y-94407200D01*
X131785714Y-94407200D02*
X131642857Y-94454819D01*
X131642857Y-94454819D02*
X131547619Y-94454819D01*
X131547619Y-94454819D02*
X131404762Y-94407200D01*
X131404762Y-94407200D02*
X131309524Y-94311961D01*
X131309524Y-94311961D02*
X131261905Y-94216723D01*
X131261905Y-94216723D02*
X131214286Y-94026247D01*
X131214286Y-94026247D02*
X131214286Y-93883390D01*
X131214286Y-93883390D02*
X131261905Y-93692914D01*
X131261905Y-93692914D02*
X131309524Y-93597676D01*
X131309524Y-93597676D02*
X131404762Y-93502438D01*
X131404762Y-93502438D02*
X131547619Y-93454819D01*
X131547619Y-93454819D02*
X131642857Y-93454819D01*
X131642857Y-93454819D02*
X131785714Y-93502438D01*
X131785714Y-93502438D02*
X131833333Y-93550057D01*
X132309524Y-94454819D02*
X132500000Y-94454819D01*
X132500000Y-94454819D02*
X132595238Y-94407200D01*
X132595238Y-94407200D02*
X132642857Y-94359580D01*
X132642857Y-94359580D02*
X132738095Y-94216723D01*
X132738095Y-94216723D02*
X132785714Y-94026247D01*
X132785714Y-94026247D02*
X132785714Y-93645295D01*
X132785714Y-93645295D02*
X132738095Y-93550057D01*
X132738095Y-93550057D02*
X132690476Y-93502438D01*
X132690476Y-93502438D02*
X132595238Y-93454819D01*
X132595238Y-93454819D02*
X132404762Y-93454819D01*
X132404762Y-93454819D02*
X132309524Y-93502438D01*
X132309524Y-93502438D02*
X132261905Y-93550057D01*
X132261905Y-93550057D02*
X132214286Y-93645295D01*
X132214286Y-93645295D02*
X132214286Y-93883390D01*
X132214286Y-93883390D02*
X132261905Y-93978628D01*
X132261905Y-93978628D02*
X132309524Y-94026247D01*
X132309524Y-94026247D02*
X132404762Y-94073866D01*
X132404762Y-94073866D02*
X132595238Y-94073866D01*
X132595238Y-94073866D02*
X132690476Y-94026247D01*
X132690476Y-94026247D02*
X132738095Y-93978628D01*
X132738095Y-93978628D02*
X132785714Y-93883390D01*
D11*
%TO.C,C2*%
X119265000Y-102688748D02*
X119265000Y-103211252D01*
X120735000Y-102688748D02*
X120735000Y-103211252D01*
%TO.C,C5*%
X112311252Y-98295000D02*
X111788748Y-98295000D01*
X112311252Y-99765000D02*
X111788748Y-99765000D01*
%TO.C,C8-C4*%
X111311252Y-89265000D02*
X110788748Y-89265000D01*
X111311252Y-90735000D02*
X110788748Y-90735000D01*
%TO.C,Q1*%
X118550000Y-69070000D02*
X118550000Y-70570000D01*
X118550000Y-70570000D02*
X118820000Y-70570000D01*
X118820000Y-70570000D02*
X118820000Y-73400000D01*
X125180000Y-70570000D02*
X125180000Y-71670000D01*
X125450000Y-69070000D02*
X125450000Y-70570000D01*
X125450000Y-70570000D02*
X125180000Y-70570000D01*
%TO.C,F1*%
X119090000Y-77202064D02*
X119090000Y-75997936D01*
X120910000Y-77202064D02*
X120910000Y-75997936D01*
%TO.C,J4*%
X110970000Y-81620000D02*
X110970000Y-86920000D01*
X110970000Y-83800000D02*
X111570000Y-83800000D01*
X110970000Y-86340000D02*
X111570000Y-86340000D01*
X110970000Y-86920000D02*
X116990000Y-86920000D01*
X111570000Y-82200000D02*
X110970000Y-82200000D01*
X111570000Y-83800000D02*
X111570000Y-82200000D01*
X111570000Y-84740000D02*
X110970000Y-84740000D01*
X111570000Y-86340000D02*
X111570000Y-84740000D01*
X112000000Y-87210000D02*
X116000000Y-87210000D01*
X115460000Y-83250000D02*
X115990000Y-83000000D01*
X115460000Y-85290000D02*
X115460000Y-83250000D01*
X115990000Y-83000000D02*
X116990000Y-83000000D01*
X115990000Y-85540000D02*
X115460000Y-85290000D01*
X115990000Y-85540000D02*
X115990000Y-83000000D01*
X116990000Y-81620000D02*
X110970000Y-81620000D01*
X116990000Y-83250000D02*
X115990000Y-83250000D01*
X116990000Y-85290000D02*
X115990000Y-85290000D01*
X116990000Y-85540000D02*
X115990000Y-85540000D01*
X116990000Y-86920000D02*
X116990000Y-81620000D01*
%TO.C,C4*%
X114311252Y-101295000D02*
X113788748Y-101295000D01*
X114311252Y-102765000D02*
X113788748Y-102765000D01*
%TO.C,D2*%
X122350000Y-81400000D02*
X122350000Y-76000000D01*
X122350000Y-81400000D02*
X125650000Y-81400000D01*
X125650000Y-81400000D02*
X125650000Y-76000000D01*
%TO.C,C3*%
X116265000Y-102688748D02*
X116265000Y-103211252D01*
X117735000Y-102688748D02*
X117735000Y-103211252D01*
%TO.C,C7*%
X111311252Y-92275000D02*
X110788748Y-92275000D01*
X111311252Y-93745000D02*
X110788748Y-93745000D01*
%TO.C,C10*%
X130211252Y-76265000D02*
X129688748Y-76265000D01*
X130211252Y-77735000D02*
X129688748Y-77735000D01*
%TO.C,J1*%
X118540000Y-83010000D02*
X118540000Y-89030000D01*
X118540000Y-89030000D02*
X126380000Y-89030000D01*
X119120000Y-88430000D02*
X119120000Y-89030000D01*
X119920000Y-84010000D02*
X119920000Y-83010000D01*
X120170000Y-83010000D02*
X120170000Y-84010000D01*
X120170000Y-84540000D02*
X119920000Y-84010000D01*
X120720000Y-88430000D02*
X119120000Y-88430000D01*
X120720000Y-89030000D02*
X120720000Y-88430000D01*
X121660000Y-88430000D02*
X121660000Y-89030000D01*
X123260000Y-88430000D02*
X121660000Y-88430000D01*
X123260000Y-89030000D02*
X123260000Y-88430000D01*
X124200000Y-88430000D02*
X124200000Y-89030000D01*
X124750000Y-83010000D02*
X124750000Y-84010000D01*
X124750000Y-84540000D02*
X120170000Y-84540000D01*
X125000000Y-83010000D02*
X125000000Y-84010000D01*
X125000000Y-84010000D02*
X119920000Y-84010000D01*
X125000000Y-84010000D02*
X124750000Y-84540000D01*
X125800000Y-88430000D02*
X124200000Y-88430000D01*
X125800000Y-89030000D02*
X125800000Y-88430000D01*
X126380000Y-83010000D02*
X118540000Y-83010000D01*
X126380000Y-89030000D02*
X126380000Y-83010000D01*
X126670000Y-88000000D02*
X126670000Y-84000000D01*
%TO.C,J2*%
X128080000Y-67010000D02*
X128080000Y-73030000D01*
X128080000Y-73030000D02*
X133380000Y-73030000D01*
X128660000Y-72430000D02*
X128660000Y-73030000D01*
X129460000Y-68010000D02*
X129460000Y-67010000D01*
X129710000Y-67010000D02*
X129710000Y-68010000D01*
X129710000Y-68540000D02*
X129460000Y-68010000D01*
X130260000Y-72430000D02*
X128660000Y-72430000D01*
X130260000Y-73030000D02*
X130260000Y-72430000D01*
X131200000Y-72430000D02*
X131200000Y-73030000D01*
X131750000Y-67010000D02*
X131750000Y-68010000D01*
X131750000Y-68540000D02*
X129710000Y-68540000D01*
X132000000Y-67010000D02*
X132000000Y-68010000D01*
X132000000Y-68010000D02*
X129460000Y-68010000D01*
X132000000Y-68010000D02*
X131750000Y-68540000D01*
X132800000Y-72430000D02*
X131200000Y-72430000D01*
X132800000Y-73030000D02*
X132800000Y-72430000D01*
X133380000Y-67010000D02*
X128080000Y-67010000D01*
X133380000Y-73030000D02*
X133380000Y-67010000D01*
X133670000Y-72000000D02*
X133670000Y-68000000D01*
%TO.C,J3*%
X111330000Y-75000000D02*
X111330000Y-79000000D01*
X111620000Y-73970000D02*
X111620000Y-79990000D01*
X111620000Y-79990000D02*
X116920000Y-79990000D01*
X112200000Y-73970000D02*
X112200000Y-74570000D01*
X112200000Y-74570000D02*
X113800000Y-74570000D01*
X113000000Y-78990000D02*
X113250000Y-78460000D01*
X113000000Y-78990000D02*
X115540000Y-78990000D01*
X113000000Y-79990000D02*
X113000000Y-78990000D01*
X113250000Y-78460000D02*
X115290000Y-78460000D01*
X113250000Y-79990000D02*
X113250000Y-78990000D01*
X113800000Y-74570000D02*
X113800000Y-73970000D01*
X114740000Y-73970000D02*
X114740000Y-74570000D01*
X114740000Y-74570000D02*
X116340000Y-74570000D01*
X115290000Y-78460000D02*
X115540000Y-78990000D01*
X115290000Y-79990000D02*
X115290000Y-78990000D01*
X115540000Y-78990000D02*
X115540000Y-79990000D01*
X116340000Y-74570000D02*
X116340000Y-73970000D01*
X116920000Y-73970000D02*
X111620000Y-73970000D01*
X116920000Y-79990000D02*
X116920000Y-73970000D01*
%TO.C,R2*%
X126477500Y-75614026D02*
X126477500Y-76123474D01*
X127522500Y-75614026D02*
X127522500Y-76123474D01*
%TO.C,C6*%
X111311252Y-95285000D02*
X110788748Y-95285000D01*
X111311252Y-96755000D02*
X110788748Y-96755000D01*
%TO.C,C9*%
X113896400Y-98101600D02*
X113896400Y-89898400D01*
X130101600Y-89898400D02*
X113896400Y-89898400D01*
X130101600Y-98101600D02*
X113896400Y-98101600D01*
X130101600Y-98101600D02*
X130101600Y-89898400D01*
%TD*%
M02*
