%TF.GenerationSoftware,KiCad,Pcbnew,8.0.9*%
%TF.CreationDate,2025-09-30T19:49:28-05:00*%
%TF.ProjectId,horns,686f726e-732e-46b6-9963-61645f706362,1.0.0*%
%TF.SameCoordinates,Original*%
%TF.FileFunction,Copper,L2,Bot*%
%TF.FilePolarity,Positive*%
%FSLAX46Y46*%
G04 Gerber Fmt 4.6, Leading zero omitted, Abs format (unit mm)*
G04 Created by KiCad (PCBNEW 8.0.9) date 2025-09-30 19:49:28*
%MOMM*%
%LPD*%
G01*
G04 APERTURE LIST*
G04 Aperture macros list*
%AMRoundRect*
0 Rectangle with rounded corners*
0 $1 Rounding radius*
0 $2 $3 $4 $5 $6 $7 $8 $9 X,Y pos of 4 corners*
0 Add a 4 corners polygon primitive as box body*
4,1,4,$2,$3,$4,$5,$6,$7,$8,$9,$2,$3,0*
0 Add four circle primitives for the rounded corners*
1,1,$1+$1,$2,$3*
1,1,$1+$1,$4,$5*
1,1,$1+$1,$6,$7*
1,1,$1+$1,$8,$9*
0 Add four rect primitives between the rounded corners*
20,1,$1+$1,$2,$3,$4,$5,0*
20,1,$1+$1,$4,$5,$6,$7,0*
20,1,$1+$1,$6,$7,$8,$9,0*
20,1,$1+$1,$8,$9,$2,$3,0*%
G04 Aperture macros list end*
%TA.AperFunction,ComponentPad*%
%ADD10RoundRect,0.250000X0.845000X-0.620000X0.845000X0.620000X-0.845000X0.620000X-0.845000X-0.620000X0*%
%TD*%
%TA.AperFunction,ComponentPad*%
%ADD11O,2.190000X1.740000*%
%TD*%
%TA.AperFunction,ComponentPad*%
%ADD12RoundRect,0.250000X0.620000X0.845000X-0.620000X0.845000X-0.620000X-0.845000X0.620000X-0.845000X0*%
%TD*%
%TA.AperFunction,ComponentPad*%
%ADD13O,1.740000X2.190000*%
%TD*%
%TA.AperFunction,ComponentPad*%
%ADD14RoundRect,0.250000X-0.620000X-0.845000X0.620000X-0.845000X0.620000X0.845000X-0.620000X0.845000X0*%
%TD*%
%TA.AperFunction,ComponentPad*%
%ADD15C,1.500000*%
%TD*%
%TA.AperFunction,ViaPad*%
%ADD16C,0.800000*%
%TD*%
G04 APERTURE END LIST*
D10*
%TO.P,J4,1,Pin_1*%
%TO.N,+24V*%
X114000000Y-85540000D03*
D11*
%TO.P,J4,2,Pin_2*%
%TO.N,Net-(J3-Pin_1)*%
X114000000Y-83000000D03*
%TD*%
D12*
%TO.P,J1,1,Pin_1*%
%TO.N,GND*%
X125000000Y-86000000D03*
D13*
%TO.P,J1,2,Pin_2*%
%TO.N,+24V*%
X122460000Y-86000000D03*
%TO.P,J1,3,Pin_3*%
%TO.N,GND*%
X119920000Y-86000000D03*
%TD*%
D12*
%TO.P,J2,1,Pin_1*%
%TO.N,GND*%
X132000000Y-70000000D03*
D13*
%TO.P,J2,2,Pin_2*%
%TO.N,/HORNS_CTRL*%
X129460000Y-70000000D03*
%TD*%
D14*
%TO.P,J3,1,Pin_1*%
%TO.N,Net-(J3-Pin_1)*%
X113000000Y-77000000D03*
D13*
%TO.P,J3,2,Pin_2*%
%TO.N,Net-(D2-A)*%
X115540000Y-77000000D03*
%TD*%
D15*
%TO.P,C9,1*%
%TO.N,GND*%
X127750000Y-94000000D03*
%TO.P,C9,2*%
%TO.N,+24V*%
X116250000Y-94000000D03*
%TD*%
D16*
%TO.N,GND*%
X115000000Y-102030000D03*
X112000000Y-96020000D03*
X120000000Y-102000000D03*
X113000000Y-99030000D03*
X112000000Y-93010000D03*
X130900000Y-77000000D03*
X112000000Y-90000000D03*
X117000000Y-102000000D03*
X122000000Y-66000000D03*
%TD*%
%TA.AperFunction,Conductor*%
%TO.N,GND*%
G36*
X133001121Y-61000020D02*
G01*
X133135109Y-61002409D01*
X133150528Y-61003650D01*
X133416897Y-61041948D01*
X133434184Y-61045708D01*
X133691313Y-61121209D01*
X133707887Y-61127391D01*
X133817159Y-61177293D01*
X133951659Y-61238717D01*
X133967173Y-61247188D01*
X134192628Y-61392080D01*
X134206787Y-61402679D01*
X134409317Y-61578172D01*
X134421827Y-61590682D01*
X134597320Y-61793212D01*
X134607921Y-61807374D01*
X134752808Y-62032821D01*
X134761284Y-62048345D01*
X134872608Y-62292112D01*
X134878791Y-62308688D01*
X134954290Y-62565814D01*
X134958051Y-62583102D01*
X134996348Y-62849463D01*
X134997590Y-62864898D01*
X134999980Y-62998877D01*
X135000000Y-63001089D01*
X135000000Y-104998910D01*
X134999980Y-105001122D01*
X134997590Y-105135101D01*
X134996348Y-105150536D01*
X134958051Y-105416897D01*
X134954290Y-105434185D01*
X134878791Y-105691311D01*
X134872608Y-105707887D01*
X134761284Y-105951654D01*
X134752805Y-105967183D01*
X134607922Y-106192624D01*
X134597320Y-106206787D01*
X134421827Y-106409317D01*
X134409317Y-106421827D01*
X134206787Y-106597320D01*
X134192624Y-106607922D01*
X133967183Y-106752805D01*
X133951654Y-106761284D01*
X133707887Y-106872608D01*
X133691311Y-106878791D01*
X133434185Y-106954290D01*
X133416897Y-106958051D01*
X133150536Y-106996348D01*
X133135101Y-106997590D01*
X133004818Y-106999914D01*
X133001120Y-106999980D01*
X132998910Y-107000000D01*
X110001090Y-107000000D01*
X109998879Y-106999980D01*
X109995015Y-106999911D01*
X109864898Y-106997590D01*
X109849463Y-106996348D01*
X109583102Y-106958051D01*
X109565814Y-106954290D01*
X109308688Y-106878791D01*
X109292112Y-106872608D01*
X109048345Y-106761284D01*
X109032821Y-106752808D01*
X108807374Y-106607921D01*
X108793212Y-106597320D01*
X108590682Y-106421827D01*
X108578172Y-106409317D01*
X108402679Y-106206787D01*
X108392077Y-106192624D01*
X108247188Y-105967173D01*
X108238715Y-105951654D01*
X108127391Y-105707887D01*
X108121208Y-105691311D01*
X108045709Y-105434185D01*
X108041948Y-105416897D01*
X108003651Y-105150536D01*
X108002409Y-105135109D01*
X108000020Y-105001121D01*
X108000000Y-104998910D01*
X108000000Y-101878711D01*
X128149500Y-101878711D01*
X128149500Y-102121288D01*
X128181161Y-102361785D01*
X128243947Y-102596104D01*
X128336773Y-102820205D01*
X128336776Y-102820212D01*
X128458064Y-103030289D01*
X128458066Y-103030292D01*
X128458067Y-103030293D01*
X128605733Y-103222736D01*
X128605739Y-103222743D01*
X128777256Y-103394260D01*
X128777262Y-103394265D01*
X128969711Y-103541936D01*
X129179788Y-103663224D01*
X129403900Y-103756054D01*
X129638211Y-103818838D01*
X129818586Y-103842584D01*
X129878711Y-103850500D01*
X129878712Y-103850500D01*
X130121289Y-103850500D01*
X130169388Y-103844167D01*
X130361789Y-103818838D01*
X130596100Y-103756054D01*
X130820212Y-103663224D01*
X131030289Y-103541936D01*
X131222738Y-103394265D01*
X131394265Y-103222738D01*
X131541936Y-103030289D01*
X131663224Y-102820212D01*
X131756054Y-102596100D01*
X131818838Y-102361789D01*
X131850500Y-102121288D01*
X131850500Y-101878712D01*
X131818838Y-101638211D01*
X131756054Y-101403900D01*
X131663224Y-101179788D01*
X131541936Y-100969711D01*
X131394265Y-100777262D01*
X131394260Y-100777256D01*
X131222743Y-100605739D01*
X131222736Y-100605733D01*
X131030293Y-100458067D01*
X131030292Y-100458066D01*
X131030289Y-100458064D01*
X130820212Y-100336776D01*
X130820205Y-100336773D01*
X130596104Y-100243947D01*
X130361785Y-100181161D01*
X130121289Y-100149500D01*
X130121288Y-100149500D01*
X129878712Y-100149500D01*
X129878711Y-100149500D01*
X129638214Y-100181161D01*
X129403895Y-100243947D01*
X129179794Y-100336773D01*
X129179785Y-100336777D01*
X128969706Y-100458067D01*
X128777263Y-100605733D01*
X128777256Y-100605739D01*
X128605739Y-100777256D01*
X128605733Y-100777263D01*
X128458067Y-100969706D01*
X128336777Y-101179785D01*
X128336773Y-101179794D01*
X128243947Y-101403895D01*
X128181161Y-101638214D01*
X128149500Y-101878711D01*
X108000000Y-101878711D01*
X108000000Y-93999997D01*
X114986693Y-93999997D01*
X114986693Y-94000002D01*
X115005755Y-94217894D01*
X115005885Y-94219371D01*
X115062880Y-94432076D01*
X115155944Y-94631654D01*
X115282251Y-94812038D01*
X115437962Y-94967749D01*
X115618346Y-95094056D01*
X115817924Y-95187120D01*
X116030629Y-95244115D01*
X116187322Y-95257823D01*
X116249998Y-95263307D01*
X116250000Y-95263307D01*
X116250002Y-95263307D01*
X116304842Y-95258509D01*
X116469371Y-95244115D01*
X116682076Y-95187120D01*
X116881654Y-95094056D01*
X116954392Y-95043124D01*
X127060427Y-95043124D01*
X127122612Y-95086666D01*
X127320840Y-95179101D01*
X127320849Y-95179105D01*
X127532105Y-95235710D01*
X127532115Y-95235712D01*
X127749999Y-95254775D01*
X127750001Y-95254775D01*
X127967884Y-95235712D01*
X127967894Y-95235710D01*
X128179150Y-95179105D01*
X128179164Y-95179100D01*
X128377383Y-95086669D01*
X128377385Y-95086668D01*
X128439571Y-95043124D01*
X127750001Y-94353553D01*
X127750000Y-94353553D01*
X127060427Y-95043124D01*
X116954392Y-95043124D01*
X117062038Y-94967749D01*
X117217749Y-94812038D01*
X117344056Y-94631654D01*
X117437120Y-94432076D01*
X117494115Y-94219371D01*
X117513307Y-94000000D01*
X117513307Y-93999999D01*
X126495225Y-93999999D01*
X126495225Y-94000000D01*
X126514287Y-94217884D01*
X126514289Y-94217894D01*
X126570894Y-94429150D01*
X126570898Y-94429159D01*
X126663333Y-94627387D01*
X126706874Y-94689571D01*
X127396446Y-94000000D01*
X127396446Y-93999999D01*
X127353660Y-93957213D01*
X127425000Y-93957213D01*
X127425000Y-94042787D01*
X127447149Y-94125445D01*
X127489936Y-94199554D01*
X127550446Y-94260064D01*
X127624555Y-94302851D01*
X127707213Y-94325000D01*
X127792787Y-94325000D01*
X127875445Y-94302851D01*
X127949554Y-94260064D01*
X128010064Y-94199554D01*
X128052851Y-94125445D01*
X128075000Y-94042787D01*
X128075000Y-93999999D01*
X128103553Y-93999999D01*
X128103553Y-94000000D01*
X128793124Y-94689570D01*
X128836668Y-94627385D01*
X128836669Y-94627383D01*
X128929100Y-94429164D01*
X128929105Y-94429150D01*
X128985710Y-94217894D01*
X128985712Y-94217884D01*
X129004775Y-94000000D01*
X129004775Y-93999999D01*
X128985712Y-93782115D01*
X128985710Y-93782105D01*
X128929105Y-93570849D01*
X128929101Y-93570840D01*
X128836668Y-93372615D01*
X128793123Y-93310428D01*
X128103553Y-93999999D01*
X128075000Y-93999999D01*
X128075000Y-93957213D01*
X128052851Y-93874555D01*
X128010064Y-93800446D01*
X127949554Y-93739936D01*
X127875445Y-93697149D01*
X127792787Y-93675000D01*
X127707213Y-93675000D01*
X127624555Y-93697149D01*
X127550446Y-93739936D01*
X127489936Y-93800446D01*
X127447149Y-93874555D01*
X127425000Y-93957213D01*
X127353660Y-93957213D01*
X126706875Y-93310427D01*
X126706875Y-93310428D01*
X126663333Y-93372612D01*
X126663332Y-93372614D01*
X126570898Y-93570840D01*
X126570894Y-93570849D01*
X126514289Y-93782105D01*
X126514287Y-93782115D01*
X126495225Y-93999999D01*
X117513307Y-93999999D01*
X117494115Y-93780629D01*
X117437120Y-93567924D01*
X117344056Y-93368347D01*
X117344054Y-93368344D01*
X117344053Y-93368342D01*
X117280902Y-93278154D01*
X117217749Y-93187962D01*
X117062038Y-93032251D01*
X116954391Y-92956875D01*
X127060427Y-92956875D01*
X127750000Y-93646446D01*
X127750001Y-93646446D01*
X128439571Y-92956874D01*
X128377387Y-92913333D01*
X128179159Y-92820898D01*
X128179150Y-92820894D01*
X127967894Y-92764289D01*
X127967884Y-92764287D01*
X127750001Y-92745225D01*
X127749999Y-92745225D01*
X127532115Y-92764287D01*
X127532105Y-92764289D01*
X127320849Y-92820894D01*
X127320840Y-92820898D01*
X127122614Y-92913332D01*
X127122612Y-92913333D01*
X127060428Y-92956875D01*
X127060427Y-92956875D01*
X116954391Y-92956875D01*
X116881654Y-92905944D01*
X116699271Y-92820898D01*
X116682081Y-92812882D01*
X116682079Y-92812881D01*
X116682076Y-92812880D01*
X116500735Y-92764289D01*
X116469372Y-92755885D01*
X116469365Y-92755884D01*
X116250002Y-92736693D01*
X116249998Y-92736693D01*
X116030634Y-92755884D01*
X116030627Y-92755885D01*
X115817920Y-92812881D01*
X115618346Y-92905944D01*
X115618342Y-92905946D01*
X115437967Y-93032247D01*
X115437960Y-93032252D01*
X115282252Y-93187960D01*
X115282247Y-93187967D01*
X115155946Y-93368342D01*
X115155944Y-93368346D01*
X115062881Y-93567920D01*
X115005885Y-93780627D01*
X115005884Y-93780634D01*
X114986693Y-93999997D01*
X108000000Y-93999997D01*
X108000000Y-82891504D01*
X112396500Y-82891504D01*
X112396500Y-83108495D01*
X112430442Y-83322796D01*
X112430443Y-83322800D01*
X112497494Y-83529160D01*
X112596001Y-83722492D01*
X112723539Y-83898033D01*
X112723541Y-83898035D01*
X112858139Y-84032633D01*
X112891624Y-84093956D01*
X112886640Y-84163648D01*
X112844768Y-84219581D01*
X112835556Y-84225852D01*
X112681348Y-84320969D01*
X112555971Y-84446346D01*
X112462886Y-84597259D01*
X112462884Y-84597264D01*
X112407113Y-84765572D01*
X112396500Y-84869447D01*
X112396500Y-86210537D01*
X112396501Y-86210553D01*
X112407113Y-86314426D01*
X112462885Y-86482738D01*
X112555970Y-86633652D01*
X112681348Y-86759030D01*
X112832262Y-86852115D01*
X113000574Y-86907887D01*
X113104455Y-86918500D01*
X114895544Y-86918499D01*
X114999426Y-86907887D01*
X115167738Y-86852115D01*
X115318652Y-86759030D01*
X115444030Y-86633652D01*
X115537115Y-86482738D01*
X115592887Y-86314426D01*
X115603500Y-86210545D01*
X115603500Y-85667179D01*
X118550000Y-85667179D01*
X118550000Y-85750000D01*
X119377291Y-85750000D01*
X119365548Y-85770339D01*
X119325000Y-85921667D01*
X119325000Y-86078333D01*
X119365548Y-86229661D01*
X119377291Y-86250000D01*
X118550000Y-86250000D01*
X118550000Y-86332820D01*
X118583734Y-86545809D01*
X118650372Y-86750901D01*
X118748271Y-86943036D01*
X118875025Y-87117496D01*
X118875025Y-87117497D01*
X119027502Y-87269974D01*
X119201963Y-87396728D01*
X119394098Y-87494627D01*
X119599190Y-87561266D01*
X119670000Y-87572481D01*
X119670000Y-86542709D01*
X119690339Y-86554452D01*
X119841667Y-86595000D01*
X119998333Y-86595000D01*
X120149661Y-86554452D01*
X120170000Y-86542709D01*
X120170000Y-87572480D01*
X120240809Y-87561266D01*
X120445901Y-87494627D01*
X120638036Y-87396728D01*
X120812496Y-87269974D01*
X120812497Y-87269974D01*
X120964974Y-87117497D01*
X120964979Y-87117491D01*
X121084428Y-86953085D01*
X121139758Y-86910419D01*
X121209371Y-86904440D01*
X121271166Y-86937046D01*
X121285062Y-86953082D01*
X121408539Y-87123033D01*
X121561967Y-87276461D01*
X121737508Y-87403999D01*
X121930840Y-87502506D01*
X122137200Y-87569557D01*
X122217566Y-87582285D01*
X122351505Y-87603500D01*
X122351510Y-87603500D01*
X122568495Y-87603500D01*
X122688421Y-87584505D01*
X122782800Y-87569557D01*
X122989160Y-87502506D01*
X123182492Y-87403999D01*
X123358033Y-87276461D01*
X123498814Y-87135679D01*
X123560133Y-87102197D01*
X123629825Y-87107181D01*
X123685759Y-87149052D01*
X123692031Y-87158266D01*
X123787684Y-87313345D01*
X123911654Y-87437315D01*
X124060875Y-87529356D01*
X124060880Y-87529358D01*
X124227302Y-87584505D01*
X124227309Y-87584506D01*
X124330019Y-87594999D01*
X124749999Y-87594999D01*
X124750000Y-87594998D01*
X124750000Y-86542709D01*
X124770339Y-86554452D01*
X124921667Y-86595000D01*
X125078333Y-86595000D01*
X125229661Y-86554452D01*
X125250000Y-86542709D01*
X125250000Y-87594999D01*
X125669972Y-87594999D01*
X125669986Y-87594998D01*
X125772697Y-87584505D01*
X125939119Y-87529358D01*
X125939124Y-87529356D01*
X126088345Y-87437315D01*
X126212315Y-87313345D01*
X126304356Y-87164124D01*
X126304358Y-87164119D01*
X126359505Y-86997697D01*
X126359506Y-86997690D01*
X126369999Y-86894986D01*
X126370000Y-86894973D01*
X126370000Y-86250000D01*
X125542709Y-86250000D01*
X125554452Y-86229661D01*
X125595000Y-86078333D01*
X125595000Y-85921667D01*
X125554452Y-85770339D01*
X125542709Y-85750000D01*
X126369999Y-85750000D01*
X126369999Y-85105028D01*
X126369998Y-85105013D01*
X126359505Y-85002302D01*
X126304358Y-84835880D01*
X126304356Y-84835875D01*
X126212315Y-84686654D01*
X126088345Y-84562684D01*
X125939124Y-84470643D01*
X125939119Y-84470641D01*
X125772697Y-84415494D01*
X125772690Y-84415493D01*
X125669986Y-84405000D01*
X125250000Y-84405000D01*
X125250000Y-85457290D01*
X125229661Y-85445548D01*
X125078333Y-85405000D01*
X124921667Y-85405000D01*
X124770339Y-85445548D01*
X124750000Y-85457290D01*
X124750000Y-84405000D01*
X124330028Y-84405000D01*
X124330012Y-84405001D01*
X124227302Y-84415494D01*
X124060880Y-84470641D01*
X124060875Y-84470643D01*
X123911654Y-84562684D01*
X123787684Y-84686654D01*
X123692031Y-84841733D01*
X123640083Y-84888457D01*
X123571120Y-84899680D01*
X123507038Y-84871836D01*
X123498811Y-84864317D01*
X123358035Y-84723541D01*
X123358033Y-84723539D01*
X123182492Y-84596001D01*
X122989160Y-84497494D01*
X122782800Y-84430443D01*
X122782798Y-84430442D01*
X122782796Y-84430442D01*
X122568495Y-84396500D01*
X122568490Y-84396500D01*
X122351510Y-84396500D01*
X122351505Y-84396500D01*
X122137203Y-84430442D01*
X121930837Y-84497495D01*
X121737507Y-84596001D01*
X121637355Y-84668766D01*
X121561967Y-84723539D01*
X121561965Y-84723541D01*
X121561964Y-84723541D01*
X121408541Y-84876964D01*
X121408541Y-84876965D01*
X121408539Y-84876967D01*
X121404518Y-84882502D01*
X121285064Y-85046915D01*
X121229734Y-85089580D01*
X121160120Y-85095559D01*
X121098325Y-85062953D01*
X121084428Y-85046915D01*
X120964974Y-84882503D01*
X120964974Y-84882502D01*
X120812497Y-84730025D01*
X120638036Y-84603271D01*
X120445899Y-84505372D01*
X120240805Y-84438733D01*
X120170000Y-84427518D01*
X120170000Y-85457290D01*
X120149661Y-85445548D01*
X119998333Y-85405000D01*
X119841667Y-85405000D01*
X119690339Y-85445548D01*
X119670000Y-85457290D01*
X119670000Y-84427518D01*
X119669999Y-84427518D01*
X119599194Y-84438733D01*
X119394100Y-84505372D01*
X119201963Y-84603271D01*
X119027503Y-84730025D01*
X119027502Y-84730025D01*
X118875025Y-84882502D01*
X118875025Y-84882503D01*
X118748271Y-85056963D01*
X118650372Y-85249098D01*
X118583734Y-85454190D01*
X118550000Y-85667179D01*
X115603500Y-85667179D01*
X115603499Y-84869456D01*
X115592887Y-84765574D01*
X115537115Y-84597262D01*
X115444030Y-84446348D01*
X115318652Y-84320970D01*
X115318648Y-84320967D01*
X115164444Y-84225852D01*
X115117719Y-84173904D01*
X115106498Y-84104942D01*
X115134341Y-84040860D01*
X115141838Y-84032655D01*
X115276461Y-83898033D01*
X115403999Y-83722492D01*
X115502506Y-83529160D01*
X115569557Y-83322800D01*
X115584642Y-83227551D01*
X115603500Y-83108495D01*
X115603500Y-82891504D01*
X115569557Y-82677203D01*
X115569557Y-82677200D01*
X115502506Y-82470840D01*
X115403999Y-82277508D01*
X115276461Y-82101967D01*
X115123033Y-81948539D01*
X114947492Y-81821001D01*
X114754160Y-81722494D01*
X114547800Y-81655443D01*
X114547798Y-81655442D01*
X114547796Y-81655442D01*
X114333495Y-81621500D01*
X114333490Y-81621500D01*
X113666510Y-81621500D01*
X113666505Y-81621500D01*
X113452203Y-81655442D01*
X113245837Y-81722495D01*
X113052507Y-81821001D01*
X112952355Y-81893766D01*
X112876967Y-81948539D01*
X112876965Y-81948541D01*
X112876964Y-81948541D01*
X112723541Y-82101964D01*
X112723541Y-82101965D01*
X112723539Y-82101967D01*
X112668766Y-82177355D01*
X112596001Y-82277507D01*
X112497495Y-82470837D01*
X112430442Y-82677203D01*
X112396500Y-82891504D01*
X108000000Y-82891504D01*
X108000000Y-76104447D01*
X111621500Y-76104447D01*
X111621500Y-77895537D01*
X111621501Y-77895553D01*
X111632113Y-77999427D01*
X111679310Y-78141860D01*
X111687885Y-78167738D01*
X111780970Y-78318652D01*
X111906348Y-78444030D01*
X112057262Y-78537115D01*
X112225574Y-78592887D01*
X112329455Y-78603500D01*
X113670544Y-78603499D01*
X113774426Y-78592887D01*
X113942738Y-78537115D01*
X114093652Y-78444030D01*
X114219030Y-78318652D01*
X114312115Y-78167738D01*
X114312115Y-78167735D01*
X114314146Y-78164444D01*
X114366094Y-78117720D01*
X114435057Y-78106497D01*
X114499139Y-78134341D01*
X114507366Y-78141860D01*
X114641967Y-78276461D01*
X114817508Y-78403999D01*
X115010840Y-78502506D01*
X115217200Y-78569557D01*
X115297566Y-78582285D01*
X115431505Y-78603500D01*
X115431510Y-78603500D01*
X115648495Y-78603500D01*
X115767551Y-78584642D01*
X115862800Y-78569557D01*
X116069160Y-78502506D01*
X116262492Y-78403999D01*
X116438033Y-78276461D01*
X116591461Y-78123033D01*
X116718999Y-77947492D01*
X116817506Y-77754160D01*
X116884557Y-77547800D01*
X116899642Y-77452551D01*
X116918500Y-77333495D01*
X116918500Y-76666504D01*
X116884557Y-76452203D01*
X116884557Y-76452200D01*
X116817506Y-76245840D01*
X116718999Y-76052508D01*
X116591461Y-75876967D01*
X116438033Y-75723539D01*
X116262492Y-75596001D01*
X116069160Y-75497494D01*
X115862800Y-75430443D01*
X115862798Y-75430442D01*
X115862796Y-75430442D01*
X115648495Y-75396500D01*
X115648490Y-75396500D01*
X115431510Y-75396500D01*
X115431505Y-75396500D01*
X115217203Y-75430442D01*
X115010837Y-75497495D01*
X114817507Y-75596001D01*
X114641968Y-75723538D01*
X114507366Y-75858140D01*
X114446043Y-75891624D01*
X114376351Y-75886640D01*
X114320418Y-75844768D01*
X114314147Y-75835555D01*
X114219032Y-75681351D01*
X114219029Y-75681347D01*
X114093653Y-75555971D01*
X114093652Y-75555970D01*
X113942738Y-75462885D01*
X113844830Y-75430442D01*
X113774427Y-75407113D01*
X113670545Y-75396500D01*
X112329462Y-75396500D01*
X112329446Y-75396501D01*
X112225572Y-75407113D01*
X112057264Y-75462884D01*
X112057259Y-75462886D01*
X111906346Y-75555971D01*
X111780971Y-75681346D01*
X111687886Y-75832259D01*
X111687884Y-75832264D01*
X111632113Y-76000572D01*
X111621500Y-76104447D01*
X108000000Y-76104447D01*
X108000000Y-69666504D01*
X128081500Y-69666504D01*
X128081500Y-70333495D01*
X128115442Y-70547796D01*
X128115443Y-70547800D01*
X128182494Y-70754160D01*
X128281001Y-70947492D01*
X128408539Y-71123033D01*
X128561967Y-71276461D01*
X128737508Y-71403999D01*
X128930840Y-71502506D01*
X129137200Y-71569557D01*
X129217566Y-71582285D01*
X129351505Y-71603500D01*
X129351510Y-71603500D01*
X129568495Y-71603500D01*
X129688421Y-71584505D01*
X129782800Y-71569557D01*
X129989160Y-71502506D01*
X130182492Y-71403999D01*
X130358033Y-71276461D01*
X130498814Y-71135679D01*
X130560133Y-71102197D01*
X130629825Y-71107181D01*
X130685759Y-71149052D01*
X130692031Y-71158266D01*
X130787684Y-71313345D01*
X130911654Y-71437315D01*
X131060875Y-71529356D01*
X131060880Y-71529358D01*
X131227302Y-71584505D01*
X131227309Y-71584506D01*
X131330019Y-71594999D01*
X131749999Y-71594999D01*
X131750000Y-71594998D01*
X131750000Y-70542709D01*
X131770339Y-70554452D01*
X131921667Y-70595000D01*
X132078333Y-70595000D01*
X132229661Y-70554452D01*
X132250000Y-70542709D01*
X132250000Y-71594999D01*
X132669972Y-71594999D01*
X132669986Y-71594998D01*
X132772697Y-71584505D01*
X132939119Y-71529358D01*
X132939124Y-71529356D01*
X133088345Y-71437315D01*
X133212315Y-71313345D01*
X133304356Y-71164124D01*
X133304358Y-71164119D01*
X133359505Y-70997697D01*
X133359506Y-70997690D01*
X133369999Y-70894986D01*
X133370000Y-70894973D01*
X133370000Y-70250000D01*
X132542709Y-70250000D01*
X132554452Y-70229661D01*
X132595000Y-70078333D01*
X132595000Y-69921667D01*
X132554452Y-69770339D01*
X132542709Y-69750000D01*
X133369999Y-69750000D01*
X133369999Y-69105028D01*
X133369998Y-69105013D01*
X133359505Y-69002302D01*
X133304358Y-68835880D01*
X133304356Y-68835875D01*
X133212315Y-68686654D01*
X133088345Y-68562684D01*
X132939124Y-68470643D01*
X132939119Y-68470641D01*
X132772697Y-68415494D01*
X132772690Y-68415493D01*
X132669986Y-68405000D01*
X132250000Y-68405000D01*
X132250000Y-69457290D01*
X132229661Y-69445548D01*
X132078333Y-69405000D01*
X131921667Y-69405000D01*
X131770339Y-69445548D01*
X131750000Y-69457290D01*
X131750000Y-68405000D01*
X131330028Y-68405000D01*
X131330012Y-68405001D01*
X131227302Y-68415494D01*
X131060880Y-68470641D01*
X131060875Y-68470643D01*
X130911654Y-68562684D01*
X130787684Y-68686654D01*
X130692031Y-68841733D01*
X130640083Y-68888457D01*
X130571120Y-68899680D01*
X130507038Y-68871836D01*
X130498811Y-68864317D01*
X130358035Y-68723541D01*
X130358033Y-68723539D01*
X130182492Y-68596001D01*
X129989160Y-68497494D01*
X129782800Y-68430443D01*
X129782798Y-68430442D01*
X129782796Y-68430442D01*
X129568495Y-68396500D01*
X129568490Y-68396500D01*
X129351510Y-68396500D01*
X129351505Y-68396500D01*
X129137203Y-68430442D01*
X128930837Y-68497495D01*
X128737507Y-68596001D01*
X128644986Y-68663222D01*
X128561967Y-68723539D01*
X128561965Y-68723541D01*
X128561964Y-68723541D01*
X128408541Y-68876964D01*
X128408541Y-68876965D01*
X128408539Y-68876967D01*
X128400191Y-68888457D01*
X128281001Y-69052507D01*
X128182495Y-69245837D01*
X128115442Y-69452203D01*
X128081500Y-69666504D01*
X108000000Y-69666504D01*
X108000000Y-66878711D01*
X111149500Y-66878711D01*
X111149500Y-67121288D01*
X111181161Y-67361785D01*
X111243947Y-67596104D01*
X111336773Y-67820205D01*
X111336776Y-67820212D01*
X111458064Y-68030289D01*
X111458066Y-68030292D01*
X111458067Y-68030293D01*
X111605733Y-68222736D01*
X111605739Y-68222743D01*
X111777256Y-68394260D01*
X111777263Y-68394266D01*
X111791252Y-68405000D01*
X111969711Y-68541936D01*
X112179788Y-68663224D01*
X112403900Y-68756054D01*
X112638211Y-68818838D01*
X112812119Y-68841733D01*
X112878711Y-68850500D01*
X112878712Y-68850500D01*
X113121289Y-68850500D01*
X113187881Y-68841733D01*
X113361789Y-68818838D01*
X113596100Y-68756054D01*
X113820212Y-68663224D01*
X114030289Y-68541936D01*
X114222738Y-68394265D01*
X114394265Y-68222738D01*
X114541936Y-68030289D01*
X114663224Y-67820212D01*
X114756054Y-67596100D01*
X114818838Y-67361789D01*
X114850500Y-67121288D01*
X114850500Y-66878712D01*
X114818838Y-66638211D01*
X114756054Y-66403900D01*
X114663224Y-66179788D01*
X114541936Y-65969711D01*
X114394265Y-65777262D01*
X114394260Y-65777256D01*
X114222743Y-65605739D01*
X114222736Y-65605733D01*
X114030293Y-65458067D01*
X114030292Y-65458066D01*
X114030289Y-65458064D01*
X113820212Y-65336776D01*
X113820205Y-65336773D01*
X113596104Y-65243947D01*
X113361785Y-65181161D01*
X113121289Y-65149500D01*
X113121288Y-65149500D01*
X112878712Y-65149500D01*
X112878711Y-65149500D01*
X112638214Y-65181161D01*
X112403895Y-65243947D01*
X112179794Y-65336773D01*
X112179785Y-65336777D01*
X111969706Y-65458067D01*
X111777263Y-65605733D01*
X111777256Y-65605739D01*
X111605739Y-65777256D01*
X111605733Y-65777263D01*
X111458067Y-65969706D01*
X111336777Y-66179785D01*
X111336773Y-66179794D01*
X111243947Y-66403895D01*
X111181161Y-66638214D01*
X111149500Y-66878711D01*
X108000000Y-66878711D01*
X108000000Y-63001089D01*
X108000020Y-62998878D01*
X108000020Y-62998877D01*
X108002409Y-62864889D01*
X108003650Y-62849472D01*
X108041948Y-62583099D01*
X108045709Y-62565814D01*
X108121210Y-62308681D01*
X108127391Y-62292112D01*
X108238720Y-62048334D01*
X108247185Y-62032832D01*
X108392084Y-61807364D01*
X108402670Y-61793222D01*
X108578177Y-61590676D01*
X108590676Y-61578177D01*
X108793222Y-61402670D01*
X108807364Y-61392084D01*
X109032832Y-61247185D01*
X109048334Y-61238720D01*
X109292112Y-61127390D01*
X109308681Y-61121210D01*
X109565818Y-61045707D01*
X109583099Y-61041948D01*
X109849472Y-61003650D01*
X109864889Y-61002409D01*
X109998879Y-61000020D01*
X110001090Y-61000000D01*
X132998910Y-61000000D01*
X133001121Y-61000020D01*
G37*
%TD.AperFunction*%
%TD*%
M02*
