%TF.GenerationSoftware,KiCad,Pcbnew,8.0.5*%
%TF.CreationDate,2024-09-30T19:38:02-05:00*%
%TF.ProjectId,HornProject_v0.0,486f726e-5072-46f6-9a65-63745f76302e,0.0*%
%TF.SameCoordinates,Original*%
%TF.FileFunction,Copper,L2,Bot*%
%TF.FilePolarity,Positive*%
%FSLAX46Y46*%
G04 Gerber Fmt 4.6, Leading zero omitted, Abs format (unit mm)*
G04 Created by KiCad (PCBNEW 8.0.5) date 2024-09-30 19:38:02*
%MOMM*%
%LPD*%
G01*
G04 APERTURE LIST*
G04 Aperture macros list*
%AMRoundRect*
0 Rectangle with rounded corners*
0 $1 Rounding radius*
0 $2 $3 $4 $5 $6 $7 $8 $9 X,Y pos of 4 corners*
0 Add a 4 corners polygon primitive as box body*
4,1,4,$2,$3,$4,$5,$6,$7,$8,$9,$2,$3,0*
0 Add four circle primitives for the rounded corners*
1,1,$1+$1,$2,$3*
1,1,$1+$1,$4,$5*
1,1,$1+$1,$6,$7*
1,1,$1+$1,$8,$9*
0 Add four rect primitives between the rounded corners*
20,1,$1+$1,$2,$3,$4,$5,0*
20,1,$1+$1,$4,$5,$6,$7,0*
20,1,$1+$1,$6,$7,$8,$9,0*
20,1,$1+$1,$8,$9,$2,$3,0*%
G04 Aperture macros list end*
%TA.AperFunction,ComponentPad*%
%ADD10RoundRect,0.250000X0.845000X-0.620000X0.845000X0.620000X-0.845000X0.620000X-0.845000X-0.620000X0*%
%TD*%
%TA.AperFunction,ComponentPad*%
%ADD11O,2.190000X1.740000*%
%TD*%
%TA.AperFunction,ComponentPad*%
%ADD12RoundRect,0.250000X-0.845000X0.620000X-0.845000X-0.620000X0.845000X-0.620000X0.845000X0.620000X0*%
%TD*%
%TA.AperFunction,ComponentPad*%
%ADD13R,3.200000X3.200000*%
%TD*%
%TA.AperFunction,ComponentPad*%
%ADD14O,3.200000X3.200000*%
%TD*%
%TA.AperFunction,ViaPad*%
%ADD15C,0.800000*%
%TD*%
G04 APERTURE END LIST*
D10*
%TO.P,Power_Connectors1,1,Pin_1*%
%TO.N,GND*%
X40020000Y-49540000D03*
D11*
%TO.P,Power_Connectors1,2,Pin_2*%
%TO.N,Net-(Power_Connectors1-Pin_2)*%
X40020000Y-47000000D03*
%TO.P,Power_Connectors1,3,Pin_3*%
%TO.N,GND*%
X40020000Y-44460000D03*
%TD*%
D10*
%TO.P,Horn_Out1,1,Pin_1*%
%TO.N,Net-(Horn_Out1-Pin_1)*%
X40000000Y-58250000D03*
D11*
%TO.P,Horn_Out1,2,Pin_2*%
%TO.N,+24V*%
X40000000Y-55710000D03*
%TD*%
D12*
%TO.P,Horn_Out2,1,Pin_1*%
%TO.N,/Horn Out*%
X48200000Y-55700000D03*
D11*
%TO.P,Horn_Out2,2,Pin_2*%
%TO.N,Net-(Horn_Out2-Pin_2)*%
X48200000Y-58240000D03*
%TD*%
D10*
%TO.P,Horn_Control1,1,Pin_1*%
%TO.N,GND*%
X60220000Y-48070000D03*
D11*
%TO.P,Horn_Control1,2,Pin_2*%
%TO.N,/Horn Control*%
X60220000Y-45530000D03*
%TD*%
D13*
%TO.P,Rectifier_Diode1,1,K*%
%TO.N,Net-(Horn_Out1-Pin_1)*%
X42380000Y-65200000D03*
D14*
%TO.P,Rectifier_Diode1,2,A*%
%TO.N,Net-(Horn_Out2-Pin_2)*%
X57620000Y-65200000D03*
%TD*%
D15*
%TO.N,GND*%
X56500000Y-53000000D03*
%TD*%
%TA.AperFunction,Conductor*%
%TO.N,GND*%
G36*
X63000692Y-34000007D02*
G01*
X63202929Y-34002343D01*
X63212931Y-34002863D01*
X63616336Y-34040244D01*
X63627654Y-34041823D01*
X63995590Y-34110602D01*
X64025200Y-34116137D01*
X64036351Y-34118760D01*
X64425313Y-34229429D01*
X64436151Y-34233061D01*
X64813285Y-34379164D01*
X64823747Y-34383784D01*
X65185760Y-34564044D01*
X65195748Y-34569607D01*
X65432071Y-34715932D01*
X65539599Y-34782511D01*
X65549048Y-34788984D01*
X65871779Y-35032699D01*
X65880580Y-35040008D01*
X66179448Y-35312462D01*
X66187542Y-35320556D01*
X66459987Y-35619414D01*
X66467304Y-35628225D01*
X66711015Y-35950951D01*
X66717488Y-35960400D01*
X66930387Y-36304242D01*
X66935960Y-36314249D01*
X67116211Y-36676244D01*
X67120838Y-36686721D01*
X67266934Y-37063837D01*
X67270573Y-37074697D01*
X67381239Y-37463650D01*
X67383862Y-37474799D01*
X67458174Y-37872332D01*
X67459756Y-37883676D01*
X67497135Y-38287064D01*
X67497656Y-38297073D01*
X67499992Y-38499307D01*
X67500000Y-38500739D01*
X67500000Y-65999260D01*
X67499992Y-66000692D01*
X67497656Y-66202926D01*
X67497135Y-66212935D01*
X67459756Y-66616323D01*
X67458174Y-66627667D01*
X67383862Y-67025200D01*
X67381239Y-67036349D01*
X67270573Y-67425302D01*
X67266934Y-67436162D01*
X67120838Y-67813278D01*
X67116211Y-67823755D01*
X66935960Y-68185750D01*
X66930387Y-68195757D01*
X66717488Y-68539599D01*
X66711015Y-68549048D01*
X66467304Y-68871774D01*
X66459987Y-68880585D01*
X66187542Y-69179443D01*
X66179443Y-69187542D01*
X65880585Y-69459987D01*
X65871774Y-69467304D01*
X65549048Y-69711015D01*
X65539599Y-69717488D01*
X65195757Y-69930387D01*
X65185750Y-69935960D01*
X64823755Y-70116211D01*
X64813278Y-70120838D01*
X64436162Y-70266934D01*
X64425302Y-70270573D01*
X64036349Y-70381239D01*
X64025200Y-70383862D01*
X63627667Y-70458174D01*
X63616323Y-70459756D01*
X63212935Y-70497135D01*
X63202926Y-70497656D01*
X63000693Y-70499992D01*
X62999261Y-70500000D01*
X36000739Y-70500000D01*
X35999307Y-70499992D01*
X35797073Y-70497656D01*
X35787064Y-70497135D01*
X35383676Y-70459756D01*
X35372332Y-70458174D01*
X34974799Y-70383862D01*
X34963650Y-70381239D01*
X34574697Y-70270573D01*
X34563837Y-70266934D01*
X34186721Y-70120838D01*
X34176244Y-70116211D01*
X33814249Y-69935960D01*
X33804242Y-69930387D01*
X33460400Y-69717488D01*
X33450951Y-69711015D01*
X33128225Y-69467304D01*
X33119414Y-69459987D01*
X32820556Y-69187542D01*
X32812457Y-69179443D01*
X32540012Y-68880585D01*
X32532695Y-68871774D01*
X32288984Y-68549048D01*
X32282511Y-68539599D01*
X32215932Y-68432071D01*
X32069607Y-68195748D01*
X32064044Y-68185760D01*
X31883784Y-67823747D01*
X31879161Y-67813278D01*
X31733061Y-67436151D01*
X31729429Y-67425313D01*
X31618760Y-67036349D01*
X31616137Y-67025200D01*
X31583132Y-66848637D01*
X31541823Y-66627654D01*
X31540244Y-66616336D01*
X31502863Y-66212931D01*
X31502343Y-66202926D01*
X31500008Y-66000692D01*
X31500000Y-65999260D01*
X31500000Y-65897648D01*
X34699500Y-65897648D01*
X34699500Y-66102351D01*
X34731522Y-66304534D01*
X34794781Y-66499223D01*
X34887715Y-66681613D01*
X35008028Y-66847213D01*
X35152786Y-66991971D01*
X35307749Y-67104556D01*
X35318390Y-67112287D01*
X35418430Y-67163260D01*
X35500776Y-67205218D01*
X35500778Y-67205218D01*
X35500781Y-67205220D01*
X35605137Y-67239127D01*
X35695465Y-67268477D01*
X35796557Y-67284488D01*
X35897648Y-67300500D01*
X35897649Y-67300500D01*
X36102351Y-67300500D01*
X36102352Y-67300500D01*
X36304534Y-67268477D01*
X36499219Y-67205220D01*
X36681610Y-67112287D01*
X36801476Y-67025200D01*
X36847213Y-66991971D01*
X36847215Y-66991968D01*
X36847219Y-66991966D01*
X36991966Y-66847219D01*
X36991968Y-66847215D01*
X36991971Y-66847213D01*
X37044732Y-66774590D01*
X37112287Y-66681610D01*
X37205220Y-66499219D01*
X37268477Y-66304534D01*
X37300500Y-66102352D01*
X37300500Y-65897648D01*
X37268477Y-65695466D01*
X37205220Y-65500781D01*
X37205218Y-65500778D01*
X37205218Y-65500776D01*
X37171503Y-65434607D01*
X37112287Y-65318390D01*
X37104556Y-65307749D01*
X36991971Y-65152786D01*
X36847213Y-65008028D01*
X36681613Y-64887715D01*
X36681612Y-64887714D01*
X36681610Y-64887713D01*
X36624653Y-64858691D01*
X36499223Y-64794781D01*
X36304534Y-64731522D01*
X36129995Y-64703878D01*
X36102352Y-64699500D01*
X35897648Y-64699500D01*
X35873329Y-64703351D01*
X35695465Y-64731522D01*
X35500776Y-64794781D01*
X35318386Y-64887715D01*
X35152786Y-65008028D01*
X35008028Y-65152786D01*
X34887715Y-65318386D01*
X34794781Y-65500776D01*
X34731522Y-65695465D01*
X34699500Y-65897648D01*
X31500000Y-65897648D01*
X31500000Y-63551345D01*
X40271500Y-63551345D01*
X40271500Y-66848654D01*
X40278011Y-66909202D01*
X40278011Y-66909204D01*
X40321277Y-67025200D01*
X40329111Y-67046204D01*
X40416739Y-67163261D01*
X40533796Y-67250889D01*
X40670799Y-67301989D01*
X40698050Y-67304918D01*
X40731345Y-67308499D01*
X40731362Y-67308500D01*
X44028638Y-67308500D01*
X44028654Y-67308499D01*
X44055692Y-67305591D01*
X44089201Y-67301989D01*
X44226204Y-67250889D01*
X44343261Y-67163261D01*
X44430889Y-67046204D01*
X44481989Y-66909201D01*
X44485591Y-66875692D01*
X44488499Y-66848654D01*
X44488500Y-66848637D01*
X44488500Y-65200000D01*
X55506573Y-65200000D01*
X55526257Y-65487778D01*
X55526258Y-65487780D01*
X55584941Y-65770185D01*
X55584946Y-65770201D01*
X55630241Y-65897648D01*
X55681541Y-66041992D01*
X55814247Y-66298103D01*
X55980591Y-66533758D01*
X55980595Y-66533762D01*
X55980595Y-66533763D01*
X56177477Y-66744571D01*
X56305412Y-66848654D01*
X56401228Y-66926606D01*
X56647686Y-67076481D01*
X56647688Y-67076482D01*
X56647690Y-67076483D01*
X56824066Y-67153093D01*
X56912256Y-67191400D01*
X57190011Y-67269223D01*
X57428404Y-67301989D01*
X57475774Y-67308500D01*
X57475775Y-67308500D01*
X57764226Y-67308500D01*
X57811596Y-67301989D01*
X58049989Y-67269223D01*
X58327744Y-67191400D01*
X58592314Y-67076481D01*
X58838772Y-66926606D01*
X59062526Y-66744568D01*
X59259409Y-66533758D01*
X59425753Y-66298103D01*
X59558459Y-66041992D01*
X59609759Y-65897648D01*
X61699500Y-65897648D01*
X61699500Y-66102351D01*
X61731522Y-66304534D01*
X61794781Y-66499223D01*
X61887715Y-66681613D01*
X62008028Y-66847213D01*
X62152786Y-66991971D01*
X62307749Y-67104556D01*
X62318390Y-67112287D01*
X62418430Y-67163260D01*
X62500776Y-67205218D01*
X62500778Y-67205218D01*
X62500781Y-67205220D01*
X62605137Y-67239127D01*
X62695465Y-67268477D01*
X62796557Y-67284488D01*
X62897648Y-67300500D01*
X62897649Y-67300500D01*
X63102351Y-67300500D01*
X63102352Y-67300500D01*
X63304534Y-67268477D01*
X63499219Y-67205220D01*
X63681610Y-67112287D01*
X63801476Y-67025200D01*
X63847213Y-66991971D01*
X63847215Y-66991968D01*
X63847219Y-66991966D01*
X63991966Y-66847219D01*
X63991968Y-66847215D01*
X63991971Y-66847213D01*
X64044732Y-66774590D01*
X64112287Y-66681610D01*
X64205220Y-66499219D01*
X64268477Y-66304534D01*
X64300500Y-66102352D01*
X64300500Y-65897648D01*
X64268477Y-65695466D01*
X64205220Y-65500781D01*
X64205218Y-65500778D01*
X64205218Y-65500776D01*
X64171503Y-65434607D01*
X64112287Y-65318390D01*
X64104556Y-65307749D01*
X63991971Y-65152786D01*
X63847213Y-65008028D01*
X63681613Y-64887715D01*
X63681612Y-64887714D01*
X63681610Y-64887713D01*
X63624653Y-64858691D01*
X63499223Y-64794781D01*
X63304534Y-64731522D01*
X63129995Y-64703878D01*
X63102352Y-64699500D01*
X62897648Y-64699500D01*
X62873329Y-64703351D01*
X62695465Y-64731522D01*
X62500776Y-64794781D01*
X62318386Y-64887715D01*
X62152786Y-65008028D01*
X62008028Y-65152786D01*
X61887715Y-65318386D01*
X61794781Y-65500776D01*
X61731522Y-65695465D01*
X61699500Y-65897648D01*
X59609759Y-65897648D01*
X59655055Y-65770196D01*
X59655055Y-65770191D01*
X59655058Y-65770185D01*
X59687331Y-65614870D01*
X59713742Y-65487778D01*
X59733427Y-65200000D01*
X59713742Y-64912222D01*
X59689337Y-64794780D01*
X59655058Y-64629814D01*
X59655053Y-64629798D01*
X59558459Y-64358009D01*
X59558459Y-64358008D01*
X59425753Y-64101897D01*
X59259409Y-63866242D01*
X59259404Y-63866236D01*
X59062522Y-63655428D01*
X58838771Y-63473393D01*
X58592309Y-63323516D01*
X58327745Y-63208600D01*
X58049995Y-63130778D01*
X58049990Y-63130777D01*
X58049989Y-63130777D01*
X57907107Y-63111138D01*
X57764226Y-63091500D01*
X57764225Y-63091500D01*
X57475775Y-63091500D01*
X57475774Y-63091500D01*
X57190011Y-63130777D01*
X57190004Y-63130778D01*
X56912254Y-63208600D01*
X56647690Y-63323516D01*
X56401228Y-63473393D01*
X56177477Y-63655428D01*
X55980595Y-63866236D01*
X55980595Y-63866237D01*
X55814247Y-64101896D01*
X55681540Y-64358009D01*
X55584946Y-64629798D01*
X55584941Y-64629814D01*
X55526258Y-64912219D01*
X55526257Y-64912221D01*
X55506573Y-65200000D01*
X44488500Y-65200000D01*
X44488500Y-63551362D01*
X44488499Y-63551345D01*
X44485157Y-63520270D01*
X44481989Y-63490799D01*
X44475497Y-63473394D01*
X44459522Y-63430564D01*
X44430889Y-63353796D01*
X44343261Y-63236739D01*
X44226204Y-63149111D01*
X44089203Y-63098011D01*
X44028654Y-63091500D01*
X44028638Y-63091500D01*
X40731362Y-63091500D01*
X40731345Y-63091500D01*
X40670797Y-63098011D01*
X40670795Y-63098011D01*
X40533795Y-63149111D01*
X40416739Y-63236739D01*
X40329111Y-63353795D01*
X40278011Y-63490795D01*
X40278011Y-63490797D01*
X40271500Y-63551345D01*
X31500000Y-63551345D01*
X31500000Y-55601504D01*
X38396500Y-55601504D01*
X38396500Y-55818495D01*
X38430442Y-56032796D01*
X38430443Y-56032800D01*
X38497494Y-56239160D01*
X38596001Y-56432492D01*
X38723539Y-56608033D01*
X38723541Y-56608035D01*
X38858139Y-56742633D01*
X38891624Y-56803956D01*
X38886640Y-56873648D01*
X38844768Y-56929581D01*
X38835556Y-56935852D01*
X38681348Y-57030969D01*
X38555971Y-57156346D01*
X38462886Y-57307259D01*
X38462884Y-57307264D01*
X38407113Y-57475572D01*
X38396500Y-57579447D01*
X38396500Y-58920537D01*
X38396501Y-58920553D01*
X38407113Y-59024427D01*
X38462884Y-59192735D01*
X38462885Y-59192738D01*
X38555970Y-59343652D01*
X38681348Y-59469030D01*
X38832262Y-59562115D01*
X39000574Y-59617887D01*
X39104455Y-59628500D01*
X40895544Y-59628499D01*
X40999426Y-59617887D01*
X41167738Y-59562115D01*
X41318652Y-59469030D01*
X41444030Y-59343652D01*
X41537115Y-59192738D01*
X41592887Y-59024426D01*
X41603500Y-58920545D01*
X41603499Y-57579456D01*
X41592887Y-57475574D01*
X41537115Y-57307262D01*
X41444030Y-57156348D01*
X41318652Y-57030970D01*
X41318648Y-57030967D01*
X41164444Y-56935852D01*
X41117719Y-56883904D01*
X41106498Y-56814942D01*
X41134341Y-56750860D01*
X41141838Y-56742655D01*
X41276461Y-56608033D01*
X41403999Y-56432492D01*
X41502506Y-56239160D01*
X41569557Y-56032800D01*
X41584642Y-55937551D01*
X41603500Y-55818495D01*
X41603500Y-55601504D01*
X41569557Y-55387203D01*
X41569557Y-55387200D01*
X41502506Y-55180840D01*
X41425368Y-55029447D01*
X46596500Y-55029447D01*
X46596500Y-56370537D01*
X46596501Y-56370553D01*
X46602829Y-56432492D01*
X46607113Y-56474426D01*
X46662885Y-56642738D01*
X46736114Y-56761461D01*
X46755971Y-56793653D01*
X46881347Y-56919029D01*
X46881351Y-56919032D01*
X47035555Y-57014147D01*
X47082280Y-57066095D01*
X47093501Y-57135057D01*
X47065658Y-57199139D01*
X47058140Y-57207366D01*
X46923538Y-57341968D01*
X46796001Y-57517507D01*
X46697495Y-57710837D01*
X46630442Y-57917203D01*
X46596500Y-58131504D01*
X46596500Y-58348495D01*
X46630442Y-58562796D01*
X46630443Y-58562800D01*
X46697494Y-58769160D01*
X46796001Y-58962492D01*
X46923539Y-59138033D01*
X47076967Y-59291461D01*
X47252508Y-59418999D01*
X47445840Y-59517506D01*
X47652200Y-59584557D01*
X47732566Y-59597285D01*
X47866505Y-59618500D01*
X47866510Y-59618500D01*
X48533495Y-59618500D01*
X48652551Y-59599642D01*
X48747800Y-59584557D01*
X48954160Y-59517506D01*
X49147492Y-59418999D01*
X49323033Y-59291461D01*
X49476461Y-59138033D01*
X49603999Y-58962492D01*
X49702506Y-58769160D01*
X49769557Y-58562800D01*
X49784642Y-58467551D01*
X49803500Y-58348495D01*
X49803500Y-58131504D01*
X49769557Y-57917203D01*
X49769557Y-57917200D01*
X49702506Y-57710840D01*
X49603999Y-57517508D01*
X49476461Y-57341967D01*
X49341860Y-57207366D01*
X49308375Y-57146043D01*
X49313359Y-57076351D01*
X49355231Y-57020418D01*
X49364444Y-57014146D01*
X49367735Y-57012115D01*
X49367738Y-57012115D01*
X49518652Y-56919030D01*
X49644030Y-56793652D01*
X49737115Y-56642738D01*
X49792887Y-56474426D01*
X49803500Y-56370545D01*
X49803499Y-55029456D01*
X49792887Y-54925574D01*
X49737115Y-54757262D01*
X49644030Y-54606348D01*
X49518652Y-54480970D01*
X49367738Y-54387885D01*
X49367735Y-54387884D01*
X49199427Y-54332113D01*
X49095545Y-54321500D01*
X47304462Y-54321500D01*
X47304446Y-54321501D01*
X47200572Y-54332113D01*
X47032264Y-54387884D01*
X47032259Y-54387886D01*
X46881346Y-54480971D01*
X46755971Y-54606346D01*
X46662886Y-54757259D01*
X46662884Y-54757264D01*
X46607113Y-54925572D01*
X46596500Y-55029447D01*
X41425368Y-55029447D01*
X41403999Y-54987508D01*
X41276461Y-54811967D01*
X41123033Y-54658539D01*
X40947492Y-54531001D01*
X40754160Y-54432494D01*
X40547800Y-54365443D01*
X40547798Y-54365442D01*
X40547796Y-54365442D01*
X40333495Y-54331500D01*
X40333490Y-54331500D01*
X39666510Y-54331500D01*
X39666505Y-54331500D01*
X39452203Y-54365442D01*
X39245837Y-54432495D01*
X39052507Y-54531001D01*
X38952355Y-54603766D01*
X38876967Y-54658539D01*
X38876965Y-54658541D01*
X38876964Y-54658541D01*
X38723541Y-54811964D01*
X38723541Y-54811965D01*
X38723539Y-54811967D01*
X38668766Y-54887355D01*
X38596001Y-54987507D01*
X38497495Y-55180837D01*
X38430442Y-55387203D01*
X38396500Y-55601504D01*
X31500000Y-55601504D01*
X31500000Y-46891504D01*
X38416500Y-46891504D01*
X38416500Y-47108495D01*
X38450442Y-47322796D01*
X38450443Y-47322800D01*
X38517494Y-47529160D01*
X38616001Y-47722492D01*
X38743539Y-47898033D01*
X38743541Y-47898035D01*
X38884317Y-48038811D01*
X38917802Y-48100134D01*
X38912818Y-48169826D01*
X38870946Y-48225759D01*
X38861733Y-48232031D01*
X38706654Y-48327684D01*
X38582684Y-48451654D01*
X38490643Y-48600875D01*
X38490641Y-48600880D01*
X38435494Y-48767302D01*
X38435493Y-48767309D01*
X38425000Y-48870013D01*
X38425000Y-49290000D01*
X39477291Y-49290000D01*
X39465548Y-49310339D01*
X39425000Y-49461667D01*
X39425000Y-49618333D01*
X39465548Y-49769661D01*
X39477291Y-49790000D01*
X38425001Y-49790000D01*
X38425001Y-50209986D01*
X38435494Y-50312697D01*
X38490641Y-50479119D01*
X38490643Y-50479124D01*
X38582684Y-50628345D01*
X38706654Y-50752315D01*
X38855875Y-50844356D01*
X38855880Y-50844358D01*
X39022302Y-50899505D01*
X39022309Y-50899506D01*
X39125019Y-50909999D01*
X39769999Y-50909999D01*
X39770000Y-50909998D01*
X39770000Y-50082709D01*
X39790339Y-50094452D01*
X39941667Y-50135000D01*
X40098333Y-50135000D01*
X40249661Y-50094452D01*
X40270000Y-50082709D01*
X40270000Y-50909999D01*
X40914972Y-50909999D01*
X40914986Y-50909998D01*
X41017697Y-50899505D01*
X41184119Y-50844358D01*
X41184124Y-50844356D01*
X41333345Y-50752315D01*
X41457315Y-50628345D01*
X41549356Y-50479124D01*
X41549358Y-50479119D01*
X41604505Y-50312697D01*
X41604506Y-50312690D01*
X41614999Y-50209986D01*
X41615000Y-50209973D01*
X41615000Y-49790000D01*
X40562709Y-49790000D01*
X40574452Y-49769661D01*
X40615000Y-49618333D01*
X40615000Y-49461667D01*
X40574452Y-49310339D01*
X40562709Y-49290000D01*
X41614999Y-49290000D01*
X41614999Y-48870028D01*
X41614998Y-48870013D01*
X41604505Y-48767302D01*
X41549358Y-48600880D01*
X41549356Y-48600875D01*
X41457315Y-48451654D01*
X41333345Y-48327684D01*
X41178266Y-48232031D01*
X41131542Y-48180083D01*
X41120319Y-48111120D01*
X41148163Y-48047038D01*
X41155660Y-48038833D01*
X41296461Y-47898033D01*
X41423999Y-47722492D01*
X41522506Y-47529160D01*
X41589557Y-47322800D01*
X41619955Y-47130875D01*
X41623500Y-47108495D01*
X41623500Y-46891504D01*
X41594593Y-46708999D01*
X41589557Y-46677200D01*
X41522506Y-46470840D01*
X41423999Y-46277508D01*
X41296461Y-46101967D01*
X41143033Y-45948539D01*
X40973083Y-45825063D01*
X40930419Y-45769734D01*
X40924440Y-45700121D01*
X40957046Y-45638326D01*
X40973085Y-45624428D01*
X41137491Y-45504979D01*
X41137497Y-45504974D01*
X41220967Y-45421504D01*
X58616500Y-45421504D01*
X58616500Y-45638495D01*
X58646050Y-45825064D01*
X58650443Y-45852800D01*
X58717494Y-46059160D01*
X58816001Y-46252492D01*
X58943539Y-46428033D01*
X58943541Y-46428035D01*
X59084317Y-46568811D01*
X59117802Y-46630134D01*
X59112818Y-46699826D01*
X59070946Y-46755759D01*
X59061733Y-46762031D01*
X58906654Y-46857684D01*
X58782684Y-46981654D01*
X58690643Y-47130875D01*
X58690641Y-47130880D01*
X58635494Y-47297302D01*
X58635493Y-47297309D01*
X58625000Y-47400013D01*
X58625000Y-47820000D01*
X59677291Y-47820000D01*
X59665548Y-47840339D01*
X59625000Y-47991667D01*
X59625000Y-48148333D01*
X59665548Y-48299661D01*
X59677291Y-48320000D01*
X58625001Y-48320000D01*
X58625001Y-48739986D01*
X58635494Y-48842697D01*
X58690641Y-49009119D01*
X58690643Y-49009124D01*
X58782684Y-49158345D01*
X58906654Y-49282315D01*
X59055875Y-49374356D01*
X59055880Y-49374358D01*
X59222302Y-49429505D01*
X59222309Y-49429506D01*
X59325019Y-49439999D01*
X59969999Y-49439999D01*
X59970000Y-49439998D01*
X59970000Y-48612709D01*
X59990339Y-48624452D01*
X60141667Y-48665000D01*
X60298333Y-48665000D01*
X60449661Y-48624452D01*
X60470000Y-48612709D01*
X60470000Y-49439999D01*
X61114972Y-49439999D01*
X61114986Y-49439998D01*
X61217697Y-49429505D01*
X61384119Y-49374358D01*
X61384124Y-49374356D01*
X61533345Y-49282315D01*
X61657315Y-49158345D01*
X61749356Y-49009124D01*
X61749358Y-49009119D01*
X61804505Y-48842697D01*
X61804506Y-48842690D01*
X61814999Y-48739986D01*
X61815000Y-48739973D01*
X61815000Y-48320000D01*
X60762709Y-48320000D01*
X60774452Y-48299661D01*
X60815000Y-48148333D01*
X60815000Y-47991667D01*
X60774452Y-47840339D01*
X60762709Y-47820000D01*
X61814999Y-47820000D01*
X61814999Y-47400028D01*
X61814998Y-47400013D01*
X61804505Y-47297302D01*
X61749358Y-47130880D01*
X61749356Y-47130875D01*
X61657315Y-46981654D01*
X61533345Y-46857684D01*
X61378266Y-46762031D01*
X61331542Y-46710083D01*
X61320319Y-46641120D01*
X61348163Y-46577038D01*
X61355660Y-46568833D01*
X61496461Y-46428033D01*
X61623999Y-46252492D01*
X61722506Y-46059160D01*
X61789557Y-45852800D01*
X61816964Y-45679758D01*
X61823500Y-45638495D01*
X61823500Y-45421504D01*
X61789557Y-45207203D01*
X61789557Y-45207200D01*
X61722506Y-45000840D01*
X61623999Y-44807508D01*
X61496461Y-44631967D01*
X61343033Y-44478539D01*
X61167492Y-44351001D01*
X60974160Y-44252494D01*
X60767800Y-44185443D01*
X60767798Y-44185442D01*
X60767796Y-44185442D01*
X60553495Y-44151500D01*
X60553490Y-44151500D01*
X59886510Y-44151500D01*
X59886505Y-44151500D01*
X59672203Y-44185442D01*
X59672200Y-44185443D01*
X59534026Y-44230339D01*
X59465837Y-44252495D01*
X59272507Y-44351001D01*
X59172355Y-44423766D01*
X59096967Y-44478539D01*
X59096965Y-44478541D01*
X59096964Y-44478541D01*
X58943541Y-44631964D01*
X58943541Y-44631965D01*
X58943539Y-44631967D01*
X58901622Y-44689661D01*
X58816001Y-44807507D01*
X58717495Y-45000837D01*
X58650442Y-45207203D01*
X58616500Y-45421504D01*
X41220967Y-45421504D01*
X41289974Y-45352497D01*
X41289974Y-45352496D01*
X41416728Y-45178036D01*
X41514627Y-44985901D01*
X41581266Y-44780809D01*
X41592481Y-44710000D01*
X40562709Y-44710000D01*
X40574452Y-44689661D01*
X40615000Y-44538333D01*
X40615000Y-44381667D01*
X40574452Y-44230339D01*
X40562709Y-44210000D01*
X41592481Y-44210000D01*
X41581266Y-44139190D01*
X41514627Y-43934098D01*
X41416728Y-43741963D01*
X41289974Y-43567503D01*
X41289974Y-43567502D01*
X41137497Y-43415025D01*
X40963036Y-43288271D01*
X40770901Y-43190372D01*
X40565809Y-43123734D01*
X40352820Y-43090000D01*
X40270000Y-43090000D01*
X40270000Y-43917290D01*
X40249661Y-43905548D01*
X40098333Y-43865000D01*
X39941667Y-43865000D01*
X39790339Y-43905548D01*
X39770000Y-43917290D01*
X39770000Y-43090000D01*
X39687180Y-43090000D01*
X39474190Y-43123734D01*
X39269098Y-43190372D01*
X39076963Y-43288271D01*
X38902503Y-43415025D01*
X38902502Y-43415025D01*
X38750025Y-43567502D01*
X38750025Y-43567503D01*
X38623271Y-43741963D01*
X38525372Y-43934098D01*
X38458733Y-44139190D01*
X38447519Y-44210000D01*
X39477291Y-44210000D01*
X39465548Y-44230339D01*
X39425000Y-44381667D01*
X39425000Y-44538333D01*
X39465548Y-44689661D01*
X39477291Y-44710000D01*
X38447519Y-44710000D01*
X38458733Y-44780809D01*
X38525372Y-44985901D01*
X38623271Y-45178036D01*
X38750025Y-45352496D01*
X38750025Y-45352497D01*
X38902502Y-45504974D01*
X39066915Y-45624428D01*
X39109580Y-45679758D01*
X39115559Y-45749372D01*
X39082953Y-45811167D01*
X39066915Y-45825064D01*
X39028746Y-45852796D01*
X38896967Y-45948539D01*
X38896965Y-45948541D01*
X38896964Y-45948541D01*
X38743541Y-46101964D01*
X38743541Y-46101965D01*
X38743539Y-46101967D01*
X38688766Y-46177355D01*
X38616001Y-46277507D01*
X38517495Y-46470837D01*
X38450442Y-46677203D01*
X38416500Y-46891504D01*
X31500000Y-46891504D01*
X31500000Y-38500739D01*
X31500008Y-38499307D01*
X31501182Y-38397648D01*
X34699500Y-38397648D01*
X34699500Y-38602351D01*
X34731522Y-38804534D01*
X34794781Y-38999223D01*
X34887715Y-39181613D01*
X35008028Y-39347213D01*
X35152786Y-39491971D01*
X35307749Y-39604556D01*
X35318390Y-39612287D01*
X35434607Y-39671503D01*
X35500776Y-39705218D01*
X35500778Y-39705218D01*
X35500781Y-39705220D01*
X35605137Y-39739127D01*
X35695465Y-39768477D01*
X35796557Y-39784488D01*
X35897648Y-39800500D01*
X35897649Y-39800500D01*
X36102351Y-39800500D01*
X36102352Y-39800500D01*
X36304534Y-39768477D01*
X36499219Y-39705220D01*
X36681610Y-39612287D01*
X36774590Y-39544732D01*
X36847213Y-39491971D01*
X36847215Y-39491968D01*
X36847219Y-39491966D01*
X36991966Y-39347219D01*
X36991968Y-39347215D01*
X36991971Y-39347213D01*
X37044732Y-39274590D01*
X37112287Y-39181610D01*
X37205220Y-38999219D01*
X37268477Y-38804534D01*
X37300500Y-38602352D01*
X37300500Y-38397648D01*
X61699500Y-38397648D01*
X61699500Y-38602351D01*
X61731522Y-38804534D01*
X61794781Y-38999223D01*
X61887715Y-39181613D01*
X62008028Y-39347213D01*
X62152786Y-39491971D01*
X62307749Y-39604556D01*
X62318390Y-39612287D01*
X62434607Y-39671503D01*
X62500776Y-39705218D01*
X62500778Y-39705218D01*
X62500781Y-39705220D01*
X62605137Y-39739127D01*
X62695465Y-39768477D01*
X62796557Y-39784488D01*
X62897648Y-39800500D01*
X62897649Y-39800500D01*
X63102351Y-39800500D01*
X63102352Y-39800500D01*
X63304534Y-39768477D01*
X63499219Y-39705220D01*
X63681610Y-39612287D01*
X63774590Y-39544732D01*
X63847213Y-39491971D01*
X63847215Y-39491968D01*
X63847219Y-39491966D01*
X63991966Y-39347219D01*
X63991968Y-39347215D01*
X63991971Y-39347213D01*
X64044732Y-39274590D01*
X64112287Y-39181610D01*
X64205220Y-38999219D01*
X64268477Y-38804534D01*
X64300500Y-38602352D01*
X64300500Y-38397648D01*
X64268477Y-38195466D01*
X64205220Y-38000781D01*
X64205218Y-38000778D01*
X64205218Y-38000776D01*
X64145552Y-37883676D01*
X64112287Y-37818390D01*
X64104556Y-37807749D01*
X63991971Y-37652786D01*
X63847213Y-37508028D01*
X63681613Y-37387715D01*
X63681612Y-37387714D01*
X63681610Y-37387713D01*
X63624653Y-37358691D01*
X63499223Y-37294781D01*
X63304534Y-37231522D01*
X63129995Y-37203878D01*
X63102352Y-37199500D01*
X62897648Y-37199500D01*
X62873329Y-37203351D01*
X62695465Y-37231522D01*
X62500776Y-37294781D01*
X62318386Y-37387715D01*
X62152786Y-37508028D01*
X62008028Y-37652786D01*
X61887715Y-37818386D01*
X61794781Y-38000776D01*
X61731522Y-38195465D01*
X61699500Y-38397648D01*
X37300500Y-38397648D01*
X37268477Y-38195466D01*
X37205220Y-38000781D01*
X37205218Y-38000778D01*
X37205218Y-38000776D01*
X37145552Y-37883676D01*
X37112287Y-37818390D01*
X37104556Y-37807749D01*
X36991971Y-37652786D01*
X36847213Y-37508028D01*
X36681613Y-37387715D01*
X36681612Y-37387714D01*
X36681610Y-37387713D01*
X36624653Y-37358691D01*
X36499223Y-37294781D01*
X36304534Y-37231522D01*
X36129995Y-37203878D01*
X36102352Y-37199500D01*
X35897648Y-37199500D01*
X35873329Y-37203351D01*
X35695465Y-37231522D01*
X35500776Y-37294781D01*
X35318386Y-37387715D01*
X35152786Y-37508028D01*
X35008028Y-37652786D01*
X34887715Y-37818386D01*
X34794781Y-38000776D01*
X34731522Y-38195465D01*
X34699500Y-38397648D01*
X31501182Y-38397648D01*
X31502343Y-38297073D01*
X31502864Y-38287064D01*
X31511352Y-38195465D01*
X31540245Y-37883660D01*
X31541822Y-37872348D01*
X31616137Y-37474796D01*
X31618760Y-37463650D01*
X31729431Y-37074680D01*
X31733058Y-37063855D01*
X31879167Y-36686705D01*
X31883780Y-36676260D01*
X32064049Y-36314230D01*
X32069601Y-36304260D01*
X32282514Y-35960394D01*
X32288984Y-35950951D01*
X32532707Y-35628209D01*
X32539998Y-35619429D01*
X32812472Y-35320540D01*
X32820540Y-35312472D01*
X33119429Y-35039998D01*
X33128209Y-35032707D01*
X33450956Y-34788980D01*
X33460394Y-34782514D01*
X33804260Y-34569601D01*
X33814230Y-34564049D01*
X34176260Y-34383780D01*
X34186705Y-34379167D01*
X34563855Y-34233058D01*
X34574680Y-34229431D01*
X34963652Y-34118759D01*
X34974796Y-34116137D01*
X35372348Y-34041822D01*
X35383660Y-34040245D01*
X35787069Y-34002863D01*
X35797069Y-34002343D01*
X35999307Y-34000007D01*
X36000739Y-34000000D01*
X62999261Y-34000000D01*
X63000692Y-34000007D01*
G37*
%TD.AperFunction*%
%TD*%
M02*
