%TF.GenerationSoftware,KiCad,Pcbnew,8.0.5*%
%TF.CreationDate,2024-09-30T19:38:02-05:00*%
%TF.ProjectId,HornProject_v0.0,486f726e-5072-46f6-9a65-63745f76302e,0.0*%
%TF.SameCoordinates,Original*%
%TF.FileFunction,Legend,Top*%
%TF.FilePolarity,Positive*%
%FSLAX46Y46*%
G04 Gerber Fmt 4.6, Leading zero omitted, Abs format (unit mm)*
G04 Created by KiCad (PCBNEW 8.0.5) date 2024-09-30 19:38:02*
%MOMM*%
%LPD*%
G01*
G04 APERTURE LIST*
%ADD10C,0.150000*%
%ADD11C,0.120000*%
G04 APERTURE END LIST*
D10*
X61666666Y-35754819D02*
X61333333Y-35278628D01*
X61095238Y-35754819D02*
X61095238Y-34754819D01*
X61095238Y-34754819D02*
X61476190Y-34754819D01*
X61476190Y-34754819D02*
X61571428Y-34802438D01*
X61571428Y-34802438D02*
X61619047Y-34850057D01*
X61619047Y-34850057D02*
X61666666Y-34945295D01*
X61666666Y-34945295D02*
X61666666Y-35088152D01*
X61666666Y-35088152D02*
X61619047Y-35183390D01*
X61619047Y-35183390D02*
X61571428Y-35231009D01*
X61571428Y-35231009D02*
X61476190Y-35278628D01*
X61476190Y-35278628D02*
X61095238Y-35278628D01*
X62095238Y-35231009D02*
X62428571Y-35231009D01*
X62571428Y-35754819D02*
X62095238Y-35754819D01*
X62095238Y-35754819D02*
X62095238Y-34754819D01*
X62095238Y-34754819D02*
X62571428Y-34754819D01*
X63333333Y-35231009D02*
X63000000Y-35231009D01*
X63000000Y-35754819D02*
X63000000Y-34754819D01*
X63000000Y-34754819D02*
X63476190Y-34754819D01*
X64000000Y-34754819D02*
X64000000Y-34992914D01*
X63761905Y-34897676D02*
X64000000Y-34992914D01*
X64000000Y-34992914D02*
X64238095Y-34897676D01*
X63857143Y-35183390D02*
X64000000Y-34992914D01*
X64000000Y-34992914D02*
X64142857Y-35183390D01*
X64761905Y-34754819D02*
X64761905Y-34992914D01*
X64523810Y-34897676D02*
X64761905Y-34992914D01*
X64761905Y-34992914D02*
X65000000Y-34897676D01*
X64619048Y-35183390D02*
X64761905Y-34992914D01*
X64761905Y-34992914D02*
X64904762Y-35183390D01*
X48933333Y-45259580D02*
X48885714Y-45307200D01*
X48885714Y-45307200D02*
X48742857Y-45354819D01*
X48742857Y-45354819D02*
X48647619Y-45354819D01*
X48647619Y-45354819D02*
X48504762Y-45307200D01*
X48504762Y-45307200D02*
X48409524Y-45211961D01*
X48409524Y-45211961D02*
X48361905Y-45116723D01*
X48361905Y-45116723D02*
X48314286Y-44926247D01*
X48314286Y-44926247D02*
X48314286Y-44783390D01*
X48314286Y-44783390D02*
X48361905Y-44592914D01*
X48361905Y-44592914D02*
X48409524Y-44497676D01*
X48409524Y-44497676D02*
X48504762Y-44402438D01*
X48504762Y-44402438D02*
X48647619Y-44354819D01*
X48647619Y-44354819D02*
X48742857Y-44354819D01*
X48742857Y-44354819D02*
X48885714Y-44402438D01*
X48885714Y-44402438D02*
X48933333Y-44450057D01*
X49790476Y-44688152D02*
X49790476Y-45354819D01*
X49552381Y-44307200D02*
X49314286Y-45021485D01*
X49314286Y-45021485D02*
X49933333Y-45021485D01*
X34666666Y-63254819D02*
X34333333Y-62778628D01*
X34095238Y-63254819D02*
X34095238Y-62254819D01*
X34095238Y-62254819D02*
X34476190Y-62254819D01*
X34476190Y-62254819D02*
X34571428Y-62302438D01*
X34571428Y-62302438D02*
X34619047Y-62350057D01*
X34619047Y-62350057D02*
X34666666Y-62445295D01*
X34666666Y-62445295D02*
X34666666Y-62588152D01*
X34666666Y-62588152D02*
X34619047Y-62683390D01*
X34619047Y-62683390D02*
X34571428Y-62731009D01*
X34571428Y-62731009D02*
X34476190Y-62778628D01*
X34476190Y-62778628D02*
X34095238Y-62778628D01*
X35095238Y-62731009D02*
X35428571Y-62731009D01*
X35571428Y-63254819D02*
X35095238Y-63254819D01*
X35095238Y-63254819D02*
X35095238Y-62254819D01*
X35095238Y-62254819D02*
X35571428Y-62254819D01*
X36333333Y-62731009D02*
X36000000Y-62731009D01*
X36000000Y-63254819D02*
X36000000Y-62254819D01*
X36000000Y-62254819D02*
X36476190Y-62254819D01*
X37000000Y-62254819D02*
X37000000Y-62492914D01*
X36761905Y-62397676D02*
X37000000Y-62492914D01*
X37000000Y-62492914D02*
X37238095Y-62397676D01*
X36857143Y-62683390D02*
X37000000Y-62492914D01*
X37000000Y-62492914D02*
X37142857Y-62683390D01*
X37761905Y-62254819D02*
X37761905Y-62492914D01*
X37523810Y-62397676D02*
X37761905Y-62492914D01*
X37761905Y-62492914D02*
X38000000Y-62397676D01*
X37619048Y-62683390D02*
X37761905Y-62492914D01*
X37761905Y-62492914D02*
X37904762Y-62683390D01*
X61666666Y-63254819D02*
X61333333Y-62778628D01*
X61095238Y-63254819D02*
X61095238Y-62254819D01*
X61095238Y-62254819D02*
X61476190Y-62254819D01*
X61476190Y-62254819D02*
X61571428Y-62302438D01*
X61571428Y-62302438D02*
X61619047Y-62350057D01*
X61619047Y-62350057D02*
X61666666Y-62445295D01*
X61666666Y-62445295D02*
X61666666Y-62588152D01*
X61666666Y-62588152D02*
X61619047Y-62683390D01*
X61619047Y-62683390D02*
X61571428Y-62731009D01*
X61571428Y-62731009D02*
X61476190Y-62778628D01*
X61476190Y-62778628D02*
X61095238Y-62778628D01*
X62095238Y-62731009D02*
X62428571Y-62731009D01*
X62571428Y-63254819D02*
X62095238Y-63254819D01*
X62095238Y-63254819D02*
X62095238Y-62254819D01*
X62095238Y-62254819D02*
X62571428Y-62254819D01*
X63333333Y-62731009D02*
X63000000Y-62731009D01*
X63000000Y-63254819D02*
X63000000Y-62254819D01*
X63000000Y-62254819D02*
X63476190Y-62254819D01*
X64000000Y-62254819D02*
X64000000Y-62492914D01*
X63761905Y-62397676D02*
X64000000Y-62492914D01*
X64000000Y-62492914D02*
X64238095Y-62397676D01*
X63857143Y-62683390D02*
X64000000Y-62492914D01*
X64000000Y-62492914D02*
X64142857Y-62683390D01*
X64761905Y-62254819D02*
X64761905Y-62492914D01*
X64523810Y-62397676D02*
X64761905Y-62492914D01*
X64761905Y-62492914D02*
X65000000Y-62397676D01*
X64619048Y-62683390D02*
X64761905Y-62492914D01*
X64761905Y-62492914D02*
X64904762Y-62683390D01*
X60833333Y-55159580D02*
X60785714Y-55207200D01*
X60785714Y-55207200D02*
X60642857Y-55254819D01*
X60642857Y-55254819D02*
X60547619Y-55254819D01*
X60547619Y-55254819D02*
X60404762Y-55207200D01*
X60404762Y-55207200D02*
X60309524Y-55111961D01*
X60309524Y-55111961D02*
X60261905Y-55016723D01*
X60261905Y-55016723D02*
X60214286Y-54826247D01*
X60214286Y-54826247D02*
X60214286Y-54683390D01*
X60214286Y-54683390D02*
X60261905Y-54492914D01*
X60261905Y-54492914D02*
X60309524Y-54397676D01*
X60309524Y-54397676D02*
X60404762Y-54302438D01*
X60404762Y-54302438D02*
X60547619Y-54254819D01*
X60547619Y-54254819D02*
X60642857Y-54254819D01*
X60642857Y-54254819D02*
X60785714Y-54302438D01*
X60785714Y-54302438D02*
X60833333Y-54350057D01*
X61785714Y-55254819D02*
X61214286Y-55254819D01*
X61500000Y-55254819D02*
X61500000Y-54254819D01*
X61500000Y-54254819D02*
X61404762Y-54397676D01*
X61404762Y-54397676D02*
X61309524Y-54492914D01*
X61309524Y-54492914D02*
X61214286Y-54540533D01*
X54666666Y-52931009D02*
X54333333Y-52931009D01*
X54333333Y-53454819D02*
X54333333Y-52454819D01*
X54333333Y-52454819D02*
X54809523Y-52454819D01*
X55714285Y-53454819D02*
X55142857Y-53454819D01*
X55428571Y-53454819D02*
X55428571Y-52454819D01*
X55428571Y-52454819D02*
X55333333Y-52597676D01*
X55333333Y-52597676D02*
X55238095Y-52692914D01*
X55238095Y-52692914D02*
X55142857Y-52740533D01*
X52766666Y-55431009D02*
X52433333Y-55431009D01*
X52433333Y-55954819D02*
X52433333Y-54954819D01*
X52433333Y-54954819D02*
X52909523Y-54954819D01*
X53242857Y-55050057D02*
X53290476Y-55002438D01*
X53290476Y-55002438D02*
X53385714Y-54954819D01*
X53385714Y-54954819D02*
X53623809Y-54954819D01*
X53623809Y-54954819D02*
X53719047Y-55002438D01*
X53719047Y-55002438D02*
X53766666Y-55050057D01*
X53766666Y-55050057D02*
X53814285Y-55145295D01*
X53814285Y-55145295D02*
X53814285Y-55240533D01*
X53814285Y-55240533D02*
X53766666Y-55383390D01*
X53766666Y-55383390D02*
X53195238Y-55954819D01*
X53195238Y-55954819D02*
X53814285Y-55954819D01*
X53608333Y-48249580D02*
X53560714Y-48297200D01*
X53560714Y-48297200D02*
X53417857Y-48344819D01*
X53417857Y-48344819D02*
X53322619Y-48344819D01*
X53322619Y-48344819D02*
X53179762Y-48297200D01*
X53179762Y-48297200D02*
X53084524Y-48201961D01*
X53084524Y-48201961D02*
X53036905Y-48106723D01*
X53036905Y-48106723D02*
X52989286Y-47916247D01*
X52989286Y-47916247D02*
X52989286Y-47773390D01*
X52989286Y-47773390D02*
X53036905Y-47582914D01*
X53036905Y-47582914D02*
X53084524Y-47487676D01*
X53084524Y-47487676D02*
X53179762Y-47392438D01*
X53179762Y-47392438D02*
X53322619Y-47344819D01*
X53322619Y-47344819D02*
X53417857Y-47344819D01*
X53417857Y-47344819D02*
X53560714Y-47392438D01*
X53560714Y-47392438D02*
X53608333Y-47440057D01*
X54179762Y-47773390D02*
X54084524Y-47725771D01*
X54084524Y-47725771D02*
X54036905Y-47678152D01*
X54036905Y-47678152D02*
X53989286Y-47582914D01*
X53989286Y-47582914D02*
X53989286Y-47535295D01*
X53989286Y-47535295D02*
X54036905Y-47440057D01*
X54036905Y-47440057D02*
X54084524Y-47392438D01*
X54084524Y-47392438D02*
X54179762Y-47344819D01*
X54179762Y-47344819D02*
X54370238Y-47344819D01*
X54370238Y-47344819D02*
X54465476Y-47392438D01*
X54465476Y-47392438D02*
X54513095Y-47440057D01*
X54513095Y-47440057D02*
X54560714Y-47535295D01*
X54560714Y-47535295D02*
X54560714Y-47582914D01*
X54560714Y-47582914D02*
X54513095Y-47678152D01*
X54513095Y-47678152D02*
X54465476Y-47725771D01*
X54465476Y-47725771D02*
X54370238Y-47773390D01*
X54370238Y-47773390D02*
X54179762Y-47773390D01*
X54179762Y-47773390D02*
X54084524Y-47821009D01*
X54084524Y-47821009D02*
X54036905Y-47868628D01*
X54036905Y-47868628D02*
X53989286Y-47963866D01*
X53989286Y-47963866D02*
X53989286Y-48154342D01*
X53989286Y-48154342D02*
X54036905Y-48249580D01*
X54036905Y-48249580D02*
X54084524Y-48297200D01*
X54084524Y-48297200D02*
X54179762Y-48344819D01*
X54179762Y-48344819D02*
X54370238Y-48344819D01*
X54370238Y-48344819D02*
X54465476Y-48297200D01*
X54465476Y-48297200D02*
X54513095Y-48249580D01*
X54513095Y-48249580D02*
X54560714Y-48154342D01*
X54560714Y-48154342D02*
X54560714Y-47963866D01*
X54560714Y-47963866D02*
X54513095Y-47868628D01*
X54513095Y-47868628D02*
X54465476Y-47821009D01*
X54465476Y-47821009D02*
X54370238Y-47773390D01*
X58933333Y-52024819D02*
X58600000Y-51548628D01*
X58361905Y-52024819D02*
X58361905Y-51024819D01*
X58361905Y-51024819D02*
X58742857Y-51024819D01*
X58742857Y-51024819D02*
X58838095Y-51072438D01*
X58838095Y-51072438D02*
X58885714Y-51120057D01*
X58885714Y-51120057D02*
X58933333Y-51215295D01*
X58933333Y-51215295D02*
X58933333Y-51358152D01*
X58933333Y-51358152D02*
X58885714Y-51453390D01*
X58885714Y-51453390D02*
X58838095Y-51501009D01*
X58838095Y-51501009D02*
X58742857Y-51548628D01*
X58742857Y-51548628D02*
X58361905Y-51548628D01*
X59885714Y-52024819D02*
X59314286Y-52024819D01*
X59600000Y-52024819D02*
X59600000Y-51024819D01*
X59600000Y-51024819D02*
X59504762Y-51167676D01*
X59504762Y-51167676D02*
X59409524Y-51262914D01*
X59409524Y-51262914D02*
X59314286Y-51310533D01*
X34666666Y-35754819D02*
X34333333Y-35278628D01*
X34095238Y-35754819D02*
X34095238Y-34754819D01*
X34095238Y-34754819D02*
X34476190Y-34754819D01*
X34476190Y-34754819D02*
X34571428Y-34802438D01*
X34571428Y-34802438D02*
X34619047Y-34850057D01*
X34619047Y-34850057D02*
X34666666Y-34945295D01*
X34666666Y-34945295D02*
X34666666Y-35088152D01*
X34666666Y-35088152D02*
X34619047Y-35183390D01*
X34619047Y-35183390D02*
X34571428Y-35231009D01*
X34571428Y-35231009D02*
X34476190Y-35278628D01*
X34476190Y-35278628D02*
X34095238Y-35278628D01*
X35095238Y-35231009D02*
X35428571Y-35231009D01*
X35571428Y-35754819D02*
X35095238Y-35754819D01*
X35095238Y-35754819D02*
X35095238Y-34754819D01*
X35095238Y-34754819D02*
X35571428Y-34754819D01*
X36333333Y-35231009D02*
X36000000Y-35231009D01*
X36000000Y-35754819D02*
X36000000Y-34754819D01*
X36000000Y-34754819D02*
X36476190Y-34754819D01*
X37000000Y-34754819D02*
X37000000Y-34992914D01*
X36761905Y-34897676D02*
X37000000Y-34992914D01*
X37000000Y-34992914D02*
X37238095Y-34897676D01*
X36857143Y-35183390D02*
X37000000Y-34992914D01*
X37000000Y-34992914D02*
X37142857Y-35183390D01*
X37761905Y-34754819D02*
X37761905Y-34992914D01*
X37523810Y-34897676D02*
X37761905Y-34992914D01*
X37761905Y-34992914D02*
X38000000Y-34897676D01*
X37619048Y-35183390D02*
X37761905Y-34992914D01*
X37761905Y-34992914D02*
X37904762Y-35183390D01*
X48933333Y-48259580D02*
X48885714Y-48307200D01*
X48885714Y-48307200D02*
X48742857Y-48354819D01*
X48742857Y-48354819D02*
X48647619Y-48354819D01*
X48647619Y-48354819D02*
X48504762Y-48307200D01*
X48504762Y-48307200D02*
X48409524Y-48211961D01*
X48409524Y-48211961D02*
X48361905Y-48116723D01*
X48361905Y-48116723D02*
X48314286Y-47926247D01*
X48314286Y-47926247D02*
X48314286Y-47783390D01*
X48314286Y-47783390D02*
X48361905Y-47592914D01*
X48361905Y-47592914D02*
X48409524Y-47497676D01*
X48409524Y-47497676D02*
X48504762Y-47402438D01*
X48504762Y-47402438D02*
X48647619Y-47354819D01*
X48647619Y-47354819D02*
X48742857Y-47354819D01*
X48742857Y-47354819D02*
X48885714Y-47402438D01*
X48885714Y-47402438D02*
X48933333Y-47450057D01*
X49838095Y-47354819D02*
X49361905Y-47354819D01*
X49361905Y-47354819D02*
X49314286Y-47831009D01*
X49314286Y-47831009D02*
X49361905Y-47783390D01*
X49361905Y-47783390D02*
X49457143Y-47735771D01*
X49457143Y-47735771D02*
X49695238Y-47735771D01*
X49695238Y-47735771D02*
X49790476Y-47783390D01*
X49790476Y-47783390D02*
X49838095Y-47831009D01*
X49838095Y-47831009D02*
X49885714Y-47926247D01*
X49885714Y-47926247D02*
X49885714Y-48164342D01*
X49885714Y-48164342D02*
X49838095Y-48259580D01*
X49838095Y-48259580D02*
X49790476Y-48307200D01*
X49790476Y-48307200D02*
X49695238Y-48354819D01*
X49695238Y-48354819D02*
X49457143Y-48354819D01*
X49457143Y-48354819D02*
X49361905Y-48307200D01*
X49361905Y-48307200D02*
X49314286Y-48259580D01*
X53608333Y-38879580D02*
X53560714Y-38927200D01*
X53560714Y-38927200D02*
X53417857Y-38974819D01*
X53417857Y-38974819D02*
X53322619Y-38974819D01*
X53322619Y-38974819D02*
X53179762Y-38927200D01*
X53179762Y-38927200D02*
X53084524Y-38831961D01*
X53084524Y-38831961D02*
X53036905Y-38736723D01*
X53036905Y-38736723D02*
X52989286Y-38546247D01*
X52989286Y-38546247D02*
X52989286Y-38403390D01*
X52989286Y-38403390D02*
X53036905Y-38212914D01*
X53036905Y-38212914D02*
X53084524Y-38117676D01*
X53084524Y-38117676D02*
X53179762Y-38022438D01*
X53179762Y-38022438D02*
X53322619Y-37974819D01*
X53322619Y-37974819D02*
X53417857Y-37974819D01*
X53417857Y-37974819D02*
X53560714Y-38022438D01*
X53560714Y-38022438D02*
X53608333Y-38070057D01*
X54084524Y-38974819D02*
X54275000Y-38974819D01*
X54275000Y-38974819D02*
X54370238Y-38927200D01*
X54370238Y-38927200D02*
X54417857Y-38879580D01*
X54417857Y-38879580D02*
X54513095Y-38736723D01*
X54513095Y-38736723D02*
X54560714Y-38546247D01*
X54560714Y-38546247D02*
X54560714Y-38165295D01*
X54560714Y-38165295D02*
X54513095Y-38070057D01*
X54513095Y-38070057D02*
X54465476Y-38022438D01*
X54465476Y-38022438D02*
X54370238Y-37974819D01*
X54370238Y-37974819D02*
X54179762Y-37974819D01*
X54179762Y-37974819D02*
X54084524Y-38022438D01*
X54084524Y-38022438D02*
X54036905Y-38070057D01*
X54036905Y-38070057D02*
X53989286Y-38165295D01*
X53989286Y-38165295D02*
X53989286Y-38403390D01*
X53989286Y-38403390D02*
X54036905Y-38498628D01*
X54036905Y-38498628D02*
X54084524Y-38546247D01*
X54084524Y-38546247D02*
X54179762Y-38593866D01*
X54179762Y-38593866D02*
X54370238Y-38593866D01*
X54370238Y-38593866D02*
X54465476Y-38546247D01*
X54465476Y-38546247D02*
X54513095Y-38498628D01*
X54513095Y-38498628D02*
X54560714Y-38403390D01*
X33499999Y-42454819D02*
X33499999Y-41454819D01*
X33499999Y-41454819D02*
X33880951Y-41454819D01*
X33880951Y-41454819D02*
X33976189Y-41502438D01*
X33976189Y-41502438D02*
X34023808Y-41550057D01*
X34023808Y-41550057D02*
X34071427Y-41645295D01*
X34071427Y-41645295D02*
X34071427Y-41788152D01*
X34071427Y-41788152D02*
X34023808Y-41883390D01*
X34023808Y-41883390D02*
X33976189Y-41931009D01*
X33976189Y-41931009D02*
X33880951Y-41978628D01*
X33880951Y-41978628D02*
X33499999Y-41978628D01*
X34642856Y-42454819D02*
X34547618Y-42407200D01*
X34547618Y-42407200D02*
X34499999Y-42359580D01*
X34499999Y-42359580D02*
X34452380Y-42264342D01*
X34452380Y-42264342D02*
X34452380Y-41978628D01*
X34452380Y-41978628D02*
X34499999Y-41883390D01*
X34499999Y-41883390D02*
X34547618Y-41835771D01*
X34547618Y-41835771D02*
X34642856Y-41788152D01*
X34642856Y-41788152D02*
X34785713Y-41788152D01*
X34785713Y-41788152D02*
X34880951Y-41835771D01*
X34880951Y-41835771D02*
X34928570Y-41883390D01*
X34928570Y-41883390D02*
X34976189Y-41978628D01*
X34976189Y-41978628D02*
X34976189Y-42264342D01*
X34976189Y-42264342D02*
X34928570Y-42359580D01*
X34928570Y-42359580D02*
X34880951Y-42407200D01*
X34880951Y-42407200D02*
X34785713Y-42454819D01*
X34785713Y-42454819D02*
X34642856Y-42454819D01*
X35309523Y-41788152D02*
X35499999Y-42454819D01*
X35499999Y-42454819D02*
X35690475Y-41978628D01*
X35690475Y-41978628D02*
X35880951Y-42454819D01*
X35880951Y-42454819D02*
X36071427Y-41788152D01*
X36833332Y-42407200D02*
X36738094Y-42454819D01*
X36738094Y-42454819D02*
X36547618Y-42454819D01*
X36547618Y-42454819D02*
X36452380Y-42407200D01*
X36452380Y-42407200D02*
X36404761Y-42311961D01*
X36404761Y-42311961D02*
X36404761Y-41931009D01*
X36404761Y-41931009D02*
X36452380Y-41835771D01*
X36452380Y-41835771D02*
X36547618Y-41788152D01*
X36547618Y-41788152D02*
X36738094Y-41788152D01*
X36738094Y-41788152D02*
X36833332Y-41835771D01*
X36833332Y-41835771D02*
X36880951Y-41931009D01*
X36880951Y-41931009D02*
X36880951Y-42026247D01*
X36880951Y-42026247D02*
X36404761Y-42121485D01*
X37309523Y-42454819D02*
X37309523Y-41788152D01*
X37309523Y-41978628D02*
X37357142Y-41883390D01*
X37357142Y-41883390D02*
X37404761Y-41835771D01*
X37404761Y-41835771D02*
X37499999Y-41788152D01*
X37499999Y-41788152D02*
X37595237Y-41788152D01*
X37690476Y-42550057D02*
X38452380Y-42550057D01*
X39261904Y-42359580D02*
X39214285Y-42407200D01*
X39214285Y-42407200D02*
X39071428Y-42454819D01*
X39071428Y-42454819D02*
X38976190Y-42454819D01*
X38976190Y-42454819D02*
X38833333Y-42407200D01*
X38833333Y-42407200D02*
X38738095Y-42311961D01*
X38738095Y-42311961D02*
X38690476Y-42216723D01*
X38690476Y-42216723D02*
X38642857Y-42026247D01*
X38642857Y-42026247D02*
X38642857Y-41883390D01*
X38642857Y-41883390D02*
X38690476Y-41692914D01*
X38690476Y-41692914D02*
X38738095Y-41597676D01*
X38738095Y-41597676D02*
X38833333Y-41502438D01*
X38833333Y-41502438D02*
X38976190Y-41454819D01*
X38976190Y-41454819D02*
X39071428Y-41454819D01*
X39071428Y-41454819D02*
X39214285Y-41502438D01*
X39214285Y-41502438D02*
X39261904Y-41550057D01*
X39833333Y-42454819D02*
X39738095Y-42407200D01*
X39738095Y-42407200D02*
X39690476Y-42359580D01*
X39690476Y-42359580D02*
X39642857Y-42264342D01*
X39642857Y-42264342D02*
X39642857Y-41978628D01*
X39642857Y-41978628D02*
X39690476Y-41883390D01*
X39690476Y-41883390D02*
X39738095Y-41835771D01*
X39738095Y-41835771D02*
X39833333Y-41788152D01*
X39833333Y-41788152D02*
X39976190Y-41788152D01*
X39976190Y-41788152D02*
X40071428Y-41835771D01*
X40071428Y-41835771D02*
X40119047Y-41883390D01*
X40119047Y-41883390D02*
X40166666Y-41978628D01*
X40166666Y-41978628D02*
X40166666Y-42264342D01*
X40166666Y-42264342D02*
X40119047Y-42359580D01*
X40119047Y-42359580D02*
X40071428Y-42407200D01*
X40071428Y-42407200D02*
X39976190Y-42454819D01*
X39976190Y-42454819D02*
X39833333Y-42454819D01*
X40595238Y-41788152D02*
X40595238Y-42454819D01*
X40595238Y-41883390D02*
X40642857Y-41835771D01*
X40642857Y-41835771D02*
X40738095Y-41788152D01*
X40738095Y-41788152D02*
X40880952Y-41788152D01*
X40880952Y-41788152D02*
X40976190Y-41835771D01*
X40976190Y-41835771D02*
X41023809Y-41931009D01*
X41023809Y-41931009D02*
X41023809Y-42454819D01*
X41500000Y-41788152D02*
X41500000Y-42454819D01*
X41500000Y-41883390D02*
X41547619Y-41835771D01*
X41547619Y-41835771D02*
X41642857Y-41788152D01*
X41642857Y-41788152D02*
X41785714Y-41788152D01*
X41785714Y-41788152D02*
X41880952Y-41835771D01*
X41880952Y-41835771D02*
X41928571Y-41931009D01*
X41928571Y-41931009D02*
X41928571Y-42454819D01*
X42785714Y-42407200D02*
X42690476Y-42454819D01*
X42690476Y-42454819D02*
X42500000Y-42454819D01*
X42500000Y-42454819D02*
X42404762Y-42407200D01*
X42404762Y-42407200D02*
X42357143Y-42311961D01*
X42357143Y-42311961D02*
X42357143Y-41931009D01*
X42357143Y-41931009D02*
X42404762Y-41835771D01*
X42404762Y-41835771D02*
X42500000Y-41788152D01*
X42500000Y-41788152D02*
X42690476Y-41788152D01*
X42690476Y-41788152D02*
X42785714Y-41835771D01*
X42785714Y-41835771D02*
X42833333Y-41931009D01*
X42833333Y-41931009D02*
X42833333Y-42026247D01*
X42833333Y-42026247D02*
X42357143Y-42121485D01*
X43690476Y-42407200D02*
X43595238Y-42454819D01*
X43595238Y-42454819D02*
X43404762Y-42454819D01*
X43404762Y-42454819D02*
X43309524Y-42407200D01*
X43309524Y-42407200D02*
X43261905Y-42359580D01*
X43261905Y-42359580D02*
X43214286Y-42264342D01*
X43214286Y-42264342D02*
X43214286Y-41978628D01*
X43214286Y-41978628D02*
X43261905Y-41883390D01*
X43261905Y-41883390D02*
X43309524Y-41835771D01*
X43309524Y-41835771D02*
X43404762Y-41788152D01*
X43404762Y-41788152D02*
X43595238Y-41788152D01*
X43595238Y-41788152D02*
X43690476Y-41835771D01*
X43976191Y-41788152D02*
X44357143Y-41788152D01*
X44119048Y-41454819D02*
X44119048Y-42311961D01*
X44119048Y-42311961D02*
X44166667Y-42407200D01*
X44166667Y-42407200D02*
X44261905Y-42454819D01*
X44261905Y-42454819D02*
X44357143Y-42454819D01*
X44833334Y-42454819D02*
X44738096Y-42407200D01*
X44738096Y-42407200D02*
X44690477Y-42359580D01*
X44690477Y-42359580D02*
X44642858Y-42264342D01*
X44642858Y-42264342D02*
X44642858Y-41978628D01*
X44642858Y-41978628D02*
X44690477Y-41883390D01*
X44690477Y-41883390D02*
X44738096Y-41835771D01*
X44738096Y-41835771D02*
X44833334Y-41788152D01*
X44833334Y-41788152D02*
X44976191Y-41788152D01*
X44976191Y-41788152D02*
X45071429Y-41835771D01*
X45071429Y-41835771D02*
X45119048Y-41883390D01*
X45119048Y-41883390D02*
X45166667Y-41978628D01*
X45166667Y-41978628D02*
X45166667Y-42264342D01*
X45166667Y-42264342D02*
X45119048Y-42359580D01*
X45119048Y-42359580D02*
X45071429Y-42407200D01*
X45071429Y-42407200D02*
X44976191Y-42454819D01*
X44976191Y-42454819D02*
X44833334Y-42454819D01*
X45595239Y-42454819D02*
X45595239Y-41788152D01*
X45595239Y-41978628D02*
X45642858Y-41883390D01*
X45642858Y-41883390D02*
X45690477Y-41835771D01*
X45690477Y-41835771D02*
X45785715Y-41788152D01*
X45785715Y-41788152D02*
X45880953Y-41788152D01*
X46166668Y-42407200D02*
X46261906Y-42454819D01*
X46261906Y-42454819D02*
X46452382Y-42454819D01*
X46452382Y-42454819D02*
X46547620Y-42407200D01*
X46547620Y-42407200D02*
X46595239Y-42311961D01*
X46595239Y-42311961D02*
X46595239Y-42264342D01*
X46595239Y-42264342D02*
X46547620Y-42169104D01*
X46547620Y-42169104D02*
X46452382Y-42121485D01*
X46452382Y-42121485D02*
X46309525Y-42121485D01*
X46309525Y-42121485D02*
X46214287Y-42073866D01*
X46214287Y-42073866D02*
X46166668Y-41978628D01*
X46166668Y-41978628D02*
X46166668Y-41931009D01*
X46166668Y-41931009D02*
X46214287Y-41835771D01*
X46214287Y-41835771D02*
X46309525Y-41788152D01*
X46309525Y-41788152D02*
X46452382Y-41788152D01*
X46452382Y-41788152D02*
X46547620Y-41835771D01*
X47547620Y-42454819D02*
X46976192Y-42454819D01*
X47261906Y-42454819D02*
X47261906Y-41454819D01*
X47261906Y-41454819D02*
X47166668Y-41597676D01*
X47166668Y-41597676D02*
X47071430Y-41692914D01*
X47071430Y-41692914D02*
X46976192Y-41740533D01*
X54385119Y-60304819D02*
X54385119Y-59304819D01*
X54385119Y-59304819D02*
X54718452Y-60019104D01*
X54718452Y-60019104D02*
X55051785Y-59304819D01*
X55051785Y-59304819D02*
X55051785Y-60304819D01*
X55718452Y-59304819D02*
X55908928Y-59304819D01*
X55908928Y-59304819D02*
X56004166Y-59352438D01*
X56004166Y-59352438D02*
X56099404Y-59447676D01*
X56099404Y-59447676D02*
X56147023Y-59638152D01*
X56147023Y-59638152D02*
X56147023Y-59971485D01*
X56147023Y-59971485D02*
X56099404Y-60161961D01*
X56099404Y-60161961D02*
X56004166Y-60257200D01*
X56004166Y-60257200D02*
X55908928Y-60304819D01*
X55908928Y-60304819D02*
X55718452Y-60304819D01*
X55718452Y-60304819D02*
X55623214Y-60257200D01*
X55623214Y-60257200D02*
X55527976Y-60161961D01*
X55527976Y-60161961D02*
X55480357Y-59971485D01*
X55480357Y-59971485D02*
X55480357Y-59638152D01*
X55480357Y-59638152D02*
X55527976Y-59447676D01*
X55527976Y-59447676D02*
X55623214Y-59352438D01*
X55623214Y-59352438D02*
X55718452Y-59304819D01*
X56527976Y-60257200D02*
X56670833Y-60304819D01*
X56670833Y-60304819D02*
X56908928Y-60304819D01*
X56908928Y-60304819D02*
X57004166Y-60257200D01*
X57004166Y-60257200D02*
X57051785Y-60209580D01*
X57051785Y-60209580D02*
X57099404Y-60114342D01*
X57099404Y-60114342D02*
X57099404Y-60019104D01*
X57099404Y-60019104D02*
X57051785Y-59923866D01*
X57051785Y-59923866D02*
X57004166Y-59876247D01*
X57004166Y-59876247D02*
X56908928Y-59828628D01*
X56908928Y-59828628D02*
X56718452Y-59781009D01*
X56718452Y-59781009D02*
X56623214Y-59733390D01*
X56623214Y-59733390D02*
X56575595Y-59685771D01*
X56575595Y-59685771D02*
X56527976Y-59590533D01*
X56527976Y-59590533D02*
X56527976Y-59495295D01*
X56527976Y-59495295D02*
X56575595Y-59400057D01*
X56575595Y-59400057D02*
X56623214Y-59352438D01*
X56623214Y-59352438D02*
X56718452Y-59304819D01*
X56718452Y-59304819D02*
X56956547Y-59304819D01*
X56956547Y-59304819D02*
X57099404Y-59352438D01*
X57861309Y-59781009D02*
X57527976Y-59781009D01*
X57527976Y-60304819D02*
X57527976Y-59304819D01*
X57527976Y-59304819D02*
X58004166Y-59304819D01*
X58385119Y-59781009D02*
X58718452Y-59781009D01*
X58861309Y-60304819D02*
X58385119Y-60304819D01*
X58385119Y-60304819D02*
X58385119Y-59304819D01*
X58385119Y-59304819D02*
X58861309Y-59304819D01*
X59147024Y-59304819D02*
X59718452Y-59304819D01*
X59432738Y-60304819D02*
X59432738Y-59304819D01*
X59908929Y-59304819D02*
X60480357Y-59304819D01*
X60194643Y-60304819D02*
X60194643Y-59304819D01*
X61337500Y-60304819D02*
X60766072Y-60304819D01*
X61051786Y-60304819D02*
X61051786Y-59304819D01*
X61051786Y-59304819D02*
X60956548Y-59447676D01*
X60956548Y-59447676D02*
X60861310Y-59542914D01*
X60861310Y-59542914D02*
X60766072Y-59590533D01*
X53608333Y-45449580D02*
X53560714Y-45497200D01*
X53560714Y-45497200D02*
X53417857Y-45544819D01*
X53417857Y-45544819D02*
X53322619Y-45544819D01*
X53322619Y-45544819D02*
X53179762Y-45497200D01*
X53179762Y-45497200D02*
X53084524Y-45401961D01*
X53084524Y-45401961D02*
X53036905Y-45306723D01*
X53036905Y-45306723D02*
X52989286Y-45116247D01*
X52989286Y-45116247D02*
X52989286Y-44973390D01*
X52989286Y-44973390D02*
X53036905Y-44782914D01*
X53036905Y-44782914D02*
X53084524Y-44687676D01*
X53084524Y-44687676D02*
X53179762Y-44592438D01*
X53179762Y-44592438D02*
X53322619Y-44544819D01*
X53322619Y-44544819D02*
X53417857Y-44544819D01*
X53417857Y-44544819D02*
X53560714Y-44592438D01*
X53560714Y-44592438D02*
X53608333Y-44640057D01*
X53941667Y-44544819D02*
X54608333Y-44544819D01*
X54608333Y-44544819D02*
X54179762Y-45544819D01*
X36380952Y-53204819D02*
X36380952Y-52204819D01*
X36380952Y-52681009D02*
X36952380Y-52681009D01*
X36952380Y-53204819D02*
X36952380Y-52204819D01*
X37571428Y-53204819D02*
X37476190Y-53157200D01*
X37476190Y-53157200D02*
X37428571Y-53109580D01*
X37428571Y-53109580D02*
X37380952Y-53014342D01*
X37380952Y-53014342D02*
X37380952Y-52728628D01*
X37380952Y-52728628D02*
X37428571Y-52633390D01*
X37428571Y-52633390D02*
X37476190Y-52585771D01*
X37476190Y-52585771D02*
X37571428Y-52538152D01*
X37571428Y-52538152D02*
X37714285Y-52538152D01*
X37714285Y-52538152D02*
X37809523Y-52585771D01*
X37809523Y-52585771D02*
X37857142Y-52633390D01*
X37857142Y-52633390D02*
X37904761Y-52728628D01*
X37904761Y-52728628D02*
X37904761Y-53014342D01*
X37904761Y-53014342D02*
X37857142Y-53109580D01*
X37857142Y-53109580D02*
X37809523Y-53157200D01*
X37809523Y-53157200D02*
X37714285Y-53204819D01*
X37714285Y-53204819D02*
X37571428Y-53204819D01*
X38333333Y-53204819D02*
X38333333Y-52538152D01*
X38333333Y-52728628D02*
X38380952Y-52633390D01*
X38380952Y-52633390D02*
X38428571Y-52585771D01*
X38428571Y-52585771D02*
X38523809Y-52538152D01*
X38523809Y-52538152D02*
X38619047Y-52538152D01*
X38952381Y-52538152D02*
X38952381Y-53204819D01*
X38952381Y-52633390D02*
X39000000Y-52585771D01*
X39000000Y-52585771D02*
X39095238Y-52538152D01*
X39095238Y-52538152D02*
X39238095Y-52538152D01*
X39238095Y-52538152D02*
X39333333Y-52585771D01*
X39333333Y-52585771D02*
X39380952Y-52681009D01*
X39380952Y-52681009D02*
X39380952Y-53204819D01*
X39619048Y-53300057D02*
X40380952Y-53300057D01*
X40809524Y-52204819D02*
X41000000Y-52204819D01*
X41000000Y-52204819D02*
X41095238Y-52252438D01*
X41095238Y-52252438D02*
X41190476Y-52347676D01*
X41190476Y-52347676D02*
X41238095Y-52538152D01*
X41238095Y-52538152D02*
X41238095Y-52871485D01*
X41238095Y-52871485D02*
X41190476Y-53061961D01*
X41190476Y-53061961D02*
X41095238Y-53157200D01*
X41095238Y-53157200D02*
X41000000Y-53204819D01*
X41000000Y-53204819D02*
X40809524Y-53204819D01*
X40809524Y-53204819D02*
X40714286Y-53157200D01*
X40714286Y-53157200D02*
X40619048Y-53061961D01*
X40619048Y-53061961D02*
X40571429Y-52871485D01*
X40571429Y-52871485D02*
X40571429Y-52538152D01*
X40571429Y-52538152D02*
X40619048Y-52347676D01*
X40619048Y-52347676D02*
X40714286Y-52252438D01*
X40714286Y-52252438D02*
X40809524Y-52204819D01*
X42095238Y-52538152D02*
X42095238Y-53204819D01*
X41666667Y-52538152D02*
X41666667Y-53061961D01*
X41666667Y-53061961D02*
X41714286Y-53157200D01*
X41714286Y-53157200D02*
X41809524Y-53204819D01*
X41809524Y-53204819D02*
X41952381Y-53204819D01*
X41952381Y-53204819D02*
X42047619Y-53157200D01*
X42047619Y-53157200D02*
X42095238Y-53109580D01*
X42428572Y-52538152D02*
X42809524Y-52538152D01*
X42571429Y-52204819D02*
X42571429Y-53061961D01*
X42571429Y-53061961D02*
X42619048Y-53157200D01*
X42619048Y-53157200D02*
X42714286Y-53204819D01*
X42714286Y-53204819D02*
X42809524Y-53204819D01*
X43666667Y-53204819D02*
X43095239Y-53204819D01*
X43380953Y-53204819D02*
X43380953Y-52204819D01*
X43380953Y-52204819D02*
X43285715Y-52347676D01*
X43285715Y-52347676D02*
X43190477Y-52442914D01*
X43190477Y-52442914D02*
X43095239Y-52490533D01*
X44680952Y-53454819D02*
X44680952Y-52454819D01*
X44680952Y-52931009D02*
X45252380Y-52931009D01*
X45252380Y-53454819D02*
X45252380Y-52454819D01*
X45871428Y-53454819D02*
X45776190Y-53407200D01*
X45776190Y-53407200D02*
X45728571Y-53359580D01*
X45728571Y-53359580D02*
X45680952Y-53264342D01*
X45680952Y-53264342D02*
X45680952Y-52978628D01*
X45680952Y-52978628D02*
X45728571Y-52883390D01*
X45728571Y-52883390D02*
X45776190Y-52835771D01*
X45776190Y-52835771D02*
X45871428Y-52788152D01*
X45871428Y-52788152D02*
X46014285Y-52788152D01*
X46014285Y-52788152D02*
X46109523Y-52835771D01*
X46109523Y-52835771D02*
X46157142Y-52883390D01*
X46157142Y-52883390D02*
X46204761Y-52978628D01*
X46204761Y-52978628D02*
X46204761Y-53264342D01*
X46204761Y-53264342D02*
X46157142Y-53359580D01*
X46157142Y-53359580D02*
X46109523Y-53407200D01*
X46109523Y-53407200D02*
X46014285Y-53454819D01*
X46014285Y-53454819D02*
X45871428Y-53454819D01*
X46633333Y-53454819D02*
X46633333Y-52788152D01*
X46633333Y-52978628D02*
X46680952Y-52883390D01*
X46680952Y-52883390D02*
X46728571Y-52835771D01*
X46728571Y-52835771D02*
X46823809Y-52788152D01*
X46823809Y-52788152D02*
X46919047Y-52788152D01*
X47252381Y-52788152D02*
X47252381Y-53454819D01*
X47252381Y-52883390D02*
X47300000Y-52835771D01*
X47300000Y-52835771D02*
X47395238Y-52788152D01*
X47395238Y-52788152D02*
X47538095Y-52788152D01*
X47538095Y-52788152D02*
X47633333Y-52835771D01*
X47633333Y-52835771D02*
X47680952Y-52931009D01*
X47680952Y-52931009D02*
X47680952Y-53454819D01*
X47919048Y-53550057D02*
X48680952Y-53550057D01*
X49109524Y-52454819D02*
X49300000Y-52454819D01*
X49300000Y-52454819D02*
X49395238Y-52502438D01*
X49395238Y-52502438D02*
X49490476Y-52597676D01*
X49490476Y-52597676D02*
X49538095Y-52788152D01*
X49538095Y-52788152D02*
X49538095Y-53121485D01*
X49538095Y-53121485D02*
X49490476Y-53311961D01*
X49490476Y-53311961D02*
X49395238Y-53407200D01*
X49395238Y-53407200D02*
X49300000Y-53454819D01*
X49300000Y-53454819D02*
X49109524Y-53454819D01*
X49109524Y-53454819D02*
X49014286Y-53407200D01*
X49014286Y-53407200D02*
X48919048Y-53311961D01*
X48919048Y-53311961D02*
X48871429Y-53121485D01*
X48871429Y-53121485D02*
X48871429Y-52788152D01*
X48871429Y-52788152D02*
X48919048Y-52597676D01*
X48919048Y-52597676D02*
X49014286Y-52502438D01*
X49014286Y-52502438D02*
X49109524Y-52454819D01*
X50395238Y-52788152D02*
X50395238Y-53454819D01*
X49966667Y-52788152D02*
X49966667Y-53311961D01*
X49966667Y-53311961D02*
X50014286Y-53407200D01*
X50014286Y-53407200D02*
X50109524Y-53454819D01*
X50109524Y-53454819D02*
X50252381Y-53454819D01*
X50252381Y-53454819D02*
X50347619Y-53407200D01*
X50347619Y-53407200D02*
X50395238Y-53359580D01*
X50728572Y-52788152D02*
X51109524Y-52788152D01*
X50871429Y-52454819D02*
X50871429Y-53311961D01*
X50871429Y-53311961D02*
X50919048Y-53407200D01*
X50919048Y-53407200D02*
X51014286Y-53454819D01*
X51014286Y-53454819D02*
X51109524Y-53454819D01*
X51395239Y-52550057D02*
X51442858Y-52502438D01*
X51442858Y-52502438D02*
X51538096Y-52454819D01*
X51538096Y-52454819D02*
X51776191Y-52454819D01*
X51776191Y-52454819D02*
X51871429Y-52502438D01*
X51871429Y-52502438D02*
X51919048Y-52550057D01*
X51919048Y-52550057D02*
X51966667Y-52645295D01*
X51966667Y-52645295D02*
X51966667Y-52740533D01*
X51966667Y-52740533D02*
X51919048Y-52883390D01*
X51919048Y-52883390D02*
X51347620Y-53454819D01*
X51347620Y-53454819D02*
X51966667Y-53454819D01*
X48933333Y-42059580D02*
X48885714Y-42107200D01*
X48885714Y-42107200D02*
X48742857Y-42154819D01*
X48742857Y-42154819D02*
X48647619Y-42154819D01*
X48647619Y-42154819D02*
X48504762Y-42107200D01*
X48504762Y-42107200D02*
X48409524Y-42011961D01*
X48409524Y-42011961D02*
X48361905Y-41916723D01*
X48361905Y-41916723D02*
X48314286Y-41726247D01*
X48314286Y-41726247D02*
X48314286Y-41583390D01*
X48314286Y-41583390D02*
X48361905Y-41392914D01*
X48361905Y-41392914D02*
X48409524Y-41297676D01*
X48409524Y-41297676D02*
X48504762Y-41202438D01*
X48504762Y-41202438D02*
X48647619Y-41154819D01*
X48647619Y-41154819D02*
X48742857Y-41154819D01*
X48742857Y-41154819D02*
X48885714Y-41202438D01*
X48885714Y-41202438D02*
X48933333Y-41250057D01*
X49266667Y-41154819D02*
X49885714Y-41154819D01*
X49885714Y-41154819D02*
X49552381Y-41535771D01*
X49552381Y-41535771D02*
X49695238Y-41535771D01*
X49695238Y-41535771D02*
X49790476Y-41583390D01*
X49790476Y-41583390D02*
X49838095Y-41631009D01*
X49838095Y-41631009D02*
X49885714Y-41726247D01*
X49885714Y-41726247D02*
X49885714Y-41964342D01*
X49885714Y-41964342D02*
X49838095Y-42059580D01*
X49838095Y-42059580D02*
X49790476Y-42107200D01*
X49790476Y-42107200D02*
X49695238Y-42154819D01*
X49695238Y-42154819D02*
X49409524Y-42154819D01*
X49409524Y-42154819D02*
X49314286Y-42107200D01*
X49314286Y-42107200D02*
X49266667Y-42059580D01*
X53608333Y-42249580D02*
X53560714Y-42297200D01*
X53560714Y-42297200D02*
X53417857Y-42344819D01*
X53417857Y-42344819D02*
X53322619Y-42344819D01*
X53322619Y-42344819D02*
X53179762Y-42297200D01*
X53179762Y-42297200D02*
X53084524Y-42201961D01*
X53084524Y-42201961D02*
X53036905Y-42106723D01*
X53036905Y-42106723D02*
X52989286Y-41916247D01*
X52989286Y-41916247D02*
X52989286Y-41773390D01*
X52989286Y-41773390D02*
X53036905Y-41582914D01*
X53036905Y-41582914D02*
X53084524Y-41487676D01*
X53084524Y-41487676D02*
X53179762Y-41392438D01*
X53179762Y-41392438D02*
X53322619Y-41344819D01*
X53322619Y-41344819D02*
X53417857Y-41344819D01*
X53417857Y-41344819D02*
X53560714Y-41392438D01*
X53560714Y-41392438D02*
X53608333Y-41440057D01*
X54465476Y-41344819D02*
X54275000Y-41344819D01*
X54275000Y-41344819D02*
X54179762Y-41392438D01*
X54179762Y-41392438D02*
X54132143Y-41440057D01*
X54132143Y-41440057D02*
X54036905Y-41582914D01*
X54036905Y-41582914D02*
X53989286Y-41773390D01*
X53989286Y-41773390D02*
X53989286Y-42154342D01*
X53989286Y-42154342D02*
X54036905Y-42249580D01*
X54036905Y-42249580D02*
X54084524Y-42297200D01*
X54084524Y-42297200D02*
X54179762Y-42344819D01*
X54179762Y-42344819D02*
X54370238Y-42344819D01*
X54370238Y-42344819D02*
X54465476Y-42297200D01*
X54465476Y-42297200D02*
X54513095Y-42249580D01*
X54513095Y-42249580D02*
X54560714Y-42154342D01*
X54560714Y-42154342D02*
X54560714Y-41916247D01*
X54560714Y-41916247D02*
X54513095Y-41821009D01*
X54513095Y-41821009D02*
X54465476Y-41773390D01*
X54465476Y-41773390D02*
X54370238Y-41725771D01*
X54370238Y-41725771D02*
X54179762Y-41725771D01*
X54179762Y-41725771D02*
X54084524Y-41773390D01*
X54084524Y-41773390D02*
X54036905Y-41821009D01*
X54036905Y-41821009D02*
X53989286Y-41916247D01*
X48933333Y-39129580D02*
X48885714Y-39177200D01*
X48885714Y-39177200D02*
X48742857Y-39224819D01*
X48742857Y-39224819D02*
X48647619Y-39224819D01*
X48647619Y-39224819D02*
X48504762Y-39177200D01*
X48504762Y-39177200D02*
X48409524Y-39081961D01*
X48409524Y-39081961D02*
X48361905Y-38986723D01*
X48361905Y-38986723D02*
X48314286Y-38796247D01*
X48314286Y-38796247D02*
X48314286Y-38653390D01*
X48314286Y-38653390D02*
X48361905Y-38462914D01*
X48361905Y-38462914D02*
X48409524Y-38367676D01*
X48409524Y-38367676D02*
X48504762Y-38272438D01*
X48504762Y-38272438D02*
X48647619Y-38224819D01*
X48647619Y-38224819D02*
X48742857Y-38224819D01*
X48742857Y-38224819D02*
X48885714Y-38272438D01*
X48885714Y-38272438D02*
X48933333Y-38320057D01*
X49314286Y-38320057D02*
X49361905Y-38272438D01*
X49361905Y-38272438D02*
X49457143Y-38224819D01*
X49457143Y-38224819D02*
X49695238Y-38224819D01*
X49695238Y-38224819D02*
X49790476Y-38272438D01*
X49790476Y-38272438D02*
X49838095Y-38320057D01*
X49838095Y-38320057D02*
X49885714Y-38415295D01*
X49885714Y-38415295D02*
X49885714Y-38510533D01*
X49885714Y-38510533D02*
X49838095Y-38653390D01*
X49838095Y-38653390D02*
X49266667Y-39224819D01*
X49266667Y-39224819D02*
X49885714Y-39224819D01*
X55528570Y-42854819D02*
X55528570Y-41854819D01*
X55528570Y-42331009D02*
X56099998Y-42331009D01*
X56099998Y-42854819D02*
X56099998Y-41854819D01*
X56719046Y-42854819D02*
X56623808Y-42807200D01*
X56623808Y-42807200D02*
X56576189Y-42759580D01*
X56576189Y-42759580D02*
X56528570Y-42664342D01*
X56528570Y-42664342D02*
X56528570Y-42378628D01*
X56528570Y-42378628D02*
X56576189Y-42283390D01*
X56576189Y-42283390D02*
X56623808Y-42235771D01*
X56623808Y-42235771D02*
X56719046Y-42188152D01*
X56719046Y-42188152D02*
X56861903Y-42188152D01*
X56861903Y-42188152D02*
X56957141Y-42235771D01*
X56957141Y-42235771D02*
X57004760Y-42283390D01*
X57004760Y-42283390D02*
X57052379Y-42378628D01*
X57052379Y-42378628D02*
X57052379Y-42664342D01*
X57052379Y-42664342D02*
X57004760Y-42759580D01*
X57004760Y-42759580D02*
X56957141Y-42807200D01*
X56957141Y-42807200D02*
X56861903Y-42854819D01*
X56861903Y-42854819D02*
X56719046Y-42854819D01*
X57480951Y-42854819D02*
X57480951Y-42188152D01*
X57480951Y-42378628D02*
X57528570Y-42283390D01*
X57528570Y-42283390D02*
X57576189Y-42235771D01*
X57576189Y-42235771D02*
X57671427Y-42188152D01*
X57671427Y-42188152D02*
X57766665Y-42188152D01*
X58099999Y-42188152D02*
X58099999Y-42854819D01*
X58099999Y-42283390D02*
X58147618Y-42235771D01*
X58147618Y-42235771D02*
X58242856Y-42188152D01*
X58242856Y-42188152D02*
X58385713Y-42188152D01*
X58385713Y-42188152D02*
X58480951Y-42235771D01*
X58480951Y-42235771D02*
X58528570Y-42331009D01*
X58528570Y-42331009D02*
X58528570Y-42854819D01*
X58766666Y-42950057D02*
X59528570Y-42950057D01*
X60338094Y-42759580D02*
X60290475Y-42807200D01*
X60290475Y-42807200D02*
X60147618Y-42854819D01*
X60147618Y-42854819D02*
X60052380Y-42854819D01*
X60052380Y-42854819D02*
X59909523Y-42807200D01*
X59909523Y-42807200D02*
X59814285Y-42711961D01*
X59814285Y-42711961D02*
X59766666Y-42616723D01*
X59766666Y-42616723D02*
X59719047Y-42426247D01*
X59719047Y-42426247D02*
X59719047Y-42283390D01*
X59719047Y-42283390D02*
X59766666Y-42092914D01*
X59766666Y-42092914D02*
X59814285Y-41997676D01*
X59814285Y-41997676D02*
X59909523Y-41902438D01*
X59909523Y-41902438D02*
X60052380Y-41854819D01*
X60052380Y-41854819D02*
X60147618Y-41854819D01*
X60147618Y-41854819D02*
X60290475Y-41902438D01*
X60290475Y-41902438D02*
X60338094Y-41950057D01*
X60909523Y-42854819D02*
X60814285Y-42807200D01*
X60814285Y-42807200D02*
X60766666Y-42759580D01*
X60766666Y-42759580D02*
X60719047Y-42664342D01*
X60719047Y-42664342D02*
X60719047Y-42378628D01*
X60719047Y-42378628D02*
X60766666Y-42283390D01*
X60766666Y-42283390D02*
X60814285Y-42235771D01*
X60814285Y-42235771D02*
X60909523Y-42188152D01*
X60909523Y-42188152D02*
X61052380Y-42188152D01*
X61052380Y-42188152D02*
X61147618Y-42235771D01*
X61147618Y-42235771D02*
X61195237Y-42283390D01*
X61195237Y-42283390D02*
X61242856Y-42378628D01*
X61242856Y-42378628D02*
X61242856Y-42664342D01*
X61242856Y-42664342D02*
X61195237Y-42759580D01*
X61195237Y-42759580D02*
X61147618Y-42807200D01*
X61147618Y-42807200D02*
X61052380Y-42854819D01*
X61052380Y-42854819D02*
X60909523Y-42854819D01*
X61671428Y-42188152D02*
X61671428Y-42854819D01*
X61671428Y-42283390D02*
X61719047Y-42235771D01*
X61719047Y-42235771D02*
X61814285Y-42188152D01*
X61814285Y-42188152D02*
X61957142Y-42188152D01*
X61957142Y-42188152D02*
X62052380Y-42235771D01*
X62052380Y-42235771D02*
X62099999Y-42331009D01*
X62099999Y-42331009D02*
X62099999Y-42854819D01*
X62433333Y-42188152D02*
X62814285Y-42188152D01*
X62576190Y-41854819D02*
X62576190Y-42711961D01*
X62576190Y-42711961D02*
X62623809Y-42807200D01*
X62623809Y-42807200D02*
X62719047Y-42854819D01*
X62719047Y-42854819D02*
X62814285Y-42854819D01*
X63147619Y-42854819D02*
X63147619Y-42188152D01*
X63147619Y-42378628D02*
X63195238Y-42283390D01*
X63195238Y-42283390D02*
X63242857Y-42235771D01*
X63242857Y-42235771D02*
X63338095Y-42188152D01*
X63338095Y-42188152D02*
X63433333Y-42188152D01*
X63909524Y-42854819D02*
X63814286Y-42807200D01*
X63814286Y-42807200D02*
X63766667Y-42759580D01*
X63766667Y-42759580D02*
X63719048Y-42664342D01*
X63719048Y-42664342D02*
X63719048Y-42378628D01*
X63719048Y-42378628D02*
X63766667Y-42283390D01*
X63766667Y-42283390D02*
X63814286Y-42235771D01*
X63814286Y-42235771D02*
X63909524Y-42188152D01*
X63909524Y-42188152D02*
X64052381Y-42188152D01*
X64052381Y-42188152D02*
X64147619Y-42235771D01*
X64147619Y-42235771D02*
X64195238Y-42283390D01*
X64195238Y-42283390D02*
X64242857Y-42378628D01*
X64242857Y-42378628D02*
X64242857Y-42664342D01*
X64242857Y-42664342D02*
X64195238Y-42759580D01*
X64195238Y-42759580D02*
X64147619Y-42807200D01*
X64147619Y-42807200D02*
X64052381Y-42854819D01*
X64052381Y-42854819D02*
X63909524Y-42854819D01*
X64814286Y-42854819D02*
X64719048Y-42807200D01*
X64719048Y-42807200D02*
X64671429Y-42711961D01*
X64671429Y-42711961D02*
X64671429Y-41854819D01*
X65719048Y-42854819D02*
X65147620Y-42854819D01*
X65433334Y-42854819D02*
X65433334Y-41854819D01*
X65433334Y-41854819D02*
X65338096Y-41997676D01*
X65338096Y-41997676D02*
X65242858Y-42092914D01*
X65242858Y-42092914D02*
X65147620Y-42140533D01*
X44738094Y-61934819D02*
X44404761Y-61458628D01*
X44166666Y-61934819D02*
X44166666Y-60934819D01*
X44166666Y-60934819D02*
X44547618Y-60934819D01*
X44547618Y-60934819D02*
X44642856Y-60982438D01*
X44642856Y-60982438D02*
X44690475Y-61030057D01*
X44690475Y-61030057D02*
X44738094Y-61125295D01*
X44738094Y-61125295D02*
X44738094Y-61268152D01*
X44738094Y-61268152D02*
X44690475Y-61363390D01*
X44690475Y-61363390D02*
X44642856Y-61411009D01*
X44642856Y-61411009D02*
X44547618Y-61458628D01*
X44547618Y-61458628D02*
X44166666Y-61458628D01*
X45547618Y-61887200D02*
X45452380Y-61934819D01*
X45452380Y-61934819D02*
X45261904Y-61934819D01*
X45261904Y-61934819D02*
X45166666Y-61887200D01*
X45166666Y-61887200D02*
X45119047Y-61791961D01*
X45119047Y-61791961D02*
X45119047Y-61411009D01*
X45119047Y-61411009D02*
X45166666Y-61315771D01*
X45166666Y-61315771D02*
X45261904Y-61268152D01*
X45261904Y-61268152D02*
X45452380Y-61268152D01*
X45452380Y-61268152D02*
X45547618Y-61315771D01*
X45547618Y-61315771D02*
X45595237Y-61411009D01*
X45595237Y-61411009D02*
X45595237Y-61506247D01*
X45595237Y-61506247D02*
X45119047Y-61601485D01*
X46452380Y-61887200D02*
X46357142Y-61934819D01*
X46357142Y-61934819D02*
X46166666Y-61934819D01*
X46166666Y-61934819D02*
X46071428Y-61887200D01*
X46071428Y-61887200D02*
X46023809Y-61839580D01*
X46023809Y-61839580D02*
X45976190Y-61744342D01*
X45976190Y-61744342D02*
X45976190Y-61458628D01*
X45976190Y-61458628D02*
X46023809Y-61363390D01*
X46023809Y-61363390D02*
X46071428Y-61315771D01*
X46071428Y-61315771D02*
X46166666Y-61268152D01*
X46166666Y-61268152D02*
X46357142Y-61268152D01*
X46357142Y-61268152D02*
X46452380Y-61315771D01*
X46738095Y-61268152D02*
X47119047Y-61268152D01*
X46880952Y-60934819D02*
X46880952Y-61791961D01*
X46880952Y-61791961D02*
X46928571Y-61887200D01*
X46928571Y-61887200D02*
X47023809Y-61934819D01*
X47023809Y-61934819D02*
X47119047Y-61934819D01*
X47452381Y-61934819D02*
X47452381Y-61268152D01*
X47452381Y-60934819D02*
X47404762Y-60982438D01*
X47404762Y-60982438D02*
X47452381Y-61030057D01*
X47452381Y-61030057D02*
X47500000Y-60982438D01*
X47500000Y-60982438D02*
X47452381Y-60934819D01*
X47452381Y-60934819D02*
X47452381Y-61030057D01*
X47785714Y-61268152D02*
X48166666Y-61268152D01*
X47928571Y-61934819D02*
X47928571Y-61077676D01*
X47928571Y-61077676D02*
X47976190Y-60982438D01*
X47976190Y-60982438D02*
X48071428Y-60934819D01*
X48071428Y-60934819D02*
X48166666Y-60934819D01*
X48500000Y-61934819D02*
X48500000Y-61268152D01*
X48500000Y-60934819D02*
X48452381Y-60982438D01*
X48452381Y-60982438D02*
X48500000Y-61030057D01*
X48500000Y-61030057D02*
X48547619Y-60982438D01*
X48547619Y-60982438D02*
X48500000Y-60934819D01*
X48500000Y-60934819D02*
X48500000Y-61030057D01*
X49357142Y-61887200D02*
X49261904Y-61934819D01*
X49261904Y-61934819D02*
X49071428Y-61934819D01*
X49071428Y-61934819D02*
X48976190Y-61887200D01*
X48976190Y-61887200D02*
X48928571Y-61791961D01*
X48928571Y-61791961D02*
X48928571Y-61411009D01*
X48928571Y-61411009D02*
X48976190Y-61315771D01*
X48976190Y-61315771D02*
X49071428Y-61268152D01*
X49071428Y-61268152D02*
X49261904Y-61268152D01*
X49261904Y-61268152D02*
X49357142Y-61315771D01*
X49357142Y-61315771D02*
X49404761Y-61411009D01*
X49404761Y-61411009D02*
X49404761Y-61506247D01*
X49404761Y-61506247D02*
X48928571Y-61601485D01*
X49833333Y-61934819D02*
X49833333Y-61268152D01*
X49833333Y-61458628D02*
X49880952Y-61363390D01*
X49880952Y-61363390D02*
X49928571Y-61315771D01*
X49928571Y-61315771D02*
X50023809Y-61268152D01*
X50023809Y-61268152D02*
X50119047Y-61268152D01*
X50214286Y-62030057D02*
X50976190Y-62030057D01*
X51214286Y-61934819D02*
X51214286Y-60934819D01*
X51214286Y-60934819D02*
X51452381Y-60934819D01*
X51452381Y-60934819D02*
X51595238Y-60982438D01*
X51595238Y-60982438D02*
X51690476Y-61077676D01*
X51690476Y-61077676D02*
X51738095Y-61172914D01*
X51738095Y-61172914D02*
X51785714Y-61363390D01*
X51785714Y-61363390D02*
X51785714Y-61506247D01*
X51785714Y-61506247D02*
X51738095Y-61696723D01*
X51738095Y-61696723D02*
X51690476Y-61791961D01*
X51690476Y-61791961D02*
X51595238Y-61887200D01*
X51595238Y-61887200D02*
X51452381Y-61934819D01*
X51452381Y-61934819D02*
X51214286Y-61934819D01*
X52214286Y-61934819D02*
X52214286Y-61268152D01*
X52214286Y-60934819D02*
X52166667Y-60982438D01*
X52166667Y-60982438D02*
X52214286Y-61030057D01*
X52214286Y-61030057D02*
X52261905Y-60982438D01*
X52261905Y-60982438D02*
X52214286Y-60934819D01*
X52214286Y-60934819D02*
X52214286Y-61030057D01*
X52833333Y-61934819D02*
X52738095Y-61887200D01*
X52738095Y-61887200D02*
X52690476Y-61839580D01*
X52690476Y-61839580D02*
X52642857Y-61744342D01*
X52642857Y-61744342D02*
X52642857Y-61458628D01*
X52642857Y-61458628D02*
X52690476Y-61363390D01*
X52690476Y-61363390D02*
X52738095Y-61315771D01*
X52738095Y-61315771D02*
X52833333Y-61268152D01*
X52833333Y-61268152D02*
X52976190Y-61268152D01*
X52976190Y-61268152D02*
X53071428Y-61315771D01*
X53071428Y-61315771D02*
X53119047Y-61363390D01*
X53119047Y-61363390D02*
X53166666Y-61458628D01*
X53166666Y-61458628D02*
X53166666Y-61744342D01*
X53166666Y-61744342D02*
X53119047Y-61839580D01*
X53119047Y-61839580D02*
X53071428Y-61887200D01*
X53071428Y-61887200D02*
X52976190Y-61934819D01*
X52976190Y-61934819D02*
X52833333Y-61934819D01*
X54023809Y-61934819D02*
X54023809Y-60934819D01*
X54023809Y-61887200D02*
X53928571Y-61934819D01*
X53928571Y-61934819D02*
X53738095Y-61934819D01*
X53738095Y-61934819D02*
X53642857Y-61887200D01*
X53642857Y-61887200D02*
X53595238Y-61839580D01*
X53595238Y-61839580D02*
X53547619Y-61744342D01*
X53547619Y-61744342D02*
X53547619Y-61458628D01*
X53547619Y-61458628D02*
X53595238Y-61363390D01*
X53595238Y-61363390D02*
X53642857Y-61315771D01*
X53642857Y-61315771D02*
X53738095Y-61268152D01*
X53738095Y-61268152D02*
X53928571Y-61268152D01*
X53928571Y-61268152D02*
X54023809Y-61315771D01*
X54880952Y-61887200D02*
X54785714Y-61934819D01*
X54785714Y-61934819D02*
X54595238Y-61934819D01*
X54595238Y-61934819D02*
X54500000Y-61887200D01*
X54500000Y-61887200D02*
X54452381Y-61791961D01*
X54452381Y-61791961D02*
X54452381Y-61411009D01*
X54452381Y-61411009D02*
X54500000Y-61315771D01*
X54500000Y-61315771D02*
X54595238Y-61268152D01*
X54595238Y-61268152D02*
X54785714Y-61268152D01*
X54785714Y-61268152D02*
X54880952Y-61315771D01*
X54880952Y-61315771D02*
X54928571Y-61411009D01*
X54928571Y-61411009D02*
X54928571Y-61506247D01*
X54928571Y-61506247D02*
X54452381Y-61601485D01*
X55880952Y-61934819D02*
X55309524Y-61934819D01*
X55595238Y-61934819D02*
X55595238Y-60934819D01*
X55595238Y-60934819D02*
X55500000Y-61077676D01*
X55500000Y-61077676D02*
X55404762Y-61172914D01*
X55404762Y-61172914D02*
X55309524Y-61220533D01*
X42118095Y-63054819D02*
X42118095Y-62054819D01*
X42689523Y-63054819D02*
X42260952Y-62483390D01*
X42689523Y-62054819D02*
X42118095Y-62626247D01*
D11*
%TO.C,C4*%
X49240580Y-45890000D02*
X48959420Y-45890000D01*
X49240580Y-46910000D02*
X48959420Y-46910000D01*
%TO.C,C1*%
X60590000Y-57340580D02*
X60590000Y-57059420D01*
X61610000Y-57340580D02*
X61610000Y-57059420D01*
%TO.C,F1*%
X54390000Y-55362779D02*
X54390000Y-55037221D01*
X55410000Y-55362779D02*
X55410000Y-55037221D01*
%TO.C,F2*%
X52590000Y-57537221D02*
X52590000Y-57862779D01*
X53610000Y-57537221D02*
X53610000Y-57862779D01*
%TO.C,C8*%
X53634420Y-48810000D02*
X53915580Y-48810000D01*
X53634420Y-49830000D02*
X53915580Y-49830000D01*
%TO.C,R1*%
X58862742Y-52477500D02*
X59337258Y-52477500D01*
X58862742Y-53522500D02*
X59337258Y-53522500D01*
%TO.C,C5*%
X49240580Y-48790000D02*
X48959420Y-48790000D01*
X49240580Y-49810000D02*
X48959420Y-49810000D01*
%TO.C,C9*%
X53915580Y-39710000D02*
X53634420Y-39710000D01*
X53915580Y-40730000D02*
X53634420Y-40730000D01*
%TO.C,Power_Connectors1*%
X36990000Y-43080000D02*
X36990000Y-50920000D01*
X36990000Y-45260000D02*
X37590000Y-45260000D01*
X36990000Y-47800000D02*
X37590000Y-47800000D01*
X36990000Y-50340000D02*
X37590000Y-50340000D01*
X36990000Y-50920000D02*
X43010000Y-50920000D01*
X37590000Y-43660000D02*
X36990000Y-43660000D01*
X37590000Y-45260000D02*
X37590000Y-43660000D01*
X37590000Y-46200000D02*
X36990000Y-46200000D01*
X37590000Y-47800000D02*
X37590000Y-46200000D01*
X37590000Y-48740000D02*
X36990000Y-48740000D01*
X37590000Y-50340000D02*
X37590000Y-48740000D01*
X38020000Y-51210000D02*
X42020000Y-51210000D01*
X41480000Y-44710000D02*
X42010000Y-44460000D01*
X41480000Y-49290000D02*
X41480000Y-44710000D01*
X42010000Y-44460000D02*
X43010000Y-44460000D01*
X42010000Y-49540000D02*
X41480000Y-49290000D01*
X42010000Y-49540000D02*
X42010000Y-44460000D01*
X43010000Y-43080000D02*
X36990000Y-43080000D01*
X43010000Y-44710000D02*
X42010000Y-44710000D01*
X43010000Y-49290000D02*
X42010000Y-49290000D01*
X43010000Y-49540000D02*
X42010000Y-49540000D01*
X43010000Y-50920000D02*
X43010000Y-43080000D01*
%TO.C,MOSFETT1*%
X57837500Y-55890000D02*
X57187500Y-55890000D01*
X57837500Y-55890000D02*
X58487500Y-55890000D01*
X57837500Y-59010000D02*
X57187500Y-59010000D01*
X57837500Y-59010000D02*
X59512500Y-59010000D01*
%TO.C,C7*%
X53634420Y-46010000D02*
X53915580Y-46010000D01*
X53634420Y-47030000D02*
X53915580Y-47030000D01*
%TO.C,Horn_Out1*%
X36970000Y-54330000D02*
X36970000Y-59630000D01*
X36970000Y-56510000D02*
X37570000Y-56510000D01*
X36970000Y-59050000D02*
X37570000Y-59050000D01*
X36970000Y-59630000D02*
X42990000Y-59630000D01*
X37570000Y-54910000D02*
X36970000Y-54910000D01*
X37570000Y-56510000D02*
X37570000Y-54910000D01*
X37570000Y-57450000D02*
X36970000Y-57450000D01*
X37570000Y-59050000D02*
X37570000Y-57450000D01*
X38000000Y-59920000D02*
X42000000Y-59920000D01*
X41460000Y-55960000D02*
X41990000Y-55710000D01*
X41460000Y-58000000D02*
X41460000Y-55960000D01*
X41990000Y-55710000D02*
X42990000Y-55710000D01*
X41990000Y-58250000D02*
X41460000Y-58000000D01*
X41990000Y-58250000D02*
X41990000Y-55710000D01*
X42990000Y-54330000D02*
X36970000Y-54330000D01*
X42990000Y-55960000D02*
X41990000Y-55960000D01*
X42990000Y-58000000D02*
X41990000Y-58000000D01*
X42990000Y-58250000D02*
X41990000Y-58250000D01*
X42990000Y-59630000D02*
X42990000Y-54330000D01*
%TO.C,Horn_Out2*%
X45210000Y-54320000D02*
X45210000Y-59620000D01*
X45210000Y-55700000D02*
X46210000Y-55700000D01*
X45210000Y-55950000D02*
X46210000Y-55950000D01*
X45210000Y-57990000D02*
X46210000Y-57990000D01*
X45210000Y-59620000D02*
X51230000Y-59620000D01*
X46210000Y-55700000D02*
X46210000Y-58240000D01*
X46210000Y-55700000D02*
X46740000Y-55950000D01*
X46210000Y-58240000D02*
X45210000Y-58240000D01*
X46740000Y-55950000D02*
X46740000Y-57990000D01*
X46740000Y-57990000D02*
X46210000Y-58240000D01*
X50200000Y-54030000D02*
X46200000Y-54030000D01*
X50630000Y-54900000D02*
X50630000Y-56500000D01*
X50630000Y-56500000D02*
X51230000Y-56500000D01*
X50630000Y-57440000D02*
X50630000Y-59040000D01*
X50630000Y-59040000D02*
X51230000Y-59040000D01*
X51230000Y-54320000D02*
X45210000Y-54320000D01*
X51230000Y-54900000D02*
X50630000Y-54900000D01*
X51230000Y-57440000D02*
X50630000Y-57440000D01*
X51230000Y-59620000D02*
X51230000Y-54320000D01*
%TO.C,C3*%
X49240580Y-42790000D02*
X48959420Y-42790000D01*
X49240580Y-43810000D02*
X48959420Y-43810000D01*
%TO.C,C6*%
X53634420Y-42810000D02*
X53915580Y-42810000D01*
X53634420Y-43830000D02*
X53915580Y-43830000D01*
%TO.C,C2*%
X48959420Y-39690000D02*
X49240580Y-39690000D01*
X48959420Y-40710000D02*
X49240580Y-40710000D01*
%TO.C,Horn_Control1*%
X57190000Y-44150000D02*
X57190000Y-49450000D01*
X57190000Y-46330000D02*
X57790000Y-46330000D01*
X57190000Y-48870000D02*
X57790000Y-48870000D01*
X57190000Y-49450000D02*
X63210000Y-49450000D01*
X57790000Y-44730000D02*
X57190000Y-44730000D01*
X57790000Y-46330000D02*
X57790000Y-44730000D01*
X57790000Y-47270000D02*
X57190000Y-47270000D01*
X57790000Y-48870000D02*
X57790000Y-47270000D01*
X58220000Y-49740000D02*
X62220000Y-49740000D01*
X61680000Y-45780000D02*
X62210000Y-45530000D01*
X61680000Y-47820000D02*
X61680000Y-45780000D01*
X62210000Y-45530000D02*
X63210000Y-45530000D01*
X62210000Y-48070000D02*
X61680000Y-47820000D01*
X62210000Y-48070000D02*
X62210000Y-45530000D01*
X63210000Y-44150000D02*
X57190000Y-44150000D01*
X63210000Y-45780000D02*
X62210000Y-45780000D01*
X63210000Y-47820000D02*
X62210000Y-47820000D01*
X63210000Y-48070000D02*
X62210000Y-48070000D01*
X63210000Y-49450000D02*
X63210000Y-44150000D01*
%TO.C,Rectifier_Diode1*%
X44220000Y-65200000D02*
X45130000Y-65200000D01*
X45130000Y-62480000D02*
X45130000Y-67920000D01*
X45130000Y-67920000D02*
X54870000Y-67920000D01*
X46555000Y-62480000D02*
X46555000Y-67920000D01*
X46675000Y-62480000D02*
X46675000Y-67920000D01*
X46795000Y-62480000D02*
X46795000Y-67920000D01*
X54870000Y-62480000D02*
X45130000Y-62480000D01*
X54870000Y-67920000D02*
X54870000Y-62480000D01*
X55780000Y-65200000D02*
X54870000Y-65200000D01*
%TD*%
M02*
