%TF.GenerationSoftware,KiCad,Pcbnew,7.0.1*%
%TF.CreationDate,2023-09-08T00:00:38-05:00*%
%TF.ProjectId,proj1,70726f6a-312e-46b6-9963-61645f706362,1.0*%
%TF.SameCoordinates,Original*%
%TF.FileFunction,Copper,L2,Bot*%
%TF.FilePolarity,Positive*%
%FSLAX46Y46*%
G04 Gerber Fmt 4.6, Leading zero omitted, Abs format (unit mm)*
G04 Created by KiCad (PCBNEW 7.0.1) date 2023-09-08 00:00:38*
%MOMM*%
%LPD*%
G01*
G04 APERTURE LIST*
G04 Aperture macros list*
%AMRoundRect*
0 Rectangle with rounded corners*
0 $1 Rounding radius*
0 $2 $3 $4 $5 $6 $7 $8 $9 X,Y pos of 4 corners*
0 Add a 4 corners polygon primitive as box body*
4,1,4,$2,$3,$4,$5,$6,$7,$8,$9,$2,$3,0*
0 Add four circle primitives for the rounded corners*
1,1,$1+$1,$2,$3*
1,1,$1+$1,$4,$5*
1,1,$1+$1,$6,$7*
1,1,$1+$1,$8,$9*
0 Add four rect primitives between the rounded corners*
20,1,$1+$1,$2,$3,$4,$5,0*
20,1,$1+$1,$4,$5,$6,$7,0*
20,1,$1+$1,$6,$7,$8,$9,0*
20,1,$1+$1,$8,$9,$2,$3,0*%
G04 Aperture macros list end*
%TA.AperFunction,ComponentPad*%
%ADD10RoundRect,0.250000X-0.620000X-0.845000X0.620000X-0.845000X0.620000X0.845000X-0.620000X0.845000X0*%
%TD*%
%TA.AperFunction,ComponentPad*%
%ADD11O,1.740000X2.190000*%
%TD*%
%TA.AperFunction,ViaPad*%
%ADD12C,0.800000*%
%TD*%
G04 APERTURE END LIST*
D10*
%TO.P,J1,1,Pin_1*%
%TO.N,GND*%
X108585000Y-82550000D03*
D11*
%TO.P,J1,2,Pin_2*%
%TO.N,+3V3*%
X111125000Y-82550000D03*
%TD*%
D12*
%TO.N,GND*%
X106500000Y-78500000D03*
%TD*%
%TA.AperFunction,Conductor*%
%TO.N,GND*%
G36*
X117002854Y-66000632D02*
G01*
X117018811Y-66001369D01*
X117173088Y-66008502D01*
X117369795Y-66018166D01*
X117380787Y-66019201D01*
X117562876Y-66044601D01*
X117563781Y-66044732D01*
X117747261Y-66071949D01*
X117757413Y-66073892D01*
X117938614Y-66116510D01*
X117940023Y-66116852D01*
X118117874Y-66161401D01*
X118127091Y-66164096D01*
X118304478Y-66223550D01*
X118306618Y-66224292D01*
X118478220Y-66285692D01*
X118486519Y-66289004D01*
X118657980Y-66364712D01*
X118660909Y-66366051D01*
X118747263Y-66406892D01*
X118825119Y-66443715D01*
X118832411Y-66447465D01*
X118929135Y-66501341D01*
X118996435Y-66538827D01*
X118999810Y-66540777D01*
X119155371Y-66634017D01*
X119161670Y-66638058D01*
X119316699Y-66744256D01*
X119320459Y-66746935D01*
X119466009Y-66854882D01*
X119471305Y-66859040D01*
X119616009Y-66979200D01*
X119619947Y-66982617D01*
X119754206Y-67104303D01*
X119758590Y-67108478D01*
X119891520Y-67241408D01*
X119895698Y-67245795D01*
X120017375Y-67380045D01*
X120020805Y-67383998D01*
X120140951Y-67528684D01*
X120145124Y-67534000D01*
X120253041Y-67679509D01*
X120255742Y-67683299D01*
X120361940Y-67838328D01*
X120365999Y-67844656D01*
X120459200Y-68000153D01*
X120461171Y-68003563D01*
X120552525Y-68167573D01*
X120556291Y-68174896D01*
X120633947Y-68339089D01*
X120635286Y-68342018D01*
X120710994Y-68513479D01*
X120714311Y-68521791D01*
X120775666Y-68693265D01*
X120776487Y-68695634D01*
X120835894Y-68872881D01*
X120838606Y-68882157D01*
X120883104Y-69059803D01*
X120883526Y-69061543D01*
X120926101Y-69242562D01*
X120928053Y-69252758D01*
X120955257Y-69436156D01*
X120955410Y-69437218D01*
X120980794Y-69619184D01*
X120981834Y-69630232D01*
X120991512Y-69827238D01*
X120991529Y-69827595D01*
X120999368Y-69997145D01*
X120999500Y-70002872D01*
X120999500Y-82997128D01*
X120999368Y-83002855D01*
X120991529Y-83172404D01*
X120991512Y-83172761D01*
X120981834Y-83369766D01*
X120980794Y-83380814D01*
X120955410Y-83562780D01*
X120955257Y-83563842D01*
X120928053Y-83747240D01*
X120926101Y-83757436D01*
X120883526Y-83938455D01*
X120883104Y-83940195D01*
X120838606Y-84117841D01*
X120835894Y-84127117D01*
X120776487Y-84304364D01*
X120775666Y-84306733D01*
X120714311Y-84478207D01*
X120710994Y-84486519D01*
X120635286Y-84657980D01*
X120633947Y-84660909D01*
X120556291Y-84825102D01*
X120552525Y-84832425D01*
X120461171Y-84996435D01*
X120459200Y-84999845D01*
X120365999Y-85155342D01*
X120361940Y-85161670D01*
X120255742Y-85316699D01*
X120253041Y-85320489D01*
X120145135Y-85465984D01*
X120140935Y-85471334D01*
X120020851Y-85615947D01*
X120017331Y-85620004D01*
X119895717Y-85754183D01*
X119891520Y-85758590D01*
X119758590Y-85891520D01*
X119754183Y-85895717D01*
X119620004Y-86017331D01*
X119615947Y-86020851D01*
X119471334Y-86140935D01*
X119465984Y-86145135D01*
X119320489Y-86253041D01*
X119316699Y-86255742D01*
X119161670Y-86361940D01*
X119155342Y-86365999D01*
X118999845Y-86459200D01*
X118996435Y-86461171D01*
X118832425Y-86552525D01*
X118825102Y-86556291D01*
X118660909Y-86633947D01*
X118657980Y-86635286D01*
X118486519Y-86710994D01*
X118478207Y-86714311D01*
X118306733Y-86775666D01*
X118304364Y-86776487D01*
X118127117Y-86835894D01*
X118117841Y-86838606D01*
X117940195Y-86883104D01*
X117938455Y-86883526D01*
X117757436Y-86926101D01*
X117747240Y-86928053D01*
X117563842Y-86955257D01*
X117562780Y-86955410D01*
X117380814Y-86980794D01*
X117369766Y-86981834D01*
X117172931Y-86991503D01*
X117172575Y-86991520D01*
X117007393Y-86999158D01*
X117002854Y-86999368D01*
X116997128Y-86999500D01*
X109002872Y-86999500D01*
X108997145Y-86999368D01*
X108992305Y-86999144D01*
X108827423Y-86991520D01*
X108827067Y-86991503D01*
X108630232Y-86981834D01*
X108619184Y-86980794D01*
X108437218Y-86955410D01*
X108436156Y-86955257D01*
X108252758Y-86928053D01*
X108242562Y-86926101D01*
X108061543Y-86883526D01*
X108059803Y-86883104D01*
X107882157Y-86838606D01*
X107872881Y-86835894D01*
X107695634Y-86776487D01*
X107693265Y-86775666D01*
X107521791Y-86714311D01*
X107513479Y-86710994D01*
X107342018Y-86635286D01*
X107339089Y-86633947D01*
X107174896Y-86556291D01*
X107167573Y-86552525D01*
X107003563Y-86461171D01*
X107000153Y-86459200D01*
X106980648Y-86447509D01*
X106844645Y-86365992D01*
X106838328Y-86361940D01*
X106683299Y-86255742D01*
X106679509Y-86253041D01*
X106534000Y-86145124D01*
X106528684Y-86140951D01*
X106383998Y-86020805D01*
X106380045Y-86017375D01*
X106245795Y-85895698D01*
X106241408Y-85891520D01*
X106108478Y-85758590D01*
X106104303Y-85754206D01*
X105982617Y-85619947D01*
X105979200Y-85616009D01*
X105859040Y-85471305D01*
X105854882Y-85466009D01*
X105746935Y-85320459D01*
X105744256Y-85316699D01*
X105638058Y-85161670D01*
X105634017Y-85155371D01*
X105540777Y-84999810D01*
X105538827Y-84996435D01*
X105457541Y-84850500D01*
X105447465Y-84832411D01*
X105443715Y-84825119D01*
X105375086Y-84680013D01*
X105366051Y-84660909D01*
X105364712Y-84657980D01*
X105289004Y-84486519D01*
X105285692Y-84478220D01*
X105224292Y-84306618D01*
X105223550Y-84304478D01*
X105164096Y-84127091D01*
X105161401Y-84117874D01*
X105116852Y-83940023D01*
X105116510Y-83938614D01*
X105073892Y-83757413D01*
X105071949Y-83747261D01*
X105044732Y-83563781D01*
X105044588Y-83562780D01*
X105019201Y-83380787D01*
X105018166Y-83369795D01*
X105008480Y-83172611D01*
X105000632Y-83002854D01*
X105000500Y-82997128D01*
X105000500Y-82800000D01*
X107215001Y-82800000D01*
X107215001Y-83444979D01*
X107225493Y-83547695D01*
X107280642Y-83714122D01*
X107372683Y-83863345D01*
X107496654Y-83987316D01*
X107645877Y-84079357D01*
X107812303Y-84134506D01*
X107915021Y-84145000D01*
X108335000Y-84145000D01*
X108335000Y-84144999D01*
X108835000Y-84144999D01*
X109254979Y-84144999D01*
X109357695Y-84134506D01*
X109524122Y-84079357D01*
X109673345Y-83987316D01*
X109797316Y-83863345D01*
X109893828Y-83706874D01*
X109933297Y-83667038D01*
X109986279Y-83648663D01*
X110041938Y-83655507D01*
X110088890Y-83686170D01*
X110210967Y-83813543D01*
X110399629Y-83953077D01*
X110609159Y-84058720D01*
X110833529Y-84127432D01*
X111066283Y-84157237D01*
X111300727Y-84147278D01*
X111530116Y-84097841D01*
X111747850Y-84010349D01*
X111947665Y-83887317D01*
X112123815Y-83732286D01*
X112129157Y-83725670D01*
X112271228Y-83549719D01*
X112316150Y-83469305D01*
X112385670Y-83344859D01*
X112463843Y-83123608D01*
X112473419Y-83067765D01*
X112473419Y-83067764D01*
X115145787Y-83067764D01*
X115175413Y-83337016D01*
X115209998Y-83469304D01*
X115243928Y-83599088D01*
X115306886Y-83747240D01*
X115349871Y-83848392D01*
X115490982Y-84079611D01*
X115580253Y-84186881D01*
X115664255Y-84287820D01*
X115865998Y-84468582D01*
X116091910Y-84618044D01*
X116177101Y-84657980D01*
X116337177Y-84733021D01*
X116596562Y-84811058D01*
X116596569Y-84811060D01*
X116864561Y-84850500D01*
X117067631Y-84850500D01*
X117067634Y-84850500D01*
X117270156Y-84835677D01*
X117317552Y-84825119D01*
X117534553Y-84776780D01*
X117787558Y-84680014D01*
X118023777Y-84547441D01*
X118238177Y-84381888D01*
X118426186Y-84186881D01*
X118583799Y-83966579D01*
X118707656Y-83725675D01*
X118795118Y-83469305D01*
X118844319Y-83202933D01*
X118854212Y-82932235D01*
X118824586Y-82662982D01*
X118756072Y-82400912D01*
X118650130Y-82151610D01*
X118509018Y-81920390D01*
X118509017Y-81920388D01*
X118335746Y-81712181D01*
X118271951Y-81655021D01*
X118134002Y-81531418D01*
X117908090Y-81381956D01*
X117908086Y-81381954D01*
X117662822Y-81266978D01*
X117403437Y-81188941D01*
X117403431Y-81188940D01*
X117135439Y-81149500D01*
X116932369Y-81149500D01*
X116932366Y-81149500D01*
X116729843Y-81164322D01*
X116465449Y-81223219D01*
X116212441Y-81319986D01*
X115976223Y-81452559D01*
X115761825Y-81618109D01*
X115573813Y-81813120D01*
X115416201Y-82033420D01*
X115304612Y-82250461D01*
X115296399Y-82266439D01*
X115292342Y-82274329D01*
X115204881Y-82530695D01*
X115155680Y-82797066D01*
X115145787Y-83067764D01*
X112473419Y-83067764D01*
X112503500Y-82892330D01*
X112503500Y-82266439D01*
X112488584Y-82091191D01*
X112429456Y-81864104D01*
X112332801Y-81650282D01*
X112201400Y-81455868D01*
X112039032Y-81286456D01*
X111850371Y-81146923D01*
X111640841Y-81041280D01*
X111573450Y-81020642D01*
X111416471Y-80972568D01*
X111183717Y-80942763D01*
X111183713Y-80942763D01*
X110949275Y-80952721D01*
X110719881Y-81002159D01*
X110502148Y-81089651D01*
X110302337Y-81212680D01*
X110126182Y-81367715D01*
X110095620Y-81405567D01*
X110049040Y-81441186D01*
X109991301Y-81451420D01*
X109935316Y-81433979D01*
X109893605Y-81392764D01*
X109797316Y-81236654D01*
X109673345Y-81112683D01*
X109524122Y-81020642D01*
X109357696Y-80965493D01*
X109254979Y-80955000D01*
X108835000Y-80955000D01*
X108835000Y-84144999D01*
X108335000Y-84144999D01*
X108335000Y-82800000D01*
X107215001Y-82800000D01*
X105000500Y-82800000D01*
X105000500Y-82300000D01*
X107215000Y-82300000D01*
X108335000Y-82300000D01*
X108335000Y-80955001D01*
X107915021Y-80955001D01*
X107812304Y-80965493D01*
X107645877Y-81020642D01*
X107496654Y-81112683D01*
X107372683Y-81236654D01*
X107280642Y-81385877D01*
X107225493Y-81552303D01*
X107215000Y-81655021D01*
X107215000Y-82300000D01*
X105000500Y-82300000D01*
X105000500Y-71067764D01*
X107145787Y-71067764D01*
X107175413Y-71337016D01*
X107243928Y-71599087D01*
X107349871Y-71848392D01*
X107490982Y-72079611D01*
X107580253Y-72186881D01*
X107664255Y-72287820D01*
X107865998Y-72468582D01*
X108091910Y-72618044D01*
X108198211Y-72667875D01*
X108337177Y-72733021D01*
X108596562Y-72811058D01*
X108596569Y-72811060D01*
X108864561Y-72850500D01*
X109067631Y-72850500D01*
X109067634Y-72850500D01*
X109270156Y-72835677D01*
X109270155Y-72835677D01*
X109534553Y-72776780D01*
X109787558Y-72680014D01*
X110023777Y-72547441D01*
X110238177Y-72381888D01*
X110426186Y-72186881D01*
X110583799Y-71966579D01*
X110707656Y-71725675D01*
X110795118Y-71469305D01*
X110844319Y-71202933D01*
X110854212Y-70932235D01*
X110824586Y-70662982D01*
X110756072Y-70400912D01*
X110650130Y-70151610D01*
X110557909Y-70000500D01*
X110509017Y-69920388D01*
X110335746Y-69712181D01*
X110244249Y-69630200D01*
X110134002Y-69531418D01*
X109908090Y-69381956D01*
X109908086Y-69381954D01*
X109662822Y-69266978D01*
X109403437Y-69188941D01*
X109403431Y-69188940D01*
X109135439Y-69149500D01*
X108932369Y-69149500D01*
X108932366Y-69149500D01*
X108729843Y-69164322D01*
X108465449Y-69223219D01*
X108212441Y-69319986D01*
X107976223Y-69452559D01*
X107761825Y-69618109D01*
X107573813Y-69813120D01*
X107416201Y-70033420D01*
X107292342Y-70274329D01*
X107204881Y-70530695D01*
X107155680Y-70797066D01*
X107145787Y-71067764D01*
X105000500Y-71067764D01*
X105000500Y-70002872D01*
X105000632Y-69997146D01*
X105001221Y-69984396D01*
X105008490Y-69827168D01*
X105018166Y-69630200D01*
X105019200Y-69619217D01*
X105044611Y-69437054D01*
X105044722Y-69436286D01*
X105071950Y-69252729D01*
X105073890Y-69242595D01*
X105116526Y-69061318D01*
X105116837Y-69060037D01*
X105161405Y-68882111D01*
X105164091Y-68872922D01*
X105223572Y-68695457D01*
X105224270Y-68693442D01*
X105285699Y-68521759D01*
X105288996Y-68513497D01*
X105364713Y-68342015D01*
X105366051Y-68339089D01*
X105443727Y-68174855D01*
X105447452Y-68167612D01*
X105538864Y-68003497D01*
X105540745Y-68000243D01*
X105634036Y-67844598D01*
X105638034Y-67838363D01*
X105744270Y-67683278D01*
X105746899Y-67679590D01*
X105854909Y-67533954D01*
X105859011Y-67528728D01*
X105979239Y-67383944D01*
X105982577Y-67380097D01*
X106104340Y-67245752D01*
X106108437Y-67241450D01*
X106241450Y-67108437D01*
X106245752Y-67104340D01*
X106380097Y-66982577D01*
X106383944Y-66979239D01*
X106528728Y-66859011D01*
X106533954Y-66854909D01*
X106679590Y-66746899D01*
X106683278Y-66744270D01*
X106838363Y-66638034D01*
X106844598Y-66634036D01*
X107000243Y-66540745D01*
X107003497Y-66538864D01*
X107167612Y-66447452D01*
X107174855Y-66443727D01*
X107339098Y-66366046D01*
X107342018Y-66364712D01*
X107406007Y-66336458D01*
X107513497Y-66288996D01*
X107521759Y-66285699D01*
X107693442Y-66224270D01*
X107695457Y-66223572D01*
X107872922Y-66164091D01*
X107882111Y-66161405D01*
X108060037Y-66116837D01*
X108061318Y-66116526D01*
X108242595Y-66073890D01*
X108252729Y-66071950D01*
X108436286Y-66044722D01*
X108437054Y-66044611D01*
X108619217Y-66019200D01*
X108630200Y-66018166D01*
X108826898Y-66008502D01*
X108991674Y-66000884D01*
X108997146Y-66000632D01*
X109002872Y-66000500D01*
X116997128Y-66000500D01*
X117002854Y-66000632D01*
G37*
%TD.AperFunction*%
%TD*%
M02*
