%TF.GenerationSoftware,KiCad,Pcbnew,7.0.1*%
%TF.CreationDate,2023-09-08T00:00:38-05:00*%
%TF.ProjectId,proj1,70726f6a-312e-46b6-9963-61645f706362,1.0*%
%TF.SameCoordinates,Original*%
%TF.FileFunction,Copper,L1,Top*%
%TF.FilePolarity,Positive*%
%FSLAX46Y46*%
G04 Gerber Fmt 4.6, Leading zero omitted, Abs format (unit mm)*
G04 Created by KiCad (PCBNEW 7.0.1) date 2023-09-08 00:00:38*
%MOMM*%
%LPD*%
G01*
G04 APERTURE LIST*
G04 Aperture macros list*
%AMRoundRect*
0 Rectangle with rounded corners*
0 $1 Rounding radius*
0 $2 $3 $4 $5 $6 $7 $8 $9 X,Y pos of 4 corners*
0 Add a 4 corners polygon primitive as box body*
4,1,4,$2,$3,$4,$5,$6,$7,$8,$9,$2,$3,0*
0 Add four circle primitives for the rounded corners*
1,1,$1+$1,$2,$3*
1,1,$1+$1,$4,$5*
1,1,$1+$1,$6,$7*
1,1,$1+$1,$8,$9*
0 Add four rect primitives between the rounded corners*
20,1,$1+$1,$2,$3,$4,$5,0*
20,1,$1+$1,$4,$5,$6,$7,0*
20,1,$1+$1,$6,$7,$8,$9,0*
20,1,$1+$1,$8,$9,$2,$3,0*%
G04 Aperture macros list end*
%TA.AperFunction,SMDPad,CuDef*%
%ADD10RoundRect,0.237500X0.250000X0.237500X-0.250000X0.237500X-0.250000X-0.237500X0.250000X-0.237500X0*%
%TD*%
%TA.AperFunction,SMDPad,CuDef*%
%ADD11R,0.800000X0.800000*%
%TD*%
%TA.AperFunction,SMDPad,CuDef*%
%ADD12R,1.120000X2.440000*%
%TD*%
%TA.AperFunction,ComponentPad*%
%ADD13RoundRect,0.250000X-0.620000X-0.845000X0.620000X-0.845000X0.620000X0.845000X-0.620000X0.845000X0*%
%TD*%
%TA.AperFunction,ComponentPad*%
%ADD14O,1.740000X2.190000*%
%TD*%
%TA.AperFunction,ViaPad*%
%ADD15C,0.800000*%
%TD*%
%TA.AperFunction,Conductor*%
%ADD16C,0.250000*%
%TD*%
G04 APERTURE END LIST*
D10*
%TO.P,R1,1*%
%TO.N,Net-(R1-Pad1)*%
X111912500Y-76000000D03*
%TO.P,R1,2*%
%TO.N,Net-(D1-A)*%
X110087500Y-76000000D03*
%TD*%
D11*
%TO.P,D1,1,K*%
%TO.N,GND*%
X106400000Y-76993750D03*
%TO.P,D1,2,A*%
%TO.N,Net-(D1-A)*%
X108000000Y-76993750D03*
%TD*%
D12*
%TO.P,SW1,1,1*%
%TO.N,+3V3*%
X116000000Y-76993750D03*
%TO.P,SW1,2,2*%
%TO.N,Net-(R1-Pad1)*%
X116000000Y-68383750D03*
%TD*%
D13*
%TO.P,J1,1,Pin_1*%
%TO.N,GND*%
X108585000Y-82550000D03*
D14*
%TO.P,J1,2,Pin_2*%
%TO.N,+3V3*%
X111125000Y-82550000D03*
%TD*%
D15*
%TO.N,GND*%
X106500000Y-78500000D03*
%TD*%
D16*
%TO.N,GND*%
X106400000Y-76993750D02*
X106400000Y-78400000D01*
X106400000Y-78400000D02*
X106500000Y-78500000D01*
%TO.N,Net-(D1-A)*%
X109750000Y-76000000D02*
X108756250Y-76993750D01*
X108756250Y-76993750D02*
X108000000Y-76993750D01*
X110087500Y-76000000D02*
X109750000Y-76000000D01*
%TO.N,Net-(R1-Pad1)*%
X116000000Y-68383750D02*
X113866250Y-68383750D01*
X113000000Y-74912500D02*
X111912500Y-76000000D01*
X113000000Y-69250000D02*
X113000000Y-74912500D01*
X113866250Y-68383750D02*
X113000000Y-69250000D01*
%TD*%
%TA.AperFunction,Conductor*%
%TO.N,+3V3*%
G36*
X117002854Y-66000632D02*
G01*
X117018811Y-66001369D01*
X117173088Y-66008502D01*
X117369795Y-66018166D01*
X117380787Y-66019201D01*
X117562876Y-66044601D01*
X117563781Y-66044732D01*
X117747261Y-66071949D01*
X117757413Y-66073892D01*
X117938614Y-66116510D01*
X117940023Y-66116852D01*
X118117874Y-66161401D01*
X118127091Y-66164096D01*
X118304478Y-66223550D01*
X118306618Y-66224292D01*
X118478220Y-66285692D01*
X118486519Y-66289004D01*
X118657980Y-66364712D01*
X118660909Y-66366051D01*
X118747263Y-66406892D01*
X118825119Y-66443715D01*
X118832411Y-66447465D01*
X118929135Y-66501341D01*
X118996435Y-66538827D01*
X118999810Y-66540777D01*
X119155371Y-66634017D01*
X119161670Y-66638058D01*
X119316699Y-66744256D01*
X119320459Y-66746935D01*
X119466009Y-66854882D01*
X119471305Y-66859040D01*
X119616009Y-66979200D01*
X119619947Y-66982617D01*
X119754206Y-67104303D01*
X119758590Y-67108478D01*
X119891520Y-67241408D01*
X119895698Y-67245795D01*
X120017375Y-67380045D01*
X120020805Y-67383998D01*
X120140951Y-67528684D01*
X120145124Y-67534000D01*
X120253041Y-67679509D01*
X120255742Y-67683299D01*
X120361940Y-67838328D01*
X120365992Y-67844645D01*
X120402933Y-67906277D01*
X120459200Y-68000153D01*
X120461171Y-68003563D01*
X120552525Y-68167573D01*
X120556291Y-68174896D01*
X120633947Y-68339089D01*
X120635286Y-68342018D01*
X120710994Y-68513479D01*
X120714311Y-68521791D01*
X120775666Y-68693265D01*
X120776487Y-68695634D01*
X120835894Y-68872881D01*
X120838606Y-68882157D01*
X120883104Y-69059803D01*
X120883526Y-69061543D01*
X120926101Y-69242562D01*
X120928053Y-69252758D01*
X120955257Y-69436156D01*
X120955410Y-69437218D01*
X120980794Y-69619184D01*
X120981834Y-69630232D01*
X120991512Y-69827238D01*
X120991529Y-69827595D01*
X120999368Y-69997145D01*
X120999500Y-70002872D01*
X120999500Y-82997128D01*
X120999368Y-83002855D01*
X120991529Y-83172404D01*
X120991512Y-83172761D01*
X120981834Y-83369766D01*
X120980794Y-83380814D01*
X120955410Y-83562780D01*
X120955257Y-83563842D01*
X120928053Y-83747240D01*
X120926101Y-83757436D01*
X120883526Y-83938455D01*
X120883104Y-83940195D01*
X120838606Y-84117841D01*
X120835894Y-84127117D01*
X120776487Y-84304364D01*
X120775666Y-84306733D01*
X120714311Y-84478207D01*
X120710994Y-84486519D01*
X120635286Y-84657980D01*
X120633947Y-84660909D01*
X120556291Y-84825102D01*
X120552525Y-84832425D01*
X120461171Y-84996435D01*
X120459200Y-84999845D01*
X120365999Y-85155342D01*
X120361940Y-85161670D01*
X120255742Y-85316699D01*
X120253041Y-85320489D01*
X120145135Y-85465984D01*
X120140935Y-85471334D01*
X120020851Y-85615947D01*
X120017331Y-85620004D01*
X119895717Y-85754183D01*
X119891520Y-85758590D01*
X119758590Y-85891520D01*
X119754183Y-85895717D01*
X119620004Y-86017331D01*
X119615947Y-86020851D01*
X119471334Y-86140935D01*
X119465984Y-86145135D01*
X119320489Y-86253041D01*
X119316699Y-86255742D01*
X119161670Y-86361940D01*
X119155342Y-86365999D01*
X118999845Y-86459200D01*
X118996435Y-86461171D01*
X118832425Y-86552525D01*
X118825102Y-86556291D01*
X118660909Y-86633947D01*
X118657980Y-86635286D01*
X118486519Y-86710994D01*
X118478207Y-86714311D01*
X118306733Y-86775666D01*
X118304364Y-86776487D01*
X118127117Y-86835894D01*
X118117841Y-86838606D01*
X117940195Y-86883104D01*
X117938455Y-86883526D01*
X117757436Y-86926101D01*
X117747240Y-86928053D01*
X117563842Y-86955257D01*
X117562780Y-86955410D01*
X117380814Y-86980794D01*
X117369766Y-86981834D01*
X117172931Y-86991503D01*
X117172575Y-86991520D01*
X117007393Y-86999158D01*
X117002854Y-86999368D01*
X116997128Y-86999500D01*
X109002872Y-86999500D01*
X108997145Y-86999368D01*
X108992305Y-86999144D01*
X108827423Y-86991520D01*
X108827067Y-86991503D01*
X108630232Y-86981834D01*
X108619184Y-86980794D01*
X108437218Y-86955410D01*
X108436156Y-86955257D01*
X108252758Y-86928053D01*
X108242562Y-86926101D01*
X108061543Y-86883526D01*
X108059803Y-86883104D01*
X107882157Y-86838606D01*
X107872881Y-86835894D01*
X107695634Y-86776487D01*
X107693265Y-86775666D01*
X107521791Y-86714311D01*
X107513479Y-86710994D01*
X107342018Y-86635286D01*
X107339089Y-86633947D01*
X107174896Y-86556291D01*
X107167573Y-86552525D01*
X107003563Y-86461171D01*
X107000153Y-86459200D01*
X106980648Y-86447509D01*
X106844645Y-86365992D01*
X106838328Y-86361940D01*
X106683299Y-86255742D01*
X106679509Y-86253041D01*
X106534000Y-86145124D01*
X106528684Y-86140951D01*
X106383998Y-86020805D01*
X106380045Y-86017375D01*
X106245795Y-85895698D01*
X106241408Y-85891520D01*
X106108478Y-85758590D01*
X106104303Y-85754206D01*
X105982617Y-85619947D01*
X105979200Y-85616009D01*
X105859040Y-85471305D01*
X105854882Y-85466009D01*
X105746935Y-85320459D01*
X105744256Y-85316699D01*
X105638058Y-85161670D01*
X105634017Y-85155371D01*
X105540777Y-84999810D01*
X105538827Y-84996435D01*
X105457541Y-84850500D01*
X105447465Y-84832411D01*
X105443715Y-84825119D01*
X105375086Y-84680013D01*
X105366051Y-84660909D01*
X105364712Y-84657980D01*
X105289004Y-84486519D01*
X105285692Y-84478220D01*
X105224292Y-84306618D01*
X105223550Y-84304478D01*
X105164096Y-84127091D01*
X105161401Y-84117874D01*
X105116852Y-83940023D01*
X105116510Y-83938614D01*
X105073892Y-83757413D01*
X105071949Y-83747261D01*
X105044732Y-83563781D01*
X105044588Y-83562780D01*
X105028234Y-83445544D01*
X107206500Y-83445544D01*
X107217112Y-83549425D01*
X107268909Y-83705740D01*
X107272885Y-83717738D01*
X107291082Y-83747240D01*
X107365971Y-83868654D01*
X107491345Y-83994028D01*
X107491347Y-83994029D01*
X107491348Y-83994030D01*
X107642262Y-84087115D01*
X107726417Y-84115000D01*
X107810573Y-84142887D01*
X107820202Y-84143870D01*
X107914455Y-84153500D01*
X109255544Y-84153499D01*
X109359426Y-84142887D01*
X109527738Y-84087115D01*
X109678652Y-83994030D01*
X109804030Y-83868652D01*
X109897115Y-83717738D01*
X109897116Y-83717733D01*
X109904514Y-83705740D01*
X109943983Y-83665904D01*
X109996965Y-83647529D01*
X110052623Y-83654372D01*
X110099575Y-83685035D01*
X110216602Y-83807139D01*
X110404101Y-83945812D01*
X110612339Y-84050803D01*
X110835326Y-84119092D01*
X110875000Y-84124172D01*
X110875000Y-82800000D01*
X111375000Y-82800000D01*
X111375000Y-84122575D01*
X111527621Y-84089682D01*
X111744005Y-84002732D01*
X111942594Y-83880456D01*
X112117657Y-83726381D01*
X112264160Y-83544942D01*
X112377896Y-83341344D01*
X112455588Y-83121455D01*
X112464794Y-83067764D01*
X115145787Y-83067764D01*
X115175413Y-83337016D01*
X115209998Y-83469304D01*
X115243928Y-83599088D01*
X115306886Y-83747240D01*
X115349871Y-83848392D01*
X115490982Y-84079611D01*
X115580253Y-84186881D01*
X115664255Y-84287820D01*
X115865998Y-84468582D01*
X116091910Y-84618044D01*
X116177101Y-84657980D01*
X116337177Y-84733021D01*
X116596562Y-84811058D01*
X116596569Y-84811060D01*
X116864561Y-84850500D01*
X117067631Y-84850500D01*
X117067634Y-84850500D01*
X117270156Y-84835677D01*
X117317552Y-84825119D01*
X117534553Y-84776780D01*
X117787558Y-84680014D01*
X118023777Y-84547441D01*
X118238177Y-84381888D01*
X118426186Y-84186881D01*
X118583799Y-83966579D01*
X118707656Y-83725675D01*
X118795118Y-83469305D01*
X118844319Y-83202933D01*
X118854212Y-82932235D01*
X118824586Y-82662982D01*
X118756072Y-82400912D01*
X118650130Y-82151610D01*
X118509018Y-81920390D01*
X118509017Y-81920388D01*
X118335746Y-81712181D01*
X118230758Y-81618112D01*
X118134002Y-81531418D01*
X117908090Y-81381956D01*
X117908086Y-81381954D01*
X117662822Y-81266978D01*
X117403437Y-81188941D01*
X117403431Y-81188940D01*
X117135439Y-81149500D01*
X116932369Y-81149500D01*
X116932366Y-81149500D01*
X116729843Y-81164322D01*
X116465449Y-81223219D01*
X116212441Y-81319986D01*
X115976223Y-81452559D01*
X115761825Y-81618109D01*
X115573813Y-81813120D01*
X115416201Y-82033420D01*
X115292342Y-82274329D01*
X115204881Y-82530695D01*
X115155680Y-82797066D01*
X115145787Y-83067764D01*
X112464794Y-83067764D01*
X112495000Y-82891606D01*
X112495000Y-82800000D01*
X111375000Y-82800000D01*
X110875000Y-82800000D01*
X110875000Y-80977424D01*
X110722378Y-81010317D01*
X110505994Y-81097267D01*
X110307405Y-81219543D01*
X110132343Y-81373617D01*
X110106012Y-81406227D01*
X110059431Y-81441845D01*
X110001693Y-81452078D01*
X109945709Y-81434637D01*
X109903998Y-81393423D01*
X109897116Y-81382265D01*
X109897115Y-81382262D01*
X109804030Y-81231348D01*
X109804029Y-81231347D01*
X109804028Y-81231345D01*
X109678654Y-81105971D01*
X109527736Y-81012884D01*
X109415905Y-80975827D01*
X111375000Y-80975827D01*
X111375000Y-82300000D01*
X112495000Y-82300000D01*
X112495000Y-82266802D01*
X112480176Y-82092635D01*
X112421410Y-81866945D01*
X112325353Y-81654442D01*
X112194763Y-81461227D01*
X112033396Y-81292860D01*
X111845898Y-81154187D01*
X111637660Y-81049196D01*
X111414673Y-80980907D01*
X111375000Y-80975827D01*
X109415905Y-80975827D01*
X109359426Y-80957112D01*
X109265173Y-80947483D01*
X109255544Y-80946500D01*
X107914455Y-80946500D01*
X107810574Y-80957112D01*
X107642263Y-81012884D01*
X107491345Y-81105971D01*
X107365971Y-81231345D01*
X107272884Y-81382263D01*
X107217112Y-81550573D01*
X107206500Y-81654455D01*
X107206500Y-83445544D01*
X105028234Y-83445544D01*
X105019201Y-83380787D01*
X105018166Y-83369795D01*
X105008480Y-83172611D01*
X105000632Y-83002854D01*
X105000500Y-82997128D01*
X105000500Y-77442384D01*
X105491500Y-77442384D01*
X105498011Y-77502955D01*
X105549110Y-77639953D01*
X105636738Y-77757011D01*
X105716810Y-77816952D01*
X105753384Y-77860714D01*
X105766500Y-77916219D01*
X105766500Y-77920235D01*
X105749887Y-77982235D01*
X105665472Y-78128443D01*
X105606458Y-78310070D01*
X105586496Y-78500000D01*
X105606458Y-78689929D01*
X105665472Y-78871556D01*
X105760957Y-79036941D01*
X105760960Y-79036944D01*
X105888747Y-79178866D01*
X106043248Y-79291118D01*
X106217714Y-79368795D01*
X106404511Y-79408500D01*
X106404513Y-79408500D01*
X106595487Y-79408500D01*
X106595489Y-79408500D01*
X106782285Y-79368795D01*
X106782286Y-79368794D01*
X106782288Y-79368794D01*
X106956752Y-79291118D01*
X107111253Y-79178866D01*
X107239040Y-79036944D01*
X107334527Y-78871556D01*
X107393542Y-78689928D01*
X107413504Y-78500000D01*
X107393542Y-78310072D01*
X107334527Y-78128444D01*
X107334527Y-78128443D01*
X107292885Y-78056318D01*
X107276341Y-77998449D01*
X107288995Y-77939606D01*
X107327866Y-77893654D01*
X107383796Y-77871418D01*
X107443606Y-77878136D01*
X107490799Y-77895739D01*
X107551362Y-77902250D01*
X108448634Y-77902250D01*
X108448638Y-77902250D01*
X108509201Y-77895739D01*
X108509203Y-77895738D01*
X108509205Y-77895738D01*
X108587124Y-77866674D01*
X108646204Y-77844639D01*
X108763261Y-77757011D01*
X108835588Y-77660392D01*
X108872497Y-77627526D01*
X108900503Y-77618049D01*
X108900480Y-77617991D01*
X108915044Y-77612224D01*
X108915047Y-77612224D01*
X108956256Y-77595907D01*
X108967287Y-77592130D01*
X109009843Y-77579768D01*
X109027410Y-77569378D01*
X109044882Y-77560818D01*
X109063867Y-77553302D01*
X109099725Y-77527248D01*
X109109473Y-77520846D01*
X109147612Y-77498292D01*
X109162050Y-77483853D01*
X109176838Y-77471222D01*
X109193357Y-77459222D01*
X109221609Y-77425069D01*
X109229453Y-77416449D01*
X109402152Y-77243750D01*
X114940000Y-77243750D01*
X114940000Y-78261574D01*
X114946402Y-78321125D01*
X114996647Y-78455839D01*
X115082811Y-78570938D01*
X115197910Y-78657102D01*
X115332624Y-78707347D01*
X115392176Y-78713750D01*
X115750000Y-78713750D01*
X115750000Y-77243750D01*
X116250000Y-77243750D01*
X116250000Y-78713750D01*
X116607824Y-78713750D01*
X116667375Y-78707347D01*
X116802089Y-78657102D01*
X116917188Y-78570938D01*
X117003352Y-78455839D01*
X117053597Y-78321125D01*
X117060000Y-78261574D01*
X117060000Y-77243750D01*
X116250000Y-77243750D01*
X115750000Y-77243750D01*
X114940000Y-77243750D01*
X109402152Y-77243750D01*
X109632362Y-77013541D01*
X109678479Y-76984397D01*
X109732642Y-76977866D01*
X109787787Y-76983500D01*
X110387212Y-76983499D01*
X110489381Y-76973062D01*
X110654920Y-76918209D01*
X110803346Y-76826658D01*
X110803347Y-76826656D01*
X110912319Y-76717686D01*
X110967906Y-76685592D01*
X111032094Y-76685592D01*
X111087681Y-76717686D01*
X111196651Y-76826656D01*
X111196653Y-76826657D01*
X111196654Y-76826658D01*
X111345080Y-76918209D01*
X111510619Y-76973062D01*
X111612787Y-76983500D01*
X112212212Y-76983499D01*
X112314381Y-76973062D01*
X112479920Y-76918209D01*
X112628346Y-76826658D01*
X112711254Y-76743750D01*
X114940000Y-76743750D01*
X115750000Y-76743750D01*
X115750000Y-75273750D01*
X116250000Y-75273750D01*
X116250000Y-76743750D01*
X117060000Y-76743750D01*
X117060000Y-75725926D01*
X117053597Y-75666374D01*
X117003352Y-75531660D01*
X116917188Y-75416561D01*
X116802089Y-75330397D01*
X116667375Y-75280152D01*
X116607824Y-75273750D01*
X116250000Y-75273750D01*
X115750000Y-75273750D01*
X115392176Y-75273750D01*
X115332624Y-75280152D01*
X115197910Y-75330397D01*
X115082811Y-75416561D01*
X114996647Y-75531660D01*
X114946402Y-75666374D01*
X114940000Y-75725926D01*
X114940000Y-76743750D01*
X112711254Y-76743750D01*
X112751658Y-76703346D01*
X112843209Y-76554920D01*
X112898062Y-76389381D01*
X112908500Y-76287213D01*
X112908499Y-75951264D01*
X112917938Y-75903812D01*
X112944815Y-75863587D01*
X113388816Y-75419586D01*
X113405097Y-75406544D01*
X113407014Y-75404502D01*
X113407018Y-75404500D01*
X113453706Y-75354779D01*
X113456323Y-75352079D01*
X113476134Y-75332270D01*
X113478672Y-75328997D01*
X113486241Y-75320134D01*
X113516586Y-75287821D01*
X113526422Y-75269927D01*
X113537102Y-75253668D01*
X113549613Y-75237541D01*
X113567211Y-75196872D01*
X113572341Y-75186400D01*
X113593695Y-75147560D01*
X113598772Y-75127782D01*
X113605072Y-75109382D01*
X113613181Y-75090645D01*
X113620112Y-75046876D01*
X113622478Y-75035453D01*
X113633500Y-74992530D01*
X113633500Y-74972116D01*
X113635027Y-74952717D01*
X113635102Y-74952240D01*
X113638220Y-74932557D01*
X113634050Y-74888443D01*
X113633500Y-74876774D01*
X113633500Y-69563766D01*
X113642939Y-69516313D01*
X113669819Y-69476085D01*
X114092335Y-69053569D01*
X114132563Y-69026689D01*
X114180016Y-69017250D01*
X114807500Y-69017250D01*
X114869500Y-69033863D01*
X114914887Y-69079250D01*
X114931500Y-69141250D01*
X114931500Y-69652384D01*
X114938011Y-69712955D01*
X114989110Y-69849953D01*
X115076738Y-69967011D01*
X115193796Y-70054639D01*
X115330794Y-70105738D01*
X115330797Y-70105738D01*
X115330799Y-70105739D01*
X115391362Y-70112250D01*
X116608634Y-70112250D01*
X116608638Y-70112250D01*
X116669201Y-70105739D01*
X116669203Y-70105738D01*
X116669205Y-70105738D01*
X116747124Y-70076674D01*
X116806204Y-70054639D01*
X116923261Y-69967011D01*
X117010889Y-69849954D01*
X117061989Y-69712951D01*
X117068500Y-69652388D01*
X117068500Y-67115112D01*
X117061989Y-67054549D01*
X117061988Y-67054547D01*
X117061988Y-67054544D01*
X117010889Y-66917546D01*
X116923261Y-66800488D01*
X116806203Y-66712860D01*
X116669205Y-66661761D01*
X116638919Y-66658505D01*
X116608638Y-66655250D01*
X115391362Y-66655250D01*
X115364445Y-66658143D01*
X115330794Y-66661761D01*
X115193796Y-66712860D01*
X115076738Y-66800488D01*
X114989110Y-66917546D01*
X114938011Y-67054544D01*
X114934393Y-67088195D01*
X114932214Y-67108478D01*
X114931500Y-67115116D01*
X114931500Y-67626250D01*
X114914887Y-67688250D01*
X114869500Y-67733637D01*
X114807500Y-67750250D01*
X113949878Y-67750250D01*
X113929142Y-67747961D01*
X113926341Y-67748049D01*
X113858251Y-67750189D01*
X113854356Y-67750250D01*
X113826394Y-67750250D01*
X113822282Y-67750769D01*
X113810651Y-67751684D01*
X113766360Y-67753076D01*
X113746757Y-67758772D01*
X113727706Y-67762717D01*
X113707453Y-67765275D01*
X113666258Y-67781585D01*
X113655212Y-67785366D01*
X113612655Y-67797731D01*
X113595077Y-67808126D01*
X113577610Y-67816683D01*
X113558634Y-67824196D01*
X113522794Y-67850235D01*
X113513036Y-67856645D01*
X113474887Y-67879207D01*
X113460446Y-67893648D01*
X113445659Y-67906277D01*
X113429142Y-67918278D01*
X113400902Y-67952413D01*
X113393042Y-67961051D01*
X112611180Y-68742913D01*
X112594896Y-68755961D01*
X112546339Y-68807668D01*
X112543633Y-68810461D01*
X112523861Y-68830233D01*
X112521321Y-68833508D01*
X112513752Y-68842369D01*
X112483414Y-68874677D01*
X112473582Y-68892563D01*
X112462901Y-68908823D01*
X112450385Y-68924959D01*
X112432786Y-68965628D01*
X112427648Y-68976117D01*
X112406303Y-69014943D01*
X112401226Y-69034718D01*
X112394925Y-69053123D01*
X112386818Y-69071856D01*
X112379888Y-69115610D01*
X112377520Y-69127046D01*
X112366500Y-69169970D01*
X112366500Y-69190384D01*
X112364973Y-69209783D01*
X112361780Y-69229941D01*
X112365950Y-69274057D01*
X112366500Y-69285726D01*
X112366500Y-74598733D01*
X112357061Y-74646186D01*
X112330183Y-74686411D01*
X112084037Y-74932557D01*
X112036412Y-74980182D01*
X111996184Y-75007061D01*
X111948731Y-75016500D01*
X111612787Y-75016500D01*
X111510618Y-75026937D01*
X111345082Y-75081790D01*
X111196651Y-75173343D01*
X111087681Y-75282314D01*
X111032094Y-75314408D01*
X110967906Y-75314408D01*
X110912319Y-75282314D01*
X110803348Y-75173343D01*
X110714163Y-75118333D01*
X110654920Y-75081791D01*
X110654917Y-75081790D01*
X110489382Y-75026938D01*
X110438296Y-75021718D01*
X110387212Y-75016500D01*
X109787787Y-75016500D01*
X109685618Y-75026937D01*
X109520082Y-75081790D01*
X109371651Y-75173343D01*
X109248343Y-75296651D01*
X109156790Y-75445082D01*
X109101938Y-75610617D01*
X109090858Y-75719072D01*
X109089958Y-75718980D01*
X109082061Y-75758686D01*
X109055181Y-75798914D01*
X108749917Y-76104177D01*
X108711048Y-76130484D01*
X108665186Y-76140461D01*
X108618903Y-76132678D01*
X108509201Y-76091761D01*
X108448638Y-76085250D01*
X107551362Y-76085250D01*
X107524445Y-76088143D01*
X107490794Y-76091761D01*
X107353796Y-76142860D01*
X107274310Y-76202363D01*
X107226358Y-76224262D01*
X107173642Y-76224262D01*
X107125690Y-76202363D01*
X107046203Y-76142860D01*
X106909205Y-76091761D01*
X106878919Y-76088505D01*
X106848638Y-76085250D01*
X105951362Y-76085250D01*
X105924445Y-76088143D01*
X105890794Y-76091761D01*
X105753796Y-76142860D01*
X105636738Y-76230488D01*
X105549110Y-76347546D01*
X105498011Y-76484544D01*
X105491500Y-76545116D01*
X105491500Y-77442384D01*
X105000500Y-77442384D01*
X105000500Y-71067764D01*
X107145787Y-71067764D01*
X107175413Y-71337016D01*
X107243928Y-71599087D01*
X107349871Y-71848392D01*
X107490982Y-72079611D01*
X107580253Y-72186881D01*
X107664255Y-72287820D01*
X107865998Y-72468582D01*
X108091910Y-72618044D01*
X108198211Y-72667875D01*
X108337177Y-72733021D01*
X108596562Y-72811058D01*
X108596569Y-72811060D01*
X108864561Y-72850500D01*
X109067631Y-72850500D01*
X109067634Y-72850500D01*
X109270156Y-72835677D01*
X109270155Y-72835677D01*
X109534553Y-72776780D01*
X109787558Y-72680014D01*
X110023777Y-72547441D01*
X110238177Y-72381888D01*
X110426186Y-72186881D01*
X110583799Y-71966579D01*
X110707656Y-71725675D01*
X110795118Y-71469305D01*
X110844319Y-71202933D01*
X110854212Y-70932235D01*
X110824586Y-70662982D01*
X110756072Y-70400912D01*
X110650130Y-70151610D01*
X110557909Y-70000500D01*
X110509017Y-69920388D01*
X110335746Y-69712181D01*
X110244249Y-69630200D01*
X110134002Y-69531418D01*
X109908090Y-69381956D01*
X109908086Y-69381954D01*
X109662822Y-69266978D01*
X109403437Y-69188941D01*
X109403431Y-69188940D01*
X109135439Y-69149500D01*
X108932369Y-69149500D01*
X108932366Y-69149500D01*
X108729843Y-69164322D01*
X108465449Y-69223219D01*
X108212441Y-69319986D01*
X107976223Y-69452559D01*
X107761825Y-69618109D01*
X107573813Y-69813120D01*
X107416201Y-70033420D01*
X107292342Y-70274329D01*
X107204881Y-70530695D01*
X107155680Y-70797066D01*
X107145787Y-71067764D01*
X105000500Y-71067764D01*
X105000500Y-70002872D01*
X105000632Y-69997146D01*
X105002025Y-69967011D01*
X105008490Y-69827168D01*
X105018166Y-69630200D01*
X105019200Y-69619217D01*
X105044611Y-69437054D01*
X105044722Y-69436286D01*
X105071950Y-69252729D01*
X105073890Y-69242595D01*
X105116526Y-69061318D01*
X105116837Y-69060037D01*
X105161405Y-68882111D01*
X105164091Y-68872922D01*
X105223572Y-68695457D01*
X105224270Y-68693442D01*
X105285699Y-68521759D01*
X105288996Y-68513497D01*
X105364713Y-68342015D01*
X105366051Y-68339089D01*
X105443727Y-68174855D01*
X105447452Y-68167612D01*
X105538864Y-68003497D01*
X105540745Y-68000243D01*
X105634036Y-67844598D01*
X105638034Y-67838363D01*
X105744270Y-67683278D01*
X105746899Y-67679590D01*
X105854909Y-67533954D01*
X105859011Y-67528728D01*
X105979239Y-67383944D01*
X105982577Y-67380097D01*
X106104340Y-67245752D01*
X106108437Y-67241450D01*
X106241450Y-67108437D01*
X106245752Y-67104340D01*
X106380097Y-66982577D01*
X106383944Y-66979239D01*
X106528728Y-66859011D01*
X106533954Y-66854909D01*
X106679590Y-66746899D01*
X106683278Y-66744270D01*
X106838363Y-66638034D01*
X106844598Y-66634036D01*
X107000243Y-66540745D01*
X107003497Y-66538864D01*
X107167612Y-66447452D01*
X107174855Y-66443727D01*
X107339098Y-66366046D01*
X107342018Y-66364712D01*
X107406007Y-66336458D01*
X107513497Y-66288996D01*
X107521759Y-66285699D01*
X107693442Y-66224270D01*
X107695457Y-66223572D01*
X107872922Y-66164091D01*
X107882111Y-66161405D01*
X108060037Y-66116837D01*
X108061318Y-66116526D01*
X108242595Y-66073890D01*
X108252729Y-66071950D01*
X108436286Y-66044722D01*
X108437054Y-66044611D01*
X108619217Y-66019200D01*
X108630200Y-66018166D01*
X108826898Y-66008502D01*
X108991674Y-66000884D01*
X108997146Y-66000632D01*
X109002872Y-66000500D01*
X116997128Y-66000500D01*
X117002854Y-66000632D01*
G37*
%TD.AperFunction*%
%TD*%
M02*
