%TF.GenerationSoftware,KiCad,Pcbnew,7.0.7*%
%TF.CreationDate,2023-09-06T19:49:04-05:00*%
%TF.ProjectId,prog1,70726f67-312e-46b6-9963-61645f706362,1.0*%
%TF.SameCoordinates,Original*%
%TF.FileFunction,Legend,Top*%
%TF.FilePolarity,Positive*%
%FSLAX46Y46*%
G04 Gerber Fmt 4.6, Leading zero omitted, Abs format (unit mm)*
G04 Created by KiCad (PCBNEW 7.0.7) date 2023-09-06 19:49:04*
%MOMM*%
%LPD*%
G01*
G04 APERTURE LIST*
%ADD10C,0.150000*%
%ADD11C,0.120000*%
%ADD12C,0.100000*%
G04 APERTURE END LIST*
D10*
X111666666Y-102254819D02*
X111333333Y-101778628D01*
X111095238Y-102254819D02*
X111095238Y-101254819D01*
X111095238Y-101254819D02*
X111476190Y-101254819D01*
X111476190Y-101254819D02*
X111571428Y-101302438D01*
X111571428Y-101302438D02*
X111619047Y-101350057D01*
X111619047Y-101350057D02*
X111666666Y-101445295D01*
X111666666Y-101445295D02*
X111666666Y-101588152D01*
X111666666Y-101588152D02*
X111619047Y-101683390D01*
X111619047Y-101683390D02*
X111571428Y-101731009D01*
X111571428Y-101731009D02*
X111476190Y-101778628D01*
X111476190Y-101778628D02*
X111095238Y-101778628D01*
X112095238Y-101731009D02*
X112428571Y-101731009D01*
X112571428Y-102254819D02*
X112095238Y-102254819D01*
X112095238Y-102254819D02*
X112095238Y-101254819D01*
X112095238Y-101254819D02*
X112571428Y-101254819D01*
X113333333Y-101731009D02*
X113000000Y-101731009D01*
X113000000Y-102254819D02*
X113000000Y-101254819D01*
X113000000Y-101254819D02*
X113476190Y-101254819D01*
X114000000Y-101254819D02*
X114000000Y-101492914D01*
X113761905Y-101397676D02*
X114000000Y-101492914D01*
X114000000Y-101492914D02*
X114238095Y-101397676D01*
X113857143Y-101683390D02*
X114000000Y-101492914D01*
X114000000Y-101492914D02*
X114142857Y-101683390D01*
X114761905Y-101254819D02*
X114761905Y-101492914D01*
X114523810Y-101397676D02*
X114761905Y-101492914D01*
X114761905Y-101492914D02*
X115000000Y-101397676D01*
X114619048Y-101683390D02*
X114761905Y-101492914D01*
X114761905Y-101492914D02*
X114904762Y-101683390D01*
X103666666Y-90234819D02*
X103333333Y-89758628D01*
X103095238Y-90234819D02*
X103095238Y-89234819D01*
X103095238Y-89234819D02*
X103476190Y-89234819D01*
X103476190Y-89234819D02*
X103571428Y-89282438D01*
X103571428Y-89282438D02*
X103619047Y-89330057D01*
X103619047Y-89330057D02*
X103666666Y-89425295D01*
X103666666Y-89425295D02*
X103666666Y-89568152D01*
X103666666Y-89568152D02*
X103619047Y-89663390D01*
X103619047Y-89663390D02*
X103571428Y-89711009D01*
X103571428Y-89711009D02*
X103476190Y-89758628D01*
X103476190Y-89758628D02*
X103095238Y-89758628D01*
X104095238Y-89711009D02*
X104428571Y-89711009D01*
X104571428Y-90234819D02*
X104095238Y-90234819D01*
X104095238Y-90234819D02*
X104095238Y-89234819D01*
X104095238Y-89234819D02*
X104571428Y-89234819D01*
X105333333Y-89711009D02*
X105000000Y-89711009D01*
X105000000Y-90234819D02*
X105000000Y-89234819D01*
X105000000Y-89234819D02*
X105476190Y-89234819D01*
X106000000Y-89234819D02*
X106000000Y-89472914D01*
X105761905Y-89377676D02*
X106000000Y-89472914D01*
X106000000Y-89472914D02*
X106238095Y-89377676D01*
X105857143Y-89663390D02*
X106000000Y-89472914D01*
X106000000Y-89472914D02*
X106142857Y-89663390D01*
X106761905Y-89234819D02*
X106761905Y-89472914D01*
X106523810Y-89377676D02*
X106761905Y-89472914D01*
X106761905Y-89472914D02*
X107000000Y-89377676D01*
X106619048Y-89663390D02*
X106761905Y-89472914D01*
X106761905Y-89472914D02*
X106904762Y-89663390D01*
X109297200Y-96333332D02*
X109344819Y-96190475D01*
X109344819Y-96190475D02*
X109344819Y-95952380D01*
X109344819Y-95952380D02*
X109297200Y-95857142D01*
X109297200Y-95857142D02*
X109249580Y-95809523D01*
X109249580Y-95809523D02*
X109154342Y-95761904D01*
X109154342Y-95761904D02*
X109059104Y-95761904D01*
X109059104Y-95761904D02*
X108963866Y-95809523D01*
X108963866Y-95809523D02*
X108916247Y-95857142D01*
X108916247Y-95857142D02*
X108868628Y-95952380D01*
X108868628Y-95952380D02*
X108821009Y-96142856D01*
X108821009Y-96142856D02*
X108773390Y-96238094D01*
X108773390Y-96238094D02*
X108725771Y-96285713D01*
X108725771Y-96285713D02*
X108630533Y-96333332D01*
X108630533Y-96333332D02*
X108535295Y-96333332D01*
X108535295Y-96333332D02*
X108440057Y-96285713D01*
X108440057Y-96285713D02*
X108392438Y-96238094D01*
X108392438Y-96238094D02*
X108344819Y-96142856D01*
X108344819Y-96142856D02*
X108344819Y-95904761D01*
X108344819Y-95904761D02*
X108392438Y-95761904D01*
X108344819Y-95428570D02*
X109344819Y-95190475D01*
X109344819Y-95190475D02*
X108630533Y-94999999D01*
X108630533Y-94999999D02*
X109344819Y-94809523D01*
X109344819Y-94809523D02*
X108344819Y-94571428D01*
X109344819Y-93666666D02*
X109344819Y-94238094D01*
X109344819Y-93952380D02*
X108344819Y-93952380D01*
X108344819Y-93952380D02*
X108487676Y-94047618D01*
X108487676Y-94047618D02*
X108582914Y-94142856D01*
X108582914Y-94142856D02*
X108630533Y-94238094D01*
X106833333Y-100884819D02*
X106500000Y-100408628D01*
X106261905Y-100884819D02*
X106261905Y-99884819D01*
X106261905Y-99884819D02*
X106642857Y-99884819D01*
X106642857Y-99884819D02*
X106738095Y-99932438D01*
X106738095Y-99932438D02*
X106785714Y-99980057D01*
X106785714Y-99980057D02*
X106833333Y-100075295D01*
X106833333Y-100075295D02*
X106833333Y-100218152D01*
X106833333Y-100218152D02*
X106785714Y-100313390D01*
X106785714Y-100313390D02*
X106738095Y-100361009D01*
X106738095Y-100361009D02*
X106642857Y-100408628D01*
X106642857Y-100408628D02*
X106261905Y-100408628D01*
X107785714Y-100884819D02*
X107214286Y-100884819D01*
X107500000Y-100884819D02*
X107500000Y-99884819D01*
X107500000Y-99884819D02*
X107404762Y-100027676D01*
X107404762Y-100027676D02*
X107309524Y-100122914D01*
X107309524Y-100122914D02*
X107214286Y-100170533D01*
X105330666Y-100998819D02*
X105330666Y-101713104D01*
X105330666Y-101713104D02*
X105283047Y-101855961D01*
X105283047Y-101855961D02*
X105187809Y-101951200D01*
X105187809Y-101951200D02*
X105044952Y-101998819D01*
X105044952Y-101998819D02*
X104949714Y-101998819D01*
X106330666Y-101998819D02*
X105759238Y-101998819D01*
X106044952Y-101998819D02*
X106044952Y-100998819D01*
X106044952Y-100998819D02*
X105949714Y-101141676D01*
X105949714Y-101141676D02*
X105854476Y-101236914D01*
X105854476Y-101236914D02*
X105759238Y-101284533D01*
X101877905Y-98772819D02*
X101877905Y-97772819D01*
X101877905Y-97772819D02*
X102116000Y-97772819D01*
X102116000Y-97772819D02*
X102258857Y-97820438D01*
X102258857Y-97820438D02*
X102354095Y-97915676D01*
X102354095Y-97915676D02*
X102401714Y-98010914D01*
X102401714Y-98010914D02*
X102449333Y-98201390D01*
X102449333Y-98201390D02*
X102449333Y-98344247D01*
X102449333Y-98344247D02*
X102401714Y-98534723D01*
X102401714Y-98534723D02*
X102354095Y-98629961D01*
X102354095Y-98629961D02*
X102258857Y-98725200D01*
X102258857Y-98725200D02*
X102116000Y-98772819D01*
X102116000Y-98772819D02*
X101877905Y-98772819D01*
X103401714Y-98772819D02*
X102830286Y-98772819D01*
X103116000Y-98772819D02*
X103116000Y-97772819D01*
X103116000Y-97772819D02*
X103020762Y-97915676D01*
X103020762Y-97915676D02*
X102925524Y-98010914D01*
X102925524Y-98010914D02*
X102830286Y-98058533D01*
D11*
%TO.C,SW1*%
X112800000Y-98410000D02*
X114110000Y-98410000D01*
X112565000Y-96810000D02*
X112565000Y-95603333D01*
X109650000Y-98650000D02*
X109650000Y-97267000D01*
X112205000Y-96810000D02*
X112205000Y-95603333D01*
X111845000Y-96810000D02*
X111845000Y-95603333D01*
X112635000Y-96810000D02*
X112635000Y-93190000D01*
X111365000Y-96810000D02*
X112635000Y-96810000D01*
X111725000Y-96810000D02*
X111725000Y-95603333D01*
X109890000Y-98410000D02*
X109890000Y-91590000D01*
X111965000Y-96810000D02*
X111965000Y-95603333D01*
X111605000Y-96810000D02*
X111605000Y-95603333D01*
X112325000Y-96810000D02*
X112325000Y-95603333D01*
X109650000Y-98650000D02*
X111033000Y-98650000D01*
X109890000Y-98410000D02*
X111200000Y-98410000D01*
X109890000Y-91590000D02*
X111200000Y-91590000D01*
X111485000Y-96810000D02*
X111485000Y-95603333D01*
X112085000Y-96810000D02*
X112085000Y-95603333D01*
X111365000Y-95603333D02*
X112635000Y-95603333D01*
X112635000Y-93190000D02*
X111365000Y-93190000D01*
X114110000Y-98410000D02*
X114110000Y-91590000D01*
X111365000Y-93190000D02*
X111365000Y-96810000D01*
X112445000Y-96810000D02*
X112445000Y-95603333D01*
X112800000Y-91590000D02*
X114110000Y-91590000D01*
%TO.C,R1*%
X107254724Y-98477500D02*
X106745276Y-98477500D01*
X107254724Y-99522500D02*
X106745276Y-99522500D01*
%TO.C,J1*%
X104644000Y-107124000D02*
X106684000Y-107124000D01*
X107734000Y-103234000D02*
X107734000Y-102634000D01*
X108314000Y-108654000D02*
X108314000Y-102634000D01*
X103594000Y-102634000D02*
X103594000Y-103234000D01*
X108314000Y-102634000D02*
X103014000Y-102634000D01*
X104394000Y-107654000D02*
X104644000Y-107124000D01*
X104644000Y-108654000D02*
X104644000Y-107654000D01*
X104394000Y-108654000D02*
X104394000Y-107654000D01*
X104394000Y-107654000D02*
X106934000Y-107654000D01*
X106684000Y-107124000D02*
X106934000Y-107654000D01*
X106134000Y-103234000D02*
X107734000Y-103234000D01*
X103594000Y-103234000D02*
X105194000Y-103234000D01*
X106684000Y-108654000D02*
X106684000Y-107654000D01*
X106934000Y-107654000D02*
X106934000Y-108654000D01*
X106134000Y-102634000D02*
X106134000Y-103234000D01*
X103014000Y-102634000D02*
X103014000Y-108654000D01*
X102724000Y-103664000D02*
X102724000Y-107664000D01*
X105194000Y-103234000D02*
X105194000Y-102634000D01*
X103014000Y-108654000D02*
X108314000Y-108654000D01*
%TO.C,D1*%
X101316000Y-99068000D02*
X103416000Y-99068000D01*
X101316000Y-100068000D02*
X103416000Y-100068000D01*
D12*
X102766000Y-99368000D02*
X102766000Y-99768000D01*
X102766000Y-99768000D02*
X102466000Y-99568000D01*
X102466000Y-99568000D02*
X102766000Y-99368000D01*
X102416000Y-99368000D02*
X102416000Y-99768000D01*
D11*
X101316000Y-99068000D02*
X101316000Y-100068000D01*
%TD*%
M02*
