G04 #@! TF.GenerationSoftware,KiCad,Pcbnew,8.0.9*
G04 #@! TF.CreationDate,2025-10-02T23:30:04-05:00*
G04 #@! TF.ProjectId,neha_horns_onboarding,6e656861-5f68-46f7-926e-735f6f6e626f,rev?*
G04 #@! TF.SameCoordinates,Original*
G04 #@! TF.FileFunction,Soldermask,Top*
G04 #@! TF.FilePolarity,Negative*
%FSLAX46Y46*%
G04 Gerber Fmt 4.6, Leading zero omitted, Abs format (unit mm)*
G04 Created by KiCad (PCBNEW 8.0.9) date 2025-10-02 23:30:04*
%MOMM*%
%LPD*%
G01*
G04 APERTURE LIST*
G04 Aperture macros list*
%AMRoundRect*
0 Rectangle with rounded corners*
0 $1 Rounding radius*
0 $2 $3 $4 $5 $6 $7 $8 $9 X,Y pos of 4 corners*
0 Add a 4 corners polygon primitive as box body*
4,1,4,$2,$3,$4,$5,$6,$7,$8,$9,$2,$3,0*
0 Add four circle primitives for the rounded corners*
1,1,$1+$1,$2,$3*
1,1,$1+$1,$4,$5*
1,1,$1+$1,$6,$7*
1,1,$1+$1,$8,$9*
0 Add four rect primitives between the rounded corners*
20,1,$1+$1,$2,$3,$4,$5,0*
20,1,$1+$1,$4,$5,$6,$7,0*
20,1,$1+$1,$6,$7,$8,$9,0*
20,1,$1+$1,$8,$9,$2,$3,0*%
G04 Aperture macros list end*
%ADD10RoundRect,0.237500X0.300000X0.237500X-0.300000X0.237500X-0.300000X-0.237500X0.300000X-0.237500X0*%
%ADD11RoundRect,0.237500X-0.287500X-0.237500X0.287500X-0.237500X0.287500X0.237500X-0.287500X0.237500X0*%
%ADD12C,3.000000*%
%ADD13RoundRect,0.250001X-0.499999X-0.759999X0.499999X-0.759999X0.499999X0.759999X-0.499999X0.759999X0*%
%ADD14O,1.500000X2.020000*%
%ADD15RoundRect,0.237500X-0.300000X-0.237500X0.300000X-0.237500X0.300000X0.237500X-0.300000X0.237500X0*%
%ADD16R,1.905000X2.000000*%
%ADD17O,1.905000X2.000000*%
%ADD18RoundRect,0.237500X-0.250000X-0.237500X0.250000X-0.237500X0.250000X0.237500X-0.250000X0.237500X0*%
%ADD19RoundRect,0.237500X0.287500X0.237500X-0.287500X0.237500X-0.287500X-0.237500X0.287500X-0.237500X0*%
G04 APERTURE END LIST*
D10*
X172100000Y-96645000D03*
X170375000Y-96645000D03*
D11*
X170500000Y-104027500D03*
X172250000Y-104027500D03*
D12*
X159825000Y-88650000D03*
D13*
X156825000Y-92970000D03*
D14*
X159825000Y-92970000D03*
X162825000Y-92970000D03*
D10*
X172100000Y-101665000D03*
X170375000Y-101665000D03*
X172137500Y-85252500D03*
X170412500Y-85252500D03*
D15*
X170387500Y-89565000D03*
X172112500Y-89565000D03*
D16*
X153150000Y-109275000D03*
D17*
X155690000Y-109275000D03*
X158230000Y-109275000D03*
D10*
X172100000Y-91625000D03*
X170375000Y-91625000D03*
D12*
X155775000Y-99850000D03*
D13*
X154275000Y-104170000D03*
D14*
X157275000Y-104170000D03*
D12*
X171225000Y-110455000D03*
D13*
X169725000Y-114775000D03*
D14*
X172725000Y-114775000D03*
D18*
X163425000Y-97000000D03*
X165250000Y-97000000D03*
D15*
X170425000Y-87290000D03*
X172150000Y-87290000D03*
D10*
X172100000Y-99155000D03*
X170375000Y-99155000D03*
D19*
X165200000Y-103700000D03*
X163450000Y-103700000D03*
D12*
X159265000Y-116025000D03*
D13*
X157765000Y-120345000D03*
D14*
X160765000Y-120345000D03*
D10*
X172100000Y-94135000D03*
X170375000Y-94135000D03*
D15*
X163537500Y-100250000D03*
X165262500Y-100250000D03*
M02*
