%TF.GenerationSoftware,KiCad,Pcbnew,8.0.9*%
%TF.CreationDate,2025-10-02T23:31:37-05:00*%
%TF.ProjectId,neha_horns_onboarding,6e656861-5f68-46f7-926e-735f6f6e626f,rev?*%
%TF.SameCoordinates,Original*%
%TF.FileFunction,Drillmap*%
%TF.FilePolarity,Positive*%
%FSLAX45Y45*%
G04 Gerber Fmt 4.5, Leading zero omitted, Abs format (unit mm)*
G04 Created by KiCad (PCBNEW 8.0.9) date 2025-10-02 23:31:37*
%MOMM*%
%LPD*%
G01*
G04 APERTURE LIST*
%ADD10C,0.050000*%
%ADD11C,0.200000*%
%ADD12C,0.300000*%
G04 APERTURE END LIST*
D10*
X14942386Y-8813813D02*
X14940006Y-11673902D01*
X17682882Y-11742562D02*
G75*
G02*
X17147500Y-12210000I-550382J90062D01*
G01*
X17683723Y-8720163D02*
X17682882Y-11742562D01*
X15470000Y-12210000D02*
G75*
G02*
X14940006Y-11673902I2500J532500D01*
G01*
X15470000Y-12210000D02*
X17147500Y-12210000D01*
X17220000Y-8307500D02*
G75*
G02*
X17683722Y-8720163I-5000J-472500D01*
G01*
X15480000Y-8307500D02*
X17220000Y-8307500D01*
X14942386Y-8813813D02*
G75*
G02*
X15480000Y-8307500I520114J-13687D01*
G01*
D11*
D12*
X15427500Y-9835000D02*
X15727500Y-10135000D01*
X15727500Y-9835000D02*
X15427500Y-10135000D01*
X15776500Y-11452500D02*
X16076500Y-11752500D01*
X16076500Y-11452500D02*
X15776500Y-11752500D01*
X15832500Y-8715000D02*
X16132500Y-9015000D01*
X16132500Y-8715000D02*
X15832500Y-9015000D01*
X16972500Y-10895500D02*
X17272500Y-11195500D01*
X17272500Y-10895500D02*
X16972500Y-11195500D01*
D11*
X15198271Y-12523984D02*
X15198271Y-12323984D01*
X15198271Y-12323984D02*
X15245890Y-12323984D01*
X15245890Y-12323984D02*
X15274461Y-12333507D01*
X15274461Y-12333507D02*
X15293509Y-12352555D01*
X15293509Y-12352555D02*
X15303033Y-12371603D01*
X15303033Y-12371603D02*
X15312557Y-12409698D01*
X15312557Y-12409698D02*
X15312557Y-12438269D01*
X15312557Y-12438269D02*
X15303033Y-12476365D01*
X15303033Y-12476365D02*
X15293509Y-12495412D01*
X15293509Y-12495412D02*
X15274461Y-12514460D01*
X15274461Y-12514460D02*
X15245890Y-12523984D01*
X15245890Y-12523984D02*
X15198271Y-12523984D01*
X15398271Y-12523984D02*
X15398271Y-12390650D01*
X15398271Y-12428746D02*
X15407795Y-12409698D01*
X15407795Y-12409698D02*
X15417319Y-12400174D01*
X15417319Y-12400174D02*
X15436366Y-12390650D01*
X15436366Y-12390650D02*
X15455414Y-12390650D01*
X15522080Y-12523984D02*
X15522080Y-12390650D01*
X15522080Y-12323984D02*
X15512557Y-12333507D01*
X15512557Y-12333507D02*
X15522080Y-12343031D01*
X15522080Y-12343031D02*
X15531604Y-12333507D01*
X15531604Y-12333507D02*
X15522080Y-12323984D01*
X15522080Y-12323984D02*
X15522080Y-12343031D01*
X15645890Y-12523984D02*
X15626842Y-12514460D01*
X15626842Y-12514460D02*
X15617319Y-12495412D01*
X15617319Y-12495412D02*
X15617319Y-12323984D01*
X15750652Y-12523984D02*
X15731604Y-12514460D01*
X15731604Y-12514460D02*
X15722080Y-12495412D01*
X15722080Y-12495412D02*
X15722080Y-12323984D01*
X15979223Y-12523984D02*
X15979223Y-12323984D01*
X15979223Y-12323984D02*
X16045890Y-12466841D01*
X16045890Y-12466841D02*
X16112557Y-12323984D01*
X16112557Y-12323984D02*
X16112557Y-12523984D01*
X16293509Y-12523984D02*
X16293509Y-12419222D01*
X16293509Y-12419222D02*
X16283985Y-12400174D01*
X16283985Y-12400174D02*
X16264938Y-12390650D01*
X16264938Y-12390650D02*
X16226842Y-12390650D01*
X16226842Y-12390650D02*
X16207795Y-12400174D01*
X16293509Y-12514460D02*
X16274461Y-12523984D01*
X16274461Y-12523984D02*
X16226842Y-12523984D01*
X16226842Y-12523984D02*
X16207795Y-12514460D01*
X16207795Y-12514460D02*
X16198271Y-12495412D01*
X16198271Y-12495412D02*
X16198271Y-12476365D01*
X16198271Y-12476365D02*
X16207795Y-12457317D01*
X16207795Y-12457317D02*
X16226842Y-12447793D01*
X16226842Y-12447793D02*
X16274461Y-12447793D01*
X16274461Y-12447793D02*
X16293509Y-12438269D01*
X16388747Y-12390650D02*
X16388747Y-12590650D01*
X16388747Y-12400174D02*
X16407795Y-12390650D01*
X16407795Y-12390650D02*
X16445890Y-12390650D01*
X16445890Y-12390650D02*
X16464938Y-12400174D01*
X16464938Y-12400174D02*
X16474461Y-12409698D01*
X16474461Y-12409698D02*
X16483985Y-12428746D01*
X16483985Y-12428746D02*
X16483985Y-12485888D01*
X16483985Y-12485888D02*
X16474461Y-12504936D01*
X16474461Y-12504936D02*
X16464938Y-12514460D01*
X16464938Y-12514460D02*
X16445890Y-12523984D01*
X16445890Y-12523984D02*
X16407795Y-12523984D01*
X16407795Y-12523984D02*
X16388747Y-12514460D01*
X16569700Y-12504936D02*
X16579223Y-12514460D01*
X16579223Y-12514460D02*
X16569700Y-12523984D01*
X16569700Y-12523984D02*
X16560176Y-12514460D01*
X16560176Y-12514460D02*
X16569700Y-12504936D01*
X16569700Y-12504936D02*
X16569700Y-12523984D01*
X16569700Y-12400174D02*
X16579223Y-12409698D01*
X16579223Y-12409698D02*
X16569700Y-12419222D01*
X16569700Y-12419222D02*
X16560176Y-12409698D01*
X16560176Y-12409698D02*
X16569700Y-12400174D01*
X16569700Y-12400174D02*
X16569700Y-12419222D01*
X14737494Y-12752500D02*
X14937494Y-12952500D01*
X14937494Y-12752500D02*
X14737494Y-12952500D01*
X15179223Y-12743984D02*
X15303033Y-12743984D01*
X15303033Y-12743984D02*
X15236366Y-12820174D01*
X15236366Y-12820174D02*
X15264938Y-12820174D01*
X15264938Y-12820174D02*
X15283985Y-12829698D01*
X15283985Y-12829698D02*
X15293509Y-12839222D01*
X15293509Y-12839222D02*
X15303033Y-12858269D01*
X15303033Y-12858269D02*
X15303033Y-12905888D01*
X15303033Y-12905888D02*
X15293509Y-12924936D01*
X15293509Y-12924936D02*
X15283985Y-12934460D01*
X15283985Y-12934460D02*
X15264938Y-12943984D01*
X15264938Y-12943984D02*
X15207795Y-12943984D01*
X15207795Y-12943984D02*
X15188747Y-12934460D01*
X15188747Y-12934460D02*
X15179223Y-12924936D01*
X15388747Y-12924936D02*
X15398271Y-12934460D01*
X15398271Y-12934460D02*
X15388747Y-12943984D01*
X15388747Y-12943984D02*
X15379223Y-12934460D01*
X15379223Y-12934460D02*
X15388747Y-12924936D01*
X15388747Y-12924936D02*
X15388747Y-12943984D01*
X15522080Y-12743984D02*
X15541128Y-12743984D01*
X15541128Y-12743984D02*
X15560176Y-12753507D01*
X15560176Y-12753507D02*
X15569700Y-12763031D01*
X15569700Y-12763031D02*
X15579223Y-12782079D01*
X15579223Y-12782079D02*
X15588747Y-12820174D01*
X15588747Y-12820174D02*
X15588747Y-12867793D01*
X15588747Y-12867793D02*
X15579223Y-12905888D01*
X15579223Y-12905888D02*
X15569700Y-12924936D01*
X15569700Y-12924936D02*
X15560176Y-12934460D01*
X15560176Y-12934460D02*
X15541128Y-12943984D01*
X15541128Y-12943984D02*
X15522080Y-12943984D01*
X15522080Y-12943984D02*
X15503033Y-12934460D01*
X15503033Y-12934460D02*
X15493509Y-12924936D01*
X15493509Y-12924936D02*
X15483985Y-12905888D01*
X15483985Y-12905888D02*
X15474461Y-12867793D01*
X15474461Y-12867793D02*
X15474461Y-12820174D01*
X15474461Y-12820174D02*
X15483985Y-12782079D01*
X15483985Y-12782079D02*
X15493509Y-12763031D01*
X15493509Y-12763031D02*
X15503033Y-12753507D01*
X15503033Y-12753507D02*
X15522080Y-12743984D01*
X15712557Y-12743984D02*
X15731604Y-12743984D01*
X15731604Y-12743984D02*
X15750652Y-12753507D01*
X15750652Y-12753507D02*
X15760176Y-12763031D01*
X15760176Y-12763031D02*
X15769700Y-12782079D01*
X15769700Y-12782079D02*
X15779223Y-12820174D01*
X15779223Y-12820174D02*
X15779223Y-12867793D01*
X15779223Y-12867793D02*
X15769700Y-12905888D01*
X15769700Y-12905888D02*
X15760176Y-12924936D01*
X15760176Y-12924936D02*
X15750652Y-12934460D01*
X15750652Y-12934460D02*
X15731604Y-12943984D01*
X15731604Y-12943984D02*
X15712557Y-12943984D01*
X15712557Y-12943984D02*
X15693509Y-12934460D01*
X15693509Y-12934460D02*
X15683985Y-12924936D01*
X15683985Y-12924936D02*
X15674461Y-12905888D01*
X15674461Y-12905888D02*
X15664938Y-12867793D01*
X15664938Y-12867793D02*
X15664938Y-12820174D01*
X15664938Y-12820174D02*
X15674461Y-12782079D01*
X15674461Y-12782079D02*
X15683985Y-12763031D01*
X15683985Y-12763031D02*
X15693509Y-12753507D01*
X15693509Y-12753507D02*
X15712557Y-12743984D01*
X15903033Y-12743984D02*
X15922081Y-12743984D01*
X15922081Y-12743984D02*
X15941128Y-12753507D01*
X15941128Y-12753507D02*
X15950652Y-12763031D01*
X15950652Y-12763031D02*
X15960176Y-12782079D01*
X15960176Y-12782079D02*
X15969700Y-12820174D01*
X15969700Y-12820174D02*
X15969700Y-12867793D01*
X15969700Y-12867793D02*
X15960176Y-12905888D01*
X15960176Y-12905888D02*
X15950652Y-12924936D01*
X15950652Y-12924936D02*
X15941128Y-12934460D01*
X15941128Y-12934460D02*
X15922081Y-12943984D01*
X15922081Y-12943984D02*
X15903033Y-12943984D01*
X15903033Y-12943984D02*
X15883985Y-12934460D01*
X15883985Y-12934460D02*
X15874461Y-12924936D01*
X15874461Y-12924936D02*
X15864938Y-12905888D01*
X15864938Y-12905888D02*
X15855414Y-12867793D01*
X15855414Y-12867793D02*
X15855414Y-12820174D01*
X15855414Y-12820174D02*
X15864938Y-12782079D01*
X15864938Y-12782079D02*
X15874461Y-12763031D01*
X15874461Y-12763031D02*
X15883985Y-12753507D01*
X15883985Y-12753507D02*
X15903033Y-12743984D01*
X16055414Y-12943984D02*
X16055414Y-12810650D01*
X16055414Y-12829698D02*
X16064938Y-12820174D01*
X16064938Y-12820174D02*
X16083985Y-12810650D01*
X16083985Y-12810650D02*
X16112557Y-12810650D01*
X16112557Y-12810650D02*
X16131604Y-12820174D01*
X16131604Y-12820174D02*
X16141128Y-12839222D01*
X16141128Y-12839222D02*
X16141128Y-12943984D01*
X16141128Y-12839222D02*
X16150652Y-12820174D01*
X16150652Y-12820174D02*
X16169700Y-12810650D01*
X16169700Y-12810650D02*
X16198271Y-12810650D01*
X16198271Y-12810650D02*
X16217319Y-12820174D01*
X16217319Y-12820174D02*
X16226842Y-12839222D01*
X16226842Y-12839222D02*
X16226842Y-12943984D01*
X16322081Y-12943984D02*
X16322081Y-12810650D01*
X16322081Y-12829698D02*
X16331604Y-12820174D01*
X16331604Y-12820174D02*
X16350652Y-12810650D01*
X16350652Y-12810650D02*
X16379223Y-12810650D01*
X16379223Y-12810650D02*
X16398271Y-12820174D01*
X16398271Y-12820174D02*
X16407795Y-12839222D01*
X16407795Y-12839222D02*
X16407795Y-12943984D01*
X16407795Y-12839222D02*
X16417319Y-12820174D01*
X16417319Y-12820174D02*
X16436366Y-12810650D01*
X16436366Y-12810650D02*
X16464938Y-12810650D01*
X16464938Y-12810650D02*
X16483985Y-12820174D01*
X16483985Y-12820174D02*
X16493509Y-12839222D01*
X16493509Y-12839222D02*
X16493509Y-12943984D01*
X16883985Y-12734460D02*
X16712557Y-12991603D01*
X17141128Y-12743984D02*
X17160176Y-12743984D01*
X17160176Y-12743984D02*
X17179224Y-12753507D01*
X17179224Y-12753507D02*
X17188747Y-12763031D01*
X17188747Y-12763031D02*
X17198271Y-12782079D01*
X17198271Y-12782079D02*
X17207795Y-12820174D01*
X17207795Y-12820174D02*
X17207795Y-12867793D01*
X17207795Y-12867793D02*
X17198271Y-12905888D01*
X17198271Y-12905888D02*
X17188747Y-12924936D01*
X17188747Y-12924936D02*
X17179224Y-12934460D01*
X17179224Y-12934460D02*
X17160176Y-12943984D01*
X17160176Y-12943984D02*
X17141128Y-12943984D01*
X17141128Y-12943984D02*
X17122081Y-12934460D01*
X17122081Y-12934460D02*
X17112557Y-12924936D01*
X17112557Y-12924936D02*
X17103033Y-12905888D01*
X17103033Y-12905888D02*
X17093509Y-12867793D01*
X17093509Y-12867793D02*
X17093509Y-12820174D01*
X17093509Y-12820174D02*
X17103033Y-12782079D01*
X17103033Y-12782079D02*
X17112557Y-12763031D01*
X17112557Y-12763031D02*
X17122081Y-12753507D01*
X17122081Y-12753507D02*
X17141128Y-12743984D01*
X17293509Y-12924936D02*
X17303033Y-12934460D01*
X17303033Y-12934460D02*
X17293509Y-12943984D01*
X17293509Y-12943984D02*
X17283986Y-12934460D01*
X17283986Y-12934460D02*
X17293509Y-12924936D01*
X17293509Y-12924936D02*
X17293509Y-12943984D01*
X17493509Y-12943984D02*
X17379224Y-12943984D01*
X17436366Y-12943984D02*
X17436366Y-12743984D01*
X17436366Y-12743984D02*
X17417319Y-12772555D01*
X17417319Y-12772555D02*
X17398271Y-12791603D01*
X17398271Y-12791603D02*
X17379224Y-12801126D01*
X17683986Y-12943984D02*
X17569700Y-12943984D01*
X17626843Y-12943984D02*
X17626843Y-12743984D01*
X17626843Y-12743984D02*
X17607795Y-12772555D01*
X17607795Y-12772555D02*
X17588747Y-12791603D01*
X17588747Y-12791603D02*
X17569700Y-12801126D01*
X17798271Y-12829698D02*
X17779224Y-12820174D01*
X17779224Y-12820174D02*
X17769700Y-12810650D01*
X17769700Y-12810650D02*
X17760176Y-12791603D01*
X17760176Y-12791603D02*
X17760176Y-12782079D01*
X17760176Y-12782079D02*
X17769700Y-12763031D01*
X17769700Y-12763031D02*
X17779224Y-12753507D01*
X17779224Y-12753507D02*
X17798271Y-12743984D01*
X17798271Y-12743984D02*
X17836367Y-12743984D01*
X17836367Y-12743984D02*
X17855414Y-12753507D01*
X17855414Y-12753507D02*
X17864938Y-12763031D01*
X17864938Y-12763031D02*
X17874462Y-12782079D01*
X17874462Y-12782079D02*
X17874462Y-12791603D01*
X17874462Y-12791603D02*
X17864938Y-12810650D01*
X17864938Y-12810650D02*
X17855414Y-12820174D01*
X17855414Y-12820174D02*
X17836367Y-12829698D01*
X17836367Y-12829698D02*
X17798271Y-12829698D01*
X17798271Y-12829698D02*
X17779224Y-12839222D01*
X17779224Y-12839222D02*
X17769700Y-12848746D01*
X17769700Y-12848746D02*
X17760176Y-12867793D01*
X17760176Y-12867793D02*
X17760176Y-12905888D01*
X17760176Y-12905888D02*
X17769700Y-12924936D01*
X17769700Y-12924936D02*
X17779224Y-12934460D01*
X17779224Y-12934460D02*
X17798271Y-12943984D01*
X17798271Y-12943984D02*
X17836367Y-12943984D01*
X17836367Y-12943984D02*
X17855414Y-12934460D01*
X17855414Y-12934460D02*
X17864938Y-12924936D01*
X17864938Y-12924936D02*
X17874462Y-12905888D01*
X17874462Y-12905888D02*
X17874462Y-12867793D01*
X17874462Y-12867793D02*
X17864938Y-12848746D01*
X17864938Y-12848746D02*
X17855414Y-12839222D01*
X17855414Y-12839222D02*
X17836367Y-12829698D01*
X18064938Y-12943984D02*
X17950652Y-12943984D01*
X18007795Y-12943984D02*
X18007795Y-12743984D01*
X18007795Y-12743984D02*
X17988747Y-12772555D01*
X17988747Y-12772555D02*
X17969700Y-12791603D01*
X17969700Y-12791603D02*
X17950652Y-12801126D01*
X18141128Y-12743984D02*
X18141128Y-12782079D01*
X18217319Y-12743984D02*
X18217319Y-12782079D01*
X18512557Y-13020174D02*
X18503033Y-13010650D01*
X18503033Y-13010650D02*
X18483986Y-12982079D01*
X18483986Y-12982079D02*
X18474462Y-12963031D01*
X18474462Y-12963031D02*
X18464938Y-12934460D01*
X18464938Y-12934460D02*
X18455414Y-12886841D01*
X18455414Y-12886841D02*
X18455414Y-12848746D01*
X18455414Y-12848746D02*
X18464938Y-12801126D01*
X18464938Y-12801126D02*
X18474462Y-12772555D01*
X18474462Y-12772555D02*
X18483986Y-12753507D01*
X18483986Y-12753507D02*
X18503033Y-12724936D01*
X18503033Y-12724936D02*
X18512557Y-12715412D01*
X18674462Y-12810650D02*
X18674462Y-12943984D01*
X18626843Y-12734460D02*
X18579224Y-12877317D01*
X18579224Y-12877317D02*
X18703033Y-12877317D01*
X18931605Y-12943984D02*
X18931605Y-12743984D01*
X19017319Y-12943984D02*
X19017319Y-12839222D01*
X19017319Y-12839222D02*
X19007795Y-12820174D01*
X19007795Y-12820174D02*
X18988748Y-12810650D01*
X18988748Y-12810650D02*
X18960176Y-12810650D01*
X18960176Y-12810650D02*
X18941129Y-12820174D01*
X18941129Y-12820174D02*
X18931605Y-12829698D01*
X19141129Y-12943984D02*
X19122081Y-12934460D01*
X19122081Y-12934460D02*
X19112557Y-12924936D01*
X19112557Y-12924936D02*
X19103033Y-12905888D01*
X19103033Y-12905888D02*
X19103033Y-12848746D01*
X19103033Y-12848746D02*
X19112557Y-12829698D01*
X19112557Y-12829698D02*
X19122081Y-12820174D01*
X19122081Y-12820174D02*
X19141129Y-12810650D01*
X19141129Y-12810650D02*
X19169700Y-12810650D01*
X19169700Y-12810650D02*
X19188748Y-12820174D01*
X19188748Y-12820174D02*
X19198271Y-12829698D01*
X19198271Y-12829698D02*
X19207795Y-12848746D01*
X19207795Y-12848746D02*
X19207795Y-12905888D01*
X19207795Y-12905888D02*
X19198271Y-12924936D01*
X19198271Y-12924936D02*
X19188748Y-12934460D01*
X19188748Y-12934460D02*
X19169700Y-12943984D01*
X19169700Y-12943984D02*
X19141129Y-12943984D01*
X19322081Y-12943984D02*
X19303033Y-12934460D01*
X19303033Y-12934460D02*
X19293510Y-12915412D01*
X19293510Y-12915412D02*
X19293510Y-12743984D01*
X19474462Y-12934460D02*
X19455414Y-12943984D01*
X19455414Y-12943984D02*
X19417319Y-12943984D01*
X19417319Y-12943984D02*
X19398271Y-12934460D01*
X19398271Y-12934460D02*
X19388748Y-12915412D01*
X19388748Y-12915412D02*
X19388748Y-12839222D01*
X19388748Y-12839222D02*
X19398271Y-12820174D01*
X19398271Y-12820174D02*
X19417319Y-12810650D01*
X19417319Y-12810650D02*
X19455414Y-12810650D01*
X19455414Y-12810650D02*
X19474462Y-12820174D01*
X19474462Y-12820174D02*
X19483986Y-12839222D01*
X19483986Y-12839222D02*
X19483986Y-12858269D01*
X19483986Y-12858269D02*
X19388748Y-12877317D01*
X19560176Y-12934460D02*
X19579224Y-12943984D01*
X19579224Y-12943984D02*
X19617319Y-12943984D01*
X19617319Y-12943984D02*
X19636367Y-12934460D01*
X19636367Y-12934460D02*
X19645891Y-12915412D01*
X19645891Y-12915412D02*
X19645891Y-12905888D01*
X19645891Y-12905888D02*
X19636367Y-12886841D01*
X19636367Y-12886841D02*
X19617319Y-12877317D01*
X19617319Y-12877317D02*
X19588748Y-12877317D01*
X19588748Y-12877317D02*
X19569700Y-12867793D01*
X19569700Y-12867793D02*
X19560176Y-12848746D01*
X19560176Y-12848746D02*
X19560176Y-12839222D01*
X19560176Y-12839222D02*
X19569700Y-12820174D01*
X19569700Y-12820174D02*
X19588748Y-12810650D01*
X19588748Y-12810650D02*
X19617319Y-12810650D01*
X19617319Y-12810650D02*
X19636367Y-12820174D01*
X19712557Y-13020174D02*
X19722081Y-13010650D01*
X19722081Y-13010650D02*
X19741129Y-12982079D01*
X19741129Y-12982079D02*
X19750652Y-12963031D01*
X19750652Y-12963031D02*
X19760176Y-12934460D01*
X19760176Y-12934460D02*
X19769700Y-12886841D01*
X19769700Y-12886841D02*
X19769700Y-12848746D01*
X19769700Y-12848746D02*
X19760176Y-12801126D01*
X19760176Y-12801126D02*
X19750652Y-12772555D01*
X19750652Y-12772555D02*
X19741129Y-12753507D01*
X19741129Y-12753507D02*
X19722081Y-12724936D01*
X19722081Y-12724936D02*
X19712557Y-12715412D01*
X20074462Y-13020174D02*
X20064938Y-13010650D01*
X20064938Y-13010650D02*
X20045891Y-12982079D01*
X20045891Y-12982079D02*
X20036367Y-12963031D01*
X20036367Y-12963031D02*
X20026843Y-12934460D01*
X20026843Y-12934460D02*
X20017319Y-12886841D01*
X20017319Y-12886841D02*
X20017319Y-12848746D01*
X20017319Y-12848746D02*
X20026843Y-12801126D01*
X20026843Y-12801126D02*
X20036367Y-12772555D01*
X20036367Y-12772555D02*
X20045891Y-12753507D01*
X20045891Y-12753507D02*
X20064938Y-12724936D01*
X20064938Y-12724936D02*
X20074462Y-12715412D01*
X20150652Y-12810650D02*
X20150652Y-12943984D01*
X20150652Y-12829698D02*
X20160176Y-12820174D01*
X20160176Y-12820174D02*
X20179224Y-12810650D01*
X20179224Y-12810650D02*
X20207795Y-12810650D01*
X20207795Y-12810650D02*
X20226843Y-12820174D01*
X20226843Y-12820174D02*
X20236367Y-12839222D01*
X20236367Y-12839222D02*
X20236367Y-12943984D01*
X20360176Y-12943984D02*
X20341129Y-12934460D01*
X20341129Y-12934460D02*
X20331605Y-12924936D01*
X20331605Y-12924936D02*
X20322081Y-12905888D01*
X20322081Y-12905888D02*
X20322081Y-12848746D01*
X20322081Y-12848746D02*
X20331605Y-12829698D01*
X20331605Y-12829698D02*
X20341129Y-12820174D01*
X20341129Y-12820174D02*
X20360176Y-12810650D01*
X20360176Y-12810650D02*
X20388748Y-12810650D01*
X20388748Y-12810650D02*
X20407795Y-12820174D01*
X20407795Y-12820174D02*
X20417319Y-12829698D01*
X20417319Y-12829698D02*
X20426843Y-12848746D01*
X20426843Y-12848746D02*
X20426843Y-12905888D01*
X20426843Y-12905888D02*
X20417319Y-12924936D01*
X20417319Y-12924936D02*
X20407795Y-12934460D01*
X20407795Y-12934460D02*
X20388748Y-12943984D01*
X20388748Y-12943984D02*
X20360176Y-12943984D01*
X20483986Y-12810650D02*
X20560176Y-12810650D01*
X20512557Y-12743984D02*
X20512557Y-12915412D01*
X20512557Y-12915412D02*
X20522081Y-12934460D01*
X20522081Y-12934460D02*
X20541129Y-12943984D01*
X20541129Y-12943984D02*
X20560176Y-12943984D01*
X20779224Y-12810650D02*
X20779224Y-13010650D01*
X20779224Y-12820174D02*
X20798272Y-12810650D01*
X20798272Y-12810650D02*
X20836367Y-12810650D01*
X20836367Y-12810650D02*
X20855414Y-12820174D01*
X20855414Y-12820174D02*
X20864938Y-12829698D01*
X20864938Y-12829698D02*
X20874462Y-12848746D01*
X20874462Y-12848746D02*
X20874462Y-12905888D01*
X20874462Y-12905888D02*
X20864938Y-12924936D01*
X20864938Y-12924936D02*
X20855414Y-12934460D01*
X20855414Y-12934460D02*
X20836367Y-12943984D01*
X20836367Y-12943984D02*
X20798272Y-12943984D01*
X20798272Y-12943984D02*
X20779224Y-12934460D01*
X20988748Y-12943984D02*
X20969700Y-12934460D01*
X20969700Y-12934460D02*
X20960176Y-12915412D01*
X20960176Y-12915412D02*
X20960176Y-12743984D01*
X21150653Y-12943984D02*
X21150653Y-12839222D01*
X21150653Y-12839222D02*
X21141129Y-12820174D01*
X21141129Y-12820174D02*
X21122081Y-12810650D01*
X21122081Y-12810650D02*
X21083986Y-12810650D01*
X21083986Y-12810650D02*
X21064938Y-12820174D01*
X21150653Y-12934460D02*
X21131605Y-12943984D01*
X21131605Y-12943984D02*
X21083986Y-12943984D01*
X21083986Y-12943984D02*
X21064938Y-12934460D01*
X21064938Y-12934460D02*
X21055414Y-12915412D01*
X21055414Y-12915412D02*
X21055414Y-12896365D01*
X21055414Y-12896365D02*
X21064938Y-12877317D01*
X21064938Y-12877317D02*
X21083986Y-12867793D01*
X21083986Y-12867793D02*
X21131605Y-12867793D01*
X21131605Y-12867793D02*
X21150653Y-12858269D01*
X21217319Y-12810650D02*
X21293510Y-12810650D01*
X21245891Y-12743984D02*
X21245891Y-12915412D01*
X21245891Y-12915412D02*
X21255414Y-12934460D01*
X21255414Y-12934460D02*
X21274462Y-12943984D01*
X21274462Y-12943984D02*
X21293510Y-12943984D01*
X21436367Y-12934460D02*
X21417319Y-12943984D01*
X21417319Y-12943984D02*
X21379224Y-12943984D01*
X21379224Y-12943984D02*
X21360176Y-12934460D01*
X21360176Y-12934460D02*
X21350653Y-12915412D01*
X21350653Y-12915412D02*
X21350653Y-12839222D01*
X21350653Y-12839222D02*
X21360176Y-12820174D01*
X21360176Y-12820174D02*
X21379224Y-12810650D01*
X21379224Y-12810650D02*
X21417319Y-12810650D01*
X21417319Y-12810650D02*
X21436367Y-12820174D01*
X21436367Y-12820174D02*
X21445891Y-12839222D01*
X21445891Y-12839222D02*
X21445891Y-12858269D01*
X21445891Y-12858269D02*
X21350653Y-12877317D01*
X21617319Y-12943984D02*
X21617319Y-12743984D01*
X21617319Y-12934460D02*
X21598272Y-12943984D01*
X21598272Y-12943984D02*
X21560176Y-12943984D01*
X21560176Y-12943984D02*
X21541129Y-12934460D01*
X21541129Y-12934460D02*
X21531605Y-12924936D01*
X21531605Y-12924936D02*
X21522081Y-12905888D01*
X21522081Y-12905888D02*
X21522081Y-12848746D01*
X21522081Y-12848746D02*
X21531605Y-12829698D01*
X21531605Y-12829698D02*
X21541129Y-12820174D01*
X21541129Y-12820174D02*
X21560176Y-12810650D01*
X21560176Y-12810650D02*
X21598272Y-12810650D01*
X21598272Y-12810650D02*
X21617319Y-12820174D01*
X21693510Y-13020174D02*
X21703034Y-13010650D01*
X21703034Y-13010650D02*
X21722081Y-12982079D01*
X21722081Y-12982079D02*
X21731605Y-12963031D01*
X21731605Y-12963031D02*
X21741129Y-12934460D01*
X21741129Y-12934460D02*
X21750653Y-12886841D01*
X21750653Y-12886841D02*
X21750653Y-12848746D01*
X21750653Y-12848746D02*
X21741129Y-12801126D01*
X21741129Y-12801126D02*
X21731605Y-12772555D01*
X21731605Y-12772555D02*
X21722081Y-12753507D01*
X21722081Y-12753507D02*
X21703034Y-12724936D01*
X21703034Y-12724936D02*
X21693510Y-12715412D01*
M02*
